<?xml version="1.0" encoding="utf-8" standalone="no"?>
<!DOCTYPE svg PUBLIC "-//W3C//DTD SVG 1.1//EN"
  "http://www.w3.org/Graphics/SVG/1.1/DTD/svg11.dtd">
<svg xmlns:xlink="http://www.w3.org/1999/xlink" width="50.4pt" height="50.4pt" viewBox="0 0 50.4 50.4" xmlns="http://www.w3.org/2000/svg" version="1.1">
 <metadata>
  <rdf:RDF xmlns:dc="http://purl.org/dc/elements/1.1/" xmlns:cc="http://creativecommons.org/ns#" xmlns:rdf="http://www.w3.org/1999/02/22-rdf-syntax-ns#">
   <cc:Work>
    <dc:type rdf:resource="http://purl.org/dc/dcmitype/StillImage"/>
    <dc:date>2024-06-21T12:51:24.638849</dc:date>
    <dc:format>image/svg+xml</dc:format>
    <dc:creator>
     <cc:Agent>
      <dc:title>Matplotlib v3.8.1, https://matplotlib.org/</dc:title>
     </cc:Agent>
    </dc:creator>
   </cc:Work>
  </rdf:RDF>
 </metadata>
 <defs>
  <style type="text/css">*{stroke-linejoin: round; stroke-linecap: butt}</style>
 </defs>
 <g id="figure_1">
  <g id="patch_1">
   <path d="M 0 50.4 
L 50.4 50.4 
L 50.4 0 
L 0 0 
z
" style="fill: #ffffff"/>
  </g>
  <g id="axes_1">
   <g id="patch_2">
    <path d="M 6.3 44.856 
L 45.36 44.856 
L 45.36 6.048 
L 6.3 6.048 
z
" style="fill: #ffffff"/>
   </g>
   <g id="matplotlib.axis_1">
    <g id="xtick_1">
     <g id="line2d_1">
      <path d="M 16.065 44.856 
L 16.065 6.048 
" clip-path="url(#p824e3a2928)" style="fill: none; stroke: #cccccc; stroke-linecap: round"/>
     </g>
     <g id="text_1">
      <text style="fill: #262626; font: 8px 'Arial'; text-anchor: middle" x="16.065" y="57.58225" transform="rotate(-0 16.065 57.58225)">R</text>
     </g>
    </g>
    <g id="xtick_2">
     <g id="line2d_2">
      <path d="M 35.595 44.856 
L 35.595 6.048 
" clip-path="url(#p824e3a2928)" style="fill: none; stroke: #cccccc; stroke-linecap: round"/>
     </g>
     <g id="text_2">
      <text style="fill: #262626; font: 8px 'Arial'; text-anchor: middle" x="35.595" y="57.58225" transform="rotate(-0 35.595 57.58225)">S</text>
     </g>
    </g>
    <g id="text_3">
     <text style="fill: #262626; font: 8px 'Arial'; text-anchor: middle" x="25.83" y="68.8985" transform="rotate(-0 25.83 68.8985)">Prediction</text>
    </g>
   </g>
   <g id="matplotlib.axis_2">
    <g id="ytick_1">
     <g id="line2d_3">
      <path d="M 6.3 15.75 
L 45.36 15.75 
" clip-path="url(#p824e3a2928)" style="fill: none; stroke: #cccccc; stroke-linecap: round"/>
     </g>
     <g id="text_4">
      <text style="fill: #262626; font: 8px 'Arial'; text-anchor: end" x="-0.7" y="17.818125" transform="rotate(-0 -0.7 17.818125)">R</text>
     </g>
    </g>
    <g id="ytick_2">
     <g id="line2d_4">
      <path d="M 6.3 35.154 
L 45.36 35.154 
" clip-path="url(#p824e3a2928)" style="fill: none; stroke: #cccccc; stroke-linecap: round"/>
     </g>
     <g id="text_5">
      <text style="fill: #262626; font: 8px 'Arial'; text-anchor: end" x="-0.7" y="37.222125" transform="rotate(-0 -0.7 37.222125)">S</text>
     </g>
    </g>
    <g id="text_6">
     <text style="fill: #262626; font: 8px 'Arial'; text-anchor: middle" x="-12.16125" y="25.452" transform="rotate(-90 -12.16125 25.452)">Phenotype</text>
    </g>
   </g>
   <g id="QuadMesh_1">
    <path d="M 6.3 6.048 
L 25.83 6.048 
L 25.83 25.452 
L 6.3 25.452 
L 6.3 6.048 
" clip-path="url(#p824e3a2928)" style="fill: #08306b"/>
    <path d="M 25.83 6.048 
L 45.36 6.048 
L 45.36 25.452 
L 25.83 25.452 
L 25.83 6.048 
" clip-path="url(#p824e3a2928)" style="fill: #f3f8fe"/>
    <path d="M 6.3 25.452 
L 25.83 25.452 
L 25.83 44.856 
L 6.3 44.856 
L 6.3 25.452 
" clip-path="url(#p824e3a2928)" style="fill: #e0ecf8"/>
    <path d="M 25.83 25.452 
L 45.36 25.452 
L 45.36 44.856 
L 25.83 44.856 
L 25.83 25.452 
" clip-path="url(#p824e3a2928)" style="fill: #f7fbff"/>
   </g>
   <g id="text_7">
    <text style="fill: #ffffff; font: 8px 'Arial'; text-anchor: middle" x="16.065" y="17.818125" transform="rotate(-0 16.065 17.818125)">45</text>
   </g>
   <g id="text_8">
    <text style="fill: #262626; font: 8px 'Arial'; text-anchor: middle" x="35.595" y="17.818125" transform="rotate(-0 35.595 17.818125)">3</text>
   </g>
   <g id="text_9">
    <text style="fill: #262626; font: 8px 'Arial'; text-anchor: middle" x="16.065" y="37.222125" transform="rotate(-0 16.065 37.222125)">7</text>
   </g>
   <g id="text_10">
    <text style="fill: #262626; font: 8px 'Arial'; text-anchor: middle" x="35.595" y="37.222125" transform="rotate(-0 35.595 37.222125)">2</text>
   </g>
   <g id="text_11">
    <text style="fill: #262626; font: 8px 'Arial'" transform="translate(6.9325 -8.4135)">Acc.: 0.58 </text>
    <text style="fill: #262626; font: 8px 'Arial'" transform="translate(5.6025 0.048)"> MCC: 0.21</text>
   </g>
  </g>
 </g>
 <defs>
  <clipPath id="p824e3a2928">
   <rect x="6.3" y="6.048" width="39.06" height="38.808"/>
  </clipPath>
 </defs>
</svg>
