<?xml version="1.0" encoding="utf-8" standalone="no"?>
<!DOCTYPE svg PUBLIC "-//W3C//DTD SVG 1.1//EN"
  "http://www.w3.org/Graphics/SVG/1.1/DTD/svg11.dtd">
<svg xmlns:xlink="http://www.w3.org/1999/xlink" width="108pt" height="108pt" viewBox="0 0 108 108" xmlns="http://www.w3.org/2000/svg" version="1.1">
 <metadata>
  <rdf:RDF xmlns:dc="http://purl.org/dc/elements/1.1/" xmlns:cc="http://creativecommons.org/ns#" xmlns:rdf="http://www.w3.org/1999/02/22-rdf-syntax-ns#">
   <cc:Work>
    <dc:type rdf:resource="http://purl.org/dc/dcmitype/StillImage"/>
    <dc:date>2024-04-24T13:44:23.508807</dc:date>
    <dc:format>image/svg+xml</dc:format>
    <dc:creator>
     <cc:Agent>
      <dc:title>Matplotlib v3.8.1, https://matplotlib.org/</dc:title>
     </cc:Agent>
    </dc:creator>
   </cc:Work>
  </rdf:RDF>
 </metadata>
 <defs>
  <style type="text/css">*{stroke-linejoin: round; stroke-linecap: butt}</style>
 </defs>
 <g id="figure_1">
  <g id="patch_1">
   <path d="M 0 108 
L 108 108 
L 108 0 
L 0 0 
z
" style="fill: #ffffff"/>
  </g>
  <g id="axes_1">
   <g id="patch_2">
    <path d="M 13.5 96.12 
L 97.2 96.12 
L 97.2 12.96 
L 13.5 12.96 
z
" style="fill: #ffffff"/>
   </g>
   <g id="matplotlib.axis_1">
    <g id="xtick_1">
     <g id="line2d_1">
      <path d="M 39.420952 96.12 
L 39.420952 12.96 
" clip-path="url(#pd69573f0a6)" style="fill: none; stroke: #cccccc; stroke-linecap: round"/>
     </g>
     <g id="text_1">
      <!-- $\mathdefault{10^{-2}}$ -->
      <g style="fill: #262626" transform="translate(31.500952 111.37)">
       <text>
        <tspan style="font: 8px 'Arial'" x="0 4.449219" y="-0.39949999999999974">10</tspan>
        <tspan style="font: 5.6px 'Arial'" x="9.037825 12.308137" y="-5.975">−2</tspan>
       </text>
      </g>
     </g>
    </g>
    <g id="xtick_2"/>
    <g id="xtick_3"/>
    <g id="xtick_4"/>
    <g id="xtick_5"/>
    <g id="xtick_6"/>
    <g id="xtick_7"/>
    <g id="xtick_8"/>
    <g id="xtick_9"/>
    <g id="xtick_10"/>
    <g id="text_2">
     <text style="fill: #262626; font: 8px 'Arial', 'DejaVu Sans', 'Liberation Sans', 'Bitstream Vera Sans', sans-serif; text-anchor: middle" x="55.35" y="122.78375" transform="rotate(-0 55.35 122.78375)">Allele frequency in pool</text>
    </g>
   </g>
   <g id="matplotlib.axis_2">
    <g id="ytick_1">
     <g id="line2d_2">
      <path d="M 13.5 78.473585 
L 97.2 78.473585 
" clip-path="url(#pd69573f0a6)" style="fill: none; stroke: #cccccc; stroke-linecap: round"/>
     </g>
     <g id="text_3">
      <!-- $\mathdefault{10^{-4}}$ -->
      <g style="fill: #262626" transform="translate(-9.34 82.558585)">
       <text>
        <tspan style="font: 8px 'Arial'" x="0 4.449219" y="-0.41043750000000045">10</tspan>
        <tspan style="font: 5.6px 'Arial'" x="9.037825 12.308137" y="-5.9859375">−4</tspan>
       </text>
      </g>
     </g>
    </g>
    <g id="ytick_2">
     <g id="line2d_3">
      <path d="M 13.5 57.975802 
L 97.2 57.975802 
" clip-path="url(#pd69573f0a6)" style="fill: none; stroke: #cccccc; stroke-linecap: round"/>
     </g>
     <g id="text_4">
      <!-- $\mathdefault{10^{-3}}$ -->
      <g style="fill: #262626" transform="translate(-9.34 62.100802)">
       <text>
        <tspan style="font: 8px 'Arial'" x="0 4.449219" y="-0.39949999999999974">10</tspan>
        <tspan style="font: 5.6px 'Arial'" x="9.037825 12.308137" y="-5.975">−3</tspan>
       </text>
      </g>
     </g>
    </g>
    <g id="ytick_3">
     <g id="line2d_4">
      <path d="M 13.5 37.478019 
L 97.2 37.478019 
" clip-path="url(#pd69573f0a6)" style="fill: none; stroke: #cccccc; stroke-linecap: round"/>
     </g>
     <g id="text_5">
      <!-- $\mathdefault{10^{-2}}$ -->
      <g style="fill: #262626" transform="translate(-9.34 41.603019)">
       <text>
        <tspan style="font: 8px 'Arial'" x="0 4.449219" y="-0.39949999999999974">10</tspan>
        <tspan style="font: 5.6px 'Arial'" x="9.037825 12.308137" y="-5.975">−2</tspan>
       </text>
      </g>
     </g>
    </g>
    <g id="ytick_4">
     <g id="line2d_5">
      <path d="M 13.5 16.980237 
L 97.2 16.980237 
" clip-path="url(#pd69573f0a6)" style="fill: none; stroke: #cccccc; stroke-linecap: round"/>
     </g>
     <g id="text_6">
      <!-- $\mathdefault{10^{-1}}$ -->
      <g style="fill: #262626" transform="translate(-9.34 21.105237)">
       <text>
        <tspan style="font: 8px 'Arial'" x="0 4.449219" y="-0.39949999999999974">10</tspan>
        <tspan style="font: 5.6px 'Arial'" x="9.037825 12.308137" y="-5.975">−1</tspan>
       </text>
      </g>
     </g>
    </g>
    <g id="ytick_5"/>
    <g id="ytick_6"/>
    <g id="ytick_7"/>
    <g id="ytick_8"/>
    <g id="ytick_9"/>
    <g id="ytick_10"/>
    <g id="ytick_11"/>
    <g id="ytick_12"/>
    <g id="ytick_13"/>
    <g id="ytick_14"/>
    <g id="ytick_15"/>
    <g id="ytick_16"/>
    <g id="ytick_17"/>
    <g id="ytick_18"/>
    <g id="ytick_19"/>
    <g id="ytick_20"/>
    <g id="ytick_21"/>
    <g id="ytick_22"/>
    <g id="ytick_23"/>
    <g id="ytick_24"/>
    <g id="ytick_25"/>
    <g id="ytick_26"/>
    <g id="ytick_27"/>
    <g id="ytick_28"/>
    <g id="ytick_29"/>
    <g id="ytick_30"/>
    <g id="ytick_31"/>
    <g id="ytick_32"/>
    <g id="ytick_33"/>
    <g id="ytick_34"/>
    <g id="ytick_35"/>
    <g id="ytick_36"/>
    <g id="text_7">
     <text style="fill: #262626; font: 8px 'Arial', 'DejaVu Sans', 'Liberation Sans', 'Bitstream Vera Sans', sans-serif" transform="translate(-23.60225 82.999375) rotate(-90)">Allele frequency</text>
     <text style="fill: #262626; font: 8px 'Arial', 'DejaVu Sans', 'Liberation Sans', 'Bitstream Vera Sans', sans-serif" transform="translate(-14.93 77.4375) rotate(-90)">in DMS input</text>
    </g>
   </g>
   <g id="PathCollection_1">
    <defs>
     <path id="m151ad1266c" d="M 0 3 
C 0.795609 3 1.55874 2.683901 2.12132 2.12132 
C 2.683901 1.55874 3 0.795609 3 0 
C 3 -0.795609 2.683901 -1.55874 2.12132 -2.12132 
C 1.55874 -2.683901 0.795609 -3 0 -3 
C -0.795609 -3 -1.55874 -2.683901 -2.12132 -2.12132 
C -2.683901 -1.55874 -3 -0.795609 -3 0 
C -3 0.795609 -2.683901 1.55874 -2.12132 2.12132 
C -1.55874 2.683901 -0.795609 3 0 3 
z
" style="stroke: #ffffff; stroke-opacity: 0.2; stroke-width: 0.48"/>
    </defs>
    <g clip-path="url(#pd69573f0a6)">
     <use xlink:href="#m151ad1266c" x="58.338971" y="53.051103" style="fill: #87ceeb; fill-opacity: 0.2; stroke: #ffffff; stroke-opacity: 0.2; stroke-width: 0.48"/>
     <use xlink:href="#m151ad1266c" x="59.178726" y="68.130161" style="fill: #87ceeb; fill-opacity: 0.2; stroke: #ffffff; stroke-opacity: 0.2; stroke-width: 0.48"/>
     <use xlink:href="#m151ad1266c" x="71.701617" y="79.555185" style="fill: #87ceeb; fill-opacity: 0.2; stroke: #ffffff; stroke-opacity: 0.2; stroke-width: 0.48"/>
     <use xlink:href="#m151ad1266c" x="42.829149" y="44.533714" style="fill: #87ceeb; fill-opacity: 0.2; stroke: #ffffff; stroke-opacity: 0.2; stroke-width: 0.48"/>
     <use xlink:href="#m151ad1266c" x="51.858409" y="68.847769" style="fill: #87ceeb; fill-opacity: 0.2; stroke: #ffffff; stroke-opacity: 0.2; stroke-width: 0.48"/>
     <use xlink:href="#m151ad1266c" x="54.044818" y="47.894215" style="fill: #87ceeb; fill-opacity: 0.2; stroke: #ffffff; stroke-opacity: 0.2; stroke-width: 0.48"/>
     <use xlink:href="#m151ad1266c" x="50.166701" y="45.18828" style="fill: #87ceeb; fill-opacity: 0.2; stroke: #ffffff; stroke-opacity: 0.2; stroke-width: 0.48"/>
     <use xlink:href="#m151ad1266c" x="50.395401" y="49.648256" style="fill: #87ceeb; fill-opacity: 0.2; stroke: #ffffff; stroke-opacity: 0.2; stroke-width: 0.48"/>
     <use xlink:href="#m151ad1266c" x="53.447809" y="46.082222" style="fill: #87ceeb; fill-opacity: 0.2; stroke: #ffffff; stroke-opacity: 0.2; stroke-width: 0.48"/>
     <use xlink:href="#m151ad1266c" x="76.365705" y="44.955188" style="fill: #87ceeb; fill-opacity: 0.2; stroke: #ffffff; stroke-opacity: 0.2; stroke-width: 0.48"/>
     <use xlink:href="#m151ad1266c" x="44.101063" y="50.3848" style="fill: #87ceeb; fill-opacity: 0.2; stroke: #ffffff; stroke-opacity: 0.2; stroke-width: 0.48"/>
     <use xlink:href="#m151ad1266c" x="47.673045" y="75.292203" style="fill: #87ceeb; fill-opacity: 0.2; stroke: #ffffff; stroke-opacity: 0.2; stroke-width: 0.48"/>
     <use xlink:href="#m151ad1266c" x="53.14818" y="54.643241" style="fill: #87ceeb; fill-opacity: 0.2; stroke: #ffffff; stroke-opacity: 0.2; stroke-width: 0.48"/>
     <use xlink:href="#m151ad1266c" x="72.624695" y="35.299199" style="fill: #87ceeb; fill-opacity: 0.2; stroke: #ffffff; stroke-opacity: 0.2; stroke-width: 0.48"/>
     <use xlink:href="#m151ad1266c" x="67.941191" y="53.262146" style="fill: #87ceeb; fill-opacity: 0.2; stroke: #ffffff; stroke-opacity: 0.2; stroke-width: 0.48"/>
     <use xlink:href="#m151ad1266c" x="44.141789" y="50.827288" style="fill: #87ceeb; fill-opacity: 0.2; stroke: #ffffff; stroke-opacity: 0.2; stroke-width: 0.48"/>
     <use xlink:href="#m151ad1266c" x="70.468585" y="40.040718" style="fill: #87ceeb; fill-opacity: 0.2; stroke: #ffffff; stroke-opacity: 0.2; stroke-width: 0.48"/>
     <use xlink:href="#m151ad1266c" x="53.063622" y="48.84262" style="fill: #87ceeb; fill-opacity: 0.2; stroke: #ffffff; stroke-opacity: 0.2; stroke-width: 0.48"/>
     <use xlink:href="#m151ad1266c" x="68.540957" y="51.374507" style="fill: #87ceeb; fill-opacity: 0.2; stroke: #ffffff; stroke-opacity: 0.2; stroke-width: 0.48"/>
     <use xlink:href="#m151ad1266c" x="49.189924" y="55.36207" style="fill: #87ceeb; fill-opacity: 0.2; stroke: #ffffff; stroke-opacity: 0.2; stroke-width: 0.48"/>
     <use xlink:href="#m151ad1266c" x="67.839665" y="40.708708" style="fill: #87ceeb; fill-opacity: 0.2; stroke: #ffffff; stroke-opacity: 0.2; stroke-width: 0.48"/>
     <use xlink:href="#m151ad1266c" x="54.449258" y="42.144661" style="fill: #87ceeb; fill-opacity: 0.2; stroke: #ffffff; stroke-opacity: 0.2; stroke-width: 0.48"/>
     <use xlink:href="#m151ad1266c" x="55.497769" y="47.605626" style="fill: #87ceeb; fill-opacity: 0.2; stroke: #ffffff; stroke-opacity: 0.2; stroke-width: 0.48"/>
     <use xlink:href="#m151ad1266c" x="68.392815" y="52.433711" style="fill: #87ceeb; fill-opacity: 0.2; stroke: #ffffff; stroke-opacity: 0.2; stroke-width: 0.48"/>
     <use xlink:href="#m151ad1266c" x="62.788519" y="71.497892" style="fill: #87ceeb; fill-opacity: 0.2; stroke: #ffffff; stroke-opacity: 0.2; stroke-width: 0.48"/>
     <use xlink:href="#m151ad1266c" x="52.691321" y="45.892834" style="fill: #87ceeb; fill-opacity: 0.2; stroke: #ffffff; stroke-opacity: 0.2; stroke-width: 0.48"/>
     <use xlink:href="#m151ad1266c" x="60.164644" y="47.974185" style="fill: #87ceeb; fill-opacity: 0.2; stroke: #ffffff; stroke-opacity: 0.2; stroke-width: 0.48"/>
     <use xlink:href="#m151ad1266c" x="61.582023" y="39.567241" style="fill: #87ceeb; fill-opacity: 0.2; stroke: #ffffff; stroke-opacity: 0.2; stroke-width: 0.48"/>
     <use xlink:href="#m151ad1266c" x="63.712764" y="44.002468" style="fill: #87ceeb; fill-opacity: 0.2; stroke: #ffffff; stroke-opacity: 0.2; stroke-width: 0.48"/>
     <use xlink:href="#m151ad1266c" x="47.127873" y="52.708749" style="fill: #87ceeb; fill-opacity: 0.2; stroke: #ffffff; stroke-opacity: 0.2; stroke-width: 0.48"/>
     <use xlink:href="#m151ad1266c" x="64.3868" y="70.535842" style="fill: #87ceeb; fill-opacity: 0.2; stroke: #ffffff; stroke-opacity: 0.2; stroke-width: 0.48"/>
     <use xlink:href="#m151ad1266c" x="66.401894" y="37.446895" style="fill: #87ceeb; fill-opacity: 0.2; stroke: #ffffff; stroke-opacity: 0.2; stroke-width: 0.48"/>
     <use xlink:href="#m151ad1266c" x="52.206904" y="44.295361" style="fill: #87ceeb; fill-opacity: 0.2; stroke: #ffffff; stroke-opacity: 0.2; stroke-width: 0.48"/>
     <use xlink:href="#m151ad1266c" x="58.421101" y="46.097718" style="fill: #87ceeb; fill-opacity: 0.2; stroke: #ffffff; stroke-opacity: 0.2; stroke-width: 0.48"/>
     <use xlink:href="#m151ad1266c" x="63.400707" y="46.78905" style="fill: #87ceeb; fill-opacity: 0.2; stroke: #ffffff; stroke-opacity: 0.2; stroke-width: 0.48"/>
     <use xlink:href="#m151ad1266c" x="54.535697" y="39.420142" style="fill: #87ceeb; fill-opacity: 0.2; stroke: #ffffff; stroke-opacity: 0.2; stroke-width: 0.48"/>
     <use xlink:href="#m151ad1266c" x="43.234963" y="38.909425" style="fill: #87ceeb; fill-opacity: 0.2; stroke: #ffffff; stroke-opacity: 0.2; stroke-width: 0.48"/>
     <use xlink:href="#m151ad1266c" x="50.80906" y="45.836909" style="fill: #87ceeb; fill-opacity: 0.2; stroke: #ffffff; stroke-opacity: 0.2; stroke-width: 0.48"/>
     <use xlink:href="#m151ad1266c" x="45.947592" y="53.150771" style="fill: #87ceeb; fill-opacity: 0.2; stroke: #ffffff; stroke-opacity: 0.2; stroke-width: 0.48"/>
     <use xlink:href="#m151ad1266c" x="69.134248" y="42.750694" style="fill: #87ceeb; fill-opacity: 0.2; stroke: #ffffff; stroke-opacity: 0.2; stroke-width: 0.48"/>
     <use xlink:href="#m151ad1266c" x="44.418855" y="41.088996" style="fill: #87ceeb; fill-opacity: 0.2; stroke: #ffffff; stroke-opacity: 0.2; stroke-width: 0.48"/>
     <use xlink:href="#m151ad1266c" x="29.083426" y="68.051407" style="fill: #87ceeb; fill-opacity: 0.2; stroke: #ffffff; stroke-opacity: 0.2; stroke-width: 0.48"/>
     <use xlink:href="#m151ad1266c" x="54.63206" y="42.075798" style="fill: #87ceeb; fill-opacity: 0.2; stroke: #ffffff; stroke-opacity: 0.2; stroke-width: 0.48"/>
     <use xlink:href="#m151ad1266c" x="47.91814" y="42.150965" style="fill: #87ceeb; fill-opacity: 0.2; stroke: #ffffff; stroke-opacity: 0.2; stroke-width: 0.48"/>
     <use xlink:href="#m151ad1266c" x="48.439495" y="42.032432" style="fill: #87ceeb; fill-opacity: 0.2; stroke: #ffffff; stroke-opacity: 0.2; stroke-width: 0.48"/>
     <use xlink:href="#m151ad1266c" x="47.109141" y="45.481173" style="fill: #87ceeb; fill-opacity: 0.2; stroke: #ffffff; stroke-opacity: 0.2; stroke-width: 0.48"/>
     <use xlink:href="#m151ad1266c" x="52.092926" y="45.797262" style="fill: #87ceeb; fill-opacity: 0.2; stroke: #ffffff; stroke-opacity: 0.2; stroke-width: 0.48"/>
    </g>
   </g>
   <g id="PathCollection_2">
    <defs>
     <path id="m9e31d18fa6" d="M 0 3 
C 0.795609 3 1.55874 2.683901 2.12132 2.12132 
C 2.683901 1.55874 3 0.795609 3 0 
C 3 -0.795609 2.683901 -1.55874 2.12132 -2.12132 
C 1.55874 -2.683901 0.795609 -3 0 -3 
C -0.795609 -3 -1.55874 -2.683901 -2.12132 -2.12132 
C -2.683901 -1.55874 -3 -0.795609 -3 0 
C -3 0.795609 -2.683901 1.55874 -2.12132 2.12132 
C -1.55874 2.683901 -0.795609 3 0 3 
z
" style="stroke: #ffffff; stroke-width: 0.48"/>
    </defs>
    <g clip-path="url(#pd69573f0a6)">
     <use xlink:href="#m9e31d18fa6" x="49.681634" y="16.92" style="stroke: #ffffff; stroke-width: 0.48"/>
    </g>
   </g>
   <g id="QuadContourSet_1">
    <path d="M 70.267211 85.263493 
L 70.661427 85.304562 
L 71.055644 85.319682 
L 71.449861 85.308431 
L 71.844077 85.270348 
L 72.079093 85.231572 
L 72.238294 85.204116 
L 72.632511 85.107896 
L 73.026728 84.982116 
L 73.379616 84.842699 
L 73.420944 84.825293 
L 73.815161 84.630415 
L 74.122124 84.453827 
L 74.209378 84.399461 
L 74.603595 84.123603 
L 74.679705 84.064954 
L 74.997811 83.795421 
L 75.127785 83.676082 
L 75.392028 83.405879 
L 75.501328 83.287209 
L 75.786245 82.938245 
L 75.817507 82.898337 
L 76.086575 82.509465 
L 76.180462 82.352618 
L 76.31674 82.120592 
L 76.51203 81.73172 
L 76.574678 81.583853 
L 76.677015 81.342847 
L 76.813632 80.953975 
L 76.923341 80.565102 
L 76.968895 80.355468 
L 77.008931 80.17623 
L 77.071469 79.787357 
L 77.110961 79.398485 
L 77.128209 79.009613 
L 77.123745 78.62074 
L 77.097857 78.231868 
L 77.050622 77.842995 
L 76.981927 77.454123 
L 76.968895 77.396283 
L 76.894048 77.06525 
L 76.785545 76.676378 
L 76.655693 76.287505 
L 76.574678 76.07534 
L 76.506495 75.898633 
L 76.339416 75.509761 
L 76.180462 75.177829 
L 76.15291 75.120888 
L 75.953338 74.732016 
L 75.786245 74.429754 
L 75.738153 74.343143 
L 75.514827 73.954271 
L 75.392028 73.748177 
L 75.283852 73.565398 
L 75.049259 73.176526 
L 74.997811 73.091397 
L 74.818063 72.787654 
L 74.603595 72.427593 
L 74.586958 72.398781 
L 74.368049 72.009909 
L 74.209378 71.725556 
L 74.153566 71.621036 
L 73.952099 71.232164 
L 73.815161 70.962813 
L 73.757514 70.843291 
L 73.576162 70.454419 
L 73.420944 70.11625 
L 73.398942 70.065546 
L 73.236666 69.676674 
L 73.07605 69.287802 
L 73.026728 69.164342 
L 72.926216 68.898929 
L 72.781997 68.510057 
L 72.639262 68.121184 
L 72.632511 68.101734 
L 72.509983 67.732312 
L 72.384257 67.343439 
L 72.26307 66.954567 
L 72.238294 66.8671 
L 72.155855 66.565694 
L 72.059633 66.176822 
L 71.976023 65.78795 
L 71.909433 65.399077 
L 71.864947 65.010205 
L 71.848057 64.621332 
L 71.864229 64.23246 
L 71.918318 63.843587 
L 72.013888 63.454715 
L 72.152558 63.065842 
L 72.238294 62.880521 
L 72.33853 62.67697 
L 72.568219 62.288098 
L 72.632511 62.193338 
L 72.839632 61.899225 
L 73.026728 61.656468 
L 73.142402 61.510353 
L 73.420944 61.177659 
L 73.468866 61.12148 
L 73.810793 60.732608 
L 73.815161 60.727744 
L 74.162313 60.343735 
L 74.209378 60.291528 
L 74.514606 59.954863 
L 74.603595 59.854941 
L 74.86278 59.56599 
L 74.997811 59.410819 
L 75.203331 59.177118 
L 75.392028 58.953666 
L 75.533874 58.788246 
L 75.786245 58.479203 
L 75.852825 58.399373 
L 76.160844 58.010501 
L 76.180462 57.984511 
L 76.462498 57.621628 
L 76.574678 57.467788 
L 76.752396 57.232756 
L 76.968895 56.926859 
L 77.030215 56.843883 
L 77.301885 56.455011 
L 77.363112 56.362088 
L 77.568515 56.066139 
L 77.757329 55.774935 
L 77.824429 55.677266 
L 78.077385 55.288394 
L 78.151545 55.167747 
L 78.327425 54.899521 
L 78.545762 54.544291 
L 78.567907 54.510649 
L 78.812675 54.121776 
L 78.939979 53.907076 
L 79.050983 53.732904 
L 79.285519 53.344031 
L 79.334196 53.259351 
L 79.522482 52.955159 
L 79.728412 52.601144 
L 79.750255 52.566287 
L 79.982883 52.177414 
L 80.122629 51.928691 
L 80.2074 51.788542 
L 80.429353 51.399669 
L 80.516846 51.236621 
L 80.647145 51.010797 
L 80.856401 50.621924 
L 80.911062 50.513442 
L 81.062841 50.233052 
L 81.256974 49.844179 
L 81.305279 49.739873 
L 81.44687 49.455307 
L 81.623614 49.066435 
L 81.699496 48.883691 
L 81.791618 48.677562 
L 81.949197 48.28869 
L 82.090171 47.899817 
L 82.093713 47.88895 
L 82.227004 47.510945 
L 82.34786 47.122072 
L 82.453424 46.7332 
L 82.487929 46.586375 
L 82.55 46.344327 
L 82.634912 45.955455 
L 82.705698 45.566583 
L 82.76311 45.17771 
L 82.807811 44.788838 
L 82.840388 44.399965 
L 82.861356 44.011093 
L 82.871174 43.62222 
L 82.870244 43.233348 
L 82.858923 42.844476 
L 82.837521 42.455603 
L 82.806308 42.066731 
L 82.765516 41.677858 
L 82.715335 41.288986 
L 82.655914 40.900113 
L 82.587356 40.511241 
L 82.509714 40.122368 
L 82.487929 40.021729 
L 82.42935 39.733496 
L 82.343079 39.344624 
L 82.2487 38.955751 
L 82.14603 38.566879 
L 82.093713 38.37943 
L 82.040634 38.178006 
L 81.932567 37.789134 
L 81.816238 37.400261 
L 81.699496 37.03641 
L 81.691869 37.011389 
L 81.570418 36.622516 
L 81.439664 36.233644 
L 81.305279 35.862307 
L 81.299198 35.844772 
L 81.161234 35.455899 
L 81.011558 35.067027 
L 80.911062 34.821276 
L 80.854311 34.678154 
L 80.692546 34.289282 
L 80.516846 33.904387 
L 80.515065 33.900409 
L 80.336236 33.511537 
L 80.138012 33.122664 
L 80.122629 33.093406 
L 79.934028 32.733792 
L 79.728412 32.378674 
L 79.70871 32.34492 
L 79.472676 31.956047 
L 79.334196 31.745057 
L 79.214608 31.567175 
L 78.939979 31.188183 
L 78.932555 31.178302 
L 78.629534 30.78943 
L 78.545762 30.687848 
L 78.295619 30.400557 
L 78.151545 30.242717 
L 77.925835 30.011685 
L 77.757329 29.845113 
L 77.513156 29.622813 
L 77.363112 29.489223 
L 77.047044 29.23394 
L 76.968895 29.171422 
L 76.574678 28.885665 
L 76.512601 28.845068 
L 76.180462 28.625732 
L 75.884761 28.456195 
L 75.786245 28.398412 
L 75.392028 28.191295 
L 75.117226 28.067323 
L 74.997811 28.011139 
L 74.603595 27.847066 
L 74.209378 27.709516 
L 74.107067 27.67845 
L 73.815161 27.583665 
L 73.420944 27.475862 
L 73.026728 27.387327 
L 72.632511 27.315743 
L 72.453536 27.289578 
L 72.238294 27.254883 
L 71.844077 27.205655 
L 71.449861 27.170342 
L 71.055644 27.147781 
L 70.661427 27.137037 
L 70.267211 27.137361 
L 69.872994 27.148163 
L 69.478777 27.16899 
L 69.08456 27.199503 
L 68.690344 27.23946 
L 68.296127 27.288704 
L 68.290177 27.289578 
L 67.90191 27.339226 
L 67.507693 27.397324 
L 67.113477 27.463055 
L 66.71926 27.536364 
L 66.325043 27.617192 
L 66.049739 27.67845 
L 65.930826 27.701701 
L 65.53661 27.783751 
L 65.142393 27.8715 
L 64.748176 27.964615 
L 64.353959 28.062652 
L 64.335545 28.067323 
L 63.959743 28.151207 
L 63.565526 28.241792 
L 63.171309 28.334266 
L 62.777092 28.42771 
L 62.655051 28.456195 
L 62.382876 28.511831 
L 61.988659 28.590544 
L 61.594442 28.666856 
L 61.200226 28.739779 
L 60.806009 28.808384 
L 60.577167 28.845068 
L 60.411792 28.867947 
L 60.017575 28.917049 
L 59.623359 28.960602 
L 59.229142 28.998433 
L 58.834925 29.030559 
L 58.440708 29.057181 
L 58.046492 29.078658 
L 57.652275 29.095477 
L 57.258058 29.108219 
L 56.863841 29.117519 
L 56.469625 29.124031 
L 56.075408 29.128396 
L 55.681191 29.131218 
L 55.286974 29.133046 
L 54.892758 29.13436 
L 54.498541 29.135566 
L 54.104324 29.136999 
L 53.710107 29.138921 
L 53.315891 29.141534 
L 52.921674 29.144986 
L 52.527457 29.149382 
L 52.13324 29.154802 
L 51.739024 29.161309 
L 51.344807 29.168964 
L 50.95059 29.177841 
L 50.556374 29.188043 
L 50.162157 29.199707 
L 49.76794 29.213024 
L 49.373723 29.228242 
L 49.244547 29.23394 
L 48.979507 29.243821 
L 48.58529 29.260709 
L 48.191073 29.280217 
L 47.796856 29.302828 
L 47.40264 29.329104 
L 47.008423 29.359694 
L 46.614206 29.395337 
L 46.219989 29.436877 
L 45.825773 29.485271 
L 45.431556 29.541606 
L 45.037339 29.607126 
L 44.95429 29.622813 
L 44.643122 29.674296 
L 44.248906 29.749583 
L 43.854689 29.836928 
L 43.460472 29.938221 
L 43.210003 30.011685 
L 43.066255 30.049464 
L 42.672039 30.166414 
L 42.277822 30.302154 
L 42.026787 30.400557 
L 41.883605 30.451866 
L 41.489389 30.610516 
L 41.107442 30.78943 
L 41.095172 30.79477 
L 40.700955 30.982861 
L 40.34867 31.178302 
L 40.306738 31.200271 
L 39.912522 31.427166 
L 39.697949 31.567175 
L 39.518305 31.679737 
L 39.128171 31.956047 
L 39.124088 31.958857 
L 38.729871 32.253372 
L 38.619332 32.34492 
L 38.335655 32.577215 
L 38.161436 32.733792 
L 37.941438 32.931659 
L 37.745819 33.122664 
L 37.547221 33.319111 
L 37.36609 33.511537 
L 37.153004 33.74375 
L 37.017718 33.900409 
L 36.758788 34.211974 
L 36.697686 34.289282 
L 36.401682 34.678154 
L 36.364571 34.728718 
L 36.125 35.067027 
L 35.970354 35.301502 
L 35.871098 35.455899 
L 35.635796 35.844772 
L 35.576137 35.948812 
L 35.414702 36.233644 
L 35.213892 36.622516 
L 35.181921 36.687449 
L 35.022098 37.011389 
L 34.848773 37.400261 
L 34.787704 37.546924 
L 34.685297 37.789134 
L 34.534262 38.178006 
L 34.399607 38.566879 
L 34.393487 38.585472 
L 34.26768 38.955751 
L 34.149527 39.344624 
L 34.04433 39.733496 
L 33.99927 39.915189 
L 33.945403 40.122368 
L 33.853134 40.511241 
L 33.771447 40.900113 
L 33.699382 41.288986 
L 33.636093 41.677858 
L 33.605054 41.891971 
L 33.577944 42.066731 
L 33.524318 42.455603 
L 33.47825 42.844476 
L 33.439166 43.233348 
L 33.406562 43.62222 
L 33.379993 44.011093 
L 33.359071 44.399965 
L 33.343457 44.788838 
L 33.332863 45.17771 
L 33.327045 45.566583 
L 33.325803 45.955455 
L 33.32898 46.344327 
L 33.33646 46.7332 
L 33.348168 47.122072 
L 33.364069 47.510945 
L 33.38417 47.899817 
L 33.408516 48.28869 
L 33.437196 48.677562 
L 33.470335 49.066435 
L 33.508103 49.455307 
L 33.550706 49.844179 
L 33.598393 50.233052 
L 33.605054 50.281805 
L 33.646281 50.621924 
L 33.698474 51.010797 
L 33.756043 51.399669 
L 33.819357 51.788542 
L 33.888826 52.177414 
L 33.964908 52.566287 
L 33.99927 52.728237 
L 34.042815 52.955159 
L 34.123812 53.344031 
L 34.212174 53.732904 
L 34.308537 54.121776 
L 34.393487 54.437787 
L 34.411511 54.510649 
L 34.514021 54.899521 
L 34.625863 55.288394 
L 34.748099 55.677266 
L 34.787704 55.796101 
L 34.872202 56.066139 
L 35.003836 56.455011 
L 35.148894 56.843883 
L 35.181921 56.927967 
L 35.296347 57.232756 
L 35.45658 57.621628 
L 35.576137 57.886732 
L 35.630216 58.010501 
L 35.812404 58.399373 
L 35.970354 58.700371 
L 36.015644 58.788246 
L 36.231254 59.177118 
L 36.364571 59.39235 
L 36.47161 59.56599 
L 36.740475 59.954863 
L 36.758788 59.979523 
L 37.03117 60.343735 
L 37.153004 60.48947 
L 37.358675 60.732608 
L 37.547221 60.934793 
L 37.723953 61.12148 
L 37.941438 61.332872 
L 38.127077 61.510353 
L 38.335655 61.696564 
L 38.566283 61.899225 
L 38.729871 62.035525 
L 39.036864 62.288098 
L 39.124088 62.357235 
L 39.518305 62.668503 
L 39.528902 62.67697 
L 39.912522 62.980419 
L 40.020584 63.065842 
L 40.306738 63.293957 
L 40.506426 63.454715 
L 40.700955 63.615927 
L 40.969657 63.843587 
L 41.095172 63.955697 
L 41.394289 64.23246 
L 41.489389 64.327914 
L 41.767959 64.621332 
L 41.883605 64.758329 
L 42.083888 65.010205 
L 42.277822 65.298191 
L 42.341224 65.399077 
L 42.534935 65.78795 
L 42.672039 66.165346 
L 42.675861 66.176822 
L 42.75949 66.565694 
L 42.798889 66.954567 
L 42.799716 67.343439 
L 42.768399 67.732312 
L 42.711529 68.121184 
L 42.672039 68.318592 
L 42.632677 68.510057 
L 42.536617 68.898929 
L 42.431864 69.287802 
L 42.323029 69.676674 
L 42.277822 69.833293 
L 42.20898 70.065546 
L 42.094985 70.454419 
L 41.987136 70.843291 
L 41.887283 71.232164 
L 41.883605 71.24733 
L 41.790383 71.621036 
L 41.705088 72.009909 
L 41.632338 72.398781 
L 41.572609 72.787654 
L 41.526285 73.176526 
L 41.49372 73.565398 
L 41.489389 73.654934 
L 41.474421 73.954271 
L 41.470403 74.343143 
L 41.482349 74.732016 
L 41.489389 74.826913 
L 41.509757 75.120888 
L 41.553387 75.509761 
L 41.614587 75.898633 
L 41.694534 76.287505 
L 41.794631 76.676378 
L 41.883605 76.960597 
L 41.915686 77.06525 
L 42.057989 77.454123 
L 42.226343 77.842995 
L 42.277822 77.946033 
L 42.42209 78.231868 
L 42.649622 78.62074 
L 42.672039 78.654714 
L 42.91446 79.009613 
L 43.066255 79.205667 
L 43.223755 79.398485 
L 43.460472 79.657412 
L 43.588314 79.787357 
L 43.854689 80.032512 
L 44.026321 80.17623 
L 44.248906 80.347299 
L 44.567609 80.565102 
L 44.643122 80.613118 
L 45.037339 80.834464 
L 45.286986 80.953975 
L 45.431556 81.019522 
L 45.825773 81.170206 
L 46.219989 81.291378 
L 46.435229 81.342847 
L 46.614206 81.384324 
L 47.008423 81.451099 
L 47.40264 81.493867 
L 47.796856 81.514012 
L 48.191073 81.512852 
L 48.58529 81.491668 
L 48.979507 81.451732 
L 49.373723 81.394343 
L 49.650579 81.342847 
L 49.76794 81.320939 
L 50.162157 81.233386 
L 50.556374 81.133365 
L 50.95059 81.022791 
L 51.179715 80.953975 
L 51.344807 80.904178 
L 51.739024 80.780544 
L 52.13324 80.654173 
L 52.412152 80.565102 
L 52.527457 80.528285 
L 52.921674 80.406813 
L 53.315891 80.291943 
L 53.710107 80.186503 
L 53.753669 80.17623 
L 54.104324 80.094553 
L 54.498541 80.017289 
L 54.892758 79.95624 
L 55.286974 79.912561 
L 55.681191 79.886837 
L 56.075408 79.879084 
L 56.469625 79.888783 
L 56.863841 79.914956 
L 57.258058 79.956272 
L 57.652275 80.011172 
L 58.046492 80.077992 
L 58.440708 80.155084 
L 58.537282 80.17623 
L 58.834925 80.24308 
L 59.229142 80.339431 
L 59.623359 80.442286 
L 60.017575 80.550808 
L 60.067104 80.565102 
L 60.411792 80.668108 
L 60.806009 80.790936 
L 61.200226 80.918895 
L 61.304274 80.953975 
L 61.594442 81.056037 
L 61.988659 81.200676 
L 62.358076 81.342847 
L 62.382876 81.35284 
L 62.777092 81.518285 
L 63.171309 81.693059 
L 63.254642 81.73172 
L 63.565526 81.882638 
L 63.959743 82.084593 
L 64.027076 82.120592 
L 64.353959 82.302318 
L 64.709567 82.509465 
L 64.748176 82.532674 
L 65.142393 82.776291 
L 65.334524 82.898337 
L 65.53661 83.02897 
L 65.930826 83.287209 
L 65.930826 83.287209 
L 66.325043 83.545612 
L 66.526886 83.676082 
L 66.71926 83.799388 
L 67.113477 84.043665 
L 67.149507 84.064954 
L 67.507693 84.272252 
L 67.844416 84.453827 
L 67.90191 84.484068 
L 68.296127 84.67346 
L 68.690344 84.841887 
L 68.692531 84.842699 
L 69.08456 84.984093 
L 69.478777 85.102425 
L 69.872994 85.196066 
L 70.078214 85.231572 
L 70.267211 85.263493 
z
M 28.086019 73.6087 
L 28.480236 73.648828 
L 28.874453 73.658109 
L 29.26867 73.637182 
L 29.662886 73.586502 
L 29.767692 73.565398 
L 30.057103 73.503813 
L 30.45132 73.389751 
L 30.845537 73.245281 
L 31.002811 73.176526 
L 31.239753 73.064828 
L 31.63397 72.848855 
L 31.733619 72.787654 
L 32.028187 72.589237 
L 32.283992 72.398781 
L 32.422404 72.284129 
L 32.729561 72.009909 
L 32.81662 71.922132 
L 33.100058 71.621036 
L 33.210837 71.486038 
L 33.412754 71.232164 
L 33.605054 70.950239 
L 33.677178 70.843291 
L 33.900566 70.454419 
L 33.99927 70.248293 
L 34.087887 70.065546 
L 34.242734 69.676674 
L 34.366182 69.287802 
L 34.393487 69.176042 
L 34.464097 68.898929 
L 34.536016 68.510057 
L 34.582791 68.121184 
L 34.605735 67.732312 
L 34.605533 67.343439 
L 34.582244 66.954567 
L 34.535242 66.565694 
L 34.463077 66.176822 
L 34.393487 65.900318 
L 34.36435 65.78795 
L 34.238057 65.399077 
L 34.076406 65.010205 
L 33.99927 64.854665 
L 33.874774 64.621332 
L 33.622466 64.23246 
L 33.605054 64.208735 
L 33.305333 63.843587 
L 33.210837 63.743478 
L 32.896346 63.454715 
L 32.81662 63.388777 
L 32.422404 63.111077 
L 32.345608 63.065842 
L 32.028187 62.889693 
L 31.63397 62.717207 
L 31.51896 62.67697 
L 31.239753 62.581548 
L 30.845537 62.480544 
L 30.45132 62.411641 
L 30.057103 62.37211 
L 29.662886 62.360431 
L 29.26867 62.376027 
L 28.874453 62.419136 
L 28.480236 62.490766 
L 28.086019 62.592723 
L 27.838384 62.67697 
L 27.691803 62.725542 
L 27.297586 62.889791 
L 26.955668 63.065842 
L 26.903369 63.092746 
L 26.509152 63.333851 
L 26.341643 63.454715 
L 26.114936 63.622478 
L 25.857557 63.843587 
L 25.720719 63.966563 
L 25.4609 64.23246 
L 25.326502 64.379482 
L 25.128835 64.621332 
L 24.932285 64.884698 
L 24.847117 65.010205 
L 24.608993 65.399077 
L 24.538069 65.529781 
L 24.408159 65.78795 
L 24.240233 66.176822 
L 24.143852 66.443863 
L 24.102289 66.565694 
L 23.993455 66.954567 
L 23.911236 67.343439 
L 23.854914 67.732312 
L 23.82411 68.121184 
L 23.818773 68.510057 
L 23.839187 68.898929 
L 23.885967 69.287802 
L 23.960078 69.676674 
L 24.06285 70.065546 
L 24.143852 70.302557 
L 24.197198 70.454419 
L 24.366815 70.843291 
L 24.538069 71.167675 
L 24.573926 71.232164 
L 24.828664 71.621036 
L 24.932285 71.757486 
L 25.139483 72.009909 
L 25.326502 72.209513 
L 25.522609 72.398781 
L 25.720719 72.569256 
L 26.008708 72.787654 
L 26.114936 72.860701 
L 26.509152 73.094507 
L 26.674861 73.176526 
L 26.903369 73.281132 
L 27.297586 73.426121 
L 27.691803 73.535563 
L 27.847543 73.565398 
L 28.086019 73.6087 
z
" clip-path="url(#pd69573f0a6)" style="fill: none; stroke: #87ceeb; stroke-width: 1.5"/>
    <path d="M 61.594442 70.915834 
L 61.988659 70.883499 
L 62.091383 70.843291 
L 62.382876 70.625237 
L 62.50396 70.454419 
L 62.561872 70.065546 
L 62.437218 69.676674 
L 62.382876 69.602063 
L 62.044877 69.287802 
L 61.988659 69.25254 
L 61.594442 69.123209 
L 61.200226 69.110773 
L 60.806009 69.227137 
L 60.711078 69.287802 
L 60.414725 69.676674 
L 60.413716 70.065546 
L 60.645056 70.454419 
L 60.806009 70.596086 
L 61.200226 70.843291 
L 61.200226 70.843291 
L 61.594442 70.915834 
z
M 49.76794 60.748013 
L 50.162157 60.769124 
L 50.556374 60.777165 
L 50.95059 60.772007 
L 51.344807 60.75347 
L 51.603431 60.732608 
L 51.739024 60.722091 
L 52.13324 60.679335 
L 52.527457 60.623675 
L 52.921674 60.554899 
L 53.315891 60.472754 
L 53.710107 60.376946 
L 53.832806 60.343735 
L 54.104324 60.273001 
L 54.498541 60.159008 
L 54.892758 60.03238 
L 55.11622 59.954863 
L 55.286974 59.897717 
L 55.681191 59.757836 
L 56.075408 59.607259 
L 56.179852 59.56599 
L 56.469625 59.455349 
L 56.863841 59.298344 
L 57.157936 59.177118 
L 57.258058 59.137091 
L 57.652275 58.97912 
L 58.046492 58.817494 
L 58.119194 58.788246 
L 58.440708 58.662618 
L 58.834925 58.509863 
L 59.126621 58.399373 
L 59.229142 58.361481 
L 59.623359 58.223404 
L 60.017575 58.091085 
L 60.274616 58.010501 
L 60.411792 57.968386 
L 60.806009 57.858134 
L 61.200226 57.757492 
L 61.594442 57.667234 
L 61.822502 57.621628 
L 61.988659 57.588927 
L 62.382876 57.522322 
L 62.777092 57.465127 
L 63.171309 57.416279 
L 63.565526 57.374288 
L 63.959743 57.337295 
L 64.353959 57.303151 
L 64.748176 57.269504 
L 65.142393 57.233894 
L 65.153672 57.232756 
L 65.53661 57.194051 
L 65.930826 57.14715 
L 66.325043 57.090816 
L 66.71926 57.022817 
L 67.113477 56.941083 
L 67.507054 56.843883 
L 67.507693 56.843722 
L 67.90191 56.727245 
L 68.296127 56.591266 
L 68.639276 56.455011 
L 68.690344 56.433869 
L 69.08456 56.250113 
L 69.434531 56.066139 
L 69.478777 56.041585 
L 69.872994 55.800976 
L 70.05801 55.677266 
L 70.267211 55.528118 
L 70.578199 55.288394 
L 70.661427 55.219494 
L 71.024275 54.899521 
L 71.055644 54.869643 
L 71.414579 54.510649 
L 71.449861 54.472379 
L 71.76192 54.121776 
L 71.844077 54.021446 
L 72.075168 53.732904 
L 72.238294 53.511438 
L 72.36038 53.344031 
L 72.621697 52.955159 
L 72.632511 52.937742 
L 72.864258 52.566287 
L 73.026728 52.284627 
L 73.089514 52.177414 
L 73.301284 51.788542 
L 73.420944 51.552762 
L 73.500763 51.399669 
L 73.69051 51.010797 
L 73.815161 50.739016 
L 73.870872 50.621924 
L 74.045026 50.233052 
L 74.209378 49.84639 
L 74.21036 49.844179 
L 74.373233 49.455307 
L 74.528497 49.066435 
L 74.603595 48.868227 
L 74.679495 48.677562 
L 74.8262 48.28869 
L 74.965826 47.899817 
L 74.997811 47.805125 
L 75.102415 47.510945 
L 75.232563 47.122072 
L 75.35472 46.7332 
L 75.392028 46.604855 
L 75.471751 46.344327 
L 75.581168 45.955455 
L 75.681061 45.566583 
L 75.771112 45.17771 
L 75.786245 45.103485 
L 75.853756 44.788838 
L 75.926162 44.399965 
L 75.987532 44.011093 
L 76.037759 43.62222 
L 76.076778 43.233348 
L 76.104552 42.844476 
L 76.121054 42.455603 
L 76.126249 42.066731 
L 76.120072 41.677858 
L 76.102409 41.288986 
L 76.073071 40.900113 
L 76.031777 40.511241 
L 75.978128 40.122368 
L 75.911584 39.733496 
L 75.831444 39.344624 
L 75.786245 39.155436 
L 75.738398 38.955751 
L 75.63158 38.566879 
L 75.508143 38.178006 
L 75.392028 37.856764 
L 75.367035 37.789134 
L 75.208672 37.400261 
L 75.02777 37.011389 
L 74.997811 36.952044 
L 74.823823 36.622516 
L 74.603595 36.25314 
L 74.591267 36.233644 
L 74.326153 35.844772 
L 74.209378 35.688718 
L 74.020553 35.455899 
L 73.815161 35.2223 
L 73.664636 35.067027 
L 73.420944 34.831622 
L 73.242432 34.678154 
L 73.026728 34.501926 
L 72.727977 34.289282 
L 72.632511 34.223769 
L 72.238294 33.987822 
L 72.066566 33.900409 
L 71.844077 33.788953 
L 71.449861 33.623103 
L 71.124905 33.511537 
L 71.055644 33.487662 
L 70.661427 33.374859 
L 70.267211 33.287059 
L 69.872994 33.221279 
L 69.478777 33.175042 
L 69.08456 33.146272 
L 68.690344 33.133202 
L 68.296127 33.134307 
L 67.90191 33.148244 
L 67.507693 33.173796 
L 67.113477 33.209833 
L 66.71926 33.255261 
L 66.325043 33.308993 
L 65.930826 33.369906 
L 65.53661 33.436818 
L 65.142393 33.508458 
L 65.126215 33.511537 
L 64.748176 33.577931 
L 64.353959 33.648582 
L 63.959743 33.719162 
L 63.565526 33.788138 
L 63.171309 33.853954 
L 62.872084 33.900409 
L 62.777092 33.913892 
L 62.382876 33.964281 
L 61.988659 34.00768 
L 61.594442 34.043194 
L 61.200226 34.070194 
L 60.806009 34.08836 
L 60.411792 34.097689 
L 60.017575 34.098491 
L 59.623359 34.091359 
L 59.229142 34.077123 
L 58.834925 34.056794 
L 58.440708 34.031495 
L 58.046492 34.002403 
L 57.652275 33.97069 
L 57.258058 33.937478 
L 56.863841 33.903802 
L 56.824512 33.900409 
L 56.469625 33.867062 
L 56.075408 33.831281 
L 55.681191 33.797625 
L 55.286974 33.766727 
L 54.892758 33.739093 
L 54.498541 33.715114 
L 54.104324 33.695084 
L 53.710107 33.679216 
L 53.315891 33.667657 
L 52.921674 33.660506 
L 52.527457 33.657832 
L 52.13324 33.659686 
L 51.739024 33.666117 
L 51.344807 33.677186 
L 50.95059 33.692981 
L 50.556374 33.713628 
L 50.162157 33.739307 
L 49.76794 33.770267 
L 49.373723 33.806836 
L 48.979507 33.849441 
L 48.58529 33.898622 
L 48.572598 33.900409 
L 48.191073 33.949116 
L 47.796856 34.006645 
L 47.40264 34.072302 
L 47.008423 34.147164 
L 46.614206 34.232517 
L 46.381535 34.289282 
L 46.219989 34.325809 
L 45.825773 34.425887 
L 45.431556 34.540417 
L 45.037339 34.671713 
L 45.019797 34.678154 
L 44.643122 34.809107 
L 44.248906 34.966669 
L 44.026516 35.067027 
L 43.854689 35.141575 
L 43.460472 35.334127 
L 43.240119 35.455899 
L 43.066255 35.549748 
L 42.672039 35.789902 
L 42.590732 35.844772 
L 42.277822 36.054503 
L 42.040349 36.233644 
L 41.883605 36.352514 
L 41.563892 36.622516 
L 41.489389 36.68656 
L 41.146446 37.011389 
L 41.095172 37.061459 
L 40.776998 37.400261 
L 40.700955 37.484867 
L 40.447562 37.789134 
L 40.306738 37.968336 
L 40.152513 38.178006 
L 39.912522 38.529091 
L 39.888102 38.566879 
L 39.648603 38.955751 
L 39.518305 39.187208 
L 39.433376 39.344624 
L 39.238773 39.733496 
L 39.124088 39.985872 
L 39.063855 40.122368 
L 38.905013 40.511241 
L 38.764197 40.900113 
L 38.729871 41.00315 
L 38.635904 41.288986 
L 38.521435 41.677858 
L 38.420837 42.066731 
L 38.335655 42.442824 
L 38.332756 42.455603 
L 38.252577 42.844476 
L 38.18345 43.233348 
L 38.124508 43.62222 
L 38.07499 44.011093 
L 38.034231 44.399965 
L 38.001658 44.788838 
L 37.976782 45.17771 
L 37.959199 45.566583 
L 37.948583 45.955455 
L 37.944686 46.344327 
L 37.947335 46.7332 
L 37.956435 47.122072 
L 37.971966 47.510945 
L 37.993984 47.899817 
L 38.022621 48.28869 
L 38.058089 48.677562 
L 38.100678 49.066435 
L 38.150761 49.455307 
L 38.208796 49.844179 
L 38.275329 50.233052 
L 38.335655 50.542805 
L 38.350219 50.621924 
L 38.431418 51.010797 
L 38.522824 51.399669 
L 38.62536 51.788542 
L 38.729871 52.143 
L 38.739607 52.177414 
L 38.861856 52.566287 
L 38.998167 52.955159 
L 39.124088 53.278426 
L 39.148942 53.344031 
L 39.311138 53.732904 
L 39.491568 54.121776 
L 39.518305 54.174568 
L 39.686237 54.510649 
L 39.901685 54.899521 
L 39.912522 54.917574 
L 40.134687 55.288394 
L 40.306738 55.549553 
L 40.391453 55.677266 
L 40.672593 56.066139 
L 40.700955 56.102582 
L 40.980345 56.455011 
L 41.095172 56.589088 
L 41.319382 56.843883 
L 41.489389 57.024015 
L 41.69355 57.232756 
L 41.883605 57.415338 
L 42.108009 57.621628 
L 42.277822 57.76951 
L 42.56936 58.010501 
L 42.672039 58.091595 
L 43.066255 58.385368 
L 43.086153 58.399373 
L 43.460472 58.654098 
L 43.672604 58.788246 
L 43.854689 58.900626 
L 44.248906 59.126639 
L 44.343728 59.177118 
L 44.643122 59.334738 
L 45.037339 59.524984 
L 45.129678 59.56599 
L 45.431556 59.700433 
L 45.825773 59.860272 
L 46.083303 59.954863 
L 46.219989 60.005961 
L 46.614206 60.139302 
L 47.008423 60.258396 
L 47.327664 60.343735 
L 47.40264 60.364545 
L 47.796856 60.460411 
L 48.191073 60.543147 
L 48.58529 60.613019 
L 48.979507 60.670226 
L 49.373723 60.71491 
L 49.591629 60.732608 
L 49.76794 60.748013 
z
" clip-path="url(#pd69573f0a6)" style="fill: none; stroke: #87ceeb; stroke-width: 1.5"/>
    <path d="M 47.796856 56.1701 
L 48.191073 56.258705 
L 48.58529 56.328685 
L 48.979507 56.380817 
L 49.373723 56.41585 
L 49.76794 56.434497 
L 50.162157 56.437439 
L 50.556374 56.425316 
L 50.95059 56.398729 
L 51.344807 56.358242 
L 51.739024 56.304376 
L 52.13324 56.237621 
L 52.527457 56.15843 
L 52.921674 56.067237 
L 52.925945 56.066139 
L 53.315891 55.964107 
L 53.710107 55.850007 
L 54.104324 55.725378 
L 54.24668 55.677266 
L 54.498541 55.590218 
L 54.892758 55.445379 
L 55.286974 55.29168 
L 55.295137 55.288394 
L 55.681191 55.12847 
L 56.075408 54.957788 
L 56.206877 54.899521 
L 56.469625 54.778972 
L 56.863841 54.593661 
L 57.038305 54.510649 
L 57.258058 54.401707 
L 57.652275 54.204564 
L 57.818098 54.121776 
L 58.046492 54.002162 
L 58.440708 53.796445 
L 58.564651 53.732904 
L 58.834925 53.586508 
L 59.229142 53.375827 
L 59.290773 53.344031 
L 59.623359 53.161384 
L 60.007177 52.955159 
L 60.017575 52.949168 
L 60.411792 52.733339 
L 60.727275 52.566287 
L 60.806009 52.521217 
L 61.200226 52.307879 
L 61.452815 52.177414 
L 61.594442 52.097664 
L 61.988659 51.888112 
L 62.186483 51.788542 
L 62.382876 51.67985 
L 62.777092 51.472959 
L 62.924576 51.399669 
L 63.171309 51.26372 
L 63.565526 51.054942 
L 63.652753 51.010797 
L 63.959743 50.837214 
L 64.346451 50.621924 
L 64.353959 50.617223 
L 64.748176 50.377398 
L 64.984196 50.233052 
L 65.142393 50.123777 
L 65.53661 49.848361 
L 65.542518 49.844179 
L 65.930826 49.533669 
L 66.026079 49.455307 
L 66.325043 49.177374 
L 66.440962 49.066435 
L 66.71926 48.766184 
L 66.799123 48.677562 
L 67.111592 48.28869 
L 67.113477 48.286063 
L 67.385471 47.899817 
L 67.507693 47.706634 
L 67.629459 47.510945 
L 67.848696 47.122072 
L 67.90191 47.017639 
L 68.045533 46.7332 
L 68.224581 46.344327 
L 68.296127 46.172474 
L 68.386153 45.955455 
L 68.531645 45.566583 
L 68.662821 45.17771 
L 68.690344 45.083598 
L 68.776713 44.788838 
L 68.874167 44.399965 
L 68.954475 44.011093 
L 69.015667 43.62222 
L 69.05519 43.233348 
L 69.069819 42.844476 
L 69.055542 42.455603 
L 69.007395 42.066731 
L 68.919248 41.677858 
L 68.783503 41.288986 
L 68.690344 41.094169 
L 68.582575 40.900113 
L 68.296127 40.511241 
L 68.296127 40.511241 
L 67.90191 40.149492 
L 67.865253 40.122368 
L 67.507693 39.898193 
L 67.165664 39.733496 
L 67.113477 39.711435 
L 66.71926 39.576857 
L 66.325043 39.474707 
L 65.930826 39.396901 
L 65.591191 39.344624 
L 65.53661 39.336855 
L 65.142393 39.289321 
L 64.748176 39.248322 
L 64.353959 39.209969 
L 63.959743 39.171011 
L 63.565526 39.128813 
L 63.171309 39.081351 
L 62.777092 39.027196 
L 62.382876 38.965502 
L 62.329904 38.955751 
L 61.988659 38.894773 
L 61.594442 38.81567 
L 61.200226 38.728975 
L 60.806009 38.635676 
L 60.535192 38.566879 
L 60.411792 38.535943 
L 60.017575 38.429414 
L 59.623359 38.320095 
L 59.229142 38.209637 
L 59.11958 38.178006 
L 58.834925 38.095725 
L 58.440708 37.982048 
L 58.046492 37.871576 
L 57.742993 37.789134 
L 57.652275 37.764129 
L 57.258058 37.657445 
L 56.863841 37.557321 
L 56.469625 37.464468 
L 56.174694 37.400261 
L 56.075408 37.377954 
L 55.681191 37.295637 
L 55.286974 37.222233 
L 54.892758 37.157887 
L 54.498541 37.102647 
L 54.104324 37.056498 
L 53.710107 37.019384 
L 53.599488 37.011389 
L 53.315891 36.989624 
L 52.921674 36.968809 
L 52.527457 36.957515 
L 52.13324 36.95572 
L 51.739024 36.963452 
L 51.344807 36.980809 
L 50.95059 37.007973 
L 50.914263 37.011389 
L 50.556374 37.042725 
L 50.162157 37.086956 
L 49.76794 37.141437 
L 49.373723 37.20685 
L 48.979507 37.284062 
L 48.58529 37.374163 
L 48.48481 37.400261 
L 48.191073 37.473288 
L 47.796856 37.585563 
L 47.40264 37.71465 
L 47.201035 37.789134 
L 47.008423 37.858514 
L 46.614206 38.018735 
L 46.271601 38.178006 
L 46.219989 38.201763 
L 45.825773 38.403251 
L 45.544788 38.566879 
L 45.431556 38.633239 
L 45.037339 38.89186 
L 44.94972 38.955751 
L 44.643122 39.184739 
L 44.45162 39.344624 
L 44.248906 39.520276 
L 44.026666 39.733496 
L 43.854689 39.907146 
L 43.660359 40.122368 
L 43.460472 40.358884 
L 43.341984 40.511241 
L 43.066255 40.896353 
L 43.063755 40.900113 
L 42.820622 41.288986 
L 42.672039 41.554263 
L 42.606924 41.677858 
L 42.419619 42.066731 
L 42.277822 42.400826 
L 42.255686 42.455603 
L 42.112434 42.844476 
L 41.988377 43.233348 
L 41.883605 43.615562 
L 41.881841 43.62222 
L 41.790496 44.011093 
L 41.714065 44.399965 
L 41.651499 44.788838 
L 41.601914 45.17771 
L 41.564577 45.566583 
L 41.538903 45.955455 
L 41.524449 46.344327 
L 41.520909 46.7332 
L 41.528109 47.122072 
L 41.546007 47.510945 
L 41.574691 47.899817 
L 41.614373 48.28869 
L 41.665398 48.677562 
L 41.728235 49.066435 
L 41.803485 49.455307 
L 41.883605 49.807582 
L 41.891818 49.844179 
L 41.993541 50.233052 
L 42.110335 50.621924 
L 42.243381 51.010797 
L 42.277822 51.099954 
L 42.394095 51.399669 
L 42.564159 51.788542 
L 42.672039 52.008878 
L 42.755945 52.177414 
L 42.971984 52.566287 
L 43.066255 52.719284 
L 43.215977 52.955159 
L 43.460472 53.302471 
L 43.490923 53.344031 
L 43.804101 53.732904 
L 43.854689 53.790365 
L 44.162614 54.121776 
L 44.248906 54.207141 
L 44.576342 54.510649 
L 44.643122 54.567964 
L 45.037339 54.881708 
L 45.061644 54.899521 
L 45.431556 55.152907 
L 45.650107 55.288394 
L 45.825773 55.391039 
L 46.219989 55.598033 
L 46.38992 55.677266 
L 46.614206 55.776922 
L 47.008423 55.930416 
L 47.40264 56.061967 
L 47.417361 56.066139 
L 47.796856 56.1701 
z
" clip-path="url(#pd69573f0a6)" style="fill: none; stroke: #87ceeb; stroke-width: 1.5"/>
    <path d="M 50.162157 52.990285 
L 50.556374 53.009578 
L 50.95059 53.00774 
L 51.344807 52.985826 
L 51.639446 52.955159 
L 51.739024 52.944318 
L 52.13324 52.882337 
L 52.527457 52.80238 
L 52.921674 52.705324 
L 53.315891 52.591984 
L 53.39486 52.566287 
L 53.710107 52.457967 
L 54.104324 52.307421 
L 54.415519 52.177414 
L 54.498541 52.140493 
L 54.892758 51.952164 
L 55.213524 51.788542 
L 55.286974 51.748311 
L 55.681191 51.521579 
L 55.884198 51.399669 
L 56.075408 51.275265 
L 56.468134 51.010797 
L 56.469625 51.0097 
L 56.863841 50.713836 
L 56.984409 50.621924 
L 57.258058 50.391785 
L 57.445751 50.233052 
L 57.652275 50.038508 
L 57.859496 49.844179 
L 58.046492 49.64686 
L 58.230682 49.455307 
L 58.440708 49.206889 
L 58.562415 49.066435 
L 58.834925 48.704683 
L 58.856077 48.677562 
L 59.116863 48.28869 
L 59.229142 48.090108 
L 59.34211 47.899817 
L 59.533072 47.510945 
L 59.623359 47.28164 
L 59.690323 47.122072 
L 59.815205 46.7332 
L 59.904081 46.344327 
L 59.957491 45.955455 
L 59.975206 45.566583 
L 59.956194 45.17771 
L 59.898549 44.788838 
L 59.79937 44.399965 
L 59.654609 44.011093 
L 59.623359 43.945918 
L 59.468107 43.62222 
L 59.229142 43.233348 
L 59.229142 43.233348 
L 58.943239 42.844476 
L 58.834925 42.719383 
L 58.600061 42.455603 
L 58.440708 42.298755 
L 58.195149 42.066731 
L 58.046492 41.940521 
L 57.719658 41.677858 
L 57.652275 41.628182 
L 57.258058 41.353204 
L 57.159287 41.288986 
L 56.863841 41.108726 
L 56.486387 40.900113 
L 56.469625 40.891283 
L 56.075408 40.697754 
L 55.681191 40.527415 
L 55.639773 40.511241 
L 55.286974 40.376892 
L 54.892758 40.246956 
L 54.498541 40.136785 
L 54.437798 40.122368 
L 54.104324 40.043501 
L 53.710107 39.968272 
L 53.315891 39.910779 
L 52.921674 39.870486 
L 52.527457 39.847009 
L 52.13324 39.840132 
L 51.739024 39.849819 
L 51.344807 39.876235 
L 50.95059 39.919768 
L 50.556374 39.98106 
L 50.162157 40.061049 
L 49.918789 40.122368 
L 49.76794 40.159996 
L 49.373723 40.278423 
L 48.979507 40.420055 
L 48.762045 40.511241 
L 48.58529 40.586208 
L 48.191073 40.779532 
L 47.977287 40.900113 
L 47.796856 41.004955 
L 47.40264 41.267493 
L 47.373792 41.288986 
L 47.008423 41.575153 
L 46.892015 41.677858 
L 46.614206 41.939703 
L 46.493248 42.066731 
L 46.219989 42.378825 
L 46.159028 42.455603 
L 45.87802 42.844476 
L 45.825773 42.9249 
L 45.641598 43.233348 
L 45.440284 43.62222 
L 45.431556 43.641288 
L 45.273991 44.011093 
L 45.135078 44.399965 
L 45.037339 44.73226 
L 45.021668 44.788838 
L 44.933483 45.17771 
L 44.866956 45.566583 
L 44.821086 45.955455 
L 44.795149 46.344327 
L 44.788688 46.7332 
L 44.801503 47.122072 
L 44.833644 47.510945 
L 44.885411 47.899817 
L 44.957348 48.28869 
L 45.037339 48.623235 
L 45.050643 48.677562 
L 45.169261 49.066435 
L 45.31224 49.455307 
L 45.431556 49.730001 
L 45.483368 49.844179 
L 45.689132 50.233052 
L 45.825773 50.457121 
L 45.932618 50.621924 
L 46.219989 51.009303 
L 46.221185 51.010797 
L 46.57319 51.399669 
L 46.614206 51.44008 
L 47.003947 51.788542 
L 47.008423 51.792144 
L 47.40264 52.076677 
L 47.562015 52.177414 
L 47.796856 52.312477 
L 48.191073 52.506931 
L 48.33416 52.566287 
L 48.58529 52.662237 
L 48.979507 52.784772 
L 49.373723 52.879696 
L 49.76794 52.948384 
L 49.828335 52.955159 
L 50.162157 52.990285 
z
" clip-path="url(#pd69573f0a6)" style="fill: none; stroke: #87ceeb; stroke-width: 1.5"/>
    <path clip-path="url(#pd69573f0a6)" style="fill: none; stroke: #87ceeb; stroke-width: 1.5"/>
   </g>
   <g id="patch_3">
    <path d="M 13.5 96.12 
L 13.5 12.96 
" style="fill: none; stroke: #cccccc; stroke-width: 1.25; stroke-linejoin: miter; stroke-linecap: square"/>
   </g>
   <g id="patch_4">
    <path d="M 97.2 96.12 
L 97.2 12.96 
" style="fill: none; stroke: #cccccc; stroke-width: 1.25; stroke-linejoin: miter; stroke-linecap: square"/>
   </g>
   <g id="patch_5">
    <path d="M 13.5 96.12 
L 97.2 96.12 
" style="fill: none; stroke: #cccccc; stroke-width: 1.25; stroke-linejoin: miter; stroke-linecap: square"/>
   </g>
   <g id="patch_6">
    <path d="M 13.5 12.96 
L 97.2 12.96 
" style="fill: none; stroke: #cccccc; stroke-width: 1.25; stroke-linejoin: miter; stroke-linecap: square"/>
   </g>
   <g id="text_8">
    <text style="fill: #262626; font: 8px 'Arial', 'DejaVu Sans', 'Liberation Sans', 'Bitstream Vera Sans', sans-serif; text-anchor: start" x="73.764" y="21.276" transform="rotate(-0 73.764 21.276)">76.2%</text>
   </g>
  </g>
 </g>
 <defs>
  <clipPath id="pd69573f0a6">
   <rect x="13.5" y="12.96" width="83.7" height="83.16"/>
  </clipPath>
 </defs>
</svg>
