<?xml version="1.0" encoding="utf-8" standalone="no"?>
<!DOCTYPE svg PUBLIC "-//W3C//DTD SVG 1.1//EN"
  "http://www.w3.org/Graphics/SVG/1.1/DTD/svg11.dtd">
<svg xmlns:xlink="http://www.w3.org/1999/xlink" width="136.8pt" height="360pt" viewBox="0 0 136.8 360" xmlns="http://www.w3.org/2000/svg" version="1.1">
 <metadata>
  <rdf:RDF xmlns:dc="http://purl.org/dc/elements/1.1/" xmlns:cc="http://creativecommons.org/ns#" xmlns:rdf="http://www.w3.org/1999/02/22-rdf-syntax-ns#">
   <cc:Work>
    <dc:type rdf:resource="http://purl.org/dc/dcmitype/StillImage"/>
    <dc:date>2024-04-24T13:35:27.872920</dc:date>
    <dc:format>image/svg+xml</dc:format>
    <dc:creator>
     <cc:Agent>
      <dc:title>Matplotlib v3.8.1, https://matplotlib.org/</dc:title>
     </cc:Agent>
    </dc:creator>
   </cc:Work>
  </rdf:RDF>
 </metadata>
 <defs>
  <style type="text/css">*{stroke-linejoin: round; stroke-linecap: butt}</style>
 </defs>
 <g id="figure_1">
  <g id="patch_1">
   <path d="M 0 360 
L 136.8 360 
L 136.8 0 
L 0 0 
z
" style="fill: #ffffff"/>
  </g>
  <g id="axes_1">
   <g id="patch_2">
    <path d="M 17.1 315.62069 
L 123.12 315.62069 
L 123.12 302.436385 
L 17.1 302.436385 
z
" clip-path="url(#p4dd01ec616)" style="fill-opacity: 0.05098"/>
   </g>
   <g id="patch_3">
    <path d="M 17.1 299.140309 
L 123.12 299.140309 
L 123.12 285.956005 
L 17.1 285.956005 
L 17.1 299.140309 
z
" clip-path="url(#p4dd01ec616)" style="fill: none"/>
   </g>
   <g id="patch_4">
    <path d="M 17.1 282.659929 
L 123.12 282.659929 
L 123.12 269.475624 
L 17.1 269.475624 
z
" clip-path="url(#p4dd01ec616)" style="fill-opacity: 0.05098"/>
   </g>
   <g id="patch_5">
    <path d="M 17.1 266.179548 
L 123.12 266.179548 
L 123.12 252.995244 
L 17.1 252.995244 
L 17.1 266.179548 
z
" clip-path="url(#p4dd01ec616)" style="fill: none"/>
   </g>
   <g id="patch_6">
    <path d="M 17.1 249.699168 
L 123.12 249.699168 
L 123.12 236.514863 
L 17.1 236.514863 
z
" clip-path="url(#p4dd01ec616)" style="fill-opacity: 0.05098"/>
   </g>
   <g id="patch_7">
    <path d="M 17.1 233.218787 
L 123.12 233.218787 
L 123.12 220.034483 
L 17.1 220.034483 
L 17.1 233.218787 
z
" clip-path="url(#p4dd01ec616)" style="fill: none"/>
   </g>
   <g id="matplotlib.axis_1"/>
   <g id="matplotlib.axis_2">
    <g id="ytick_1"/>
    <g id="ytick_2"/>
    <g id="ytick_3"/>
    <g id="ytick_4"/>
    <g id="ytick_5"/>
    <g id="ytick_6"/>
   </g>
  </g>
  <g id="axes_2">
   <g id="matplotlib.axis_3">
    <g id="ytick_7">
     <g id="text_1">
      <text style="fill: #262626; font: 8px 'Arial', 'DejaVu Sans', 'Liberation Sans', 'Bitstream Vera Sans', sans-serif; text-anchor: end" x="70.624571" y="311.903537" transform="rotate(-0 70.624571 311.903537)">inputD3</text>
     </g>
    </g>
    <g id="ytick_8">
     <g id="text_2">
      <text style="fill: #262626; font: 8px 'Arial', 'DejaVu Sans', 'Liberation Sans', 'Bitstream Vera Sans', sans-serif; text-anchor: end" x="70.624571" y="295.411282" transform="rotate(-0 70.624571 295.411282)">inputD5</text>
     </g>
    </g>
    <g id="ytick_9">
     <g id="text_3">
      <text style="fill: #262626; font: 8px 'Arial', 'DejaVu Sans', 'Liberation Sans', 'Bitstream Vera Sans', sans-serif; text-anchor: end" x="70.624571" y="278.942776" transform="rotate(-0 70.624571 278.942776)">inputD6</text>
     </g>
    </g>
    <g id="ytick_10">
     <g id="text_4">
      <text style="fill: #262626; font: 8px 'Arial', 'DejaVu Sans', 'Liberation Sans', 'Bitstream Vera Sans', sans-serif; text-anchor: end" x="70.624571" y="262.450521" transform="rotate(-0 70.624571 262.450521)">inputD4</text>
     </g>
    </g>
    <g id="ytick_11">
     <g id="text_5">
      <text style="fill: #262626; font: 8px 'Arial', 'DejaVu Sans', 'Liberation Sans', 'Bitstream Vera Sans', sans-serif; text-anchor: end" x="70.624571" y="245.982015" transform="rotate(-0 70.624571 245.982015)">inputD2</text>
     </g>
    </g>
    <g id="ytick_12">
     <g id="text_6">
      <text style="fill: #262626; font: 8px 'Arial', 'DejaVu Sans', 'Liberation Sans', 'Bitstream Vera Sans', sans-serif; text-anchor: end" x="70.624571" y="229.501635" transform="rotate(-0 70.624571 229.501635)">inputD1</text>
     </g>
    </g>
   </g>
   <g id="LineCollection_1">
    <path d="M 80.207143 309.028537 
L 80.207143 226.626635 
" clip-path="url(#pac11c9bd49)" style="fill: none; stroke: #000000; stroke-width: 2"/>
    <path d="M 97.372286 309.028537 
L 97.372286 243.107015 
" clip-path="url(#pac11c9bd49)" style="fill: none; stroke: #000000; stroke-width: 2"/>
    <path d="M 114.537429 309.028537 
L 114.537429 226.626635 
" clip-path="url(#pac11c9bd49)" style="fill: none; stroke: #000000; stroke-width: 2"/>
   </g>
   <g id="PathCollection_1">
    <defs>
     <path id="C0_0_4bb9825ac5" d="M 0 7.071068 
C 1.875269 7.071068 3.673985 6.326016 5 5 
C 6.326016 3.673985 7.071068 1.875269 7.071068 -0 
C 7.071068 -1.875269 6.326016 -3.673985 5 -5 
C 3.673985 -6.326016 1.875269 -7.071068 0 -7.071068 
C -1.875269 -7.071068 -3.673985 -6.326016 -5 -5 
C -6.326016 -3.673985 -7.071068 -1.875269 -7.071068 0 
C -7.071068 1.875269 -6.326016 3.673985 -5 5 
C -3.673985 6.326016 -1.875269 7.071068 0 7.071068 
z
"/>
    </defs>
    <g clip-path="url(#pac11c9bd49)">
     <use xlink:href="#C0_0_4bb9825ac5" x="80.207143" y="309.028537" style="stroke: #000000"/>
    </g>
    <g clip-path="url(#pac11c9bd49)">
     <use xlink:href="#C0_0_4bb9825ac5" x="80.207143" y="292.548157" style="stroke: #000000"/>
    </g>
    <g clip-path="url(#pac11c9bd49)">
     <use xlink:href="#C0_0_4bb9825ac5" x="80.207143" y="276.067776" style="stroke: #000000"/>
    </g>
    <g clip-path="url(#pac11c9bd49)">
     <use xlink:href="#C0_0_4bb9825ac5" x="80.207143" y="259.587396" style="stroke: #000000"/>
    </g>
    <g clip-path="url(#pac11c9bd49)">
     <use xlink:href="#C0_0_4bb9825ac5" x="80.207143" y="243.107015" style="stroke: #000000"/>
    </g>
    <g clip-path="url(#pac11c9bd49)">
     <use xlink:href="#C0_0_4bb9825ac5" x="80.207143" y="226.626635" style="stroke: #000000"/>
    </g>
    <g clip-path="url(#pac11c9bd49)">
     <use xlink:href="#C0_0_4bb9825ac5" x="97.372286" y="309.028537" style="stroke: #000000"/>
    </g>
    <g clip-path="url(#pac11c9bd49)">
     <use xlink:href="#C0_0_4bb9825ac5" x="97.372286" y="292.548157" style="stroke: #000000"/>
    </g>
    <g clip-path="url(#pac11c9bd49)">
     <use xlink:href="#C0_0_4bb9825ac5" x="97.372286" y="276.067776" style="stroke: #000000"/>
    </g>
    <g clip-path="url(#pac11c9bd49)">
     <use xlink:href="#C0_0_4bb9825ac5" x="97.372286" y="259.587396" style="stroke: #000000"/>
    </g>
    <g clip-path="url(#pac11c9bd49)">
     <use xlink:href="#C0_0_4bb9825ac5" x="97.372286" y="243.107015" style="stroke: #000000"/>
    </g>
    <g clip-path="url(#pac11c9bd49)">
     <use xlink:href="#C0_0_4bb9825ac5" x="97.372286" y="226.626635" style="fill-opacity: 0.180392"/>
    </g>
    <g clip-path="url(#pac11c9bd49)">
     <use xlink:href="#C0_0_4bb9825ac5" x="114.537429" y="309.028537" style="stroke: #000000"/>
    </g>
    <g clip-path="url(#pac11c9bd49)">
     <use xlink:href="#C0_0_4bb9825ac5" x="114.537429" y="292.548157" style="stroke: #000000"/>
    </g>
    <g clip-path="url(#pac11c9bd49)">
     <use xlink:href="#C0_0_4bb9825ac5" x="114.537429" y="276.067776" style="stroke: #000000"/>
    </g>
    <g clip-path="url(#pac11c9bd49)">
     <use xlink:href="#C0_0_4bb9825ac5" x="114.537429" y="259.587396" style="stroke: #000000"/>
    </g>
    <g clip-path="url(#pac11c9bd49)">
     <use xlink:href="#C0_0_4bb9825ac5" x="114.537429" y="243.107015" style="fill-opacity: 0.180392"/>
    </g>
    <g clip-path="url(#pac11c9bd49)">
     <use xlink:href="#C0_0_4bb9825ac5" x="114.537429" y="226.626635" style="stroke: #000000"/>
    </g>
   </g>
  </g>
  <g id="axes_3">
   <g id="matplotlib.axis_4">
    <g id="xtick_1">
     <g id="line2d_1">
      <path d="M 32.245714 320.4 
L 32.245714 215.255172 
" clip-path="url(#p490c28d991)" style="fill: none; stroke: #cccccc; stroke-linecap: round"/>
     </g>
     <g id="text_7">
      <text style="fill: #262626; font: 8px 'Arial', 'DejaVu Sans', 'Liberation Sans', 'Bitstream Vera Sans', sans-serif; text-anchor: middle" x="32.245714" y="333.12625" transform="rotate(-0 32.245714 333.12625)">0.0e+00</text>
     </g>
    </g>
    <g id="xtick_2">
     <g id="line2d_2">
      <path d="M 18.92682 320.4 
L 18.92682 215.255172 
" clip-path="url(#p490c28d991)" style="fill: none; stroke: #cccccc; stroke-linecap: round"/>
     </g>
     <g id="text_8">
      <text style="fill: #262626; font: 8px 'Arial', 'DejaVu Sans', 'Liberation Sans', 'Bitstream Vera Sans', sans-serif; text-anchor: middle" x="18.92682" y="333.12625" transform="rotate(-0 18.92682 333.12625)">2.5e+04</text>
     </g>
    </g>
   </g>
   <g id="patch_8">
    <path d="M 32.245714 313.148633 
L 17.1 313.148633 
L 17.1 304.908442 
L 32.245714 304.908442 
z
" clip-path="url(#p490c28d991)" style="stroke: #000000; stroke-linejoin: miter"/>
   </g>
   <g id="patch_9">
    <path d="M 32.245714 296.668252 
L 17.148481 296.668252 
L 17.148481 288.428062 
L 32.245714 288.428062 
z
" clip-path="url(#p490c28d991)" style="stroke: #000000; stroke-linejoin: miter"/>
   </g>
   <g id="patch_10">
    <path d="M 32.245714 280.187872 
L 17.16766 280.187872 
L 17.16766 271.947681 
L 32.245714 271.947681 
z
" clip-path="url(#p490c28d991)" style="stroke: #000000; stroke-linejoin: miter"/>
   </g>
   <g id="patch_11">
    <path d="M 32.245714 263.707491 
L 17.195896 263.707491 
L 17.195896 255.467301 
L 32.245714 255.467301 
z
" clip-path="url(#p490c28d991)" style="stroke: #000000; stroke-linejoin: miter"/>
   </g>
   <g id="patch_12">
    <path d="M 32.245714 247.227111 
L 18.032323 247.227111 
L 18.032323 238.98692 
L 32.245714 238.98692 
z
" clip-path="url(#p490c28d991)" style="stroke: #000000; stroke-linejoin: miter"/>
   </g>
   <g id="patch_13">
    <path d="M 32.245714 230.74673 
L 18.330666 230.74673 
L 18.330666 222.50654 
L 32.245714 222.50654 
z
" clip-path="url(#p490c28d991)" style="stroke: #000000; stroke-linejoin: miter"/>
   </g>
   <g id="patch_14">
    <path d="M 17.1 320.4 
L 32.245714 320.4 
" style="fill: none; stroke: #cccccc; stroke-width: 1.25; stroke-linejoin: miter; stroke-linecap: square"/>
   </g>
   <g id="text_9">
    <text style="fill: #262626; font: 8px 'Arial', 'DejaVu Sans', 'Liberation Sans', 'Bitstream Vera Sans', sans-serif; text-anchor: end" x="16.94097" y="311.096662" transform="rotate(-0 16.94097 311.096662)">99.8%</text>
   </g>
   <g id="text_10">
    <text style="fill: #262626; font: 8px 'Arial', 'DejaVu Sans', 'Liberation Sans', 'Bitstream Vera Sans', sans-serif; text-anchor: end" x="16.989451" y="294.616282" transform="rotate(-0 16.989451 294.616282)">99.5%</text>
   </g>
   <g id="text_11">
    <text style="fill: #262626; font: 8px 'Arial', 'DejaVu Sans', 'Liberation Sans', 'Bitstream Vera Sans', sans-serif; text-anchor: end" x="17.00863" y="278.135901" transform="rotate(-0 17.00863 278.135901)">99.4%</text>
   </g>
   <g id="text_12">
    <text style="fill: #262626; font: 8px 'Arial', 'DejaVu Sans', 'Liberation Sans', 'Bitstream Vera Sans', sans-serif; text-anchor: end" x="17.036866" y="261.655521" transform="rotate(-0 17.036866 261.655521)">99.2%</text>
   </g>
   <g id="text_13">
    <text style="fill: #262626; font: 8px 'Arial', 'DejaVu Sans', 'Liberation Sans', 'Bitstream Vera Sans', sans-serif; text-anchor: end" x="17.873293" y="245.17514" transform="rotate(-0 17.873293 245.17514)">93.7%</text>
   </g>
   <g id="text_14">
    <text style="fill: #262626; font: 8px 'Arial', 'DejaVu Sans', 'Liberation Sans', 'Bitstream Vera Sans', sans-serif; text-anchor: end" x="18.171636" y="228.69476" transform="rotate(-0 18.171636 228.69476)">91.7%</text>
   </g>
  </g>
  <g id="axes_4">
   <g id="patch_15">
    <path d="M 71.624571 205.696552 
L 123.12 205.696552 
L 123.12 157.903448 
L 71.624571 157.903448 
z
" style="fill: #ffffff"/>
   </g>
   <g id="matplotlib.axis_5">
    <g id="ytick_13">
     <g id="line2d_3">
      <path d="M 71.624571 205.696552 
L 123.12 205.696552 
" clip-path="url(#p456fbece67)" style="fill: none; stroke: #cccccc; stroke-linecap: round"/>
     </g>
     <g id="text_15">
      <text style="fill: #262626; font: 8px 'Arial', 'DejaVu Sans', 'Liberation Sans', 'Bitstream Vera Sans', sans-serif; text-anchor: end" x="64.624571" y="208.559677" transform="rotate(-0 64.624571 208.559677)">0.0e+00</text>
     </g>
    </g>
    <g id="ytick_14">
     <g id="line2d_4">
      <path d="M 71.624571 168.569927 
L 123.12 168.569927 
" clip-path="url(#p456fbece67)" style="fill: none; stroke: #cccccc; stroke-linecap: round"/>
     </g>
     <g id="text_16">
      <text style="fill: #262626; font: 8px 'Arial', 'DejaVu Sans', 'Liberation Sans', 'Bitstream Vera Sans', sans-serif; text-anchor: end" x="64.624571" y="171.433052" transform="rotate(-0 64.624571 171.433052)">2.0e+04</text>
     </g>
    </g>
    <g id="text_17">
     <text style="fill: #262626; font: 8px 'Arial', 'DejaVu Sans', 'Liberation Sans', 'Bitstream Vera Sans', sans-serif" transform="translate(21.434321 190.4675) rotate(-90)"># NT</text>
     <text style="fill: #262626; font: 8px 'Arial', 'DejaVu Sans', 'Liberation Sans', 'Bitstream Vera Sans', sans-serif" transform="translate(29.895821 195.805) rotate(-90)">variants</text>
    </g>
   </g>
   <g id="patch_16">
    <path d="M 71.624571 205.696552 
L 71.624571 157.903448 
" style="fill: none; stroke: #cccccc; stroke-width: 1.25; stroke-linejoin: miter; stroke-linecap: square"/>
   </g>
   <g id="text_18">
    <text style="fill: #262626; font: 8px 'Arial', 'DejaVu Sans', 'Liberation Sans', 'Bitstream Vera Sans', sans-serif; text-anchor: middle" x="80.207143" y="158.111379" transform="rotate(-0 80.207143 158.111379)">24520</text>
   </g>
   <g id="text_19">
    <text style="fill: #262626; font: 8px 'Arial', 'DejaVu Sans', 'Liberation Sans', 'Bitstream Vera Sans', sans-serif; text-anchor: middle" x="97.372286" y="200.10716" transform="rotate(-0 97.372286 200.10716)">1897</text>
   </g>
   <g id="text_20">
    <text style="fill: #262626; font: 8px 'Arial', 'DejaVu Sans', 'Liberation Sans', 'Bitstream Vera Sans', sans-serif; text-anchor: middle" x="114.537429" y="201.118861" transform="rotate(-0 114.537429 201.118861)">1352</text>
   </g>
   <g id="patch_17">
    <path d="M 75.915857 205.696552 
L 84.498429 205.696552 
L 84.498429 166.637487 
L 75.915857 166.637487 
z
" clip-path="url(#p456fbece67)" style="fill: #ffc0cb; stroke: #ffffff; stroke-linejoin: miter"/>
   </g>
   <g id="patch_18">
    <path d="M 93.081 205.696552 
L 101.663571 205.696552 
L 101.663571 202.57049 
L 93.081 202.57049 
z
" clip-path="url(#p456fbece67)" style="fill: #ffc0cb; stroke: #ffffff; stroke-linejoin: miter"/>
   </g>
   <g id="patch_19">
    <path d="M 110.246143 205.696552 
L 118.828714 205.696552 
L 118.828714 203.465242 
L 110.246143 203.465242 
z
" clip-path="url(#p456fbece67)" style="fill: #ffc0cb; stroke: #ffffff; stroke-linejoin: miter"/>
   </g>
   <g id="patch_20">
    <path d="M 75.915857 166.637487 
L 84.498429 166.637487 
L 84.498429 160.413208 
L 75.915857 160.413208 
z
" clip-path="url(#p456fbece67)" style="fill: #87ceeb; stroke: #ffffff; stroke-linejoin: miter"/>
   </g>
   <g id="patch_21">
    <path d="M 93.081 202.57049 
L 101.663571 202.57049 
L 101.663571 202.186229 
L 93.081 202.186229 
z
" clip-path="url(#p456fbece67)" style="fill: #87ceeb; stroke: #ffffff; stroke-linejoin: miter"/>
   </g>
   <g id="patch_22">
    <path d="M 110.246143 203.465242 
L 118.828714 203.465242 
L 118.828714 203.196074 
L 110.246143 203.196074 
z
" clip-path="url(#p456fbece67)" style="fill: #87ceeb; stroke: #ffffff; stroke-linejoin: miter"/>
   </g>
   <g id="patch_23">
    <path d="M 75.915857 160.413208 
L 84.498429 160.413208 
L 84.498429 160.17931 
L 75.915857 160.17931 
z
" clip-path="url(#p456fbece67)" style="stroke: #ffffff; stroke-linejoin: miter"/>
   </g>
   <g id="patch_24">
    <path d="M 93.081 202.186229 
L 101.663571 202.186229 
L 101.663571 202.175091 
L 93.081 202.175091 
z
" clip-path="url(#p456fbece67)" style="stroke: #ffffff; stroke-linejoin: miter"/>
   </g>
   <g id="patch_25">
    <path d="M 110.246143 203.196074 
L 118.828714 203.196074 
L 118.828714 203.186792 
L 110.246143 203.186792 
z
" clip-path="url(#p456fbece67)" style="stroke: #ffffff; stroke-linejoin: miter"/>
   </g>
  </g>
  <g id="axes_5">
   <g id="patch_26">
    <path d="M 71.624571 148.344828 
L 123.12 148.344828 
L 123.12 100.551724 
L 71.624571 100.551724 
z
" style="fill: #ffffff"/>
   </g>
   <g id="matplotlib.axis_6">
    <g id="ytick_15">
     <g id="line2d_5">
      <path d="M 71.624571 148.344828 
L 123.12 148.344828 
" clip-path="url(#p77d72e1e53)" style="fill: none; stroke: #cccccc; stroke-linecap: round"/>
     </g>
     <g id="text_21">
      <text style="fill: #262626; font: 8px 'Arial', 'DejaVu Sans', 'Liberation Sans', 'Bitstream Vera Sans', sans-serif; text-anchor: end" x="64.624571" y="151.207953" transform="rotate(-0 64.624571 151.207953)">0.0e+00</text>
     </g>
    </g>
    <g id="ytick_16">
     <g id="line2d_6">
      <path d="M 71.624571 111.218203 
L 123.12 111.218203 
" clip-path="url(#p77d72e1e53)" style="fill: none; stroke: #cccccc; stroke-linecap: round"/>
     </g>
     <g id="text_22">
      <text style="fill: #262626; font: 8px 'Arial', 'DejaVu Sans', 'Liberation Sans', 'Bitstream Vera Sans', sans-serif; text-anchor: end" x="64.624571" y="114.081328" transform="rotate(-0 64.624571 114.081328)">2.0e+04</text>
     </g>
    </g>
    <g id="text_23">
     <text style="fill: #262626; font: 8px 'Arial', 'DejaVu Sans', 'Liberation Sans', 'Bitstream Vera Sans', sans-serif" transform="translate(21.434321 133.115776) rotate(-90)"># NT</text>
     <text style="fill: #262626; font: 8px 'Arial', 'DejaVu Sans', 'Liberation Sans', 'Bitstream Vera Sans', sans-serif" transform="translate(29.895821 138.453276) rotate(-90)">variants</text>
    </g>
   </g>
   <g id="patch_27">
    <path d="M 71.624571 148.344828 
L 71.624571 100.551724 
" style="fill: none; stroke: #cccccc; stroke-width: 1.25; stroke-linejoin: miter; stroke-linecap: square"/>
   </g>
   <g id="text_24">
    <text style="fill: #262626; font: 8px 'Arial', 'DejaVu Sans', 'Liberation Sans', 'Bitstream Vera Sans', sans-serif; text-anchor: middle" x="80.207143" y="100.759655" transform="rotate(-0 80.207143 100.759655)">24520</text>
   </g>
   <g id="text_25">
    <text style="fill: #262626; font: 8px 'Arial', 'DejaVu Sans', 'Liberation Sans', 'Bitstream Vera Sans', sans-serif; text-anchor: middle" x="97.372286" y="142.755436" transform="rotate(-0 97.372286 142.755436)">1897</text>
   </g>
   <g id="text_26">
    <text style="fill: #262626; font: 8px 'Arial', 'DejaVu Sans', 'Liberation Sans', 'Bitstream Vera Sans', sans-serif; text-anchor: middle" x="114.537429" y="143.767137" transform="rotate(-0 114.537429 143.767137)">1352</text>
   </g>
   <g id="patch_28">
    <path d="M 75.915857 148.344828 
L 84.498429 148.344828 
L 84.498429 148.339259 
L 75.915857 148.339259 
z
" clip-path="url(#p77d72e1e53)" style="fill: #ff0000; stroke: #ffffff; stroke-linejoin: miter"/>
   </g>
   <g id="patch_29">
    <path d="M 93.081 148.344828 
L 101.663571 148.344828 
L 101.663571 148.339259 
L 93.081 148.339259 
z
" clip-path="url(#p77d72e1e53)" style="fill: #ff0000; stroke: #ffffff; stroke-linejoin: miter"/>
   </g>
   <g id="patch_30">
    <path d="M 110.246143 148.344828 
L 118.828714 148.344828 
L 118.828714 148.341115 
L 110.246143 148.341115 
z
" clip-path="url(#p77d72e1e53)" style="fill: #ff0000; stroke: #ffffff; stroke-linejoin: miter"/>
   </g>
   <g id="patch_31">
    <path d="M 75.915857 148.339259 
L 84.498429 148.339259 
L 84.498429 105.714181 
L 75.915857 105.714181 
z
" clip-path="url(#p77d72e1e53)" style="fill: #ffa500; stroke: #ffffff; stroke-linejoin: miter"/>
   </g>
   <g id="patch_32">
    <path d="M 93.081 148.339259 
L 101.663571 148.339259 
L 101.663571 144.823367 
L 93.081 144.823367 
z
" clip-path="url(#p77d72e1e53)" style="fill: #ffa500; stroke: #ffffff; stroke-linejoin: miter"/>
   </g>
   <g id="patch_33">
    <path d="M 110.246143 148.341115 
L 118.828714 148.341115 
L 118.828714 145.835068 
L 110.246143 145.835068 
z
" clip-path="url(#p77d72e1e53)" style="fill: #ffa500; stroke: #ffffff; stroke-linejoin: miter"/>
   </g>
   <g id="patch_34">
    <path d="M 75.915857 105.714181 
L 84.498429 105.714181 
L 84.498429 102.827586 
L 75.915857 102.827586 
z
" clip-path="url(#p77d72e1e53)" style="fill: #008000; stroke: #ffffff; stroke-linejoin: miter"/>
   </g>
   <g id="patch_35">
    <path d="M 93.081 144.823367 
L 101.663571 144.823367 
L 101.663571 144.823367 
L 93.081 144.823367 
z
" clip-path="url(#p77d72e1e53)" style="fill: #008000; stroke: #ffffff; stroke-linejoin: miter"/>
   </g>
   <g id="patch_36">
    <path d="M 110.246143 145.835068 
L 118.828714 145.835068 
L 118.828714 145.835068 
L 110.246143 145.835068 
z
" clip-path="url(#p77d72e1e53)" style="fill: #008000; stroke: #ffffff; stroke-linejoin: miter"/>
   </g>
  </g>
  <g id="axes_6">
   <g id="patch_37">
    <path d="M 71.624571 90.993103 
L 123.12 90.993103 
L 123.12 43.2 
L 71.624571 43.2 
z
" style="fill: #ffffff"/>
   </g>
   <g id="matplotlib.axis_7">
    <g id="ytick_17">
     <g id="line2d_7">
      <path d="M 71.624571 90.993103 
L 123.12 90.993103 
" clip-path="url(#p08701552ce)" style="fill: none; stroke: #cccccc; stroke-linecap: round"/>
     </g>
     <g id="text_27">
      <text style="fill: #262626; font: 8px 'Arial', 'DejaVu Sans', 'Liberation Sans', 'Bitstream Vera Sans', sans-serif; text-anchor: end" x="64.624571" y="93.856228" transform="rotate(-0 64.624571 93.856228)">0</text>
     </g>
    </g>
    <g id="ytick_18">
     <g id="line2d_8">
      <path d="M 71.624571 59.131034 
L 123.12 59.131034 
" clip-path="url(#p08701552ce)" style="fill: none; stroke: #cccccc; stroke-linecap: round"/>
     </g>
     <g id="text_28">
      <text style="fill: #262626; font: 8px 'Arial', 'DejaVu Sans', 'Liberation Sans', 'Bitstream Vera Sans', sans-serif; text-anchor: end" x="64.624571" y="61.994159" transform="rotate(-0 64.624571 61.994159)">2</text>
     </g>
    </g>
    <g id="text_29">
     <text style="fill: #262626; font: 8px 'Arial', 'DejaVu Sans', 'Liberation Sans', 'Bitstream Vera Sans', sans-serif" transform="translate(21.223571 78.218427) rotate(-90)">Log10</text>
     <text style="fill: #262626; font: 8px 'Arial', 'DejaVu Sans', 'Liberation Sans', 'Bitstream Vera Sans', sans-serif" transform="translate(29.895821 82.658427) rotate(-90)">input RC</text>
    </g>
   </g>
   <g id="PolyCollection_1">
    <defs>
     <path id="m2ed04a2fc6" d="M 76.180272 -282.632984 
L 75.07927 -282.632984 
L 74.942407 -283.076181 
L 74.798008 -283.519378 
L 74.649899 -283.962575 
L 74.500778 -284.405772 
L 74.35205 -284.848969 
L 74.204232 -285.292166 
L 74.057771 -285.735363 
L 73.91393 -286.17856 
L 73.775412 -286.621757 
L 73.646507 -287.064954 
L 73.532751 -287.508151 
L 73.440233 -287.951348 
L 73.37476 -288.394545 
L 73.341086 -288.837742 
L 73.342378 -289.280939 
L 73.379992 -289.724136 
L 73.453494 -290.167333 
L 73.5608 -290.61053 
L 73.698255 -291.053727 
L 73.860627 -291.496924 
L 74.041162 -291.940121 
L 74.231901 -292.383318 
L 74.424383 -292.826515 
L 74.610627 -293.269712 
L 74.784069 -293.712909 
L 74.940171 -294.156106 
L 75.076518 -294.599303 
L 75.192518 -295.0425 
L 75.288911 -295.485697 
L 75.367299 -295.928894 
L 75.429805 -296.372091 
L 75.478831 -296.815288 
L 75.516838 -297.258485 
L 75.546138 -297.701682 
L 75.568705 -298.144879 
L 75.586074 -298.588076 
L 75.599358 -299.031273 
L 75.609342 -299.47447 
L 75.616623 -299.917667 
L 75.621712 -300.360864 
L 75.62509 -300.804061 
L 75.627204 -301.247258 
L 75.628446 -301.690455 
L 75.629128 -302.133652 
L 75.629479 -302.576849 
L 75.629646 -303.020046 
L 75.629721 -303.463243 
L 75.629753 -303.90644 
L 75.629765 -304.349637 
L 75.629769 -304.792834 
L 75.629771 -305.236031 
L 75.629771 -305.679228 
L 75.629771 -306.122425 
L 75.629771 -306.565622 
L 75.629771 -307.008819 
L 75.629771 -307.452016 
L 75.629771 -307.895213 
L 75.629771 -308.33841 
L 75.629771 -308.781607 
L 75.629771 -309.224804 
L 75.629771 -309.668001 
L 75.629771 -310.111198 
L 75.629771 -310.554395 
L 75.629771 -310.997592 
L 75.629771 -311.440788 
L 75.629771 -311.883985 
L 75.629771 -312.327182 
L 75.629771 -312.770379 
L 75.629771 -313.213576 
L 75.629771 -313.656773 
L 75.629771 -314.09997 
L 75.629771 -314.543167 
L 75.629771 -314.986364 
L 75.629771 -315.429561 
L 75.629771 -315.872758 
L 75.629771 -316.315955 
L 75.629771 -316.759152 
L 75.629771 -317.202349 
L 75.629771 -317.645546 
L 75.629771 -318.088743 
L 75.629771 -318.53194 
L 75.629769 -318.975137 
L 75.629765 -319.418334 
L 75.629752 -319.861531 
L 75.62972 -320.304728 
L 75.629643 -320.747925 
L 75.629475 -321.191122 
L 75.629127 -321.634319 
L 75.628465 -322.077516 
L 75.627294 -322.520713 
L 75.62538 -322.96391 
L 75.622495 -323.407107 
L 75.618498 -323.850304 
L 75.613444 -324.293501 
L 75.607664 -324.736698 
L 75.601787 -325.179895 
L 75.596656 -325.623092 
L 75.593135 -326.066289 
L 75.591881 -326.509486 
L 75.667662 -326.509486 
L 75.667662 -326.509486 
L 75.666407 -326.066289 
L 75.662887 -325.623092 
L 75.657756 -325.179895 
L 75.651879 -324.736698 
L 75.646099 -324.293501 
L 75.641045 -323.850304 
L 75.637048 -323.407107 
L 75.634163 -322.96391 
L 75.632249 -322.520713 
L 75.631078 -322.077516 
L 75.630416 -321.634319 
L 75.630068 -321.191122 
L 75.629899 -320.747925 
L 75.629823 -320.304728 
L 75.629791 -319.861531 
L 75.629778 -319.418334 
L 75.629774 -318.975137 
L 75.629772 -318.53194 
L 75.629772 -318.088743 
L 75.629771 -317.645546 
L 75.629771 -317.202349 
L 75.629771 -316.759152 
L 75.629771 -316.315955 
L 75.629771 -315.872758 
L 75.629771 -315.429561 
L 75.629771 -314.986364 
L 75.629771 -314.543167 
L 75.629771 -314.09997 
L 75.629771 -313.656773 
L 75.629771 -313.213576 
L 75.629771 -312.770379 
L 75.629771 -312.327182 
L 75.629771 -311.883985 
L 75.629771 -311.440788 
L 75.629771 -310.997592 
L 75.629771 -310.554395 
L 75.629771 -310.111198 
L 75.629771 -309.668001 
L 75.629771 -309.224804 
L 75.629771 -308.781607 
L 75.629771 -308.33841 
L 75.629771 -307.895213 
L 75.629771 -307.452016 
L 75.629771 -307.008819 
L 75.629771 -306.565622 
L 75.629771 -306.122425 
L 75.629772 -305.679228 
L 75.629772 -305.236031 
L 75.629774 -304.792834 
L 75.629778 -304.349637 
L 75.62979 -303.90644 
L 75.629821 -303.463243 
L 75.629896 -303.020046 
L 75.630064 -302.576849 
L 75.630415 -302.133652 
L 75.631097 -301.690455 
L 75.632339 -301.247258 
L 75.634453 -300.804061 
L 75.63783 -300.360864 
L 75.64292 -299.917667 
L 75.650201 -299.47447 
L 75.660185 -299.031273 
L 75.673469 -298.588076 
L 75.690838 -298.144879 
L 75.713405 -297.701682 
L 75.742704 -297.258485 
L 75.780712 -296.815288 
L 75.829738 -296.372091 
L 75.892244 -295.928894 
L 75.970632 -295.485697 
L 76.067024 -295.0425 
L 76.183025 -294.599303 
L 76.319372 -294.156106 
L 76.475474 -293.712909 
L 76.648916 -293.269712 
L 76.83516 -292.826515 
L 77.027642 -292.383318 
L 77.218381 -291.940121 
L 77.398916 -291.496924 
L 77.561288 -291.053727 
L 77.698743 -290.61053 
L 77.806049 -290.167333 
L 77.879551 -289.724136 
L 77.917164 -289.280939 
L 77.918457 -288.837742 
L 77.884783 -288.394545 
L 77.81931 -287.951348 
L 77.726792 -287.508151 
L 77.613036 -287.064954 
L 77.484131 -286.621757 
L 77.345613 -286.17856 
L 77.201772 -285.735363 
L 77.055311 -285.292166 
L 76.907493 -284.848969 
L 76.758765 -284.405772 
L 76.609643 -283.962575 
L 76.461534 -283.519378 
L 76.317135 -283.076181 
L 76.180272 -282.632984 
z
" style="stroke: #000000; stroke-width: 0.5"/>
    </defs>
    <g clip-path="url(#p08701552ce)">
     <use xlink:href="#m2ed04a2fc6" x="0" y="360" style="stroke: #000000; stroke-width: 0.5"/>
    </g>
   </g>
   <g id="PolyCollection_2">
    <defs>
     <path id="m6834453c04" d="M 80.218271 -277.674463 
L 80.196014 -277.674463 
L 80.193593 -277.872271 
L 80.19154 -278.070078 
L 80.190001 -278.267885 
L 80.18893 -278.465692 
L 80.188031 -278.6635 
L 80.186727 -278.861307 
L 80.184201 -279.059114 
L 80.17952 -279.256921 
L 80.171854 -279.454728 
L 80.16074 -279.652536 
L 80.146307 -279.850343 
L 80.129303 -280.04815 
L 80.110821 -280.245957 
L 80.09174 -280.443765 
L 80.072114 -280.641572 
L 80.050873 -280.839379 
L 80.026068 -281.037186 
L 79.995621 -281.234994 
L 79.958189 -281.432801 
L 79.913628 -281.630608 
L 79.862787 -281.828415 
L 79.806867 -282.026223 
L 79.746899 -282.22403 
L 79.683773 -282.421837 
L 79.618751 -282.619644 
L 79.553865 -282.817452 
L 79.491591 -283.015259 
L 79.433713 -283.213066 
L 79.379959 -283.410873 
L 79.327346 -283.608681 
L 79.270861 -283.806488 
L 79.205327 -284.004295 
L 79.127538 -284.202102 
L 79.037497 -284.399909 
L 78.93814 -284.597717 
L 78.833889 -284.795524 
L 78.729093 -284.993331 
L 78.627314 -285.191138 
L 78.531575 -285.388946 
L 78.444854 -285.586753 
L 78.369924 -285.78456 
L 78.308344 -285.982367 
L 78.259245 -286.180175 
L 78.218958 -286.377982 
L 78.182081 -286.575789 
L 78.143631 -286.773596 
L 78.101174 -286.971404 
L 78.055733 -287.169211 
L 78.011051 -287.367018 
L 77.971786 -287.564825 
L 77.941812 -287.762633 
L 77.92356 -287.96044 
L 77.918457 -288.158247 
L 77.927764 -288.356054 
L 77.952923 -288.553862 
L 77.995059 -288.751669 
L 78.053959 -288.949476 
L 78.12726 -289.147283 
L 78.210482 -289.34509 
L 78.298031 -289.542898 
L 78.384704 -289.740705 
L 78.466952 -289.938512 
L 78.54331 -290.136319 
L 78.613971 -290.334127 
L 78.679936 -290.531934 
L 78.742292 -290.729741 
L 78.801879 -290.927548 
L 78.859284 -291.125356 
L 78.915026 -291.323163 
L 78.969789 -291.52097 
L 79.024665 -291.718777 
L 79.081213 -291.916585 
L 79.141172 -292.114392 
L 79.205799 -292.312199 
L 79.275194 -292.510006 
L 79.348078 -292.707814 
L 79.422256 -292.905621 
L 79.495463 -293.103428 
L 79.566026 -293.301235 
L 79.632968 -293.499042 
L 79.695656 -293.69685 
L 79.753432 -293.894657 
L 79.805584 -294.092464 
L 79.851686 -294.290271 
L 79.892041 -294.488079 
L 79.92783 -294.685886 
L 79.960805 -294.883693 
L 79.992618 -295.0815 
L 80.024156 -295.279308 
L 80.055238 -295.477115 
L 80.084808 -295.674922 
L 80.111477 -295.872729 
L 80.134117 -296.070537 
L 80.152248 -296.268344 
L 80.166102 -296.466151 
L 80.176415 -296.663958 
L 80.184102 -296.861766 
L 80.189969 -297.059573 
L 80.194576 -297.25738 
L 80.21971 -297.25738 
L 80.21971 -297.25738 
L 80.224316 -297.059573 
L 80.230184 -296.861766 
L 80.237871 -296.663958 
L 80.248184 -296.466151 
L 80.262038 -296.268344 
L 80.280168 -296.070537 
L 80.302809 -295.872729 
L 80.329478 -295.674922 
L 80.359048 -295.477115 
L 80.39013 -295.279308 
L 80.421668 -295.0815 
L 80.453481 -294.883693 
L 80.486456 -294.685886 
L 80.522245 -294.488079 
L 80.5626 -294.290271 
L 80.608702 -294.092464 
L 80.660853 -293.894657 
L 80.71863 -293.69685 
L 80.781318 -293.499042 
L 80.84826 -293.301235 
L 80.918823 -293.103428 
L 80.99203 -292.905621 
L 81.066208 -292.707814 
L 81.139091 -292.510006 
L 81.208486 -292.312199 
L 81.273114 -292.114392 
L 81.333073 -291.916585 
L 81.389621 -291.718777 
L 81.444497 -291.52097 
L 81.49926 -291.323163 
L 81.555002 -291.125356 
L 81.612407 -290.927548 
L 81.671993 -290.729741 
L 81.73435 -290.531934 
L 81.800315 -290.334127 
L 81.870975 -290.136319 
L 81.947334 -289.938512 
L 82.029582 -289.740705 
L 82.116255 -289.542898 
L 82.203803 -289.34509 
L 82.287026 -289.147283 
L 82.360327 -288.949476 
L 82.419227 -288.751669 
L 82.461363 -288.553862 
L 82.486522 -288.356054 
L 82.495829 -288.158247 
L 82.490726 -287.96044 
L 82.472473 -287.762633 
L 82.442499 -287.564825 
L 82.403235 -287.367018 
L 82.358553 -287.169211 
L 82.313112 -286.971404 
L 82.270655 -286.773596 
L 82.232205 -286.575789 
L 82.195328 -286.377982 
L 82.155041 -286.180175 
L 82.105942 -285.982367 
L 82.044362 -285.78456 
L 81.969432 -285.586753 
L 81.882711 -285.388946 
L 81.786972 -285.191138 
L 81.685193 -284.993331 
L 81.580397 -284.795524 
L 81.476146 -284.597717 
L 81.376789 -284.399909 
L 81.286748 -284.202102 
L 81.208959 -284.004295 
L 81.143425 -283.806488 
L 81.086939 -283.608681 
L 81.034327 -283.410873 
L 80.980573 -283.213066 
L 80.922695 -283.015259 
L 80.860421 -282.817452 
L 80.795535 -282.619644 
L 80.730513 -282.421837 
L 80.667386 -282.22403 
L 80.607418 -282.026223 
L 80.551499 -281.828415 
L 80.500658 -281.630608 
L 80.456096 -281.432801 
L 80.418665 -281.234994 
L 80.388218 -281.037186 
L 80.363412 -280.839379 
L 80.342172 -280.641572 
L 80.322546 -280.443765 
L 80.303464 -280.245957 
L 80.284983 -280.04815 
L 80.267979 -279.850343 
L 80.253546 -279.652536 
L 80.242431 -279.454728 
L 80.234766 -279.256921 
L 80.230085 -279.059114 
L 80.227558 -278.861307 
L 80.226254 -278.6635 
L 80.225356 -278.465692 
L 80.224285 -278.267885 
L 80.222745 -278.070078 
L 80.220693 -277.872271 
L 80.218271 -277.674463 
z
" style="stroke: #000000; stroke-width: 0.5"/>
    </defs>
    <g clip-path="url(#p08701552ce)">
     <use xlink:href="#m6834453c04" x="0" y="360" style="fill: #94c9de; stroke: #000000; stroke-width: 0.5"/>
    </g>
   </g>
   <g id="PolyCollection_3">
    <defs>
     <path id="m213ab61906" d="M 84.785312 -274.869147 
L 84.783717 -274.869147 
L 84.783833 -275.102909 
L 84.784083 -275.336671 
L 84.784282 -275.570433 
L 84.784297 -275.804195 
L 84.784047 -276.037956 
L 84.783453 -276.271718 
L 84.782446 -276.50548 
L 84.780926 -276.739242 
L 84.778682 -276.973003 
L 84.775457 -277.206765 
L 84.77125 -277.440527 
L 84.76643 -277.674289 
L 84.761455 -277.908051 
L 84.75662 -278.141812 
L 84.751756 -278.375574 
L 84.745635 -278.609336 
L 84.73621 -278.843098 
L 84.721935 -279.076859 
L 84.702352 -279.310621 
L 84.678041 -279.544383 
L 84.65141 -279.778145 
L 84.626332 -280.011907 
L 84.60482 -280.245668 
L 84.584455 -280.47943 
L 84.560078 -280.713192 
L 84.527269 -280.946954 
L 84.483874 -281.180715 
L 84.429567 -281.414477 
L 84.366121 -281.648239 
L 84.29832 -281.882001 
L 84.231686 -282.115762 
L 84.167586 -282.349524 
L 84.101612 -282.583286 
L 84.02692 -282.817048 
L 83.938769 -283.05081 
L 83.837914 -283.284571 
L 83.731549 -283.518333 
L 83.628781 -283.752095 
L 83.53227 -283.985857 
L 83.435916 -284.219618 
L 83.333164 -284.45338 
L 83.22519 -284.687142 
L 83.117918 -284.920904 
L 83.014444 -285.154666 
L 82.915991 -285.388427 
L 82.827603 -285.622189 
L 82.755249 -285.855951 
L 82.697282 -286.089713 
L 82.644874 -286.323474 
L 82.591693 -286.557236 
L 82.540888 -286.790998 
L 82.50446 -287.02476 
L 82.495829 -287.258522 
L 82.519034 -287.492283 
L 82.565123 -287.726045 
L 82.62106 -287.959807 
L 82.679349 -288.193569 
L 82.736304 -288.42733 
L 82.787183 -288.661092 
L 82.831287 -288.894854 
L 82.878281 -289.128616 
L 82.941644 -289.362378 
L 83.027403 -289.596139 
L 83.131922 -289.829901 
L 83.246758 -290.063663 
L 83.363178 -290.297425 
L 83.474226 -290.531186 
L 83.575711 -290.764948 
L 83.667019 -290.99871 
L 83.750915 -291.232472 
L 83.8326 -291.466234 
L 83.917669 -291.699995 
L 84.008059 -291.933757 
L 84.098982 -292.167519 
L 84.182022 -292.401281 
L 84.253182 -292.635042 
L 84.316336 -292.868804 
L 84.377098 -293.102566 
L 84.435623 -293.336328 
L 84.487694 -293.57009 
L 84.530917 -293.803851 
L 84.567149 -294.037613 
L 84.599816 -294.271375 
L 84.631049 -294.505137 
L 84.661084 -294.738898 
L 84.688924 -294.97266 
L 84.713101 -295.206422 
L 84.732211 -295.440184 
L 84.745743 -295.673946 
L 84.754858 -295.907707 
L 84.761552 -296.141469 
L 84.76695 -296.375231 
L 84.771113 -296.608993 
L 84.774144 -296.842754 
L 84.776612 -297.076516 
L 84.778945 -297.310278 
L 84.780992 -297.54404 
L 84.782411 -297.777802 
L 84.783213 -298.011563 
L 84.785815 -298.011563 
L 84.785815 -298.011563 
L 84.786618 -297.777802 
L 84.788037 -297.54404 
L 84.790084 -297.310278 
L 84.792417 -297.076516 
L 84.794884 -296.842754 
L 84.797915 -296.608993 
L 84.802079 -296.375231 
L 84.807477 -296.141469 
L 84.81417 -295.907707 
L 84.823286 -295.673946 
L 84.836818 -295.440184 
L 84.855927 -295.206422 
L 84.880105 -294.97266 
L 84.907945 -294.738898 
L 84.93798 -294.505137 
L 84.969213 -294.271375 
L 85.00188 -294.037613 
L 85.038112 -293.803851 
L 85.081334 -293.57009 
L 85.133406 -293.336328 
L 85.191931 -293.102566 
L 85.252692 -292.868804 
L 85.315846 -292.635042 
L 85.387007 -292.401281 
L 85.470047 -292.167519 
L 85.56097 -291.933757 
L 85.651359 -291.699995 
L 85.736429 -291.466234 
L 85.818114 -291.232472 
L 85.90201 -290.99871 
L 85.993317 -290.764948 
L 86.094803 -290.531186 
L 86.205851 -290.297425 
L 86.322271 -290.063663 
L 86.437106 -289.829901 
L 86.541626 -289.596139 
L 86.627385 -289.362378 
L 86.690747 -289.128616 
L 86.737741 -288.894854 
L 86.781845 -288.661092 
L 86.832725 -288.42733 
L 86.889679 -288.193569 
L 86.947968 -287.959807 
L 87.003905 -287.726045 
L 87.049995 -287.492283 
L 87.0732 -287.258522 
L 87.064568 -287.02476 
L 87.02814 -286.790998 
L 86.977336 -286.557236 
L 86.924155 -286.323474 
L 86.871747 -286.089713 
L 86.813779 -285.855951 
L 86.741425 -285.622189 
L 86.653038 -285.388427 
L 86.554584 -285.154666 
L 86.45111 -284.920904 
L 86.343839 -284.687142 
L 86.235865 -284.45338 
L 86.133112 -284.219618 
L 86.036758 -283.985857 
L 85.940247 -283.752095 
L 85.83748 -283.518333 
L 85.731115 -283.284571 
L 85.630259 -283.05081 
L 85.542109 -282.817048 
L 85.467417 -282.583286 
L 85.401443 -282.349524 
L 85.337342 -282.115762 
L 85.270709 -281.882001 
L 85.202907 -281.648239 
L 85.139461 -281.414477 
L 85.085154 -281.180715 
L 85.041759 -280.946954 
L 85.008951 -280.713192 
L 84.984573 -280.47943 
L 84.964209 -280.245668 
L 84.942697 -280.011907 
L 84.917619 -279.778145 
L 84.890988 -279.544383 
L 84.866677 -279.310621 
L 84.847093 -279.076859 
L 84.832818 -278.843098 
L 84.823393 -278.609336 
L 84.817272 -278.375574 
L 84.812408 -278.141812 
L 84.807574 -277.908051 
L 84.802599 -277.674289 
L 84.797779 -277.440527 
L 84.793572 -277.206765 
L 84.790347 -276.973003 
L 84.788103 -276.739242 
L 84.786583 -276.50548 
L 84.785575 -276.271718 
L 84.784982 -276.037956 
L 84.784732 -275.804195 
L 84.784746 -275.570433 
L 84.784945 -275.336671 
L 84.785196 -275.102909 
L 84.785312 -274.869147 
z
" style="stroke: #000000; stroke-width: 0.5"/>
    </defs>
    <g clip-path="url(#p08701552ce)">
     <use xlink:href="#m213ab61906" x="0" y="360" style="fill: #f7c8d0; stroke: #000000; stroke-width: 0.5"/>
    </g>
   </g>
   <g id="PolyCollection_4">
    <defs>
     <path id="m74280b5e0d" d="M 92.872848 -280.80164 
L 92.71698 -280.80164 
L 92.714825 -280.876992 
L 92.712707 -280.952344 
L 92.710633 -281.027696 
L 92.708607 -281.103047 
L 92.706636 -281.178399 
L 92.704726 -281.253751 
L 92.702881 -281.329103 
L 92.701108 -281.404455 
L 92.699411 -281.479807 
L 92.697796 -281.555158 
L 92.696267 -281.63051 
L 92.69483 -281.705862 
L 92.693488 -281.781214 
L 92.692246 -281.856566 
L 92.691106 -281.931918 
L 92.690074 -282.007269 
L 92.689151 -282.082621 
L 92.68834 -282.157973 
L 92.687644 -282.233325 
L 92.687064 -282.308677 
L 92.686602 -282.384028 
L 92.686258 -282.45938 
L 92.686034 -282.534732 
L 92.685929 -282.610084 
L 92.685943 -282.685436 
L 92.686076 -282.760788 
L 92.686326 -282.836139 
L 92.68669 -282.911491 
L 92.687169 -282.986843 
L 92.687758 -283.062195 
L 92.688455 -283.137547 
L 92.689257 -283.212899 
L 92.69016 -283.28825 
L 92.691159 -283.363602 
L 92.692252 -283.438954 
L 92.693433 -283.514306 
L 92.694698 -283.589658 
L 92.69604 -283.66501 
L 92.697456 -283.740361 
L 92.698939 -283.815713 
L 92.700484 -283.891065 
L 92.702085 -283.966417 
L 92.703736 -284.041769 
L 92.705431 -284.117121 
L 92.707164 -284.192472 
L 92.70893 -284.267824 
L 92.710721 -284.343176 
L 92.712532 -284.418528 
L 92.714357 -284.49388 
L 92.71619 -284.569232 
L 92.718026 -284.644583 
L 92.719859 -284.719935 
L 92.721684 -284.795287 
L 92.723495 -284.870639 
L 92.725287 -284.945991 
L 92.727056 -285.021343 
L 92.728798 -285.096694 
L 92.730507 -285.172046 
L 92.73218 -285.247398 
L 92.733814 -285.32275 
L 92.735406 -285.398102 
L 92.736951 -285.473453 
L 92.738448 -285.548805 
L 92.739895 -285.624157 
L 92.741289 -285.699509 
L 92.742629 -285.774861 
L 92.743913 -285.850213 
L 92.745141 -285.925564 
L 92.746313 -286.000916 
L 92.747428 -286.076268 
L 92.748485 -286.15162 
L 92.749487 -286.226972 
L 92.750433 -286.302324 
L 92.751326 -286.377675 
L 92.752165 -286.453027 
L 92.752953 -286.528379 
L 92.753693 -286.603731 
L 92.754385 -286.679083 
L 92.755034 -286.754435 
L 92.75564 -286.829786 
L 92.756208 -286.905138 
L 92.756741 -286.98049 
L 92.75724 -287.055842 
L 92.757711 -287.131194 
L 92.758155 -287.206546 
L 92.758576 -287.281897 
L 92.758979 -287.357249 
L 92.759365 -287.432601 
L 92.759739 -287.507953 
L 92.760104 -287.583305 
L 92.760463 -287.658657 
L 92.760819 -287.734008 
L 92.761175 -287.80936 
L 92.761534 -287.884712 
L 92.761898 -287.960064 
L 92.762271 -288.035416 
L 92.762654 -288.110767 
L 92.763049 -288.186119 
L 92.763459 -288.261471 
L 92.82637 -288.261471 
L 92.82637 -288.261471 
L 92.826779 -288.186119 
L 92.827175 -288.110767 
L 92.827558 -288.035416 
L 92.82793 -287.960064 
L 92.828295 -287.884712 
L 92.828654 -287.80936 
L 92.82901 -287.734008 
L 92.829366 -287.658657 
L 92.829725 -287.583305 
L 92.830089 -287.507953 
L 92.830463 -287.432601 
L 92.83085 -287.357249 
L 92.831252 -287.281897 
L 92.831674 -287.206546 
L 92.832118 -287.131194 
L 92.832588 -287.055842 
L 92.833088 -286.98049 
L 92.83362 -286.905138 
L 92.834188 -286.829786 
L 92.834795 -286.754435 
L 92.835443 -286.679083 
L 92.836136 -286.603731 
L 92.836875 -286.528379 
L 92.837664 -286.453027 
L 92.838503 -286.377675 
L 92.839395 -286.302324 
L 92.840341 -286.226972 
L 92.841343 -286.15162 
L 92.842401 -286.076268 
L 92.843516 -286.000916 
L 92.844687 -285.925564 
L 92.845915 -285.850213 
L 92.8472 -285.774861 
L 92.84854 -285.699509 
L 92.849934 -285.624157 
L 92.85138 -285.548805 
L 92.852877 -285.473453 
L 92.854423 -285.398102 
L 92.856014 -285.32275 
L 92.857648 -285.247398 
L 92.859322 -285.172046 
L 92.861031 -285.096694 
L 92.862772 -285.021343 
L 92.864541 -284.945991 
L 92.866334 -284.870639 
L 92.868145 -284.795287 
L 92.869969 -284.719935 
L 92.871802 -284.644583 
L 92.873638 -284.569232 
L 92.875472 -284.49388 
L 92.877297 -284.418528 
L 92.879108 -284.343176 
L 92.880899 -284.267824 
L 92.882664 -284.192472 
L 92.884397 -284.117121 
L 92.886092 -284.041769 
L 92.887743 -283.966417 
L 92.889344 -283.891065 
L 92.890889 -283.815713 
L 92.892372 -283.740361 
L 92.893788 -283.66501 
L 92.895131 -283.589658 
L 92.896395 -283.514306 
L 92.897576 -283.438954 
L 92.898669 -283.363602 
L 92.899669 -283.28825 
L 92.900572 -283.212899 
L 92.901374 -283.137547 
L 92.902071 -283.062195 
L 92.90266 -282.986843 
L 92.903138 -282.911491 
L 92.903503 -282.836139 
L 92.903753 -282.760788 
L 92.903885 -282.685436 
L 92.903899 -282.610084 
L 92.903795 -282.534732 
L 92.90357 -282.45938 
L 92.903227 -282.384028 
L 92.902765 -282.308677 
L 92.902185 -282.233325 
L 92.901489 -282.157973 
L 92.900678 -282.082621 
L 92.899755 -282.007269 
L 92.898722 -281.931918 
L 92.897583 -281.856566 
L 92.89634 -281.781214 
L 92.894999 -281.705862 
L 92.893561 -281.63051 
L 92.892033 -281.555158 
L 92.890418 -281.479807 
L 92.888721 -281.404455 
L 92.886948 -281.329103 
L 92.885103 -281.253751 
L 92.883192 -281.178399 
L 92.881221 -281.103047 
L 92.879196 -281.027696 
L 92.877121 -280.952344 
L 92.875004 -280.876992 
L 92.872848 -280.80164 
z
" style="stroke: #000000; stroke-width: 0.5"/>
    </defs>
    <g clip-path="url(#p08701552ce)">
     <use xlink:href="#m74280b5e0d" x="0" y="360" style="stroke: #000000; stroke-width: 0.5"/>
    </g>
   </g>
   <g id="PolyCollection_5">
    <defs>
     <path id="m03e79793c9" d="M 97.374716 -275.793019 
L 97.369856 -275.793019 
L 97.369678 -275.948016 
L 97.369496 -276.103014 
L 97.369286 -276.258011 
L 97.369024 -276.413008 
L 97.368688 -276.568005 
L 97.368266 -276.723003 
L 97.367754 -276.878 
L 97.367164 -277.032997 
L 97.366519 -277.187995 
L 97.365852 -277.342992 
L 97.365201 -277.497989 
L 97.364602 -277.652986 
L 97.364083 -277.807984 
L 97.363656 -277.962981 
L 97.363317 -278.117978 
L 97.363043 -278.272976 
L 97.362792 -278.427973 
L 97.362511 -278.58297 
L 97.362138 -278.737967 
L 97.361611 -278.892965 
L 97.360872 -279.047962 
L 97.359871 -279.202959 
L 97.35857 -279.357956 
L 97.356941 -279.512954 
L 97.354965 -279.667951 
L 97.352632 -279.822948 
L 97.349934 -279.977946 
L 97.346867 -280.132943 
L 97.343428 -280.28794 
L 97.339615 -280.442937 
L 97.335428 -280.597935 
L 97.330875 -280.752932 
L 97.325968 -280.907929 
L 97.320729 -281.062926 
L 97.31519 -281.217924 
L 97.309397 -281.372921 
L 97.303406 -281.527918 
L 97.297283 -281.682916 
L 97.291107 -281.837913 
L 97.284961 -281.99291 
L 97.278928 -282.147907 
L 97.273088 -282.302905 
L 97.267504 -282.457902 
L 97.262223 -282.612899 
L 97.257268 -282.767896 
L 97.252643 -282.922894 
L 97.248347 -283.077891 
L 97.24438 -283.232888 
L 97.240767 -283.387886 
L 97.237562 -283.542883 
L 97.234858 -283.69788 
L 97.232777 -283.852877 
L 97.231449 -284.007875 
L 97.230992 -284.162872 
L 97.231479 -284.317869 
L 97.232921 -284.472867 
L 97.23525 -284.627864 
L 97.238329 -284.782861 
L 97.241967 -284.937858 
L 97.245944 -285.092856 
L 97.250042 -285.247853 
L 97.254078 -285.40285 
L 97.257921 -285.557847 
L 97.261506 -285.712845 
L 97.264836 -285.867842 
L 97.267972 -286.022839 
L 97.271024 -286.177837 
L 97.274126 -286.332834 
L 97.27742 -286.487831 
L 97.281037 -286.642828 
L 97.285074 -286.797826 
L 97.289589 -286.952823 
L 97.294585 -287.10782 
L 97.300016 -287.262817 
L 97.305784 -287.417815 
L 97.311758 -287.572812 
L 97.317785 -287.727809 
L 97.323708 -287.882807 
L 97.329383 -288.037804 
L 97.334692 -288.192801 
L 97.339555 -288.347798 
L 97.343931 -288.502796 
L 97.347815 -288.657793 
L 97.351234 -288.81279 
L 97.354234 -288.967787 
L 97.356868 -289.122785 
L 97.359186 -289.277782 
L 97.361227 -289.432779 
L 97.363017 -289.587777 
L 97.364569 -289.742774 
L 97.365887 -289.897771 
L 97.366976 -290.052768 
L 97.367843 -290.207766 
L 97.368507 -290.362763 
L 97.368994 -290.51776 
L 97.369341 -290.672758 
L 97.36959 -290.827755 
L 97.369781 -290.982752 
L 97.369949 -291.137749 
L 97.374623 -291.137749 
L 97.374623 -291.137749 
L 97.374791 -290.982752 
L 97.374981 -290.827755 
L 97.37523 -290.672758 
L 97.375577 -290.51776 
L 97.376065 -290.362763 
L 97.376728 -290.207766 
L 97.377596 -290.052768 
L 97.378684 -289.897771 
L 97.380003 -289.742774 
L 97.381554 -289.587777 
L 97.383344 -289.432779 
L 97.385385 -289.277782 
L 97.387703 -289.122785 
L 97.390337 -288.967787 
L 97.393337 -288.81279 
L 97.396756 -288.657793 
L 97.40064 -288.502796 
L 97.405016 -288.347798 
L 97.409879 -288.192801 
L 97.415189 -288.037804 
L 97.420864 -287.882807 
L 97.426787 -287.727809 
L 97.432814 -287.572812 
L 97.438788 -287.417815 
L 97.444556 -287.262817 
L 97.449986 -287.10782 
L 97.454983 -286.952823 
L 97.459497 -286.797826 
L 97.463535 -286.642828 
L 97.467151 -286.487831 
L 97.470445 -286.332834 
L 97.473547 -286.177837 
L 97.476599 -286.022839 
L 97.479736 -285.867842 
L 97.483066 -285.712845 
L 97.486651 -285.557847 
L 97.490494 -285.40285 
L 97.49453 -285.247853 
L 97.498628 -285.092856 
L 97.502604 -284.937858 
L 97.506242 -284.782861 
L 97.509322 -284.627864 
L 97.511651 -284.472867 
L 97.513092 -284.317869 
L 97.513579 -284.162872 
L 97.513122 -284.007875 
L 97.511795 -283.852877 
L 97.509713 -283.69788 
L 97.507009 -283.542883 
L 97.503805 -283.387886 
L 97.500191 -283.232888 
L 97.496225 -283.077891 
L 97.491928 -282.922894 
L 97.487304 -282.767896 
L 97.482348 -282.612899 
L 97.477067 -282.457902 
L 97.471483 -282.302905 
L 97.465643 -282.147907 
L 97.459611 -281.99291 
L 97.453464 -281.837913 
L 97.447288 -281.682916 
L 97.441166 -281.527918 
L 97.435174 -281.372921 
L 97.429381 -281.217924 
L 97.423843 -281.062926 
L 97.418604 -280.907929 
L 97.413696 -280.752932 
L 97.409143 -280.597935 
L 97.404957 -280.442937 
L 97.401143 -280.28794 
L 97.397704 -280.132943 
L 97.394637 -279.977946 
L 97.391939 -279.822948 
L 97.389606 -279.667951 
L 97.387631 -279.512954 
L 97.386002 -279.357956 
L 97.384701 -279.202959 
L 97.3837 -279.047962 
L 97.382961 -278.892965 
L 97.382433 -278.737967 
L 97.382061 -278.58297 
L 97.381779 -278.427973 
L 97.381529 -278.272976 
L 97.381254 -278.117978 
L 97.380916 -277.962981 
L 97.380489 -277.807984 
L 97.379969 -277.652986 
L 97.37937 -277.497989 
L 97.378719 -277.342992 
L 97.378052 -277.187995 
L 97.377407 -277.032997 
L 97.376817 -276.878 
L 97.376306 -276.723003 
L 97.375883 -276.568005 
L 97.375548 -276.413008 
L 97.375286 -276.258011 
L 97.375075 -276.103014 
L 97.374893 -275.948016 
L 97.374716 -275.793019 
z
" style="stroke: #000000; stroke-width: 0.5"/>
    </defs>
    <g clip-path="url(#p08701552ce)">
     <use xlink:href="#m03e79793c9" x="0" y="360" style="fill: #94c9de; stroke: #000000; stroke-width: 0.5"/>
    </g>
   </g>
   <g id="PolyCollection_6">
    <defs>
     <path id="mc357777d78" d="M 101.951532 -275.346493 
L 101.947783 -275.346493 
L 101.947435 -275.513648 
L 101.947022 -275.680804 
L 101.946479 -275.847959 
L 101.945721 -276.015115 
L 101.944664 -276.18227 
L 101.943236 -276.349426 
L 101.941403 -276.516582 
L 101.939185 -276.683737 
L 101.936663 -276.850893 
L 101.933972 -277.018048 
L 101.931269 -277.185204 
L 101.928682 -277.35236 
L 101.926266 -277.519515 
L 101.923972 -277.686671 
L 101.921666 -277.853826 
L 101.919187 -278.020982 
L 101.916414 -278.188138 
L 101.913317 -278.355293 
L 101.909961 -278.522449 
L 101.906452 -278.689604 
L 101.902869 -278.85676 
L 101.899202 -279.023916 
L 101.895334 -279.191071 
L 101.891066 -279.358227 
L 101.88618 -279.525382 
L 101.880491 -279.692538 
L 101.873881 -279.859693 
L 101.866303 -280.026849 
L 101.857773 -280.194005 
L 101.848363 -280.36116 
L 101.83823 -280.528316 
L 101.827654 -280.695471 
L 101.817071 -280.862627 
L 101.80705 -281.029783 
L 101.798199 -281.196938 
L 101.791018 -281.364094 
L 101.78575 -281.531249 
L 101.782317 -281.698405 
L 101.78035 -281.865561 
L 101.779332 -282.032716 
L 101.778755 -282.199872 
L 101.77825 -282.367027 
L 101.777625 -282.534183 
L 101.776824 -282.701338 
L 101.775855 -282.868494 
L 101.77472 -283.03565 
L 101.773398 -283.202805 
L 101.771882 -283.369961 
L 101.770224 -283.537116 
L 101.768587 -283.704272 
L 101.767234 -283.871428 
L 101.766484 -284.038583 
L 101.766634 -284.205739 
L 101.767889 -284.372894 
L 101.770333 -284.54005 
L 101.77394 -284.707206 
L 101.778616 -284.874361 
L 101.784242 -285.041517 
L 101.790687 -285.208672 
L 101.79781 -285.375828 
L 101.805437 -285.542983 
L 101.813341 -285.710139 
L 101.821258 -285.877295 
L 101.828917 -286.04445 
L 101.836092 -286.211606 
L 101.842647 -286.378761 
L 101.848564 -286.545917 
L 101.853949 -286.713073 
L 101.859011 -286.880228 
L 101.864024 -287.047384 
L 101.869267 -287.214539 
L 101.874956 -287.381695 
L 101.881179 -287.548851 
L 101.887857 -287.716006 
L 101.894759 -287.883162 
L 101.901567 -288.050317 
L 101.907964 -288.217473 
L 101.913714 -288.384628 
L 101.918713 -288.551784 
L 101.922973 -288.71894 
L 101.926588 -288.886095 
L 101.929683 -289.053251 
L 101.932371 -289.220406 
L 101.934739 -289.387562 
L 101.936842 -289.554718 
L 101.938711 -289.721873 
L 101.940362 -289.889029 
L 101.941804 -290.056184 
L 101.943042 -290.22334 
L 101.94409 -290.390496 
L 101.944966 -290.557651 
L 101.945698 -290.724807 
L 101.946318 -290.891962 
L 101.946851 -291.059118 
L 101.947317 -291.226274 
L 101.947724 -291.393429 
L 101.948078 -291.560585 
L 101.94838 -291.72774 
L 101.948636 -291.894896 
L 101.950678 -291.894896 
L 101.950678 -291.894896 
L 101.950935 -291.72774 
L 101.951237 -291.560585 
L 101.95159 -291.393429 
L 101.951997 -291.226274 
L 101.952463 -291.059118 
L 101.952997 -290.891962 
L 101.953616 -290.724807 
L 101.954349 -290.557651 
L 101.955225 -290.390496 
L 101.956272 -290.22334 
L 101.957511 -290.056184 
L 101.958952 -289.889029 
L 101.960603 -289.721873 
L 101.962472 -289.554718 
L 101.964575 -289.387562 
L 101.966943 -289.220406 
L 101.969631 -289.053251 
L 101.972726 -288.886095 
L 101.976342 -288.71894 
L 101.980602 -288.551784 
L 101.9856 -288.384628 
L 101.991351 -288.217473 
L 101.997747 -288.050317 
L 102.004555 -287.883162 
L 102.011457 -287.716006 
L 102.018135 -287.548851 
L 102.024358 -287.381695 
L 102.030048 -287.214539 
L 102.03529 -287.047384 
L 102.040303 -286.880228 
L 102.045365 -286.713073 
L 102.05075 -286.545917 
L 102.056667 -286.378761 
L 102.063222 -286.211606 
L 102.070397 -286.04445 
L 102.078056 -285.877295 
L 102.085974 -285.710139 
L 102.093878 -285.542983 
L 102.101504 -285.375828 
L 102.108628 -285.208672 
L 102.115073 -285.041517 
L 102.120698 -284.874361 
L 102.125375 -284.707206 
L 102.128982 -284.54005 
L 102.131426 -284.372894 
L 102.132681 -284.205739 
L 102.13283 -284.038583 
L 102.13208 -283.871428 
L 102.130727 -283.704272 
L 102.12909 -283.537116 
L 102.127433 -283.369961 
L 102.125916 -283.202805 
L 102.124595 -283.03565 
L 102.123459 -282.868494 
L 102.12249 -282.701338 
L 102.12169 -282.534183 
L 102.121064 -282.367027 
L 102.120559 -282.199872 
L 102.119982 -282.032716 
L 102.118964 -281.865561 
L 102.116998 -281.698405 
L 102.113564 -281.531249 
L 102.108296 -281.364094 
L 102.101115 -281.196938 
L 102.092264 -281.029783 
L 102.082244 -280.862627 
L 102.071661 -280.695471 
L 102.061085 -280.528316 
L 102.050951 -280.36116 
L 102.041542 -280.194005 
L 102.033011 -280.026849 
L 102.025434 -279.859693 
L 102.018823 -279.692538 
L 102.013134 -279.525382 
L 102.008248 -279.358227 
L 102.003981 -279.191071 
L 102.000112 -279.023916 
L 101.996445 -278.85676 
L 101.992863 -278.689604 
L 101.989354 -278.522449 
L 101.985997 -278.355293 
L 101.982901 -278.188138 
L 101.980127 -278.020982 
L 101.977648 -277.853826 
L 101.975342 -277.686671 
L 101.973048 -277.519515 
L 101.970632 -277.35236 
L 101.968045 -277.185204 
L 101.965342 -277.018048 
L 101.962651 -276.850893 
L 101.960129 -276.683737 
L 101.957911 -276.516582 
L 101.956078 -276.349426 
L 101.95465 -276.18227 
L 101.953593 -276.015115 
L 101.952836 -275.847959 
L 101.952292 -275.680804 
L 101.951879 -275.513648 
L 101.951532 -275.346493 
z
" style="stroke: #000000; stroke-width: 0.5"/>
    </defs>
    <g clip-path="url(#p08701552ce)">
     <use xlink:href="#mc357777d78" x="0" y="360" style="fill: #f7c8d0; stroke: #000000; stroke-width: 0.5"/>
    </g>
   </g>
   <g id="PolyCollection_7">
    <defs>
     <path id="mca9b6b3fe1" d="M 110.045035 -283.676492 
L 109.875079 -283.676492 
L 109.874245 -283.719106 
L 109.873472 -283.761721 
L 109.872763 -283.804335 
L 109.872118 -283.846949 
L 109.871537 -283.889564 
L 109.871022 -283.932178 
L 109.870572 -283.974792 
L 109.870188 -284.017407 
L 109.869869 -284.060021 
L 109.869615 -284.102635 
L 109.869426 -284.14525 
L 109.8693 -284.187864 
L 109.869238 -284.230479 
L 109.869236 -284.273093 
L 109.869295 -284.315707 
L 109.869412 -284.358322 
L 109.869586 -284.400936 
L 109.869815 -284.44355 
L 109.870096 -284.486165 
L 109.870428 -284.528779 
L 109.870807 -284.571393 
L 109.871232 -284.614008 
L 109.871699 -284.656622 
L 109.872206 -284.699237 
L 109.872749 -284.741851 
L 109.873326 -284.784465 
L 109.873934 -284.82708 
L 109.87457 -284.869694 
L 109.87523 -284.912308 
L 109.875912 -284.954923 
L 109.876612 -284.997537 
L 109.877326 -285.040151 
L 109.878053 -285.082766 
L 109.878788 -285.12538 
L 109.87953 -285.167995 
L 109.880274 -285.210609 
L 109.881018 -285.253223 
L 109.881759 -285.295838 
L 109.882495 -285.338452 
L 109.883223 -285.381066 
L 109.883941 -285.423681 
L 109.884647 -285.466295 
L 109.885337 -285.508909 
L 109.886011 -285.551524 
L 109.886667 -285.594138 
L 109.887303 -285.636753 
L 109.887917 -285.679367 
L 109.888509 -285.721981 
L 109.889077 -285.764596 
L 109.889621 -285.80721 
L 109.89014 -285.849824 
L 109.890634 -285.892439 
L 109.891101 -285.935053 
L 109.891543 -285.977667 
L 109.891959 -286.020282 
L 109.89235 -286.062896 
L 109.892716 -286.105511 
L 109.893058 -286.148125 
L 109.893376 -286.190739 
L 109.893671 -286.233354 
L 109.893946 -286.275968 
L 109.8942 -286.318582 
L 109.894435 -286.361197 
L 109.894653 -286.403811 
L 109.894856 -286.446425 
L 109.895044 -286.48904 
L 109.895221 -286.531654 
L 109.895387 -286.574269 
L 109.895544 -286.616883 
L 109.895695 -286.659497 
L 109.895842 -286.702112 
L 109.895987 -286.744726 
L 109.896131 -286.78734 
L 109.896277 -286.829955 
L 109.896427 -286.872569 
L 109.896583 -286.915183 
L 109.896746 -286.957798 
L 109.896919 -287.000412 
L 109.897104 -287.043026 
L 109.897303 -287.085641 
L 109.897516 -287.128255 
L 109.897747 -287.17087 
L 109.897996 -287.213484 
L 109.898265 -287.256098 
L 109.898556 -287.298713 
L 109.898869 -287.341327 
L 109.899207 -287.383941 
L 109.899569 -287.426556 
L 109.899957 -287.46917 
L 109.900371 -287.511784 
L 109.900813 -287.554399 
L 109.901283 -287.597013 
L 109.901781 -287.639628 
L 109.902308 -287.682242 
L 109.902863 -287.724856 
L 109.903447 -287.767471 
L 109.90406 -287.810085 
L 109.904701 -287.852699 
L 109.905371 -287.895314 
L 110.014744 -287.895314 
L 110.014744 -287.895314 
L 110.015413 -287.852699 
L 110.016054 -287.810085 
L 110.016667 -287.767471 
L 110.017251 -287.724856 
L 110.017807 -287.682242 
L 110.018333 -287.639628 
L 110.018831 -287.597013 
L 110.019301 -287.554399 
L 110.019743 -287.511784 
L 110.020158 -287.46917 
L 110.020546 -287.426556 
L 110.020908 -287.383941 
L 110.021245 -287.341327 
L 110.021558 -287.298713 
L 110.021849 -287.256098 
L 110.022118 -287.213484 
L 110.022367 -287.17087 
L 110.022598 -287.128255 
L 110.022812 -287.085641 
L 110.02301 -287.043026 
L 110.023195 -287.000412 
L 110.023368 -286.957798 
L 110.023532 -286.915183 
L 110.023687 -286.872569 
L 110.023837 -286.829955 
L 110.023983 -286.78734 
L 110.024127 -286.744726 
L 110.024272 -286.702112 
L 110.024419 -286.659497 
L 110.02457 -286.616883 
L 110.024728 -286.574269 
L 110.024894 -286.531654 
L 110.02507 -286.48904 
L 110.025259 -286.446425 
L 110.025461 -286.403811 
L 110.025679 -286.361197 
L 110.025914 -286.318582 
L 110.026169 -286.275968 
L 110.026443 -286.233354 
L 110.026738 -286.190739 
L 110.027057 -286.148125 
L 110.027398 -286.105511 
L 110.027764 -286.062896 
L 110.028155 -286.020282 
L 110.028571 -285.977667 
L 110.029013 -285.935053 
L 110.029481 -285.892439 
L 110.029974 -285.849824 
L 110.030493 -285.80721 
L 110.031037 -285.764596 
L 110.031605 -285.721981 
L 110.032197 -285.679367 
L 110.032812 -285.636753 
L 110.033447 -285.594138 
L 110.034103 -285.551524 
L 110.034777 -285.508909 
L 110.035468 -285.466295 
L 110.036173 -285.423681 
L 110.036891 -285.381066 
L 110.037619 -285.338452 
L 110.038355 -285.295838 
L 110.039096 -285.253223 
L 110.03984 -285.210609 
L 110.040585 -285.167995 
L 110.041326 -285.12538 
L 110.042061 -285.082766 
L 110.042788 -285.040151 
L 110.043503 -284.997537 
L 110.044202 -284.954923 
L 110.044884 -284.912308 
L 110.045544 -284.869694 
L 110.04618 -284.82708 
L 110.046788 -284.784465 
L 110.047365 -284.741851 
L 110.047909 -284.699237 
L 110.048415 -284.656622 
L 110.048882 -284.614008 
L 110.049307 -284.571393 
L 110.049686 -284.528779 
L 110.050018 -284.486165 
L 110.050299 -284.44355 
L 110.050528 -284.400936 
L 110.050702 -284.358322 
L 110.050819 -284.315707 
L 110.050878 -284.273093 
L 110.050877 -284.230479 
L 110.050814 -284.187864 
L 110.050688 -284.14525 
L 110.050499 -284.102635 
L 110.050246 -284.060021 
L 110.049927 -284.017407 
L 110.049542 -283.974792 
L 110.049093 -283.932178 
L 110.048577 -283.889564 
L 110.047996 -283.846949 
L 110.047351 -283.804335 
L 110.046642 -283.761721 
L 110.045869 -283.719106 
L 110.045035 -283.676492 
z
" style="stroke: #000000; stroke-width: 0.5"/>
    </defs>
    <g clip-path="url(#p08701552ce)">
     <use xlink:href="#mca9b6b3fe1" x="0" y="360" style="stroke: #000000; stroke-width: 0.5"/>
    </g>
   </g>
   <g id="PolyCollection_8">
    <defs>
     <path id="m0d8d221569" d="M 114.539391 -275.793019 
L 114.535467 -275.793019 
L 114.535473 -275.936686 
L 114.535515 -276.080354 
L 114.535584 -276.224021 
L 114.535669 -276.367689 
L 114.535754 -276.511356 
L 114.535822 -276.655023 
L 114.535857 -276.798691 
L 114.535839 -276.942358 
L 114.535752 -277.086025 
L 114.535583 -277.229693 
L 114.535317 -277.37336 
L 114.534945 -277.517027 
L 114.534458 -277.660695 
L 114.53385 -277.804362 
L 114.533114 -277.94803 
L 114.532245 -278.091697 
L 114.531233 -278.235364 
L 114.530071 -278.379032 
L 114.528747 -278.522699 
L 114.527245 -278.666366 
L 114.52555 -278.810034 
L 114.523644 -278.953701 
L 114.521511 -279.097368 
L 114.519138 -279.241036 
L 114.516516 -279.384703 
L 114.51364 -279.528371 
L 114.510516 -279.672038 
L 114.507152 -279.815705 
L 114.503569 -279.959373 
L 114.499791 -280.10304 
L 114.495848 -280.246707 
L 114.491778 -280.390375 
L 114.487623 -280.534042 
L 114.483429 -280.677709 
L 114.479247 -280.821377 
L 114.475129 -280.965044 
L 114.471128 -281.108711 
L 114.467295 -281.252379 
L 114.463674 -281.396046 
L 114.4603 -281.539714 
L 114.457197 -281.683381 
L 114.454371 -281.827048 
L 114.451817 -281.970716 
L 114.449517 -282.114383 
L 114.447447 -282.25805 
L 114.44558 -282.401718 
L 114.443897 -282.545385 
L 114.442392 -282.689052 
L 114.441073 -282.83272 
L 114.439968 -282.976387 
L 114.439124 -283.120055 
L 114.438598 -283.263722 
L 114.438455 -283.407389 
L 114.438753 -283.551057 
L 114.439538 -283.694724 
L 114.440834 -283.838391 
L 114.442636 -283.982059 
L 114.444906 -284.125726 
L 114.447574 -284.269393 
L 114.450543 -284.413061 
L 114.453698 -284.556728 
L 114.456915 -284.700396 
L 114.460071 -284.844063 
L 114.463061 -284.98773 
L 114.465799 -285.131398 
L 114.468232 -285.275065 
L 114.470338 -285.418732 
L 114.472127 -285.5624 
L 114.473633 -285.706067 
L 114.474915 -285.849734 
L 114.476041 -285.993402 
L 114.477085 -286.137069 
L 114.478121 -286.280736 
L 114.479214 -286.424404 
L 114.480421 -286.568071 
L 114.481787 -286.711739 
L 114.483346 -286.855406 
L 114.48512 -286.999073 
L 114.48712 -287.142741 
L 114.489347 -287.286408 
L 114.491787 -287.430075 
L 114.494419 -287.573743 
L 114.497207 -287.71741 
L 114.500106 -287.861077 
L 114.503066 -288.004745 
L 114.506027 -288.148412 
L 114.508933 -288.29208 
L 114.511729 -288.435747 
L 114.514367 -288.579414 
L 114.516811 -288.723082 
L 114.51904 -288.866749 
L 114.521043 -289.010416 
L 114.522825 -289.154084 
L 114.524401 -289.297751 
L 114.525794 -289.441418 
L 114.527032 -289.585086 
L 114.528144 -289.728753 
L 114.529156 -289.872421 
L 114.530091 -290.016088 
L 114.544767 -290.016088 
L 114.544767 -290.016088 
L 114.545701 -289.872421 
L 114.546713 -289.728753 
L 114.547825 -289.585086 
L 114.549063 -289.441418 
L 114.550456 -289.297751 
L 114.552032 -289.154084 
L 114.553814 -289.010416 
L 114.555817 -288.866749 
L 114.558046 -288.723082 
L 114.56049 -288.579414 
L 114.563129 -288.435747 
L 114.565924 -288.29208 
L 114.56883 -288.148412 
L 114.571791 -288.004745 
L 114.574751 -287.861077 
L 114.577651 -287.71741 
L 114.580438 -287.573743 
L 114.58307 -287.430075 
L 114.58551 -287.286408 
L 114.587737 -287.142741 
L 114.589737 -286.999073 
L 114.591511 -286.855406 
L 114.59307 -286.711739 
L 114.594436 -286.568071 
L 114.595643 -286.424404 
L 114.596736 -286.280736 
L 114.597772 -286.137069 
L 114.598816 -285.993402 
L 114.599942 -285.849734 
L 114.601224 -285.706067 
L 114.602731 -285.5624 
L 114.604519 -285.418732 
L 114.606625 -285.275065 
L 114.609058 -285.131398 
L 114.611796 -284.98773 
L 114.614786 -284.844063 
L 114.617942 -284.700396 
L 114.621159 -284.556728 
L 114.624314 -284.413061 
L 114.627283 -284.269393 
L 114.629951 -284.125726 
L 114.632221 -283.982059 
L 114.634023 -283.838391 
L 114.635319 -283.694724 
L 114.636105 -283.551057 
L 114.636402 -283.407389 
L 114.636259 -283.263722 
L 114.635733 -283.120055 
L 114.634889 -282.976387 
L 114.633784 -282.83272 
L 114.632465 -282.689052 
L 114.63096 -282.545385 
L 114.629277 -282.401718 
L 114.627411 -282.25805 
L 114.62534 -282.114383 
L 114.62304 -281.970716 
L 114.620486 -281.827048 
L 114.61766 -281.683381 
L 114.614557 -281.539714 
L 114.611183 -281.396046 
L 114.607563 -281.252379 
L 114.603729 -281.108711 
L 114.599728 -280.965044 
L 114.59561 -280.821377 
L 114.591428 -280.677709 
L 114.587234 -280.534042 
L 114.583079 -280.390375 
L 114.579009 -280.246707 
L 114.575067 -280.10304 
L 114.571288 -279.959373 
L 114.567705 -279.815705 
L 114.564341 -279.672038 
L 114.561217 -279.528371 
L 114.558341 -279.384703 
L 114.555719 -279.241036 
L 114.553346 -279.097368 
L 114.551213 -278.953701 
L 114.549308 -278.810034 
L 114.547612 -278.666366 
L 114.54611 -278.522699 
L 114.544786 -278.379032 
L 114.543624 -278.235364 
L 114.542613 -278.091697 
L 114.541743 -277.94803 
L 114.541007 -277.804362 
L 114.540399 -277.660695 
L 114.539912 -277.517027 
L 114.53954 -277.37336 
L 114.539274 -277.229693 
L 114.539105 -277.086025 
L 114.539018 -276.942358 
L 114.539001 -276.798691 
L 114.539035 -276.655023 
L 114.539103 -276.511356 
L 114.539188 -276.367689 
L 114.539273 -276.224021 
L 114.539342 -276.080354 
L 114.539384 -275.936686 
L 114.539391 -275.793019 
z
" style="stroke: #000000; stroke-width: 0.5"/>
    </defs>
    <g clip-path="url(#p08701552ce)">
     <use xlink:href="#m0d8d221569" x="0" y="360" style="fill: #94c9de; stroke: #000000; stroke-width: 0.5"/>
    </g>
   </g>
   <g id="PolyCollection_9">
    <defs>
     <path id="mc55a1672c3" d="M 119.115904 -274.869147 
L 119.113696 -274.869147 
L 119.113493 -275.020449 
L 119.11329 -275.171751 
L 119.11309 -275.323052 
L 119.11289 -275.474354 
L 119.112678 -275.625656 
L 119.112435 -275.776957 
L 119.11213 -275.928259 
L 119.111726 -276.079561 
L 119.111181 -276.230862 
L 119.110464 -276.382164 
L 119.109551 -276.533466 
L 119.108439 -276.684767 
L 119.107144 -276.836069 
L 119.105693 -276.987371 
L 119.104125 -277.138672 
L 119.102482 -277.289974 
L 119.100804 -277.441276 
L 119.099132 -277.592577 
L 119.097493 -277.743879 
L 119.0959 -277.895181 
L 119.094332 -278.046482 
L 119.092735 -278.197784 
L 119.091015 -278.349086 
L 119.089058 -278.500387 
L 119.086755 -278.651689 
L 119.084025 -278.802991 
L 119.080843 -278.954292 
L 119.077242 -279.105594 
L 119.073302 -279.256896 
L 119.069121 -279.408197 
L 119.064791 -279.559499 
L 119.060372 -279.710801 
L 119.055899 -279.862102 
L 119.051388 -280.013404 
L 119.046862 -280.164706 
L 119.042364 -280.316007 
L 119.037964 -280.467309 
L 119.03374 -280.618611 
L 119.029757 -280.769912 
L 119.026047 -280.921214 
L 119.022597 -281.072516 
L 119.01936 -281.223817 
L 119.016266 -281.375119 
L 119.013251 -281.526421 
L 119.010267 -281.677722 
L 119.007287 -281.829024 
L 119.0043 -281.980326 
L 119.001301 -282.131627 
L 118.998295 -282.282929 
L 118.995303 -282.434231 
L 118.992381 -282.585532 
L 118.989636 -282.736834 
L 118.987232 -282.888136 
L 118.985368 -283.039437 
L 118.984252 -283.190739 
L 118.984055 -283.342041 
L 118.984881 -283.493342 
L 118.986737 -283.644644 
L 118.989535 -283.795946 
L 118.993097 -283.947247 
L 118.997191 -284.098549 
L 119.001569 -284.249851 
L 119.006009 -284.401153 
L 119.010348 -284.552454 
L 119.014504 -284.703756 
L 119.018475 -284.855058 
L 119.022315 -285.006359 
L 119.026112 -285.157661 
L 119.02995 -285.308963 
L 119.033891 -285.460264 
L 119.037956 -285.611566 
L 119.042131 -285.762868 
L 119.046379 -285.914169 
L 119.050652 -286.065471 
L 119.054912 -286.216773 
L 119.059137 -286.368074 
L 119.063312 -286.519376 
L 119.067421 -286.670678 
L 119.071429 -286.821979 
L 119.07528 -286.973281 
L 119.078904 -287.124583 
L 119.082232 -287.275884 
L 119.085218 -287.427186 
L 119.087854 -287.578488 
L 119.090163 -287.729789 
L 119.092204 -287.881091 
L 119.094048 -288.032393 
L 119.095768 -288.183694 
L 119.097425 -288.334996 
L 119.099061 -288.486298 
L 119.100694 -288.637599 
L 119.102318 -288.788901 
L 119.103913 -288.940203 
L 119.105444 -289.091504 
L 119.106881 -289.242806 
L 119.108198 -289.394108 
L 119.10938 -289.545409 
L 119.110424 -289.696711 
L 119.111333 -289.848013 
L 119.118267 -289.848013 
L 119.118267 -289.848013 
L 119.119176 -289.696711 
L 119.12022 -289.545409 
L 119.121402 -289.394108 
L 119.122719 -289.242806 
L 119.124156 -289.091504 
L 119.125687 -288.940203 
L 119.127282 -288.788901 
L 119.128906 -288.637599 
L 119.130539 -288.486298 
L 119.132175 -288.334996 
L 119.133832 -288.183694 
L 119.135552 -288.032393 
L 119.137396 -287.881091 
L 119.139437 -287.729789 
L 119.141746 -287.578488 
L 119.144382 -287.427186 
L 119.147368 -287.275884 
L 119.150696 -287.124583 
L 119.15432 -286.973281 
L 119.158171 -286.821979 
L 119.162179 -286.670678 
L 119.166288 -286.519376 
L 119.170463 -286.368074 
L 119.174688 -286.216773 
L 119.178948 -286.065471 
L 119.183221 -285.914169 
L 119.187469 -285.762868 
L 119.191644 -285.611566 
L 119.195709 -285.460264 
L 119.19965 -285.308963 
L 119.203488 -285.157661 
L 119.207285 -285.006359 
L 119.211125 -284.855058 
L 119.215096 -284.703756 
L 119.219252 -284.552454 
L 119.223591 -284.401153 
L 119.228031 -284.249851 
L 119.232409 -284.098549 
L 119.236503 -283.947247 
L 119.240065 -283.795946 
L 119.242863 -283.644644 
L 119.244719 -283.493342 
L 119.245545 -283.342041 
L 119.245348 -283.190739 
L 119.244232 -283.039437 
L 119.242368 -282.888136 
L 119.239964 -282.736834 
L 119.237219 -282.585532 
L 119.234297 -282.434231 
L 119.231305 -282.282929 
L 119.228299 -282.131627 
L 119.2253 -281.980326 
L 119.222313 -281.829024 
L 119.219333 -281.677722 
L 119.216349 -281.526421 
L 119.213334 -281.375119 
L 119.21024 -281.223817 
L 119.207003 -281.072516 
L 119.203553 -280.921214 
L 119.199843 -280.769912 
L 119.19586 -280.618611 
L 119.191636 -280.467309 
L 119.187236 -280.316007 
L 119.182738 -280.164706 
L 119.178212 -280.013404 
L 119.173701 -279.862102 
L 119.169228 -279.710801 
L 119.164809 -279.559499 
L 119.160479 -279.408197 
L 119.156298 -279.256896 
L 119.152358 -279.105594 
L 119.148757 -278.954292 
L 119.145575 -278.802991 
L 119.142845 -278.651689 
L 119.140542 -278.500387 
L 119.138585 -278.349086 
L 119.136865 -278.197784 
L 119.135268 -278.046482 
L 119.1337 -277.895181 
L 119.132107 -277.743879 
L 119.130468 -277.592577 
L 119.128796 -277.441276 
L 119.127118 -277.289974 
L 119.125475 -277.138672 
L 119.123907 -276.987371 
L 119.122456 -276.836069 
L 119.121161 -276.684767 
L 119.120049 -276.533466 
L 119.119136 -276.382164 
L 119.118419 -276.230862 
L 119.117874 -276.079561 
L 119.11747 -275.928259 
L 119.117165 -275.776957 
L 119.116922 -275.625656 
L 119.11671 -275.474354 
L 119.11651 -275.323052 
L 119.11631 -275.171751 
L 119.116107 -275.020449 
L 119.115904 -274.869147 
z
" style="stroke: #000000; stroke-width: 0.5"/>
    </defs>
    <g clip-path="url(#p08701552ce)">
     <use xlink:href="#mc55a1672c3" x="0" y="360" style="fill: #f7c8d0; stroke: #000000; stroke-width: 0.5"/>
    </g>
   </g>
   <g id="patch_38">
    <path d="M 80.207143 90.993103 
L 80.207143 90.993103 
L 80.207143 90.993103 
L 80.207143 90.993103 
z
" clip-path="url(#p08701552ce)" style="stroke: #000000; stroke-width: 0.5; stroke-linejoin: miter"/>
   </g>
   <g id="patch_39">
    <path d="M 80.207143 90.993103 
L 80.207143 90.993103 
L 80.207143 90.993103 
L 80.207143 90.993103 
z
" clip-path="url(#p08701552ce)" style="fill: #94c9de; stroke: #000000; stroke-width: 0.5; stroke-linejoin: miter"/>
   </g>
   <g id="patch_40">
    <path d="M 80.207143 90.993103 
L 80.207143 90.993103 
L 80.207143 90.993103 
L 80.207143 90.993103 
z
" clip-path="url(#p08701552ce)" style="fill: #f7c8d0; stroke: #000000; stroke-width: 0.5; stroke-linejoin: miter"/>
   </g>
   <g id="line2d_9">
    <path d="M 75.629771 77.367016 
L 75.629771 62.762082 
" clip-path="url(#p08701552ce)" style="fill: none; stroke: #000000; stroke-width: 0.75; stroke-linecap: round"/>
   </g>
   <g id="line2d_10">
    <path d="M 75.629771 73.403941 
L 75.629771 69.016964 
" clip-path="url(#p08701552ce)" style="fill: none; stroke: #000000; stroke-width: 2.25; stroke-linecap: round"/>
   </g>
   <g id="line2d_11">
    <path d="M 75.629771 71.157431 
" clip-path="url(#p08701552ce)" style="fill: none; stroke: #000000; stroke-width: 1.5; stroke-linecap: round"/>
    <defs>
     <path id="m7a94106bb6" d="M 0.9375 0 
L -0.9375 -0 
" style="stroke: #ffffff; stroke-width: 0.45"/>
    </defs>
    <g clip-path="url(#p08701552ce)">
     <use xlink:href="#m7a94106bb6" x="75.629771" y="71.157431" style="fill: #ffffff; stroke: #ffffff; stroke-width: 0.45"/>
    </g>
   </g>
   <g id="line2d_12">
    <path d="M 80.207143 80.092345 
L 80.207143 63.415666 
" clip-path="url(#p08701552ce)" style="fill: none; stroke: #000000; stroke-width: 0.75; stroke-linecap: round"/>
   </g>
   <g id="line2d_13">
    <path d="M 80.207143 74.09509 
L 80.207143 69.819823 
" clip-path="url(#p08701552ce)" style="fill: none; stroke: #000000; stroke-width: 2.25; stroke-linecap: round"/>
   </g>
   <g id="line2d_14">
    <path d="M 80.207143 72.029888 
" clip-path="url(#p08701552ce)" style="fill: none; stroke: #000000; stroke-width: 1.5; stroke-linecap: round"/>
    <g clip-path="url(#p08701552ce)">
     <use xlink:href="#m7a94106bb6" x="80.207143" y="72.029888" style="fill: #ffffff; stroke: #ffffff; stroke-width: 0.45"/>
    </g>
   </g>
   <g id="line2d_15">
    <path d="M 84.784514 80.847869 
L 84.784514 64.478628 
" clip-path="url(#p08701552ce)" style="fill: none; stroke: #000000; stroke-width: 0.75; stroke-linecap: round"/>
   </g>
   <g id="line2d_16">
    <path d="M 84.784514 74.724502 
L 84.784514 70.621236 
" clip-path="url(#p08701552ce)" style="fill: none; stroke: #000000; stroke-width: 2.25; stroke-linecap: round"/>
   </g>
   <g id="line2d_17">
    <path d="M 84.784514 72.652218 
" clip-path="url(#p08701552ce)" style="fill: none; stroke: #000000; stroke-width: 1.5; stroke-linecap: round"/>
    <g clip-path="url(#p08701552ce)">
     <use xlink:href="#m7a94106bb6" x="84.784514" y="72.652218" style="fill: #ffffff; stroke: #ffffff; stroke-width: 0.45"/>
    </g>
   </g>
   <g id="line2d_18">
    <path d="M 92.794914 79.19836 
L 92.794914 75.296626 
" clip-path="url(#p08701552ce)" style="fill: none; stroke: #000000; stroke-width: 0.75; stroke-linecap: round"/>
   </g>
   <g id="line2d_19">
    <path d="M 92.794914 77.702528 
L 92.794914 75.735587 
" clip-path="url(#p08701552ce)" style="fill: none; stroke: #000000; stroke-width: 2.25; stroke-linecap: round"/>
   </g>
   <g id="line2d_20">
    <path d="M 92.794914 77.130214 
" clip-path="url(#p08701552ce)" style="fill: none; stroke: #000000; stroke-width: 1.5; stroke-linecap: round"/>
    <g clip-path="url(#p08701552ce)">
     <use xlink:href="#m7a94106bb6" x="92.794914" y="77.130214" style="fill: #ffffff; stroke: #ffffff; stroke-width: 0.45"/>
    </g>
   </g>
   <g id="line2d_21">
    <path d="M 97.372286 81.696125 
L 97.372286 70.682194 
" clip-path="url(#p08701552ce)" style="fill: none; stroke: #000000; stroke-width: 0.75; stroke-linecap: round"/>
   </g>
   <g id="line2d_22">
    <path d="M 97.372286 77.207957 
L 97.372286 74.09509 
" clip-path="url(#p08701552ce)" style="fill: none; stroke: #000000; stroke-width: 2.25; stroke-linecap: round"/>
   </g>
   <g id="line2d_23">
    <path d="M 97.372286 75.791033 
" clip-path="url(#p08701552ce)" style="fill: none; stroke: #000000; stroke-width: 1.5; stroke-linecap: round"/>
    <g clip-path="url(#p08701552ce)">
     <use xlink:href="#m7a94106bb6" x="97.372286" y="75.791033" style="fill: #ffffff; stroke: #ffffff; stroke-width: 0.45"/>
    </g>
   </g>
   <g id="line2d_24">
    <path d="M 101.949657 83.787534 
L 101.949657 69.606921 
" clip-path="url(#p08701552ce)" style="fill: none; stroke: #000000; stroke-width: 0.75; stroke-linecap: round"/>
   </g>
   <g id="line2d_25">
    <path d="M 101.949657 78.406782 
L 101.949657 74.724502 
" clip-path="url(#p08701552ce)" style="fill: none; stroke: #000000; stroke-width: 2.25; stroke-linecap: round"/>
   </g>
   <g id="line2d_26">
    <path d="M 101.949657 76.605946 
" clip-path="url(#p08701552ce)" style="fill: none; stroke: #000000; stroke-width: 1.5; stroke-linecap: round"/>
    <g clip-path="url(#p08701552ce)">
     <use xlink:href="#m7a94106bb6" x="101.949657" y="76.605946" style="fill: #ffffff; stroke: #ffffff; stroke-width: 0.45"/>
    </g>
   </g>
   <g id="line2d_27">
    <path d="M 109.960057 76.323508 
L 109.960057 72.104686 
" clip-path="url(#p08701552ce)" style="fill: none; stroke: #000000; stroke-width: 0.75; stroke-linecap: round"/>
   </g>
   <g id="line2d_28">
    <path d="M 109.960057 75.92036 
L 109.960057 73.071666 
" clip-path="url(#p08701552ce)" style="fill: none; stroke: #000000; stroke-width: 2.25; stroke-linecap: round"/>
   </g>
   <g id="line2d_29">
    <path d="M 109.960057 75.539414 
" clip-path="url(#p08701552ce)" style="fill: none; stroke: #000000; stroke-width: 1.5; stroke-linecap: round"/>
    <g clip-path="url(#p08701552ce)">
     <use xlink:href="#m7a94106bb6" x="109.960057" y="75.539414" style="fill: #ffffff; stroke: #ffffff; stroke-width: 0.45"/>
    </g>
   </g>
   <g id="line2d_30">
    <path d="M 114.537429 81.401665 
L 114.537429 69.983912 
" clip-path="url(#p08701552ce)" style="fill: none; stroke: #000000; stroke-width: 0.75; stroke-linecap: round"/>
   </g>
   <g id="line2d_31">
    <path d="M 114.537429 78.042553 
L 114.537429 74.196095 
" clip-path="url(#p08701552ce)" style="fill: none; stroke: #000000; stroke-width: 2.25; stroke-linecap: round"/>
   </g>
   <g id="line2d_32">
    <path d="M 114.537429 76.323508 
" clip-path="url(#p08701552ce)" style="fill: none; stroke: #000000; stroke-width: 1.5; stroke-linecap: round"/>
    <g clip-path="url(#p08701552ce)">
     <use xlink:href="#m7a94106bb6" x="114.537429" y="76.323508" style="fill: #ffffff; stroke: #ffffff; stroke-width: 0.45"/>
    </g>
   </g>
   <g id="line2d_33">
    <path d="M 119.1148 83.392068 
L 119.1148 70.382634 
" clip-path="url(#p08701552ce)" style="fill: none; stroke: #000000; stroke-width: 0.75; stroke-linecap: round"/>
   </g>
   <g id="line2d_34">
    <path d="M 119.1148 78.596349 
L 119.1148 75.296626 
" clip-path="url(#p08701552ce)" style="fill: none; stroke: #000000; stroke-width: 2.25; stroke-linecap: round"/>
   </g>
   <g id="line2d_35">
    <path d="M 119.1148 76.900405 
" clip-path="url(#p08701552ce)" style="fill: none; stroke: #000000; stroke-width: 1.5; stroke-linecap: round"/>
    <g clip-path="url(#p08701552ce)">
     <use xlink:href="#m7a94106bb6" x="119.1148" y="76.900405" style="fill: #ffffff; stroke: #ffffff; stroke-width: 0.45"/>
    </g>
   </g>
   <g id="line2d_36">
    <path d="M 71.624571 83.392068 
L 123.12 83.392068 
" clip-path="url(#p08701552ce)" style="fill: none; stroke-dasharray: 5.55,2.4; stroke-dashoffset: 0; stroke: #ffa500; stroke-width: 1.5"/>
   </g>
   <g id="line2d_37">
    <path d="M 71.624571 75.062069 
L 123.12 75.062069 
" clip-path="url(#p08701552ce)" style="fill: none; stroke-dasharray: 5.55,2.4; stroke-dashoffset: 0; stroke: #008000; stroke-width: 1.5"/>
   </g>
   <g id="patch_41">
    <path d="M 71.624571 90.993103 
L 71.624571 43.2 
" style="fill: none; stroke: #cccccc; stroke-width: 1.25; stroke-linejoin: miter; stroke-linecap: square"/>
   </g>
  </g>
 </g>
 <defs>
  <clipPath id="p4dd01ec616">
   <rect x="17.1" y="215.255172" width="106.02" height="105.144828"/>
  </clipPath>
  <clipPath id="pac11c9bd49">
   <rect x="71.624571" y="215.255172" width="51.495429" height="105.144828"/>
  </clipPath>
  <clipPath id="p490c28d991">
   <rect x="17.1" y="215.255172" width="15.145714" height="105.144828"/>
  </clipPath>
  <clipPath id="p456fbece67">
   <rect x="71.624571" y="157.903448" width="51.495429" height="47.793103"/>
  </clipPath>
  <clipPath id="p77d72e1e53">
   <rect x="71.624571" y="100.551724" width="51.495429" height="47.793103"/>
  </clipPath>
  <clipPath id="p08701552ce">
   <rect x="71.624571" y="43.2" width="51.495429" height="47.793103"/>
  </clipPath>
 </defs>
</svg>
