<?xml version="1.0" encoding="utf-8" standalone="no"?>
<!DOCTYPE svg PUBLIC "-//W3C//DTD SVG 1.1//EN"
  "http://www.w3.org/Graphics/SVG/1.1/DTD/svg11.dtd">
<svg xmlns:xlink="http://www.w3.org/1999/xlink" width="288pt" height="144pt" viewBox="0 0 288 144" xmlns="http://www.w3.org/2000/svg" version="1.1">
 <metadata>
  <rdf:RDF xmlns:dc="http://purl.org/dc/elements/1.1/" xmlns:cc="http://creativecommons.org/ns#" xmlns:rdf="http://www.w3.org/1999/02/22-rdf-syntax-ns#">
   <cc:Work>
    <dc:type rdf:resource="http://purl.org/dc/dcmitype/StillImage"/>
    <dc:date>2024-05-03T10:18:21.750495</dc:date>
    <dc:format>image/svg+xml</dc:format>
    <dc:creator>
     <cc:Agent>
      <dc:title>Matplotlib v3.8.1, https://matplotlib.org/</dc:title>
     </cc:Agent>
    </dc:creator>
   </cc:Work>
  </rdf:RDF>
 </metadata>
 <defs>
  <style type="text/css">*{stroke-linejoin: round; stroke-linecap: butt}</style>
 </defs>
 <g id="figure_1">
  <g id="patch_1">
   <path d="M 0 144 
L 288 144 
L 288 0 
L 0 0 
z
" style="fill: #ffffff"/>
  </g>
  <g id="axes_1">
   <g id="patch_2">
    <path d="M 36 128.16 
L 259.2 128.16 
L 259.2 17.28 
L 36 17.28 
z
" style="fill: #ffffff"/>
   </g>
   <g id="matplotlib.axis_1">
    <g id="xtick_1">
     <g id="line2d_1">
      <path d="M 43.206518 128.16 
L 43.206518 17.28 
" clip-path="url(#p3bfe5fd57e)" style="fill: none; stroke: #cccccc; stroke-linecap: round"/>
     </g>
     <g id="text_1">
      <!-- $\mathdefault{10^{-7}}$ -->
      <g style="fill: #262626" transform="translate(35.286518 143.33)">
       <text>
        <tspan style="font: 8px 'Arial'" x="0 4.449219" y="-0.46512500000000045">10</tspan>
        <tspan style="font: 5.6px 'Arial'" x="9.037825 12.308137" y="-6.040625">−7</tspan>
       </text>
      </g>
     </g>
    </g>
    <g id="xtick_2">
     <g id="line2d_2">
      <path d="M 87.367284 128.16 
L 87.367284 17.28 
" clip-path="url(#p3bfe5fd57e)" style="fill: none; stroke: #cccccc; stroke-linecap: round"/>
     </g>
     <g id="text_2">
      <!-- $\mathdefault{10^{-6}}$ -->
      <g style="fill: #262626" transform="translate(79.447284 143.41)">
       <text>
        <tspan style="font: 8px 'Arial'" x="0 4.449219" y="-0.39949999999999974">10</tspan>
        <tspan style="font: 5.6px 'Arial'" x="9.037825 12.308137" y="-5.975">−6</tspan>
       </text>
      </g>
     </g>
    </g>
    <g id="xtick_3">
     <g id="line2d_3">
      <path d="M 131.528049 128.16 
L 131.528049 17.28 
" clip-path="url(#p3bfe5fd57e)" style="fill: none; stroke: #cccccc; stroke-linecap: round"/>
     </g>
     <g id="text_3">
      <!-- $\mathdefault{10^{-5}}$ -->
      <g style="fill: #262626" transform="translate(123.608049 143.33)">
       <text>
        <tspan style="font: 8px 'Arial'" x="0 4.449219" y="-0.46512500000000045">10</tspan>
        <tspan style="font: 5.6px 'Arial'" x="9.037825 12.308137" y="-6.040625">−5</tspan>
       </text>
      </g>
     </g>
    </g>
    <g id="xtick_4">
     <g id="line2d_4">
      <path d="M 175.688814 128.16 
L 175.688814 17.28 
" clip-path="url(#p3bfe5fd57e)" style="fill: none; stroke: #cccccc; stroke-linecap: round"/>
     </g>
     <g id="text_4">
      <!-- $\mathdefault{10^{-4}}$ -->
      <g style="fill: #262626" transform="translate(167.768814 143.33)">
       <text>
        <tspan style="font: 8px 'Arial'" x="0 4.449219" y="-0.41043750000000045">10</tspan>
        <tspan style="font: 5.6px 'Arial'" x="9.037825 12.308137" y="-5.9859375">−4</tspan>
       </text>
      </g>
     </g>
    </g>
    <g id="xtick_5">
     <g id="line2d_5">
      <path d="M 219.849579 128.16 
L 219.849579 17.28 
" clip-path="url(#p3bfe5fd57e)" style="fill: none; stroke: #cccccc; stroke-linecap: round"/>
     </g>
     <g id="text_5">
      <!-- $\mathdefault{10^{-3}}$ -->
      <g style="fill: #262626" transform="translate(211.929579 143.41)">
       <text>
        <tspan style="font: 8px 'Arial'" x="0 4.449219" y="-0.39949999999999974">10</tspan>
        <tspan style="font: 5.6px 'Arial'" x="9.037825 12.308137" y="-5.975">−3</tspan>
       </text>
      </g>
     </g>
    </g>
    <g id="xtick_6"/>
    <g id="xtick_7"/>
    <g id="xtick_8"/>
    <g id="xtick_9"/>
    <g id="xtick_10"/>
    <g id="xtick_11"/>
    <g id="xtick_12"/>
    <g id="xtick_13"/>
    <g id="xtick_14"/>
    <g id="xtick_15"/>
    <g id="xtick_16"/>
    <g id="xtick_17"/>
    <g id="xtick_18"/>
    <g id="xtick_19"/>
    <g id="xtick_20"/>
    <g id="xtick_21"/>
    <g id="xtick_22"/>
    <g id="xtick_23"/>
    <g id="xtick_24"/>
    <g id="xtick_25"/>
    <g id="xtick_26"/>
    <g id="xtick_27"/>
    <g id="xtick_28"/>
    <g id="xtick_29"/>
    <g id="xtick_30"/>
    <g id="xtick_31"/>
    <g id="xtick_32"/>
    <g id="xtick_33"/>
    <g id="xtick_34"/>
    <g id="xtick_35"/>
    <g id="xtick_36"/>
    <g id="xtick_37"/>
    <g id="xtick_38"/>
    <g id="xtick_39"/>
    <g id="xtick_40"/>
    <g id="xtick_41"/>
    <g id="xtick_42"/>
    <g id="xtick_43"/>
    <g id="xtick_44"/>
    <g id="xtick_45"/>
    <g id="xtick_46"/>
    <g id="text_6">
     <text style="fill: #262626; font: 8px 'Arial', 'DejaVu Sans', 'Liberation Sans', 'Bitstream Vera Sans', sans-serif; text-anchor: middle" x="147.6" y="154.82375" transform="rotate(-0 147.6 154.82375)">Average read frequency in the DMS input</text>
    </g>
   </g>
   <g id="matplotlib.axis_2">
    <g id="ytick_1">
     <g id="line2d_6">
      <path d="M 36 128.16 
L 259.2 128.16 
" clip-path="url(#p3bfe5fd57e)" style="fill: none; stroke: #cccccc; stroke-linecap: round"/>
     </g>
     <g id="text_7">
      <text style="fill: #262626; font: 8px 'Arial', 'DejaVu Sans', 'Liberation Sans', 'Bitstream Vera Sans', sans-serif; text-anchor: end" x="29" y="131.023125" transform="rotate(-0 29 131.023125)">0</text>
     </g>
    </g>
    <g id="ytick_2">
     <g id="line2d_7">
      <path d="M 36 103.017143 
L 259.2 103.017143 
" clip-path="url(#p3bfe5fd57e)" style="fill: none; stroke: #cccccc; stroke-linecap: round"/>
     </g>
     <g id="text_8">
      <text style="fill: #262626; font: 8px 'Arial', 'DejaVu Sans', 'Liberation Sans', 'Bitstream Vera Sans', sans-serif; text-anchor: end" x="29" y="105.880268" transform="rotate(-0 29 105.880268)">200</text>
     </g>
    </g>
    <g id="ytick_3">
     <g id="line2d_8">
      <path d="M 36 77.874286 
L 259.2 77.874286 
" clip-path="url(#p3bfe5fd57e)" style="fill: none; stroke: #cccccc; stroke-linecap: round"/>
     </g>
     <g id="text_9">
      <text style="fill: #262626; font: 8px 'Arial', 'DejaVu Sans', 'Liberation Sans', 'Bitstream Vera Sans', sans-serif; text-anchor: end" x="29" y="80.737411" transform="rotate(-0 29 80.737411)">400</text>
     </g>
    </g>
    <g id="ytick_4">
     <g id="line2d_9">
      <path d="M 36 52.731429 
L 259.2 52.731429 
" clip-path="url(#p3bfe5fd57e)" style="fill: none; stroke: #cccccc; stroke-linecap: round"/>
     </g>
     <g id="text_10">
      <text style="fill: #262626; font: 8px 'Arial', 'DejaVu Sans', 'Liberation Sans', 'Bitstream Vera Sans', sans-serif; text-anchor: end" x="29" y="55.594554" transform="rotate(-0 29 55.594554)">600</text>
     </g>
    </g>
    <g id="ytick_5">
     <g id="line2d_10">
      <path d="M 36 27.588571 
L 259.2 27.588571 
" clip-path="url(#p3bfe5fd57e)" style="fill: none; stroke: #cccccc; stroke-linecap: round"/>
     </g>
     <g id="text_11">
      <text style="fill: #262626; font: 8px 'Arial', 'DejaVu Sans', 'Liberation Sans', 'Bitstream Vera Sans', sans-serif; text-anchor: end" x="29" y="30.451696" transform="rotate(-0 29 30.451696)">800</text>
     </g>
    </g>
    <g id="text_12">
     <text style="fill: #262626; font: 8px 'Arial', 'DejaVu Sans', 'Liberation Sans', 'Bitstream Vera Sans', sans-serif; text-anchor: middle" x="10.06375" y="72.72" transform="rotate(-90 10.06375 72.72)">Count</text>
    </g>
   </g>
   <g id="PolyCollection_1">
    <defs>
     <path id="m11225749a7" d="M 46.145455 -93.657143 
L 46.145455 -15.84 
L 56.290909 -15.84 
L 56.290909 -15.84 
L 66.436364 -15.84 
L 66.436364 -15.84 
L 76.581818 -15.84 
L 76.581818 -15.84 
L 86.727273 -15.84 
L 86.727273 -15.84 
L 96.872727 -15.84 
L 96.872727 -15.84 
L 107.018182 -15.84 
L 107.018182 -15.84 
L 117.163636 -15.84 
L 117.163636 -15.84 
L 127.309091 -15.84 
L 127.309091 -15.84 
L 137.454545 -15.84 
L 137.454545 -15.84 
L 147.6 -15.84 
L 147.6 -15.84 
L 157.745455 -15.84 
L 157.745455 -15.84 
L 167.890909 -15.84 
L 167.890909 -15.84 
L 178.036364 -15.84 
L 178.036364 -15.84 
L 188.181818 -15.84 
L 188.181818 -15.84 
L 198.327273 -15.84 
L 198.327273 -15.84 
L 208.472727 -15.84 
L 208.472727 -15.84 
L 218.618182 -15.84 
L 218.618182 -15.84 
L 228.763636 -15.84 
L 228.763636 -15.84 
L 238.909091 -15.84 
L 238.909091 -15.84 
L 249.054545 -15.84 
L 249.054545 -15.84 
L 249.054545 -16.468571 
L 249.054545 -16.468571 
L 249.054545 -16.468571 
L 238.909091 -16.468571 
L 238.909091 -25.771429 
L 228.763636 -25.771429 
L 228.763636 -36.331429 
L 218.618182 -36.331429 
L 218.618182 -41.611429 
L 208.472727 -41.611429 
L 208.472727 -27.405714 
L 198.327273 -27.405714 
L 198.327273 -21.245714 
L 188.181818 -21.245714 
L 188.181818 -18.605714 
L 178.036364 -18.605714 
L 178.036364 -17.851429 
L 167.890909 -17.851429 
L 167.890909 -18.228571 
L 157.745455 -18.228571 
L 157.745455 -18.354286 
L 147.6 -18.354286 
L 147.6 -16.971429 
L 137.454545 -16.971429 
L 137.454545 -17.6 
L 127.309091 -17.6 
L 127.309091 -17.6 
L 117.163636 -17.6 
L 117.163636 -17.6 
L 107.018182 -17.6 
L 107.018182 -24.011429 
L 96.872727 -24.011429 
L 96.872727 -45.885714 
L 86.727273 -45.885714 
L 86.727273 -72.034286 
L 76.581818 -72.034286 
L 76.581818 -88.628571 
L 66.436364 -88.628571 
L 66.436364 -121.44 
L 56.290909 -121.44 
L 56.290909 -93.657143 
L 46.145455 -93.657143 
z
" style="stroke: #4c72b0"/>
    </defs>
    <g clip-path="url(#p3bfe5fd57e)">
     <use xlink:href="#m11225749a7" x="0" y="144" style="fill: #4c72b0; fill-opacity: 0.75; stroke: #4c72b0"/>
    </g>
   </g>
   <g id="line2d_11">
    <path d="M 144.821764 128.16 
L 144.821764 17.28 
" clip-path="url(#p3bfe5fd57e)" style="fill: none; stroke: #0000ff; stroke-width: 1.5; stroke-linecap: round"/>
   </g>
   <g id="line2d_12">
    <path d="M 60.779854 128.16 
L 60.779854 17.28 
" clip-path="url(#p3bfe5fd57e)" style="fill: none; stroke: #000000; stroke-width: 1.5; stroke-linecap: round"/>
   </g>
   <g id="line2d_13">
    <path d="M 215.569959 128.16 
L 215.569959 17.28 
" clip-path="url(#p3bfe5fd57e)" style="fill: none; stroke: #000000; stroke-width: 1.5; stroke-linecap: round"/>
   </g>
   <g id="patch_3">
    <path d="M 36 128.16 
L 36 17.28 
" style="fill: none; stroke: #cccccc; stroke-width: 1.25; stroke-linejoin: miter; stroke-linecap: square"/>
   </g>
   <g id="patch_4">
    <path d="M 259.2 128.16 
L 259.2 17.28 
" style="fill: none; stroke: #cccccc; stroke-width: 1.25; stroke-linejoin: miter; stroke-linecap: square"/>
   </g>
   <g id="patch_5">
    <path d="M 36 128.16 
L 259.2 128.16 
" style="fill: none; stroke: #cccccc; stroke-width: 1.25; stroke-linejoin: miter; stroke-linecap: square"/>
   </g>
   <g id="patch_6">
    <path d="M 36 17.28 
L 259.2 17.28 
" style="fill: none; stroke: #cccccc; stroke-width: 1.25; stroke-linejoin: miter; stroke-linecap: square"/>
   </g>
   <g id="text_13">
    <text style="fill: #262626; font: 8px 'Arial', 'DejaVu Sans', 'Liberation Sans', 'Bitstream Vera Sans', sans-serif" transform="translate(100.660999 68.155643)">81.1%</text>
    <text style="fill: #262626; font: 8px 'Arial', 'DejaVu Sans', 'Liberation Sans', 'Bitstream Vera Sans', sans-serif" transform="translate(100.660999 76.617143)">3X</text>
   </g>
   <g id="text_14">
    <text style="fill: #262626; font: 8px 'Arial', 'DejaVu Sans', 'Liberation Sans', 'Bitstream Vera Sans', sans-serif" transform="translate(196.758854 68.155643)">18.9%</text>
    <text style="fill: #262626; font: 8px 'Arial', 'DejaVu Sans', 'Liberation Sans', 'Bitstream Vera Sans', sans-serif" transform="translate(196.758854 76.617143)">12580X</text>
   </g>
  </g>
 </g>
 <defs>
  <clipPath id="p3bfe5fd57e">
   <rect x="36" y="17.28" width="223.2" height="110.88"/>
  </clipPath>
 </defs>
</svg>
