<?xml version="1.0" encoding="utf-8" standalone="no"?>
<!DOCTYPE svg PUBLIC "-//W3C//DTD SVG 1.1//EN"
  "http://www.w3.org/Graphics/SVG/1.1/DTD/svg11.dtd">
<svg xmlns:xlink="http://www.w3.org/1999/xlink" width="432pt" height="216pt" viewBox="0 0 432 216" xmlns="http://www.w3.org/2000/svg" version="1.1">
 <metadata>
  <rdf:RDF xmlns:dc="http://purl.org/dc/elements/1.1/" xmlns:cc="http://creativecommons.org/ns#" xmlns:rdf="http://www.w3.org/1999/02/22-rdf-syntax-ns#">
   <cc:Work>
    <dc:type rdf:resource="http://purl.org/dc/dcmitype/StillImage"/>
    <dc:date>2024-05-03T10:15:32.706886</dc:date>
    <dc:format>image/svg+xml</dc:format>
    <dc:creator>
     <cc:Agent>
      <dc:title>Matplotlib v3.8.1, https://matplotlib.org/</dc:title>
     </cc:Agent>
    </dc:creator>
   </cc:Work>
  </rdf:RDF>
 </metadata>
 <defs>
  <style type="text/css">*{stroke-linejoin: round; stroke-linecap: butt}</style>
 </defs>
 <g id="figure_1">
  <g id="patch_1">
   <path d="M 0 216 
L 432 216 
L 432 0 
L 0 0 
z
" style="fill: #ffffff"/>
  </g>
  <g id="axes_1">
   <g id="patch_2">
    <path d="M 54 192.24 
L 388.8 192.24 
L 388.8 25.92 
L 54 25.92 
z
" style="fill: #ffffff"/>
   </g>
   <g id="matplotlib.axis_1">
    <g id="xtick_1">
     <g id="line2d_1">
      <path d="M 62.597157 192.24 
L 62.597157 25.92 
" clip-path="url(#p332be6f013)" style="fill: none; stroke: #cccccc; stroke-linecap: round"/>
     </g>
     <g id="text_1">
      <!-- $\mathdefault{10^{-7}}$ -->
      <g style="fill: #262626" transform="translate(54.677157 207.41)">
       <text>
        <tspan style="font: 8px 'Arial'" x="0 4.449219" y="-0.46512500000000045">10</tspan>
        <tspan style="font: 5.6px 'Arial'" x="9.037825 12.308137" y="-6.040625">−7</tspan>
       </text>
      </g>
     </g>
    </g>
    <g id="xtick_2">
     <g id="line2d_2">
      <path d="M 126.339156 192.24 
L 126.339156 25.92 
" clip-path="url(#p332be6f013)" style="fill: none; stroke: #cccccc; stroke-linecap: round"/>
     </g>
     <g id="text_2">
      <!-- $\mathdefault{10^{-6}}$ -->
      <g style="fill: #262626" transform="translate(118.419156 207.49)">
       <text>
        <tspan style="font: 8px 'Arial'" x="0 4.449219" y="-0.39949999999999974">10</tspan>
        <tspan style="font: 5.6px 'Arial'" x="9.037825 12.308137" y="-5.975">−6</tspan>
       </text>
      </g>
     </g>
    </g>
    <g id="xtick_3">
     <g id="line2d_3">
      <path d="M 190.081154 192.24 
L 190.081154 25.92 
" clip-path="url(#p332be6f013)" style="fill: none; stroke: #cccccc; stroke-linecap: round"/>
     </g>
     <g id="text_3">
      <!-- $\mathdefault{10^{-5}}$ -->
      <g style="fill: #262626" transform="translate(182.161154 207.41)">
       <text>
        <tspan style="font: 8px 'Arial'" x="0 4.449219" y="-0.46512500000000045">10</tspan>
        <tspan style="font: 5.6px 'Arial'" x="9.037825 12.308137" y="-6.040625">−5</tspan>
       </text>
      </g>
     </g>
    </g>
    <g id="xtick_4">
     <g id="line2d_4">
      <path d="M 253.823153 192.24 
L 253.823153 25.92 
" clip-path="url(#p332be6f013)" style="fill: none; stroke: #cccccc; stroke-linecap: round"/>
     </g>
     <g id="text_4">
      <!-- $\mathdefault{10^{-4}}$ -->
      <g style="fill: #262626" transform="translate(245.903153 207.41)">
       <text>
        <tspan style="font: 8px 'Arial'" x="0 4.449219" y="-0.41043750000000045">10</tspan>
        <tspan style="font: 5.6px 'Arial'" x="9.037825 12.308137" y="-5.9859375">−4</tspan>
       </text>
      </g>
     </g>
    </g>
    <g id="xtick_5">
     <g id="line2d_5">
      <path d="M 317.565152 192.24 
L 317.565152 25.92 
" clip-path="url(#p332be6f013)" style="fill: none; stroke: #cccccc; stroke-linecap: round"/>
     </g>
     <g id="text_5">
      <!-- $\mathdefault{10^{-3}}$ -->
      <g style="fill: #262626" transform="translate(309.645152 207.49)">
       <text>
        <tspan style="font: 8px 'Arial'" x="0 4.449219" y="-0.39949999999999974">10</tspan>
        <tspan style="font: 5.6px 'Arial'" x="9.037825 12.308137" y="-5.975">−3</tspan>
       </text>
      </g>
     </g>
    </g>
    <g id="xtick_6">
     <g id="line2d_6">
      <path d="M 381.30715 192.24 
L 381.30715 25.92 
" clip-path="url(#p332be6f013)" style="fill: none; stroke: #cccccc; stroke-linecap: round"/>
     </g>
     <g id="text_6">
      <!-- $\mathdefault{10^{-2}}$ -->
      <g style="fill: #262626" transform="translate(373.38715 207.49)">
       <text>
        <tspan style="font: 8px 'Arial'" x="0 4.449219" y="-0.39949999999999974">10</tspan>
        <tspan style="font: 5.6px 'Arial'" x="9.037825 12.308137" y="-5.975">−2</tspan>
       </text>
      </g>
     </g>
    </g>
    <g id="xtick_7"/>
    <g id="xtick_8"/>
    <g id="xtick_9"/>
    <g id="xtick_10"/>
    <g id="xtick_11"/>
    <g id="xtick_12"/>
    <g id="xtick_13"/>
    <g id="xtick_14"/>
    <g id="xtick_15"/>
    <g id="xtick_16"/>
    <g id="xtick_17"/>
    <g id="xtick_18"/>
    <g id="xtick_19"/>
    <g id="xtick_20"/>
    <g id="xtick_21"/>
    <g id="xtick_22"/>
    <g id="xtick_23"/>
    <g id="xtick_24"/>
    <g id="xtick_25"/>
    <g id="xtick_26"/>
    <g id="xtick_27"/>
    <g id="xtick_28"/>
    <g id="xtick_29"/>
    <g id="xtick_30"/>
    <g id="xtick_31"/>
    <g id="xtick_32"/>
    <g id="xtick_33"/>
    <g id="xtick_34"/>
    <g id="xtick_35"/>
    <g id="xtick_36"/>
    <g id="xtick_37"/>
    <g id="xtick_38"/>
    <g id="xtick_39"/>
    <g id="xtick_40"/>
    <g id="xtick_41"/>
    <g id="xtick_42"/>
    <g id="xtick_43"/>
    <g id="xtick_44"/>
    <g id="xtick_45"/>
    <g id="xtick_46"/>
    <g id="xtick_47"/>
    <g id="xtick_48"/>
    <g id="text_7">
     <text style="fill: #262626; font: 8px 'Arial', 'DejaVu Sans', 'Liberation Sans', 'Bitstream Vera Sans', sans-serif; text-anchor: middle" x="221.4" y="218.90375" transform="rotate(-0 221.4 218.90375)">Average read frequency in the DMS input</text>
    </g>
   </g>
   <g id="matplotlib.axis_2">
    <g id="ytick_1">
     <g id="line2d_7">
      <path d="M 54 192.24 
L 388.8 192.24 
" clip-path="url(#p332be6f013)" style="fill: none; stroke: #cccccc; stroke-linecap: round"/>
     </g>
     <g id="text_8">
      <text style="fill: #262626; font: 8px 'Arial', 'DejaVu Sans', 'Liberation Sans', 'Bitstream Vera Sans', sans-serif; text-anchor: end" x="47" y="195.103125" transform="rotate(-0 47 195.103125)">0</text>
     </g>
    </g>
    <g id="ytick_2">
     <g id="line2d_8">
      <path d="M 54 167.870769 
L 388.8 167.870769 
" clip-path="url(#p332be6f013)" style="fill: none; stroke: #cccccc; stroke-linecap: round"/>
     </g>
     <g id="text_9">
      <text style="fill: #262626; font: 8px 'Arial', 'DejaVu Sans', 'Liberation Sans', 'Bitstream Vera Sans', sans-serif; text-anchor: end" x="47" y="170.733894" transform="rotate(-0 47 170.733894)">100</text>
     </g>
    </g>
    <g id="ytick_3">
     <g id="line2d_9">
      <path d="M 54 143.501538 
L 388.8 143.501538 
" clip-path="url(#p332be6f013)" style="fill: none; stroke: #cccccc; stroke-linecap: round"/>
     </g>
     <g id="text_10">
      <text style="fill: #262626; font: 8px 'Arial', 'DejaVu Sans', 'Liberation Sans', 'Bitstream Vera Sans', sans-serif; text-anchor: end" x="47" y="146.364663" transform="rotate(-0 47 146.364663)">200</text>
     </g>
    </g>
    <g id="ytick_4">
     <g id="line2d_10">
      <path d="M 54 119.132308 
L 388.8 119.132308 
" clip-path="url(#p332be6f013)" style="fill: none; stroke: #cccccc; stroke-linecap: round"/>
     </g>
     <g id="text_11">
      <text style="fill: #262626; font: 8px 'Arial', 'DejaVu Sans', 'Liberation Sans', 'Bitstream Vera Sans', sans-serif; text-anchor: end" x="47" y="121.995433" transform="rotate(-0 47 121.995433)">300</text>
     </g>
    </g>
    <g id="ytick_5">
     <g id="line2d_11">
      <path d="M 54 94.763077 
L 388.8 94.763077 
" clip-path="url(#p332be6f013)" style="fill: none; stroke: #cccccc; stroke-linecap: round"/>
     </g>
     <g id="text_12">
      <text style="fill: #262626; font: 8px 'Arial', 'DejaVu Sans', 'Liberation Sans', 'Bitstream Vera Sans', sans-serif; text-anchor: end" x="47" y="97.626202" transform="rotate(-0 47 97.626202)">400</text>
     </g>
    </g>
    <g id="ytick_6">
     <g id="line2d_12">
      <path d="M 54 70.393846 
L 388.8 70.393846 
" clip-path="url(#p332be6f013)" style="fill: none; stroke: #cccccc; stroke-linecap: round"/>
     </g>
     <g id="text_13">
      <text style="fill: #262626; font: 8px 'Arial', 'DejaVu Sans', 'Liberation Sans', 'Bitstream Vera Sans', sans-serif; text-anchor: end" x="47" y="73.256971" transform="rotate(-0 47 73.256971)">500</text>
     </g>
    </g>
    <g id="ytick_7">
     <g id="line2d_13">
      <path d="M 54 46.024615 
L 388.8 46.024615 
" clip-path="url(#p332be6f013)" style="fill: none; stroke: #cccccc; stroke-linecap: round"/>
     </g>
     <g id="text_14">
      <text style="fill: #262626; font: 8px 'Arial', 'DejaVu Sans', 'Liberation Sans', 'Bitstream Vera Sans', sans-serif; text-anchor: end" x="47" y="48.88774" transform="rotate(-0 47 48.88774)">600</text>
     </g>
    </g>
    <g id="text_15">
     <text style="fill: #262626; font: 8px 'Arial', 'DejaVu Sans', 'Liberation Sans', 'Bitstream Vera Sans', sans-serif; text-anchor: middle" x="28.06375" y="109.08" transform="rotate(-90 28.06375 109.08)">Count</text>
    </g>
   </g>
   <g id="PolyCollection_1">
    <defs>
     <path id="m3cbb618ee4" d="M 69.218182 -149.017846 
L 69.218182 -23.76 
L 84.436364 -23.76 
L 84.436364 -23.76 
L 99.654545 -23.76 
L 99.654545 -23.76 
L 114.872727 -23.76 
L 114.872727 -23.76 
L 130.090909 -23.76 
L 130.090909 -23.76 
L 145.309091 -23.76 
L 145.309091 -23.76 
L 160.527273 -23.76 
L 160.527273 -23.76 
L 175.745455 -23.76 
L 175.745455 -23.76 
L 190.963636 -23.76 
L 190.963636 -23.76 
L 206.181818 -23.76 
L 206.181818 -23.76 
L 221.4 -23.76 
L 221.4 -23.76 
L 236.618182 -23.76 
L 236.618182 -23.76 
L 251.836364 -23.76 
L 251.836364 -23.76 
L 267.054545 -23.76 
L 267.054545 -23.76 
L 282.272727 -23.76 
L 282.272727 -23.76 
L 297.490909 -23.76 
L 297.490909 -23.76 
L 312.709091 -23.76 
L 312.709091 -23.76 
L 327.927273 -23.76 
L 327.927273 -23.76 
L 343.145455 -23.76 
L 343.145455 -23.76 
L 358.363636 -23.76 
L 358.363636 -23.76 
L 373.581818 -23.76 
L 373.581818 -23.76 
L 373.581818 -31.314462 
L 373.581818 -31.314462 
L 373.581818 -31.314462 
L 358.363636 -31.314462 
L 358.363636 -37.894154 
L 343.145455 -37.894154 
L 343.145455 -37.163077 
L 327.927273 -37.163077 
L 327.927273 -29.121231 
L 312.709091 -29.121231 
L 312.709091 -28.390154 
L 297.490909 -28.390154 
L 297.490909 -28.390154 
L 282.272727 -28.390154 
L 282.272727 -27.415385 
L 267.054545 -27.415385 
L 267.054545 -25.953231 
L 251.836364 -25.953231 
L 251.836364 -25.465846 
L 236.618182 -25.465846 
L 236.618182 -26.684308 
L 221.4 -26.684308 
L 221.4 -26.684308 
L 206.181818 -26.684308 
L 206.181818 -26.684308 
L 190.963636 -26.684308 
L 190.963636 -31.314462 
L 175.745455 -31.314462 
L 175.745455 -43.255385 
L 160.527273 -43.255385 
L 160.527273 -56.902154 
L 145.309091 -56.902154 
L 145.309091 -61.776 
L 130.090909 -61.776 
L 130.090909 -90.775385 
L 114.872727 -90.775385 
L 114.872727 -151.698462 
L 99.654545 -151.698462 
L 99.654545 -182.16 
L 84.436364 -182.16 
L 84.436364 -149.017846 
L 69.218182 -149.017846 
z
" style="stroke: #4c72b0"/>
    </defs>
    <g clip-path="url(#p332be6f013)">
     <use xlink:href="#m3cbb618ee4" x="0" y="216" style="fill: #4c72b0; fill-opacity: 0.75; stroke: #4c72b0"/>
    </g>
   </g>
   <g id="line2d_14">
    <path d="M 243.949392 192.24 
L 243.949392 25.92 
" clip-path="url(#p332be6f013)" style="fill: none; stroke: #0000ff; stroke-width: 1.5; stroke-linecap: round"/>
   </g>
   <g id="line2d_15">
    <path d="M 93.00982 192.24 
L 93.00982 25.92 
" clip-path="url(#p332be6f013)" style="fill: none; stroke: #000000; stroke-width: 1.5; stroke-linecap: round"/>
   </g>
   <g id="line2d_16">
    <path d="M 347.977814 192.24 
L 347.977814 25.92 
" clip-path="url(#p332be6f013)" style="fill: none; stroke: #000000; stroke-width: 1.5; stroke-linecap: round"/>
   </g>
   <g id="patch_3">
    <path d="M 54 192.24 
L 54 25.92 
" style="fill: none; stroke: #cccccc; stroke-width: 1.25; stroke-linejoin: miter; stroke-linecap: square"/>
   </g>
   <g id="patch_4">
    <path d="M 388.8 192.24 
L 388.8 25.92 
" style="fill: none; stroke: #cccccc; stroke-width: 1.25; stroke-linejoin: miter; stroke-linecap: square"/>
   </g>
   <g id="patch_5">
    <path d="M 54 192.24 
L 388.8 192.24 
" style="fill: none; stroke: #cccccc; stroke-width: 1.25; stroke-linejoin: miter; stroke-linecap: square"/>
   </g>
   <g id="patch_6">
    <path d="M 54 25.92 
L 388.8 25.92 
" style="fill: none; stroke: #cccccc; stroke-width: 1.25; stroke-linejoin: miter; stroke-linecap: square"/>
   </g>
   <g id="text_16">
    <text style="fill: #262626; font: 8px 'Arial', 'DejaVu Sans', 'Liberation Sans', 'Bitstream Vera Sans', sans-serif" transform="translate(145.527409 83.864654)">91.3%</text>
    <text style="fill: #262626; font: 8px 'Arial', 'DejaVu Sans', 'Liberation Sans', 'Bitstream Vera Sans', sans-serif" transform="translate(145.527409 92.326154)">4X</text>
   </g>
   <g id="text_17">
    <text style="fill: #262626; font: 8px 'Arial', 'DejaVu Sans', 'Liberation Sans', 'Bitstream Vera Sans', sans-serif" transform="translate(284.235815 83.864654)">8.7%</text>
    <text style="fill: #262626; font: 8px 'Arial', 'DejaVu Sans', 'Liberation Sans', 'Bitstream Vera Sans', sans-serif" transform="translate(284.235815 92.326154)">43049X</text>
   </g>
  </g>
 </g>
 <defs>
  <clipPath id="p332be6f013">
   <rect x="54" y="25.92" width="334.8" height="166.32"/>
  </clipPath>
 </defs>
</svg>
