<?xml version="1.0" encoding="utf-8" standalone="no"?>
<!DOCTYPE svg PUBLIC "-//W3C//DTD SVG 1.1//EN"
  "http://www.w3.org/Graphics/SVG/1.1/DTD/svg11.dtd">
<svg xmlns:xlink="http://www.w3.org/1999/xlink" width="288pt" height="144pt" viewBox="0 0 288 144" xmlns="http://www.w3.org/2000/svg" version="1.1">
 <metadata>
  <rdf:RDF xmlns:dc="http://purl.org/dc/elements/1.1/" xmlns:cc="http://creativecommons.org/ns#" xmlns:rdf="http://www.w3.org/1999/02/22-rdf-syntax-ns#">
   <cc:Work>
    <dc:type rdf:resource="http://purl.org/dc/dcmitype/StillImage"/>
    <dc:date>2024-05-03T10:22:53.712931</dc:date>
    <dc:format>image/svg+xml</dc:format>
    <dc:creator>
     <cc:Agent>
      <dc:title>Matplotlib v3.8.1, https://matplotlib.org/</dc:title>
     </cc:Agent>
    </dc:creator>
   </cc:Work>
  </rdf:RDF>
 </metadata>
 <defs>
  <style type="text/css">*{stroke-linejoin: round; stroke-linecap: butt}</style>
 </defs>
 <g id="figure_1">
  <g id="patch_1">
   <path d="M 0 144 
L 288 144 
L 288 0 
L 0 0 
z
" style="fill: #ffffff"/>
  </g>
  <g id="axes_1">
   <g id="patch_2">
    <path d="M 36 128.16 
L 259.2 128.16 
L 259.2 17.28 
L 36 17.28 
z
" style="fill: #ffffff"/>
   </g>
   <g id="matplotlib.axis_1">
    <g id="xtick_1">
     <g id="line2d_1">
      <path d="M 49.389054 128.16 
L 49.389054 17.28 
" clip-path="url(#pdf45155322)" style="fill: none; stroke: #cccccc; stroke-linecap: round"/>
     </g>
     <g id="text_1">
      <!-- $\mathdefault{10^{-7}}$ -->
      <g style="fill: #262626" transform="translate(41.469054 143.33)">
       <text>
        <tspan style="font: 8px 'Arial'" x="0 4.449219" y="-0.46512500000000045">10</tspan>
        <tspan style="font: 5.6px 'Arial'" x="9.037825 12.308137" y="-6.040625">−7</tspan>
       </text>
      </g>
     </g>
    </g>
    <g id="xtick_2">
     <g id="line2d_2">
      <path d="M 94.663194 128.16 
L 94.663194 17.28 
" clip-path="url(#pdf45155322)" style="fill: none; stroke: #cccccc; stroke-linecap: round"/>
     </g>
     <g id="text_2">
      <!-- $\mathdefault{10^{-6}}$ -->
      <g style="fill: #262626" transform="translate(86.743194 143.41)">
       <text>
        <tspan style="font: 8px 'Arial'" x="0 4.449219" y="-0.39949999999999974">10</tspan>
        <tspan style="font: 5.6px 'Arial'" x="9.037825 12.308137" y="-5.975">−6</tspan>
       </text>
      </g>
     </g>
    </g>
    <g id="xtick_3">
     <g id="line2d_3">
      <path d="M 139.937334 128.16 
L 139.937334 17.28 
" clip-path="url(#pdf45155322)" style="fill: none; stroke: #cccccc; stroke-linecap: round"/>
     </g>
     <g id="text_3">
      <!-- $\mathdefault{10^{-5}}$ -->
      <g style="fill: #262626" transform="translate(132.017334 143.33)">
       <text>
        <tspan style="font: 8px 'Arial'" x="0 4.449219" y="-0.46512500000000045">10</tspan>
        <tspan style="font: 5.6px 'Arial'" x="9.037825 12.308137" y="-6.040625">−5</tspan>
       </text>
      </g>
     </g>
    </g>
    <g id="xtick_4">
     <g id="line2d_4">
      <path d="M 185.211474 128.16 
L 185.211474 17.28 
" clip-path="url(#pdf45155322)" style="fill: none; stroke: #cccccc; stroke-linecap: round"/>
     </g>
     <g id="text_4">
      <!-- $\mathdefault{10^{-4}}$ -->
      <g style="fill: #262626" transform="translate(177.291474 143.33)">
       <text>
        <tspan style="font: 8px 'Arial'" x="0 4.449219" y="-0.41043750000000045">10</tspan>
        <tspan style="font: 5.6px 'Arial'" x="9.037825 12.308137" y="-5.9859375">−4</tspan>
       </text>
      </g>
     </g>
    </g>
    <g id="xtick_5">
     <g id="line2d_5">
      <path d="M 230.485614 128.16 
L 230.485614 17.28 
" clip-path="url(#pdf45155322)" style="fill: none; stroke: #cccccc; stroke-linecap: round"/>
     </g>
     <g id="text_5">
      <!-- $\mathdefault{10^{-3}}$ -->
      <g style="fill: #262626" transform="translate(222.565614 143.41)">
       <text>
        <tspan style="font: 8px 'Arial'" x="0 4.449219" y="-0.39949999999999974">10</tspan>
        <tspan style="font: 5.6px 'Arial'" x="9.037825 12.308137" y="-5.975">−3</tspan>
       </text>
      </g>
     </g>
    </g>
    <g id="xtick_6"/>
    <g id="xtick_7"/>
    <g id="xtick_8"/>
    <g id="xtick_9"/>
    <g id="xtick_10"/>
    <g id="xtick_11"/>
    <g id="xtick_12"/>
    <g id="xtick_13"/>
    <g id="xtick_14"/>
    <g id="xtick_15"/>
    <g id="xtick_16"/>
    <g id="xtick_17"/>
    <g id="xtick_18"/>
    <g id="xtick_19"/>
    <g id="xtick_20"/>
    <g id="xtick_21"/>
    <g id="xtick_22"/>
    <g id="xtick_23"/>
    <g id="xtick_24"/>
    <g id="xtick_25"/>
    <g id="xtick_26"/>
    <g id="xtick_27"/>
    <g id="xtick_28"/>
    <g id="xtick_29"/>
    <g id="xtick_30"/>
    <g id="xtick_31"/>
    <g id="xtick_32"/>
    <g id="xtick_33"/>
    <g id="xtick_34"/>
    <g id="xtick_35"/>
    <g id="xtick_36"/>
    <g id="xtick_37"/>
    <g id="xtick_38"/>
    <g id="xtick_39"/>
    <g id="xtick_40"/>
    <g id="xtick_41"/>
    <g id="xtick_42"/>
    <g id="xtick_43"/>
    <g id="xtick_44"/>
    <g id="text_6">
     <text style="fill: #262626; font: 8px 'Arial', 'DejaVu Sans', 'Liberation Sans', 'Bitstream Vera Sans', sans-serif; text-anchor: middle" x="147.6" y="154.82375" transform="rotate(-0 147.6 154.82375)">Average read frequency in the DMS input</text>
    </g>
   </g>
   <g id="matplotlib.axis_2">
    <g id="ytick_1">
     <g id="line2d_6">
      <path d="M 36 128.16 
L 259.2 128.16 
" clip-path="url(#pdf45155322)" style="fill: none; stroke: #cccccc; stroke-linecap: round"/>
     </g>
     <g id="text_7">
      <text style="fill: #262626; font: 8px 'Arial', 'DejaVu Sans', 'Liberation Sans', 'Bitstream Vera Sans', sans-serif; text-anchor: end" x="29" y="131.023125" transform="rotate(-0 29 131.023125)">0</text>
     </g>
    </g>
    <g id="ytick_2">
     <g id="line2d_7">
      <path d="M 36 107.871816 
L 259.2 107.871816 
" clip-path="url(#pdf45155322)" style="fill: none; stroke: #cccccc; stroke-linecap: round"/>
     </g>
     <g id="text_8">
      <text style="fill: #262626; font: 8px 'Arial', 'DejaVu Sans', 'Liberation Sans', 'Bitstream Vera Sans', sans-serif; text-anchor: end" x="29" y="110.734941" transform="rotate(-0 29 110.734941)">200</text>
     </g>
    </g>
    <g id="ytick_3">
     <g id="line2d_8">
      <path d="M 36 87.583631 
L 259.2 87.583631 
" clip-path="url(#pdf45155322)" style="fill: none; stroke: #cccccc; stroke-linecap: round"/>
     </g>
     <g id="text_9">
      <text style="fill: #262626; font: 8px 'Arial', 'DejaVu Sans', 'Liberation Sans', 'Bitstream Vera Sans', sans-serif; text-anchor: end" x="29" y="90.446756" transform="rotate(-0 29 90.446756)">400</text>
     </g>
    </g>
    <g id="ytick_4">
     <g id="line2d_9">
      <path d="M 36 67.295447 
L 259.2 67.295447 
" clip-path="url(#pdf45155322)" style="fill: none; stroke: #cccccc; stroke-linecap: round"/>
     </g>
     <g id="text_10">
      <text style="fill: #262626; font: 8px 'Arial', 'DejaVu Sans', 'Liberation Sans', 'Bitstream Vera Sans', sans-serif; text-anchor: end" x="29" y="70.158572" transform="rotate(-0 29 70.158572)">600</text>
     </g>
    </g>
    <g id="ytick_5">
     <g id="line2d_10">
      <path d="M 36 47.007262 
L 259.2 47.007262 
" clip-path="url(#pdf45155322)" style="fill: none; stroke: #cccccc; stroke-linecap: round"/>
     </g>
     <g id="text_11">
      <text style="fill: #262626; font: 8px 'Arial', 'DejaVu Sans', 'Liberation Sans', 'Bitstream Vera Sans', sans-serif; text-anchor: end" x="29" y="49.870387" transform="rotate(-0 29 49.870387)">800</text>
     </g>
    </g>
    <g id="ytick_6">
     <g id="line2d_11">
      <path d="M 36 26.719078 
L 259.2 26.719078 
" clip-path="url(#pdf45155322)" style="fill: none; stroke: #cccccc; stroke-linecap: round"/>
     </g>
     <g id="text_12">
      <text style="fill: #262626; font: 8px 'Arial', 'DejaVu Sans', 'Liberation Sans', 'Bitstream Vera Sans', sans-serif; text-anchor: end" x="29" y="29.582203" transform="rotate(-0 29 29.582203)">1000</text>
     </g>
    </g>
    <g id="text_13">
     <text style="fill: #262626; font: 8px 'Arial', 'DejaVu Sans', 'Liberation Sans', 'Bitstream Vera Sans', sans-serif; text-anchor: middle" x="5.615" y="72.72" transform="rotate(-90 5.615 72.72)">Count</text>
    </g>
   </g>
   <g id="PolyCollection_1">
    <defs>
     <path id="m40b4be8955" d="M 46.145455 -104.093602 
L 46.145455 -15.84 
L 56.290909 -15.84 
L 56.290909 -15.84 
L 66.436364 -15.84 
L 66.436364 -15.84 
L 76.581818 -15.84 
L 76.581818 -15.84 
L 86.727273 -15.84 
L 86.727273 -15.84 
L 96.872727 -15.84 
L 96.872727 -15.84 
L 107.018182 -15.84 
L 107.018182 -15.84 
L 117.163636 -15.84 
L 117.163636 -15.84 
L 127.309091 -15.84 
L 127.309091 -15.84 
L 137.454545 -15.84 
L 137.454545 -15.84 
L 147.6 -15.84 
L 147.6 -15.84 
L 157.745455 -15.84 
L 157.745455 -15.84 
L 167.890909 -15.84 
L 167.890909 -15.84 
L 178.036364 -15.84 
L 178.036364 -15.84 
L 188.181818 -15.84 
L 188.181818 -15.84 
L 198.327273 -15.84 
L 198.327273 -15.84 
L 208.472727 -15.84 
L 208.472727 -15.84 
L 218.618182 -15.84 
L 218.618182 -15.84 
L 228.763636 -15.84 
L 228.763636 -15.84 
L 238.909091 -15.84 
L 238.909091 -15.84 
L 249.054545 -15.84 
L 249.054545 -15.84 
L 249.054545 -17.970259 
L 249.054545 -17.970259 
L 249.054545 -17.970259 
L 238.909091 -17.970259 
L 238.909091 -24.361037 
L 228.763636 -24.361037 
L 228.763636 -39.780058 
L 218.618182 -39.780058 
L 218.618182 -41.910317 
L 208.472727 -41.910317 
L 208.472727 -33.287839 
L 198.327273 -33.287839 
L 198.327273 -27.810029 
L 188.181818 -27.810029 
L 188.181818 -22.636542 
L 178.036364 -22.636542 
L 178.036364 -21.825014 
L 167.890909 -21.825014 
L 167.890909 -20.709164 
L 157.745455 -20.709164 
L 157.745455 -19.999078 
L 147.6 -19.999078 
L 147.6 -21.419251 
L 137.454545 -21.419251 
L 137.454545 -19.999078 
L 127.309091 -19.999078 
L 127.309091 -20.20196 
L 117.163636 -20.20196 
L 117.163636 -21.622133 
L 107.018182 -21.622133 
L 107.018182 -31.360461 
L 96.872727 -31.360461 
L 96.872727 -58.242305 
L 86.727273 -58.242305 
L 86.727273 -87.051527 
L 76.581818 -87.051527 
L 76.581818 -103.89072 
L 66.436364 -103.89072 
L 66.436364 -121.44 
L 56.290909 -121.44 
L 56.290909 -104.093602 
L 46.145455 -104.093602 
z
" style="stroke: #4c72b0"/>
    </defs>
    <g clip-path="url(#pdf45155322)">
     <use xlink:href="#m40b4be8955" x="0" y="144" style="fill: #4c72b0; fill-opacity: 0.75; stroke: #4c72b0"/>
    </g>
   </g>
   <g id="line2d_12">
    <path d="M 135.549816 128.16 
L 135.549816 17.28 
" clip-path="url(#pdf45155322)" style="fill: none; stroke: #0000ff; stroke-width: 1.5; stroke-linecap: round"/>
   </g>
   <g id="line2d_13">
    <path d="M 63.017928 128.16 
L 63.017928 17.28 
" clip-path="url(#pdf45155322)" style="fill: none; stroke: #000000; stroke-width: 1.5; stroke-linecap: round"/>
   </g>
   <g id="line2d_14">
    <path d="M 218.730758 128.16 
L 218.730758 17.28 
" clip-path="url(#pdf45155322)" style="fill: none; stroke: #000000; stroke-width: 1.5; stroke-linecap: round"/>
   </g>
   <g id="patch_3">
    <path d="M 36 128.16 
L 36 17.28 
" style="fill: none; stroke: #cccccc; stroke-width: 1.25; stroke-linejoin: miter; stroke-linecap: square"/>
   </g>
   <g id="patch_4">
    <path d="M 259.2 128.16 
L 259.2 17.28 
" style="fill: none; stroke: #cccccc; stroke-width: 1.25; stroke-linejoin: miter; stroke-linecap: square"/>
   </g>
   <g id="patch_5">
    <path d="M 36 128.16 
L 259.2 128.16 
" style="fill: none; stroke: #cccccc; stroke-width: 1.25; stroke-linejoin: miter; stroke-linecap: square"/>
   </g>
   <g id="patch_6">
    <path d="M 36 17.28 
L 259.2 17.28 
" style="fill: none; stroke: #cccccc; stroke-width: 1.25; stroke-linejoin: miter; stroke-linecap: square"/>
   </g>
   <g id="text_14">
    <text style="fill: #262626; font: 8px 'Arial', 'DejaVu Sans', 'Liberation Sans', 'Bitstream Vera Sans', sans-serif" transform="translate(108.292068 78.107722)">78.2%</text>
    <text style="fill: #262626; font: 8px 'Arial', 'DejaVu Sans', 'Liberation Sans', 'Bitstream Vera Sans', sans-serif" transform="translate(108.292068 86.569222)">4X</text>
   </g>
   <g id="text_15">
    <text style="fill: #262626; font: 8px 'Arial', 'DejaVu Sans', 'Liberation Sans', 'Bitstream Vera Sans', sans-serif" transform="translate(206.812728 78.107722)">21.8%</text>
    <text style="fill: #262626; font: 8px 'Arial', 'DejaVu Sans', 'Liberation Sans', 'Bitstream Vera Sans', sans-serif" transform="translate(206.812728 86.569222)">12288X</text>
   </g>
  </g>
 </g>
 <defs>
  <clipPath id="pdf45155322">
   <rect x="36" y="17.28" width="223.2" height="110.88"/>
  </clipPath>
 </defs>
</svg>
