<?xml version="1.0" encoding="utf-8" standalone="no"?>
<!DOCTYPE svg PUBLIC "-//W3C//DTD SVG 1.1//EN"
  "http://www.w3.org/Graphics/SVG/1.1/DTD/svg11.dtd">
<svg xmlns:xlink="http://www.w3.org/1999/xlink" width="108pt" height="108pt" viewBox="0 0 108 108" xmlns="http://www.w3.org/2000/svg" version="1.1">
 <metadata>
  <rdf:RDF xmlns:dc="http://purl.org/dc/elements/1.1/" xmlns:cc="http://creativecommons.org/ns#" xmlns:rdf="http://www.w3.org/1999/02/22-rdf-syntax-ns#">
   <cc:Work>
    <dc:type rdf:resource="http://purl.org/dc/dcmitype/StillImage"/>
    <dc:date>2024-04-24T13:39:04.923002</dc:date>
    <dc:format>image/svg+xml</dc:format>
    <dc:creator>
     <cc:Agent>
      <dc:title>Matplotlib v3.8.1, https://matplotlib.org/</dc:title>
     </cc:Agent>
    </dc:creator>
   </cc:Work>
  </rdf:RDF>
 </metadata>
 <defs>
  <style type="text/css">*{stroke-linejoin: round; stroke-linecap: butt}</style>
 </defs>
 <g id="figure_1">
  <g id="patch_1">
   <path d="M 0 108 
L 108 108 
L 108 0 
L 0 0 
z
" style="fill: #ffffff"/>
  </g>
  <g id="axes_1">
   <g id="patch_2">
    <path d="M 13.5 96.12 
L 97.2 96.12 
L 97.2 12.96 
L 13.5 12.96 
z
" style="fill: #ffffff"/>
   </g>
   <g id="matplotlib.axis_1">
    <g id="xtick_1">
     <g id="line2d_1">
      <path d="M 35.063258 96.12 
L 35.063258 12.96 
" clip-path="url(#pd0ddbbc4ca)" style="fill: none; stroke: #cccccc; stroke-linecap: round"/>
     </g>
     <g id="text_1">
      <!-- $\mathdefault{10^{-2}}$ -->
      <g style="fill: #262626" transform="translate(27.143258 111.37)">
       <text>
        <tspan style="font: 8px 'Arial'" x="0 4.449219" y="-0.39949999999999974">10</tspan>
        <tspan style="font: 5.6px 'Arial'" x="9.037825 12.308137" y="-5.975">−2</tspan>
       </text>
      </g>
     </g>
    </g>
    <g id="xtick_2">
     <g id="line2d_2">
      <path d="M 88.502848 96.12 
L 88.502848 12.96 
" clip-path="url(#pd0ddbbc4ca)" style="fill: none; stroke: #cccccc; stroke-linecap: round"/>
     </g>
     <g id="text_2">
      <!-- $\mathdefault{10^{-1}}$ -->
      <g style="fill: #262626" transform="translate(80.582848 111.37)">
       <text>
        <tspan style="font: 8px 'Arial'" x="0 4.449219" y="-0.39949999999999974">10</tspan>
        <tspan style="font: 5.6px 'Arial'" x="9.037825 12.308137" y="-5.975">−1</tspan>
       </text>
      </g>
     </g>
    </g>
    <g id="xtick_3"/>
    <g id="xtick_4"/>
    <g id="xtick_5"/>
    <g id="xtick_6"/>
    <g id="xtick_7"/>
    <g id="xtick_8"/>
    <g id="xtick_9"/>
    <g id="xtick_10"/>
    <g id="xtick_11"/>
    <g id="xtick_12"/>
    <g id="xtick_13"/>
    <g id="xtick_14"/>
    <g id="xtick_15"/>
    <g id="xtick_16"/>
    <g id="text_3">
     <text style="fill: #262626; font: 8px 'Arial', 'DejaVu Sans', 'Liberation Sans', 'Bitstream Vera Sans', sans-serif; text-anchor: middle" x="55.35" y="122.78375" transform="rotate(-0 55.35 122.78375)">Allele frequency in pool</text>
    </g>
   </g>
   <g id="matplotlib.axis_2">
    <g id="ytick_1">
     <g id="line2d_3">
      <path d="M 13.5 73.343764 
L 97.2 73.343764 
" clip-path="url(#pd0ddbbc4ca)" style="fill: none; stroke: #cccccc; stroke-linecap: round"/>
     </g>
     <g id="text_4">
      <!-- $\mathdefault{10^{-3}}$ -->
      <g style="fill: #262626" transform="translate(-9.34 77.468764)">
       <text>
        <tspan style="font: 8px 'Arial'" x="0 4.449219" y="-0.39949999999999974">10</tspan>
        <tspan style="font: 5.6px 'Arial'" x="9.037825 12.308137" y="-5.975">−3</tspan>
       </text>
      </g>
     </g>
    </g>
    <g id="ytick_2">
     <g id="line2d_4">
      <path d="M 13.5 26.970301 
L 97.2 26.970301 
" clip-path="url(#pd0ddbbc4ca)" style="fill: none; stroke: #cccccc; stroke-linecap: round"/>
     </g>
     <g id="text_5">
      <!-- $\mathdefault{10^{-2}}$ -->
      <g style="fill: #262626" transform="translate(-9.34 31.095301)">
       <text>
        <tspan style="font: 8px 'Arial'" x="0 4.449219" y="-0.39949999999999974">10</tspan>
        <tspan style="font: 5.6px 'Arial'" x="9.037825 12.308137" y="-5.975">−2</tspan>
       </text>
      </g>
     </g>
    </g>
    <g id="ytick_3"/>
    <g id="ytick_4"/>
    <g id="ytick_5"/>
    <g id="ytick_6"/>
    <g id="ytick_7"/>
    <g id="ytick_8"/>
    <g id="ytick_9"/>
    <g id="ytick_10"/>
    <g id="ytick_11"/>
    <g id="ytick_12"/>
    <g id="ytick_13"/>
    <g id="ytick_14"/>
    <g id="ytick_15"/>
    <g id="ytick_16"/>
    <g id="ytick_17"/>
    <g id="text_6">
     <text style="fill: #262626; font: 8px 'Arial', 'DejaVu Sans', 'Liberation Sans', 'Bitstream Vera Sans', sans-serif" transform="translate(-23.60225 82.999375) rotate(-90)">Allele frequency</text>
     <text style="fill: #262626; font: 8px 'Arial', 'DejaVu Sans', 'Liberation Sans', 'Bitstream Vera Sans', sans-serif" transform="translate(-14.93 77.4375) rotate(-90)">in DMS input</text>
    </g>
   </g>
   <g id="PathCollection_1">
    <defs>
     <path id="m747a35758d" d="M 0 3 
C 0.795609 3 1.55874 2.683901 2.12132 2.12132 
C 2.683901 1.55874 3 0.795609 3 0 
C 3 -0.795609 2.683901 -1.55874 2.12132 -2.12132 
C 1.55874 -2.683901 0.795609 -3 0 -3 
C -0.795609 -3 -1.55874 -2.683901 -2.12132 -2.12132 
C -2.683901 -1.55874 -3 -0.795609 -3 0 
C -3 0.795609 -2.683901 1.55874 -2.12132 2.12132 
C -1.55874 2.683901 -0.795609 3 0 3 
z
" style="stroke: #ffffff; stroke-opacity: 0.2; stroke-width: 0.48"/>
    </defs>
    <g clip-path="url(#pd0ddbbc4ca)">
     <use xlink:href="#m747a35758d" x="68.45158" y="58.88408" style="fill: #87ceeb; fill-opacity: 0.2; stroke: #ffffff; stroke-opacity: 0.2; stroke-width: 0.48"/>
     <use xlink:href="#m747a35758d" x="79.254972" y="43.200083" style="fill: #87ceeb; fill-opacity: 0.2; stroke: #ffffff; stroke-opacity: 0.2; stroke-width: 0.48"/>
     <use xlink:href="#m747a35758d" x="72.210189" y="54.460707" style="fill: #87ceeb; fill-opacity: 0.2; stroke: #ffffff; stroke-opacity: 0.2; stroke-width: 0.48"/>
     <use xlink:href="#m747a35758d" x="48.92337" y="79.255855" style="fill: #87ceeb; fill-opacity: 0.2; stroke: #ffffff; stroke-opacity: 0.2; stroke-width: 0.48"/>
     <use xlink:href="#m747a35758d" x="46.059818" y="60.642644" style="fill: #87ceeb; fill-opacity: 0.2; stroke: #ffffff; stroke-opacity: 0.2; stroke-width: 0.48"/>
     <use xlink:href="#m747a35758d" x="52.340069" y="39.788935" style="fill: #87ceeb; fill-opacity: 0.2; stroke: #ffffff; stroke-opacity: 0.2; stroke-width: 0.48"/>
     <use xlink:href="#m747a35758d" x="54.232257" y="34.985082" style="fill: #87ceeb; fill-opacity: 0.2; stroke: #ffffff; stroke-opacity: 0.2; stroke-width: 0.48"/>
     <use xlink:href="#m747a35758d" x="46.848504" y="50.696491" style="fill: #87ceeb; fill-opacity: 0.2; stroke: #ffffff; stroke-opacity: 0.2; stroke-width: 0.48"/>
     <use xlink:href="#m747a35758d" x="41.083682" y="39.315301" style="fill: #87ceeb; fill-opacity: 0.2; stroke: #ffffff; stroke-opacity: 0.2; stroke-width: 0.48"/>
     <use xlink:href="#m747a35758d" x="31.445028" y="46.048749" style="fill: #87ceeb; fill-opacity: 0.2; stroke: #ffffff; stroke-opacity: 0.2; stroke-width: 0.48"/>
     <use xlink:href="#m747a35758d" x="40.517346" y="52.407309" style="fill: #87ceeb; fill-opacity: 0.2; stroke: #ffffff; stroke-opacity: 0.2; stroke-width: 0.48"/>
     <use xlink:href="#m747a35758d" x="47.531947" y="54.282619" style="fill: #87ceeb; fill-opacity: 0.2; stroke: #ffffff; stroke-opacity: 0.2; stroke-width: 0.48"/>
     <use xlink:href="#m747a35758d" x="46.108144" y="68.112762" style="fill: #87ceeb; fill-opacity: 0.2; stroke: #ffffff; stroke-opacity: 0.2; stroke-width: 0.48"/>
     <use xlink:href="#m747a35758d" x="35.837315" y="47.291762" style="fill: #87ceeb; fill-opacity: 0.2; stroke: #ffffff; stroke-opacity: 0.2; stroke-width: 0.48"/>
     <use xlink:href="#m747a35758d" x="37.240639" y="59.297286" style="fill: #87ceeb; fill-opacity: 0.2; stroke: #ffffff; stroke-opacity: 0.2; stroke-width: 0.48"/>
     <use xlink:href="#m747a35758d" x="41.292545" y="50.628711" style="fill: #87ceeb; fill-opacity: 0.2; stroke: #ffffff; stroke-opacity: 0.2; stroke-width: 0.48"/>
     <use xlink:href="#m747a35758d" x="39.715356" y="49.703666" style="fill: #87ceeb; fill-opacity: 0.2; stroke: #ffffff; stroke-opacity: 0.2; stroke-width: 0.48"/>
     <use xlink:href="#m747a35758d" x="38.266915" y="78.579198" style="fill: #87ceeb; fill-opacity: 0.2; stroke: #ffffff; stroke-opacity: 0.2; stroke-width: 0.48"/>
     <use xlink:href="#m747a35758d" x="38.238698" y="66.454157" style="fill: #87ceeb; fill-opacity: 0.2; stroke: #ffffff; stroke-opacity: 0.2; stroke-width: 0.48"/>
     <use xlink:href="#m747a35758d" x="43.559396" y="50.547395" style="fill: #87ceeb; fill-opacity: 0.2; stroke: #ffffff; stroke-opacity: 0.2; stroke-width: 0.48"/>
     <use xlink:href="#m747a35758d" x="42.648243" y="51.251156" style="fill: #87ceeb; fill-opacity: 0.2; stroke: #ffffff; stroke-opacity: 0.2; stroke-width: 0.48"/>
     <use xlink:href="#m747a35758d" x="38.708251" y="76.344871" style="fill: #87ceeb; fill-opacity: 0.2; stroke: #ffffff; stroke-opacity: 0.2; stroke-width: 0.48"/>
     <use xlink:href="#m747a35758d" x="43.3202" y="42.257061" style="fill: #87ceeb; fill-opacity: 0.2; stroke: #ffffff; stroke-opacity: 0.2; stroke-width: 0.48"/>
     <use xlink:href="#m747a35758d" x="45.991183" y="38.966385" style="fill: #87ceeb; fill-opacity: 0.2; stroke: #ffffff; stroke-opacity: 0.2; stroke-width: 0.48"/>
     <use xlink:href="#m747a35758d" x="37.701731" y="56.124038" style="fill: #87ceeb; fill-opacity: 0.2; stroke: #ffffff; stroke-opacity: 0.2; stroke-width: 0.48"/>
     <use xlink:href="#m747a35758d" x="40.619496" y="50.056807" style="fill: #87ceeb; fill-opacity: 0.2; stroke: #ffffff; stroke-opacity: 0.2; stroke-width: 0.48"/>
     <use xlink:href="#m747a35758d" x="32.182341" y="61.877579" style="fill: #87ceeb; fill-opacity: 0.2; stroke: #ffffff; stroke-opacity: 0.2; stroke-width: 0.48"/>
     <use xlink:href="#m747a35758d" x="58.860903" y="38.491849" style="fill: #87ceeb; fill-opacity: 0.2; stroke: #ffffff; stroke-opacity: 0.2; stroke-width: 0.48"/>
     <use xlink:href="#m747a35758d" x="74.808068" y="43.071837" style="fill: #87ceeb; fill-opacity: 0.2; stroke: #ffffff; stroke-opacity: 0.2; stroke-width: 0.48"/>
     <use xlink:href="#m747a35758d" x="77.896618" y="53.69689" style="fill: #87ceeb; fill-opacity: 0.2; stroke: #ffffff; stroke-opacity: 0.2; stroke-width: 0.48"/>
     <use xlink:href="#m747a35758d" x="61.298965" y="59.168866" style="fill: #87ceeb; fill-opacity: 0.2; stroke: #ffffff; stroke-opacity: 0.2; stroke-width: 0.48"/>
     <use xlink:href="#m747a35758d" x="58.573495" y="70.007271" style="fill: #87ceeb; fill-opacity: 0.2; stroke: #ffffff; stroke-opacity: 0.2; stroke-width: 0.48"/>
     <use xlink:href="#m747a35758d" x="53.83772" y="53.324083" style="fill: #87ceeb; fill-opacity: 0.2; stroke: #ffffff; stroke-opacity: 0.2; stroke-width: 0.48"/>
     <use xlink:href="#m747a35758d" x="52.935192" y="66.257742" style="fill: #87ceeb; fill-opacity: 0.2; stroke: #ffffff; stroke-opacity: 0.2; stroke-width: 0.48"/>
     <use xlink:href="#m747a35758d" x="41.879144" y="57.687687" style="fill: #87ceeb; fill-opacity: 0.2; stroke: #ffffff; stroke-opacity: 0.2; stroke-width: 0.48"/>
     <use xlink:href="#m747a35758d" x="35.099263" y="47.652345" style="fill: #87ceeb; fill-opacity: 0.2; stroke: #ffffff; stroke-opacity: 0.2; stroke-width: 0.48"/>
     <use xlink:href="#m747a35758d" x="37.015542" y="45.922207" style="fill: #87ceeb; fill-opacity: 0.2; stroke: #ffffff; stroke-opacity: 0.2; stroke-width: 0.48"/>
     <use xlink:href="#m747a35758d" x="45.389076" y="50.780776" style="fill: #87ceeb; fill-opacity: 0.2; stroke: #ffffff; stroke-opacity: 0.2; stroke-width: 0.48"/>
     <use xlink:href="#m747a35758d" x="50.877056" y="58.440628" style="fill: #87ceeb; fill-opacity: 0.2; stroke: #ffffff; stroke-opacity: 0.2; stroke-width: 0.48"/>
     <use xlink:href="#m747a35758d" x="46.083993" y="57.052309" style="fill: #87ceeb; fill-opacity: 0.2; stroke: #ffffff; stroke-opacity: 0.2; stroke-width: 0.48"/>
     <use xlink:href="#m747a35758d" x="50.788442" y="54.165228" style="fill: #87ceeb; fill-opacity: 0.2; stroke: #ffffff; stroke-opacity: 0.2; stroke-width: 0.48"/>
     <use xlink:href="#m747a35758d" x="49.903691" y="51.503298" style="fill: #87ceeb; fill-opacity: 0.2; stroke: #ffffff; stroke-opacity: 0.2; stroke-width: 0.48"/>
     <use xlink:href="#m747a35758d" x="50.922871" y="43.222669" style="fill: #87ceeb; fill-opacity: 0.2; stroke: #ffffff; stroke-opacity: 0.2; stroke-width: 0.48"/>
     <use xlink:href="#m747a35758d" x="48.386254" y="47.406557" style="fill: #87ceeb; fill-opacity: 0.2; stroke: #ffffff; stroke-opacity: 0.2; stroke-width: 0.48"/>
     <use xlink:href="#m747a35758d" x="45.230854" y="46.941771" style="fill: #87ceeb; fill-opacity: 0.2; stroke: #ffffff; stroke-opacity: 0.2; stroke-width: 0.48"/>
     <use xlink:href="#m747a35758d" x="44.651298" y="66.447787" style="fill: #87ceeb; fill-opacity: 0.2; stroke: #ffffff; stroke-opacity: 0.2; stroke-width: 0.48"/>
     <use xlink:href="#m747a35758d" x="57.287697" y="48.267478" style="fill: #87ceeb; fill-opacity: 0.2; stroke: #ffffff; stroke-opacity: 0.2; stroke-width: 0.48"/>
     <use xlink:href="#m747a35758d" x="50.765413" y="72.362297" style="fill: #87ceeb; fill-opacity: 0.2; stroke: #ffffff; stroke-opacity: 0.2; stroke-width: 0.48"/>
    </g>
   </g>
   <g id="PathCollection_2">
    <defs>
     <path id="m3cbfacf05a" d="M 0 3 
C 0.795609 3 1.55874 2.683901 2.12132 2.12132 
C 2.683901 1.55874 3 0.795609 3 0 
C 3 -0.795609 2.683901 -1.55874 2.12132 -2.12132 
C 1.55874 -2.683901 0.795609 -3 0 -3 
C -0.795609 -3 -1.55874 -2.683901 -2.12132 -2.12132 
C -2.683901 -1.55874 -3 -0.795609 -3 0 
C -3 0.795609 -2.683901 1.55874 -2.12132 2.12132 
C -1.55874 2.683901 -0.795609 3 0 3 
z
" style="stroke: #ffffff; stroke-width: 0.48"/>
    </defs>
    <g clip-path="url(#pd0ddbbc4ca)">
     <use xlink:href="#m3cbfacf05a" x="16.190524" y="16.92" style="stroke: #ffffff; stroke-width: 0.48"/>
    </g>
   </g>
   <g id="QuadContourSet_1">
    <path d="M 38.315578 85.956688 
L 38.736181 85.996637 
L 39.156784 86.026813 
L 39.577387 86.048253 
L 39.99799 86.0619 
L 40.418593 86.068611 
L 40.839196 86.06915 
L 41.259799 86.064193 
L 41.680402 86.054317 
L 42.101005 86.039997 
L 42.521608 86.021598 
L 42.942211 85.999365 
L 43.362814 85.973421 
L 43.783417 85.943758 
L 43.968333 85.929168 
L 44.20402 85.910928 
L 44.624623 85.874648 
L 45.045226 85.834 
L 45.465829 85.788481 
L 45.886432 85.73748 
L 46.307035 85.680284 
L 46.727638 85.616092 
L 47.148241 85.544019 
L 47.184417 85.537213 
L 47.568844 85.465539 
L 47.989447 85.377807 
L 48.41005 85.279575 
L 48.830653 85.169763 
L 48.9168 85.145258 
L 49.251256 85.050226 
L 49.671859 84.918109 
L 50.092462 84.771502 
L 50.141099 84.753302 
L 50.513065 84.613335 
L 50.933668 84.439453 
L 51.109217 84.361347 
L 51.354271 84.251152 
L 51.774874 84.047004 
L 51.925016 83.969392 
L 52.195477 83.827486 
L 52.61608 83.590475 
L 52.638277 83.577437 
L 53.036683 83.339109 
L 53.279079 83.185482 
L 53.457286 83.070243 
L 53.865005 82.793527 
L 53.877889 82.784593 
L 54.298492 82.484965 
L 54.411723 82.401572 
L 54.719095 82.170139 
L 54.926635 82.009617 
L 55.139698 81.841142 
L 55.416801 81.617662 
L 55.560302 81.499392 
L 55.887992 81.225707 
L 55.980905 81.146456 
L 56.344765 80.833752 
L 56.401508 80.783986 
L 56.790702 80.441796 
L 56.822111 80.413634 
L 57.228571 80.049841 
L 57.242714 80.036938 
L 57.660431 79.657886 
L 57.663317 79.655217 
L 58.08392 79.269566 
L 58.087926 79.265931 
L 58.504523 78.880464 
L 58.51162 78.873976 
L 58.925126 78.48801 
L 58.931628 78.482021 
L 59.345729 78.091918 
L 59.347723 78.090066 
L 59.759671 77.698111 
L 59.766332 77.691602 
L 60.166496 77.306156 
L 60.186935 77.285867 
L 60.566904 76.914201 
L 60.607538 76.87309 
L 60.959605 76.522246 
L 61.028141 76.451327 
L 61.343306 76.13029 
L 61.448744 76.018317 
L 61.716801 75.738335 
L 61.869347 75.571558 
L 62.079037 75.34638 
L 62.28995 75.108421 
L 62.429163 74.954425 
L 62.710553 74.626331 
L 62.766544 74.56247 
L 63.093392 74.170515 
L 63.131156 74.122915 
L 63.411647 73.77856 
L 63.551759 73.596336 
L 63.717909 73.386605 
L 63.972362 73.046585 
L 64.012561 72.99465 
L 64.302869 72.602695 
L 64.392965 72.475042 
L 64.587102 72.21074 
L 64.813568 71.887512 
L 64.863898 71.818785 
L 65.142031 71.426829 
L 65.234171 71.293002 
L 65.421083 71.034874 
L 65.654774 70.704019 
L 65.700337 70.642919 
L 65.989941 70.250964 
L 66.075377 70.134811 
L 66.290582 69.859009 
L 66.49598 69.596587 
L 66.603775 69.467054 
L 66.916583 69.095755 
L 66.935108 69.075099 
L 67.294173 68.683144 
L 67.337186 68.637367 
L 67.683415 68.291189 
L 67.757789 68.218977 
L 68.107638 67.899234 
L 68.178392 67.836606 
L 68.572286 67.507279 
L 68.598995 67.485672 
L 69.019598 67.163297 
L 69.085344 67.115323 
L 69.440201 66.864428 
L 69.648122 66.723368 
L 69.860804 66.5833 
L 70.256238 66.331413 
L 70.281407 66.315808 
L 70.70201 66.063816 
L 70.913905 65.939458 
L 71.122613 65.819711 
L 71.543216 65.581817 
L 71.604979 65.547503 
L 71.963819 65.351682 
L 72.322601 65.155548 
L 72.384422 65.122226 
L 72.805025 64.897443 
L 73.053523 64.763593 
L 73.225628 64.671751 
L 73.646231 64.445869 
L 73.783584 64.371638 
L 74.066834 64.219258 
L 74.487437 63.988099 
L 74.502745 63.979683 
L 74.90804 63.756833 
L 75.207653 63.587728 
L 75.328643 63.519152 
L 75.749246 63.277536 
L 75.889312 63.195773 
L 76.169849 63.03051 
L 76.544308 62.803817 
L 76.590452 62.775502 
L 77.011055 62.514999 
L 77.17399 62.411862 
L 77.431658 62.245642 
L 77.772891 62.019907 
L 77.852261 61.966136 
L 78.272864 61.676825 
L 78.342948 61.627952 
L 78.693467 61.376089 
L 78.884446 61.235997 
L 79.11407 61.06149 
L 79.39511 60.844042 
L 79.534673 60.731532 
L 79.876183 60.452087 
L 79.955276 60.384256 
L 80.328875 60.060132 
L 80.375879 60.017131 
L 80.75432 59.668177 
L 80.796482 59.626924 
L 81.153528 59.276222 
L 81.217085 59.209554 
L 81.527338 58.884267 
L 81.637688 58.75991 
L 81.876367 58.492312 
L 82.058291 58.271655 
L 82.200956 58.100356 
L 82.478894 57.737002 
L 82.501111 57.708401 
L 82.783928 57.316446 
L 82.899497 57.140638 
L 83.044946 56.924491 
L 83.284345 56.532536 
L 83.320101 56.468718 
L 83.509825 56.140581 
L 83.713253 55.748626 
L 83.740704 55.69075 
L 83.905551 55.356671 
L 84.079065 54.964716 
L 84.161307 54.759155 
L 84.239502 54.572761 
L 84.388227 54.180806 
L 84.521601 53.78885 
L 84.58191 53.592921 
L 84.645747 53.396895 
L 84.761338 53.00494 
L 84.865749 52.612985 
L 84.960528 52.22103 
L 85.002513 52.031303 
L 85.050239 51.829075 
L 85.135286 51.43712 
L 85.213861 51.045165 
L 85.287059 50.65321 
L 85.355821 50.261255 
L 85.420938 49.8693 
L 85.423116 49.855542 
L 85.487249 49.477344 
L 85.550839 49.085389 
L 85.611882 48.693434 
L 85.670531 48.301479 
L 85.726766 47.909524 
L 85.780404 47.517569 
L 85.831116 47.125614 
L 85.843719 47.020968 
L 85.880877 46.733659 
L 85.927206 46.341704 
L 85.968509 45.949749 
L 86.003998 45.557794 
L 86.032819 45.165838 
L 86.054049 44.773883 
L 86.066706 44.381928 
L 86.069741 43.989973 
L 86.062029 43.598018 
L 86.042354 43.206063 
L 86.009383 42.814108 
L 85.961639 42.422153 
L 85.897459 42.030198 
L 85.843719 41.771875 
L 85.816556 41.638243 
L 85.7192 41.246288 
L 85.599931 40.854333 
L 85.4559 40.462377 
L 85.423116 40.384543 
L 85.290148 40.070422 
L 85.095013 39.678467 
L 85.002513 39.515393 
L 84.869456 39.286512 
L 84.607398 38.894557 
L 84.58191 38.859942 
L 84.306571 38.502602 
L 84.161307 38.334092 
L 83.956544 38.110647 
L 83.740704 37.89609 
L 83.547801 37.718692 
L 83.320101 37.524557 
L 83.06475 37.326737 
L 82.899497 37.206065 
L 82.482512 36.934782 
L 82.478894 36.932528 
L 82.058291 36.693679 
L 81.749121 36.542827 
L 81.637688 36.489645 
L 81.217085 36.312746 
L 80.796482 36.16497 
L 80.749788 36.150871 
L 80.375879 36.037535 
L 79.955276 35.933547 
L 79.534673 35.85143 
L 79.11407 35.789322 
L 78.823123 35.758916 
L 78.693467 35.744891 
L 78.272864 35.716894 
L 77.852261 35.706203 
L 77.431658 35.712051 
L 77.011055 35.733855 
L 76.728812 35.758916 
L 76.590452 35.770423 
L 76.169849 35.819668 
L 75.749246 35.882871 
L 75.328643 35.95982 
L 74.90804 36.050294 
L 74.499906 36.150871 
L 74.487437 36.153824 
L 74.066834 36.263545 
L 73.646231 36.384612 
L 73.225628 36.516099 
L 73.143335 36.542827 
L 72.805025 36.650664 
L 72.384422 36.790506 
L 71.963819 36.934425 
L 71.962734 36.934782 
L 71.543216 37.072318 
L 71.122613 37.206233 
L 70.713142 37.326737 
L 70.70201 37.330055 
L 70.281407 37.432454 
L 69.860804 37.508613 
L 69.440201 37.546823 
L 69.019598 37.53306 
L 68.598995 37.451287 
L 68.28126 37.326737 
L 68.178392 37.283577 
L 67.757789 37.012119 
L 67.670816 36.934782 
L 67.337186 36.626894 
L 67.265087 36.542827 
L 66.933312 36.150871 
L 66.916583 36.13097 
L 66.650541 35.758916 
L 66.49598 35.546583 
L 66.380525 35.366961 
L 66.119064 34.975006 
L 66.075377 34.911623 
L 65.86775 34.583051 
L 65.654774 34.266376 
L 65.607309 34.191096 
L 65.346351 33.799141 
L 65.234171 33.641128 
L 65.074386 33.407186 
L 64.813568 33.05402 
L 64.78555 33.015231 
L 64.485089 32.623276 
L 64.392965 32.511026 
L 64.163673 32.231321 
L 63.972362 32.013942 
L 63.816727 31.839365 
L 63.551759 31.560911 
L 63.440861 31.44741 
L 63.131156 31.148254 
L 63.031185 31.055455 
L 62.710553 30.772187 
L 62.580811 30.6635 
L 62.28995 30.429479 
L 62.080087 30.271545 
L 61.869347 30.117765 
L 61.515398 29.87959 
L 61.448744 29.83567 
L 61.028141 29.57699 
L 60.868749 29.487635 
L 60.607538 29.342235 
L 60.186935 29.132417 
L 60.106508 29.09568 
L 59.766332 28.939182 
L 59.345729 28.769047 
L 59.164822 28.703725 
L 58.925126 28.61529 
L 58.504523 28.478361 
L 58.08392 28.361208 
L 57.879135 28.31177 
L 57.663317 28.257528 
L 57.242714 28.167051 
L 56.822111 28.092563 
L 56.401508 28.03275 
L 55.980905 27.986481 
L 55.560302 27.952779 
L 55.139698 27.930802 
L 54.719095 27.919815 
L 54.719095 27.919815 
L 54.298492 27.919115 
L 54.269709 27.919815 
L 53.877889 27.928337 
L 53.457286 27.946797 
L 53.036683 27.974124 
L 52.61608 28.009935 
L 52.195477 28.053885 
L 51.774874 28.10567 
L 51.354271 28.16502 
L 50.933668 28.231697 
L 50.513065 28.305496 
L 50.4802 28.31177 
L 50.092462 28.378711 
L 49.671859 28.457158 
L 49.251256 28.541347 
L 48.830653 28.631214 
L 48.510601 28.703725 
L 48.41005 28.724386 
L 47.989447 28.815033 
L 47.568844 28.910584 
L 47.148241 29.011218 
L 46.812075 29.09568 
L 46.727638 29.114956 
L 46.307035 29.214764 
L 45.886432 29.319744 
L 45.465829 29.430417 
L 45.258171 29.487635 
L 45.045226 29.541074 
L 44.624623 29.651702 
L 44.20402 29.769064 
L 43.831188 29.87959 
L 43.783417 29.892536 
L 43.362814 30.011818 
L 42.942211 30.139491 
L 42.537106 30.271545 
L 42.521608 30.276185 
L 42.101005 30.408383 
L 41.680402 30.551163 
L 41.372532 30.6635 
L 41.259799 30.70148 
L 40.839196 30.851761 
L 40.418593 31.015325 
L 40.321255 31.055455 
L 39.99799 31.179197 
L 39.577387 31.353467 
L 39.365881 31.44741 
L 39.156784 31.534041 
L 38.736181 31.720858 
L 38.48826 31.839365 
L 38.315578 31.916689 
L 37.894975 32.117751 
L 37.673457 32.231321 
L 37.474372 32.327296 
L 37.053769 32.544157 
L 36.909172 32.623276 
L 36.633166 32.765746 
L 36.212563 32.999845 
L 36.186063 33.015231 
L 35.79196 33.231697 
L 35.494901 33.407186 
L 35.371357 33.476381 
L 34.950754 33.724768 
L 34.831057 33.799141 
L 34.530151 33.976824 
L 34.189946 34.191096 
L 34.109548 34.23932 
L 33.688945 34.502998 
L 33.567334 34.583051 
L 33.268342 34.770981 
L 32.96214 34.975006 
L 32.847739 35.047977 
L 32.427136 35.329546 
L 32.373331 35.366961 
L 32.006533 35.612023 
L 31.798296 35.758916 
L 31.58593 35.903344 
L 31.240837 36.150871 
L 31.165327 36.203295 
L 30.744724 36.508603 
L 30.699365 36.542827 
L 30.324121 36.818507 
L 30.173631 36.934782 
L 29.903518 37.139062 
L 29.667264 37.326737 
L 29.482915 37.470908 
L 29.180817 37.718692 
L 29.062312 37.81499 
L 28.714749 38.110647 
L 28.641709 38.172626 
L 28.269388 38.502602 
L 28.221106 38.545604 
L 27.84494 38.894557 
L 27.800503 38.936312 
L 27.441518 39.286512 
L 27.379899 39.347915 
L 27.059197 39.678467 
L 26.959296 39.7846 
L 26.698087 40.070422 
L 26.538693 40.251919 
L 26.358403 40.462377 
L 26.11809 40.757275 
L 26.040546 40.854333 
L 25.742319 41.246288 
L 25.697487 41.308147 
L 25.46097 41.638243 
L 25.276884 41.916429 
L 25.202004 42.030198 
L 24.959687 42.422153 
L 24.856281 42.603506 
L 24.735695 42.814108 
L 24.529945 43.206063 
L 24.435678 43.402874 
L 24.340864 43.598018 
L 24.167528 43.989973 
L 24.015075 44.381441 
L 24.014881 44.381928 
L 23.870959 44.773883 
L 23.745863 45.165838 
L 23.638174 45.557794 
L 23.594472 45.741553 
L 23.542789 45.949749 
L 23.460171 46.341704 
L 23.392832 46.733659 
L 23.33989 47.125614 
L 23.300574 47.517569 
L 23.274204 47.909524 
L 23.260174 48.301479 
L 23.257929 48.693434 
L 23.266949 49.085389 
L 23.286723 49.477344 
L 23.316735 49.8693 
L 23.356435 50.261255 
L 23.405222 50.65321 
L 23.462422 51.045165 
L 23.527271 51.43712 
L 23.594472 51.805024 
L 23.59854 51.829075 
L 23.669714 52.22103 
L 23.745096 52.612985 
L 23.82355 53.00494 
L 23.903856 53.396895 
L 23.98473 53.78885 
L 24.015075 53.938024 
L 24.06087 54.180806 
L 24.132669 54.572761 
L 24.201448 54.964716 
L 24.266223 55.356671 
L 24.326174 55.748626 
L 24.380682 56.140581 
L 24.429369 56.532536 
L 24.435678 56.590513 
L 24.469303 56.924491 
L 24.503437 57.316446 
L 24.532633 57.708401 
L 24.557483 58.100356 
L 24.578773 58.492312 
L 24.59745 58.884267 
L 24.614598 59.276222 
L 24.631394 59.668177 
L 24.649087 60.060132 
L 24.668968 60.452087 
L 24.692347 60.844042 
L 24.720537 61.235997 
L 24.754847 61.627952 
L 24.796567 62.019907 
L 24.846972 62.411862 
L 24.856281 62.472903 
L 24.904348 62.803817 
L 24.971827 63.195773 
L 25.051122 63.587728 
L 25.14337 63.979683 
L 25.249672 64.371638 
L 25.276884 64.460948 
L 25.366339 64.763593 
L 25.497053 65.155548 
L 25.644049 65.547503 
L 25.697487 65.677518 
L 25.802962 65.939458 
L 25.976172 66.331413 
L 26.11809 66.625953 
L 26.164317 66.723368 
L 26.362483 67.115323 
L 26.538693 67.440024 
L 26.574721 67.507279 
L 26.793568 67.899234 
L 26.959296 68.182413 
L 27.022074 68.291189 
L 27.253397 68.683144 
L 27.379899 68.893575 
L 27.487052 69.075099 
L 27.71879 69.467054 
L 27.800503 69.606901 
L 27.944141 69.859009 
L 28.1621 70.250964 
L 28.221106 70.361591 
L 28.366192 70.642919 
L 28.557282 71.034874 
L 28.641709 71.220962 
L 28.731268 71.426829 
L 28.886899 71.818785 
L 29.026713 72.21074 
L 29.062312 72.323339 
L 29.146163 72.602695 
L 29.24829 72.99465 
L 29.335429 73.386605 
L 29.408768 73.77856 
L 29.46986 74.170515 
L 29.482915 74.270686 
L 29.518821 74.56247 
L 29.559159 74.954425 
L 29.593518 75.34638 
L 29.623994 75.738335 
L 29.652678 76.13029 
L 29.681626 76.522246 
L 29.712843 76.914201 
L 29.748279 77.306156 
L 29.789832 77.698111 
L 29.839363 78.090066 
L 29.898715 78.482021 
L 29.903518 78.508715 
L 29.967403 78.873976 
L 30.049125 79.265931 
L 30.145978 79.657886 
L 30.25999 80.049841 
L 30.324121 80.240455 
L 30.391576 80.441796 
L 30.542876 80.833752 
L 30.718138 81.225707 
L 30.744724 81.278771 
L 30.917447 81.617662 
L 31.146194 82.009617 
L 31.165327 82.039331 
L 31.406758 82.401572 
L 31.58593 82.641453 
L 31.705042 82.793527 
L 32.006533 83.141804 
L 32.046712 83.185482 
L 32.427136 83.564896 
L 32.440679 83.577437 
L 32.847739 83.928045 
L 32.900147 83.969392 
L 33.268342 84.243252 
L 33.444053 84.361347 
L 33.688945 84.518578 
L 34.099011 84.753302 
L 34.109548 84.759138 
L 34.530151 84.970585 
L 34.928942 85.145258 
L 34.950754 85.15466 
L 35.371357 85.316796 
L 35.79196 85.456762 
L 36.071782 85.537213 
L 36.212563 85.577876 
L 36.633166 85.682897 
L 37.053769 85.771621 
L 37.474372 85.845699 
L 37.894975 85.906621 
L 38.087567 85.929168 
L 38.315578 85.956688 
z
" clip-path="url(#pd0ddbbc4ca)" style="fill: none; stroke: #87ceeb; stroke-width: 1.5"/>
    <path d="M 39.99799 77.72945 
L 40.418593 77.866604 
L 40.839196 77.964874 
L 41.259799 78.030324 
L 41.680402 78.06827 
L 42.101005 78.083307 
L 42.521608 78.079347 
L 42.942211 78.059662 
L 43.362814 78.026924 
L 43.783417 77.983254 
L 44.20402 77.930264 
L 44.624623 77.869108 
L 45.045226 77.800525 
L 45.465829 77.724889 
L 45.601875 77.698111 
L 45.886432 77.640184 
L 46.307035 77.547344 
L 46.727638 77.446998 
L 47.148241 77.338554 
L 47.264371 77.306156 
L 47.568844 77.21884 
L 47.989447 77.088688 
L 48.41005 76.948326 
L 48.504892 76.914201 
L 48.830653 76.794095 
L 49.251256 76.627461 
L 49.498931 76.522246 
L 49.671859 76.447061 
L 50.092462 76.251692 
L 50.33799 76.13029 
L 50.513065 76.041686 
L 50.933668 75.816063 
L 51.070999 75.738335 
L 51.354271 75.574001 
L 51.727658 75.34638 
L 51.774874 75.316816 
L 52.195477 75.041503 
L 52.323305 74.954425 
L 52.61608 74.748844 
L 52.872175 74.56247 
L 53.036683 74.438598 
L 53.381687 74.170515 
L 53.457286 74.109464 
L 53.856052 73.77856 
L 53.877889 73.759633 
L 54.298492 73.386605 
L 54.298492 73.386605 
L 54.711481 72.99465 
L 54.719095 72.987017 
L 55.096931 72.602695 
L 55.139698 72.556482 
L 55.456347 72.21074 
L 55.560302 72.089474 
L 55.790932 71.818785 
L 55.980905 71.579316 
L 56.101666 71.426829 
L 56.389434 71.034874 
L 56.401508 71.017074 
L 56.65635 70.642919 
L 56.822111 70.378376 
L 56.902687 70.250964 
L 57.130566 69.859009 
L 57.242714 69.648734 
L 57.341236 69.467054 
L 57.53654 69.075099 
L 57.663317 68.798681 
L 57.717646 68.683144 
L 57.887848 68.291189 
L 58.0466 67.899234 
L 58.08392 67.800441 
L 58.198844 67.507279 
L 58.344687 67.115323 
L 58.485006 66.723368 
L 58.504523 66.666695 
L 58.625924 66.331413 
L 58.766095 65.939458 
L 58.906357 65.547503 
L 58.925126 65.494854 
L 59.054025 65.155548 
L 59.206043 64.763593 
L 59.345729 64.412271 
L 59.363126 64.371638 
L 59.533769 63.979683 
L 59.709908 63.587728 
L 59.766332 63.464086 
L 59.899858 63.195773 
L 60.098567 62.803817 
L 60.186935 62.630286 
L 60.309445 62.411862 
L 60.528827 62.019907 
L 60.607538 61.876566 
L 60.759413 61.627952 
L 60.99179 61.235997 
L 61.028141 61.171372 
L 61.235111 60.844042 
L 61.448744 60.481909 
L 61.468737 60.452087 
L 61.707546 60.060132 
L 61.869347 59.758722 
L 61.925341 59.668177 
L 62.131466 59.276222 
L 62.28995 58.900275 
L 62.297855 58.884267 
L 62.443567 58.492312 
L 62.539133 58.100356 
L 62.586533 57.708401 
L 62.590396 57.316446 
L 62.557081 56.924491 
L 62.493731 56.532536 
L 62.407469 56.140581 
L 62.304831 55.748626 
L 62.28995 55.699287 
L 62.208315 55.356671 
L 62.108678 54.964716 
L 62.006138 54.572761 
L 61.902793 54.180806 
L 61.869347 54.056285 
L 61.810172 53.78885 
L 61.723378 53.396895 
L 61.638024 53.00494 
L 61.554423 52.612985 
L 61.472711 52.22103 
L 61.448744 52.104827 
L 61.399604 51.829075 
L 61.330674 51.43712 
L 61.262903 51.045165 
L 61.196193 50.65321 
L 61.130445 50.261255 
L 61.065579 49.8693 
L 61.028141 49.63992 
L 61.004193 49.477344 
L 60.94713 49.085389 
L 60.890668 48.693434 
L 60.834915 48.301479 
L 60.780032 47.909524 
L 60.726227 47.517569 
L 60.673747 47.125614 
L 60.622869 46.733659 
L 60.607538 46.609538 
L 60.576589 46.341704 
L 60.53342 45.949749 
L 60.49234 45.557794 
L 60.453526 45.165838 
L 60.417077 44.773883 
L 60.382987 44.381928 
L 60.351119 43.989973 
L 60.321188 43.598018 
L 60.292746 43.206063 
L 60.265166 42.814108 
L 60.237643 42.422153 
L 60.209189 42.030198 
L 60.186935 41.742927 
L 60.179084 41.638243 
L 60.146834 41.246288 
L 60.109744 40.854333 
L 60.066193 40.462377 
L 60.014397 40.070422 
L 59.952401 39.678467 
L 59.878075 39.286512 
L 59.789086 38.894557 
L 59.766332 38.808198 
L 59.685445 38.502602 
L 59.562606 38.110647 
L 59.416636 37.718692 
L 59.345729 37.553406 
L 59.245824 37.326737 
L 59.045371 36.934782 
L 58.925126 36.730109 
L 58.809883 36.542827 
L 58.533077 36.150871 
L 58.504523 36.11452 
L 58.205664 35.758916 
L 58.08392 35.629725 
L 57.814576 35.366961 
L 57.663317 35.233156 
L 57.340014 34.975006 
L 57.242714 34.903464 
L 56.822111 34.627119 
L 56.746471 34.583051 
L 56.401508 34.394229 
L 55.980905 34.19831 
L 55.963274 34.191096 
L 55.560302 34.033279 
L 55.139698 33.896358 
L 54.776708 33.799141 
L 54.719095 33.784111 
L 54.298492 33.69231 
L 53.877889 33.620265 
L 53.457286 33.565864 
L 53.036683 33.527229 
L 52.61608 33.502696 
L 52.195477 33.490782 
L 51.774874 33.490174 
L 51.354271 33.499712 
L 50.933668 33.518379 
L 50.513065 33.545294 
L 50.092462 33.579707 
L 49.671859 33.620992 
L 49.251256 33.668649 
L 48.830653 33.722297 
L 48.41005 33.781674 
L 48.297887 33.799141 
L 47.989447 33.844141 
L 47.568844 33.910739 
L 47.148241 33.982415 
L 46.727638 34.059336 
L 46.307035 34.141774 
L 46.072629 34.191096 
L 45.886432 34.227856 
L 45.465829 34.31687 
L 45.045226 34.412086 
L 44.624623 34.514105 
L 44.359671 34.583051 
L 44.20402 34.621156 
L 43.783417 34.731529 
L 43.362814 34.850068 
L 42.950815 34.975006 
L 42.942211 34.977468 
L 42.521608 35.106195 
L 42.101005 35.244735 
L 41.756098 35.366961 
L 41.680402 35.392347 
L 41.259799 35.542941 
L 40.839196 35.705188 
L 40.708639 35.758916 
L 40.418593 35.872215 
L 39.99799 36.048275 
L 39.768598 36.150871 
L 39.577387 36.232246 
L 39.156784 36.422925 
L 38.908937 36.542827 
L 38.736181 36.622552 
L 38.315578 36.828662 
L 38.111748 36.934782 
L 37.894975 37.042741 
L 37.474372 37.265291 
L 37.364216 37.326737 
L 37.053769 37.492922 
L 36.658165 37.718692 
L 36.633166 37.732422 
L 36.212563 37.974273 
L 35.989008 38.110647 
L 35.79196 38.226851 
L 35.371357 38.489728 
L 35.351617 38.502602 
L 34.950754 38.756714 
L 34.745418 38.894557 
L 34.530151 39.035688 
L 34.168577 39.286512 
L 34.109548 39.326719 
L 33.688945 39.62746 
L 33.620974 39.678467 
L 33.268342 39.940453 
L 33.102452 40.070422 
L 32.847739 40.269361 
L 32.613081 40.462377 
L 32.427136 40.616012 
L 32.152792 40.854333 
L 32.006533 40.983021 
L 31.721347 41.246288 
L 31.58593 41.374053 
L 31.318362 41.638243 
L 31.165327 41.794198 
L 30.943365 42.030198 
L 30.744724 42.25052 
L 30.595882 42.422153 
L 30.324121 42.752873 
L 30.275526 42.814108 
L 29.980468 43.206063 
L 29.903518 43.315384 
L 29.710154 43.598018 
L 29.482915 43.961596 
L 29.465587 43.989973 
L 29.242368 44.381928 
L 29.062312 44.737046 
L 29.043916 44.773883 
L 28.864924 45.165838 
L 28.708877 45.557794 
L 28.641709 45.750211 
L 28.572306 45.949749 
L 28.45454 46.341704 
L 28.356466 46.733659 
L 28.276953 47.125614 
L 28.221106 47.477715 
L 28.214709 47.517569 
L 28.167464 47.909524 
L 28.136255 48.301479 
L 28.120125 48.693434 
L 28.118135 49.085389 
L 28.129351 49.477344 
L 28.152833 49.8693 
L 28.187629 50.261255 
L 28.221106 50.551453 
L 28.232285 50.65321 
L 28.284467 51.045165 
L 28.344534 51.43712 
L 28.411476 51.829075 
L 28.484273 52.22103 
L 28.561911 52.612985 
L 28.641709 52.996865 
L 28.643317 53.00494 
L 28.724078 53.396895 
L 28.806665 53.78885 
L 28.890296 54.180806 
L 28.974283 54.572761 
L 29.058046 54.964716 
L 29.062312 54.984942 
L 29.138037 55.356671 
L 29.216987 55.748626 
L 29.294953 56.140581 
L 29.371982 56.532536 
L 29.448279 56.924491 
L 29.482915 57.104235 
L 29.522879 57.316446 
L 29.596654 57.708401 
L 29.671448 58.100356 
L 29.748095 58.492312 
L 29.82756 58.884267 
L 29.903518 59.241861 
L 29.910762 59.276222 
L 29.997373 59.668177 
L 30.090469 60.060132 
L 30.191381 60.452087 
L 30.301472 60.844042 
L 30.324121 60.918847 
L 30.420967 61.235997 
L 30.552237 61.627952 
L 30.696853 62.019907 
L 30.744724 62.139702 
L 30.855458 62.411862 
L 31.029516 62.803817 
L 31.165327 63.085073 
L 31.220068 63.195773 
L 31.427722 63.587728 
L 31.58593 63.865386 
L 31.652848 63.979683 
L 31.895528 64.371638 
L 32.006533 64.54186 
L 32.1552 64.763593 
L 32.427136 65.151477 
L 32.430072 65.155548 
L 32.719656 65.547503 
L 32.847739 65.716873 
L 33.020278 65.939458 
L 33.268342 66.256172 
L 33.328652 66.331413 
L 33.641687 66.723368 
L 33.688945 66.783248 
L 33.955722 67.115323 
L 34.109548 67.311253 
L 34.265946 67.507279 
L 34.530151 67.850311 
L 34.568402 67.899234 
L 34.861054 68.291189 
L 34.950754 68.418112 
L 35.140526 68.683144 
L 35.371357 69.02773 
L 35.403566 69.075099 
L 35.651275 69.467054 
L 35.79196 69.709285 
L 35.880539 69.859009 
L 36.092427 70.250964 
L 36.212563 70.496308 
L 36.286221 70.642919 
L 36.464038 71.034874 
L 36.62344 71.426829 
L 36.633166 71.453531 
L 36.771578 71.818785 
L 36.904979 72.21074 
L 37.025376 72.602695 
L 37.053769 72.704385 
L 37.139769 72.99465 
L 37.24795 73.386605 
L 37.351506 73.77856 
L 37.453885 74.170515 
L 37.474372 74.247834 
L 37.565625 74.56247 
L 37.687198 74.954425 
L 37.822148 75.34638 
L 37.894975 75.53408 
L 37.98453 75.738335 
L 38.183547 76.13029 
L 38.315578 76.352408 
L 38.433172 76.522246 
L 38.736181 76.893608 
L 38.756302 76.914201 
L 39.156784 77.266219 
L 39.21302 77.306156 
L 39.577387 77.531656 
L 39.924208 77.698111 
L 39.99799 77.72945 
z
" clip-path="url(#pd0ddbbc4ca)" style="fill: none; stroke: #87ceeb; stroke-width: 1.5"/>
    <path d="M 45.045226 66.354105 
L 45.465829 66.362441 
L 45.886432 66.341715 
L 45.972644 66.331413 
L 46.307035 66.291293 
L 46.727638 66.209164 
L 47.148241 66.092761 
L 47.568844 65.939458 
L 47.568844 65.939458 
L 47.989447 65.751988 
L 48.365857 65.547503 
L 48.41005 65.52328 
L 48.830653 65.257345 
L 48.971444 65.155548 
L 49.251256 64.95147 
L 49.480817 64.763593 
L 49.671859 64.606261 
L 49.93051 64.371638 
L 50.092462 64.224103 
L 50.339829 63.979683 
L 50.513065 63.807999 
L 50.720681 63.587728 
L 50.933668 63.361172 
L 51.080573 63.195773 
L 51.354271 62.886636 
L 51.424245 62.803817 
L 51.754731 62.411862 
L 51.774874 62.38804 
L 52.074931 62.019907 
L 52.195477 61.870516 
L 52.385673 61.627952 
L 52.61608 61.329758 
L 52.687004 61.235997 
L 52.979975 60.844042 
L 53.036683 60.76702 
L 53.2654 60.452087 
L 53.457286 60.179317 
L 53.540535 60.060132 
L 53.806601 59.668177 
L 53.877889 59.559576 
L 54.06385 59.276222 
L 54.298492 58.8987 
L 54.307517 58.884267 
L 54.544107 58.492312 
L 54.719095 58.181509 
L 54.765371 58.100356 
L 54.977185 57.708401 
L 55.139698 57.382024 
L 55.173002 57.316446 
L 55.359482 56.924491 
L 55.528512 56.532536 
L 55.560302 56.452565 
L 55.687872 56.140581 
L 55.832198 55.748626 
L 55.960619 55.356671 
L 55.980905 55.287764 
L 56.079639 54.964716 
L 56.184728 54.572761 
L 56.275573 54.180806 
L 56.353013 53.78885 
L 56.401508 53.49623 
L 56.418799 53.396895 
L 56.474769 53.00494 
L 56.518595 52.612985 
L 56.550879 52.22103 
L 56.572154 51.829075 
L 56.582889 51.43712 
L 56.583506 51.045165 
L 56.574385 50.65321 
L 56.555877 50.261255 
L 56.528309 49.8693 
L 56.492 49.477344 
L 56.447262 49.085389 
L 56.401508 48.74515 
L 56.394752 48.693434 
L 56.337007 48.301479 
L 56.272045 47.909524 
L 56.200146 47.517569 
L 56.121582 47.125614 
L 56.036605 46.733659 
L 55.980905 46.491108 
L 55.946868 46.341704 
L 55.853451 45.949749 
L 55.754085 45.557794 
L 55.648698 45.165838 
L 55.560302 44.852827 
L 55.537821 44.773883 
L 55.423132 44.381928 
L 55.300997 43.989973 
L 55.170471 43.598018 
L 55.139698 43.508631 
L 55.032599 43.206063 
L 54.883685 42.814108 
L 54.720763 42.422153 
L 54.719095 42.418302 
L 54.542812 42.030198 
L 54.343592 41.638243 
L 54.298492 41.555519 
L 54.118461 41.246288 
L 53.877889 40.87964 
L 53.859905 40.854333 
L 53.556719 40.462377 
L 53.457286 40.346678 
L 53.193676 40.070422 
L 53.036683 39.921487 
L 52.746516 39.678467 
L 52.61608 39.578524 
L 52.195477 39.299624 
L 52.172879 39.286512 
L 51.774874 39.071307 
L 51.377786 38.894557 
L 51.354271 38.884708 
L 50.933668 38.731367 
L 50.513065 38.607034 
L 50.092462 38.507448 
L 50.067671 38.502602 
L 49.671859 38.427721 
L 49.251256 38.366415 
L 48.830653 38.321432 
L 48.41005 38.291016 
L 47.989447 38.273767 
L 47.568844 38.26859 
L 47.148241 38.274645 
L 46.727638 38.291316 
L 46.307035 38.318174 
L 45.886432 38.354957 
L 45.465829 38.401542 
L 45.045226 38.457936 
L 44.763513 38.502602 
L 44.624623 38.523407 
L 44.20402 38.596748 
L 43.783417 38.679911 
L 43.362814 38.773238 
L 42.942211 38.877148 
L 42.87888 38.894557 
L 42.521608 38.987905 
L 42.101005 39.108807 
L 41.680402 39.241178 
L 41.548505 39.286512 
L 41.259799 39.381287 
L 40.839196 39.531463 
L 40.459731 39.678467 
L 40.418593 39.693755 
L 39.99799 39.862576 
L 39.577387 40.045158 
L 39.523115 40.070422 
L 39.156784 40.235161 
L 38.736181 40.439185 
L 38.691384 40.462377 
L 38.315578 40.651557 
L 37.941514 40.854333 
L 37.894975 40.878995 
L 37.474372 41.116647 
L 37.260256 41.246288 
L 37.053769 41.369567 
L 36.634358 41.638243 
L 36.633166 41.639001 
L 36.212563 41.923125 
L 36.064298 42.030198 
L 35.79196 42.227687 
L 35.540811 42.422153 
L 35.371357 42.555104 
L 35.061663 42.814108 
L 34.950754 42.909038 
L 34.624488 43.206063 
L 34.530151 43.294932 
L 34.226843 43.598018 
L 34.109548 43.72079 
L 33.866323 43.989973 
L 33.688945 44.198405 
L 33.540685 44.381928 
L 33.268342 44.745365 
L 33.247969 44.773883 
L 32.987297 45.165838 
L 32.847739 45.398288 
L 32.755892 45.557794 
L 32.552766 45.949749 
L 32.427136 46.225695 
L 32.376114 46.341704 
L 32.22468 46.733659 
L 32.097086 47.125614 
L 32.006533 47.462211 
L 31.991995 47.517569 
L 31.907798 47.909524 
L 31.843577 48.301479 
L 31.79806 48.693434 
L 31.769988 49.085389 
L 31.758119 49.477344 
L 31.761237 49.8693 
L 31.77816 50.261255 
L 31.807745 50.65321 
L 31.848898 51.045165 
L 31.900584 51.43712 
L 31.96183 51.829075 
L 32.006533 52.079126 
L 32.031418 52.22103 
L 32.108146 52.612985 
L 32.191858 53.00494 
L 32.28195 53.396895 
L 32.377927 53.78885 
L 32.427136 53.979148 
L 32.478915 54.180806 
L 32.584668 54.572761 
L 32.695555 54.964716 
L 32.811605 55.356671 
L 32.847739 55.474172 
L 32.932674 55.748626 
L 33.059354 56.140581 
L 33.192262 56.532536 
L 33.268342 56.747475 
L 33.332192 56.924491 
L 33.480121 57.316446 
L 33.636755 57.708401 
L 33.688945 57.833188 
L 33.804281 58.100356 
L 33.983516 58.492312 
L 34.109548 58.752276 
L 34.176253 58.884267 
L 34.385204 59.276222 
L 34.530151 59.531903 
L 34.611397 59.668177 
L 34.858118 60.060132 
L 34.950754 60.199738 
L 35.128102 60.452087 
L 35.371357 60.779772 
L 35.422145 60.844042 
L 35.745285 61.235997 
L 35.79196 61.2905 
L 36.10048 61.627952 
L 36.212563 61.746535 
L 36.489028 62.019907 
L 36.633166 62.159076 
L 36.913595 62.411862 
L 37.053769 62.536412 
L 37.376126 62.803817 
L 37.474372 62.884895 
L 37.877522 63.195773 
L 37.894975 63.209281 
L 38.315578 63.514455 
L 38.423815 63.587728 
L 38.736181 63.802643 
L 39.011613 63.979683 
L 39.156784 64.075219 
L 39.577387 64.334063 
L 39.643009 64.371638 
L 39.99799 64.581774 
L 40.327826 64.763593 
L 40.418593 64.815587 
L 40.839196 65.038521 
L 41.078889 65.155548 
L 41.259799 65.247901 
L 41.680402 65.443979 
L 41.925997 65.547503 
L 42.101005 65.624944 
L 42.521608 65.790591 
L 42.942211 65.936597 
L 42.951974 65.939458 
L 43.362814 66.066246 
L 43.783417 66.173853 
L 44.20402 66.258331 
L 44.624623 66.318599 
L 44.78171 66.331413 
L 45.045226 66.354105 
z
" clip-path="url(#pd0ddbbc4ca)" style="fill: none; stroke: #87ceeb; stroke-width: 1.5"/>
    <path d="M 43.783417 59.278492 
L 44.20402 59.283603 
L 44.376324 59.276222 
L 44.624623 59.265458 
L 45.045226 59.223672 
L 45.465829 59.157663 
L 45.886432 59.066721 
L 46.307035 58.950011 
L 46.502235 58.884267 
L 46.727638 58.806373 
L 47.148241 58.63474 
L 47.449183 58.492312 
L 47.568844 58.433666 
L 47.989447 58.200972 
L 48.15247 58.100356 
L 48.41005 57.934134 
L 48.727051 57.708401 
L 48.830653 57.630603 
L 49.21566 57.316446 
L 49.251256 57.285539 
L 49.639114 56.924491 
L 49.671859 56.891746 
L 50.010981 56.532536 
L 50.092462 56.438883 
L 50.340206 56.140581 
L 50.513065 55.912337 
L 50.632636 55.748626 
L 50.891759 55.356671 
L 50.933668 55.286273 
L 51.120613 54.964716 
L 51.321681 54.572761 
L 51.354271 54.500588 
L 51.496996 54.180806 
L 51.647674 53.78885 
L 51.774874 53.396895 
L 51.774874 53.396895 
L 51.880571 53.00494 
L 51.964697 52.612985 
L 52.028089 52.22103 
L 52.071458 51.829075 
L 52.095391 51.43712 
L 52.100358 51.045165 
L 52.086705 50.65321 
L 52.054654 50.261255 
L 52.0043 49.8693 
L 51.935598 49.477344 
L 51.848356 49.085389 
L 51.774874 48.811747 
L 51.742499 48.693434 
L 51.617947 48.301479 
L 51.473249 47.909524 
L 51.354271 47.625505 
L 51.307445 47.517569 
L 51.119213 47.125614 
L 50.933668 46.782061 
L 50.906207 46.733659 
L 50.664965 46.341704 
L 50.513065 46.117694 
L 50.391462 45.949749 
L 50.092462 45.572345 
L 50.079991 45.557794 
L 49.719502 45.165838 
L 49.671859 45.117595 
L 49.296574 44.773883 
L 49.251256 44.734955 
L 48.830653 44.412011 
L 48.786357 44.381928 
L 48.41005 44.139055 
L 48.140316 43.989973 
L 47.989447 43.910085 
L 47.568844 43.718758 
L 47.248327 43.598018 
L 47.148241 43.561469 
L 46.727638 43.433143 
L 46.307035 43.332559 
L 45.886432 43.257021 
L 45.479624 43.206063 
L 45.465829 43.204357 
L 45.045226 43.1723 
L 44.624623 43.160613 
L 44.20402 43.168324 
L 43.783417 43.194755 
L 43.678473 43.206063 
L 43.362814 43.238818 
L 42.942211 43.300435 
L 42.521608 43.379892 
L 42.101005 43.477457 
L 41.680402 43.593603 
L 41.66672 43.598018 
L 41.259799 43.727187 
L 40.839196 43.880763 
L 40.576044 43.989973 
L 40.418593 44.055077 
L 39.99799 44.251285 
L 39.748083 44.381928 
L 39.577387 44.472117 
L 39.156784 44.720117 
L 39.074258 44.773883 
L 38.736181 45.000134 
L 38.512442 45.165838 
L 38.315578 45.317621 
L 38.032817 45.557794 
L 37.894975 45.681525 
L 37.62236 45.949749 
L 37.474372 46.106283 
L 37.270195 46.341704 
L 37.053769 46.615376 
L 36.967449 46.733659 
L 36.710229 47.125614 
L 36.633166 47.258537 
L 36.493603 47.517569 
L 36.312214 47.909524 
L 36.212563 48.166233 
L 36.163362 48.301479 
L 36.046214 48.693434 
L 35.955762 49.085389 
L 35.890506 49.477344 
L 35.84896 49.8693 
L 35.829697 50.261255 
L 35.831373 50.65321 
L 35.852756 51.045165 
L 35.892745 51.43712 
L 35.950387 51.829075 
L 36.024885 52.22103 
L 36.115608 52.612985 
L 36.212563 52.969722 
L 36.222411 53.00494 
L 36.348454 53.396895 
L 36.490388 53.78885 
L 36.633166 54.143368 
L 36.648898 54.180806 
L 36.830035 54.572761 
L 37.028553 54.964716 
L 37.053769 55.010793 
L 37.254151 55.356671 
L 37.474372 55.707276 
L 37.502131 55.748626 
L 37.784047 56.140581 
L 37.894975 56.284772 
L 38.101097 56.532536 
L 38.315578 56.774802 
L 38.460254 56.924491 
L 38.736181 57.194725 
L 38.873164 57.316446 
L 39.156784 57.556863 
L 39.3557 57.708401 
L 39.577387 57.870821 
L 39.929305 58.100356 
L 39.99799 58.143798 
L 40.418593 58.379622 
L 40.648914 58.492312 
L 40.839196 58.583623 
L 41.259799 58.758051 
L 41.618893 58.884267 
L 41.680402 58.905712 
L 42.101005 59.02754 
L 42.521608 59.125201 
L 42.942211 59.199352 
L 43.362814 59.250393 
L 43.749766 59.276222 
L 43.783417 59.278492 
z
" clip-path="url(#pd0ddbbc4ca)" style="fill: none; stroke: #87ceeb; stroke-width: 1.5"/>
    <path clip-path="url(#pd0ddbbc4ca)" style="fill: none; stroke: #87ceeb; stroke-width: 1.5"/>
   </g>
   <g id="patch_3">
    <path d="M 13.5 96.12 
L 13.5 12.96 
" style="fill: none; stroke: #cccccc; stroke-width: 1.25; stroke-linejoin: miter; stroke-linecap: square"/>
   </g>
   <g id="patch_4">
    <path d="M 97.2 96.12 
L 97.2 12.96 
" style="fill: none; stroke: #cccccc; stroke-width: 1.25; stroke-linejoin: miter; stroke-linecap: square"/>
   </g>
   <g id="patch_5">
    <path d="M 13.5 96.12 
L 97.2 96.12 
" style="fill: none; stroke: #cccccc; stroke-width: 1.25; stroke-linejoin: miter; stroke-linecap: square"/>
   </g>
   <g id="patch_6">
    <path d="M 13.5 12.96 
L 97.2 12.96 
" style="fill: none; stroke: #cccccc; stroke-width: 1.25; stroke-linejoin: miter; stroke-linecap: square"/>
   </g>
   <g id="text_7">
    <text style="fill: #262626; font: 8px 'Arial', 'DejaVu Sans', 'Liberation Sans', 'Bitstream Vera Sans', sans-serif; text-anchor: start" x="73.764" y="21.276" transform="rotate(-0 73.764 21.276)">98.0%</text>
   </g>
  </g>
 </g>
 <defs>
  <clipPath id="pd0ddbbc4ca">
   <rect x="13.5" y="12.96" width="83.7" height="83.16"/>
  </clipPath>
 </defs>
</svg>
