<?xml version="1.0" encoding="utf-8" standalone="no"?>
<!DOCTYPE svg PUBLIC "-//W3C//DTD SVG 1.1//EN"
  "http://www.w3.org/Graphics/SVG/1.1/DTD/svg11.dtd">
<svg xmlns:xlink="http://www.w3.org/1999/xlink" width="136.8pt" height="360pt" viewBox="0 0 136.8 360" xmlns="http://www.w3.org/2000/svg" version="1.1">
 <metadata>
  <rdf:RDF xmlns:dc="http://purl.org/dc/elements/1.1/" xmlns:cc="http://creativecommons.org/ns#" xmlns:rdf="http://www.w3.org/1999/02/22-rdf-syntax-ns#">
   <cc:Work>
    <dc:type rdf:resource="http://purl.org/dc/dcmitype/StillImage"/>
    <dc:date>2024-04-24T13:33:39.976698</dc:date>
    <dc:format>image/svg+xml</dc:format>
    <dc:creator>
     <cc:Agent>
      <dc:title>Matplotlib v3.8.1, https://matplotlib.org/</dc:title>
     </cc:Agent>
    </dc:creator>
   </cc:Work>
  </rdf:RDF>
 </metadata>
 <defs>
  <style type="text/css">*{stroke-linejoin: round; stroke-linecap: butt}</style>
 </defs>
 <g id="figure_1">
  <g id="patch_1">
   <path d="M 0 360 
L 136.8 360 
L 136.8 0 
L 0 0 
z
" style="fill: #ffffff"/>
  </g>
  <g id="axes_1">
   <g id="patch_2">
    <path d="M 17.1 316.872 
L 123.12 316.872 
L 123.12 302.017263 
L 17.1 302.017263 
z
" clip-path="url(#p7dfcbc18ce)" style="fill-opacity: 0.05098"/>
   </g>
   <g id="patch_3">
    <path d="M 17.1 298.303579 
L 123.12 298.303579 
L 123.12 283.448842 
L 17.1 283.448842 
L 17.1 298.303579 
z
" clip-path="url(#p7dfcbc18ce)" style="fill: none"/>
   </g>
   <g id="patch_4">
    <path d="M 17.1 279.735158 
L 123.12 279.735158 
L 123.12 264.880421 
L 17.1 264.880421 
z
" clip-path="url(#p7dfcbc18ce)" style="fill-opacity: 0.05098"/>
   </g>
   <g id="patch_5">
    <path d="M 17.1 261.166737 
L 123.12 261.166737 
L 123.12 246.312 
L 17.1 246.312 
L 17.1 261.166737 
z
" clip-path="url(#p7dfcbc18ce)" style="fill: none"/>
   </g>
   <g id="matplotlib.axis_1"/>
   <g id="matplotlib.axis_2">
    <g id="ytick_1"/>
    <g id="ytick_2"/>
    <g id="ytick_3"/>
    <g id="ytick_4"/>
   </g>
  </g>
  <g id="axes_2">
   <g id="matplotlib.axis_3">
    <g id="ytick_5">
     <g id="text_1">
      <text style="fill: #262626; font: 8px 'Arial', 'DejaVu Sans', 'Liberation Sans', 'Bitstream Vera Sans', sans-serif; text-anchor: end" x="90.937647" y="312.319632" transform="rotate(-0 90.937647 312.319632)">inputD6</text>
     </g>
    </g>
    <g id="ytick_6">
     <g id="text_2">
      <text style="fill: #262626; font: 8px 'Arial', 'DejaVu Sans', 'Liberation Sans', 'Bitstream Vera Sans', sans-serif; text-anchor: end" x="90.937647" y="293.739336" transform="rotate(-0 90.937647 293.739336)">inputD5</text>
     </g>
    </g>
    <g id="ytick_7">
     <g id="text_3">
      <text style="fill: #262626; font: 8px 'Arial', 'DejaVu Sans', 'Liberation Sans', 'Bitstream Vera Sans', sans-serif; text-anchor: end" x="90.937647" y="275.170914" transform="rotate(-0 90.937647 275.170914)">inputD4</text>
     </g>
    </g>
    <g id="ytick_8">
     <g id="text_4">
      <text style="fill: #262626; font: 8px 'Arial', 'DejaVu Sans', 'Liberation Sans', 'Bitstream Vera Sans', sans-serif; text-anchor: end" x="90.937647" y="256.614368" transform="rotate(-0 90.937647 256.614368)">inputD3</text>
     </g>
    </g>
   </g>
   <g id="LineCollection_1">
    <path d="M 107.528824 309.444632 
L 107.528824 253.739368 
" clip-path="url(#p2a530c0ed2)" style="fill: none; stroke: #000000; stroke-width: 2"/>
   </g>
   <g id="PathCollection_1">
    <defs>
     <path id="C0_0_446e9ce24e" d="M 0 7.071068 
C 1.875269 7.071068 3.673985 6.326016 5 5 
C 6.326016 3.673985 7.071068 1.875269 7.071068 -0 
C 7.071068 -1.875269 6.326016 -3.673985 5 -5 
C 3.673985 -6.326016 1.875269 -7.071068 0 -7.071068 
C -1.875269 -7.071068 -3.673985 -6.326016 -5 -5 
C -6.326016 -3.673985 -7.071068 -1.875269 -7.071068 0 
C -7.071068 1.875269 -6.326016 3.673985 -5 5 
C -3.673985 6.326016 -1.875269 7.071068 0 7.071068 
z
"/>
    </defs>
    <g clip-path="url(#p2a530c0ed2)">
     <use xlink:href="#C0_0_446e9ce24e" x="107.528824" y="309.444632" style="stroke: #000000"/>
    </g>
    <g clip-path="url(#p2a530c0ed2)">
     <use xlink:href="#C0_0_446e9ce24e" x="107.528824" y="290.876211" style="stroke: #000000"/>
    </g>
    <g clip-path="url(#p2a530c0ed2)">
     <use xlink:href="#C0_0_446e9ce24e" x="107.528824" y="272.307789" style="stroke: #000000"/>
    </g>
    <g clip-path="url(#p2a530c0ed2)">
     <use xlink:href="#C0_0_446e9ce24e" x="107.528824" y="253.739368" style="stroke: #000000"/>
    </g>
   </g>
  </g>
  <g id="axes_3">
   <g id="matplotlib.axis_4">
    <g id="xtick_1">
     <g id="line2d_1">
      <path d="M 48.282353 320.4 
L 48.282353 242.784 
" clip-path="url(#pf168afee62)" style="fill: none; stroke: #cccccc; stroke-linecap: round"/>
     </g>
     <g id="text_5">
      <text style="fill: #262626; font: 8px 'Arial', 'DejaVu Sans', 'Liberation Sans', 'Bitstream Vera Sans', sans-serif; text-anchor: middle" x="48.282353" y="333.12625" transform="rotate(-0 48.282353 333.12625)">0.0e+00</text>
     </g>
    </g>
    <g id="xtick_2">
     <g id="line2d_2">
      <path d="M 19.993395 320.4 
L 19.993395 242.784 
" clip-path="url(#pf168afee62)" style="fill: none; stroke: #cccccc; stroke-linecap: round"/>
     </g>
     <g id="text_6">
      <text style="fill: #262626; font: 8px 'Arial', 'DejaVu Sans', 'Liberation Sans', 'Bitstream Vera Sans', sans-serif; text-anchor: middle" x="19.993395" y="333.12625" transform="rotate(-0 19.993395 333.12625)">2.5e+04</text>
     </g>
    </g>
   </g>
   <g id="patch_6">
    <path d="M 48.282353 314.086737 
L 17.1 314.086737 
L 17.1 304.802526 
L 48.282353 304.802526 
z
" clip-path="url(#pf168afee62)" style="stroke: #000000; stroke-linejoin: miter"/>
   </g>
   <g id="patch_7">
    <path d="M 48.282353 295.518316 
L 17.116973 295.518316 
L 17.116973 286.234105 
L 48.282353 286.234105 
z
" clip-path="url(#pf168afee62)" style="stroke: #000000; stroke-linejoin: miter"/>
   </g>
   <g id="patch_8">
    <path d="M 48.282353 276.949895 
L 17.124894 276.949895 
L 17.124894 267.665684 
L 48.282353 267.665684 
z
" clip-path="url(#pf168afee62)" style="stroke: #000000; stroke-linejoin: miter"/>
   </g>
   <g id="patch_9">
    <path d="M 48.282353 258.381474 
L 17.16563 258.381474 
L 17.16563 249.097263 
L 48.282353 249.097263 
z
" clip-path="url(#pf168afee62)" style="stroke: #000000; stroke-linejoin: miter"/>
   </g>
   <g id="patch_10">
    <path d="M 17.1 320.4 
L 48.282353 320.4 
" style="fill: none; stroke: #cccccc; stroke-width: 1.25; stroke-linejoin: miter; stroke-linecap: square"/>
   </g>
   <g id="text_7">
    <text style="fill: #262626; font: 8px 'Arial', 'DejaVu Sans', 'Liberation Sans', 'Bitstream Vera Sans', sans-serif; text-anchor: end" x="16.772585" y="311.512757" transform="rotate(-0 16.772585 311.512757)">99.9%</text>
   </g>
   <g id="text_8">
    <text style="fill: #262626; font: 8px 'Arial', 'DejaVu Sans', 'Liberation Sans', 'Bitstream Vera Sans', sans-serif; text-anchor: end" x="16.789559" y="292.944336" transform="rotate(-0 16.789559 292.944336)">99.8%</text>
   </g>
   <g id="text_9">
    <text style="fill: #262626; font: 8px 'Arial', 'DejaVu Sans', 'Liberation Sans', 'Bitstream Vera Sans', sans-serif; text-anchor: end" x="16.79748" y="274.375914" transform="rotate(-0 16.79748 274.375914)">99.8%</text>
   </g>
   <g id="text_10">
    <text style="fill: #262626; font: 8px 'Arial', 'DejaVu Sans', 'Liberation Sans', 'Bitstream Vera Sans', sans-serif; text-anchor: end" x="16.838216" y="255.807493" transform="rotate(-0 16.838216 255.807493)">99.7%</text>
   </g>
  </g>
  <g id="axes_4">
   <g id="patch_11">
    <path d="M 91.937647 231.696 
L 123.12 231.696 
L 123.12 176.256 
L 91.937647 176.256 
z
" style="fill: #ffffff"/>
   </g>
   <g id="matplotlib.axis_5">
    <g id="ytick_9">
     <g id="line2d_3">
      <path d="M 91.937647 231.696 
L 123.12 231.696 
" clip-path="url(#peb1265bff0)" style="fill: none; stroke: #cccccc; stroke-linecap: round"/>
     </g>
     <g id="text_11">
      <text style="fill: #262626; font: 8px 'Arial', 'DejaVu Sans', 'Liberation Sans', 'Bitstream Vera Sans', sans-serif; text-anchor: end" x="84.937647" y="234.559125" transform="rotate(-0 84.937647 234.559125)">0.0e+00</text>
     </g>
    </g>
    <g id="ytick_10">
     <g id="line2d_4">
      <path d="M 91.937647 212.431552 
L 123.12 212.431552 
" clip-path="url(#peb1265bff0)" style="fill: none; stroke: #cccccc; stroke-linecap: round"/>
     </g>
     <g id="text_12">
      <text style="fill: #262626; font: 8px 'Arial', 'DejaVu Sans', 'Liberation Sans', 'Bitstream Vera Sans', sans-serif; text-anchor: end" x="84.937647" y="215.294677" transform="rotate(-0 84.937647 215.294677)">1.0e+04</text>
     </g>
    </g>
    <g id="ytick_11">
     <g id="line2d_5">
      <path d="M 91.937647 193.167103 
L 123.12 193.167103 
" clip-path="url(#peb1265bff0)" style="fill: none; stroke: #cccccc; stroke-linecap: round"/>
     </g>
     <g id="text_13">
      <text style="fill: #262626; font: 8px 'Arial', 'DejaVu Sans', 'Liberation Sans', 'Bitstream Vera Sans', sans-serif; text-anchor: end" x="84.937647" y="196.030228" transform="rotate(-0 84.937647 196.030228)">2.0e+04</text>
     </g>
    </g>
    <g id="text_14">
     <text style="fill: #262626; font: 8px 'Arial', 'DejaVu Sans', 'Liberation Sans', 'Bitstream Vera Sans', sans-serif" transform="translate(41.747397 212.6435) rotate(-90)"># NT</text>
     <text style="fill: #262626; font: 8px 'Arial', 'DejaVu Sans', 'Liberation Sans', 'Bitstream Vera Sans', sans-serif" transform="translate(50.208897 217.981) rotate(-90)">variants</text>
    </g>
   </g>
   <g id="patch_12">
    <path d="M 91.937647 231.696 
L 91.937647 176.256 
" style="fill: none; stroke: #cccccc; stroke-width: 1.25; stroke-linejoin: miter; stroke-linecap: square"/>
   </g>
   <g id="text_15">
    <text style="fill: #262626; font: 8px 'Arial', 'DejaVu Sans', 'Liberation Sans', 'Bitstream Vera Sans', sans-serif; text-anchor: middle" x="107.528824" y="176.7516" transform="rotate(-0 107.528824 176.7516)">27408</text>
   </g>
   <g id="patch_13">
    <path d="M 99.733235 231.696 
L 115.324412 231.696 
L 115.324412 183.488644 
L 99.733235 183.488644 
z
" clip-path="url(#peb1265bff0)" style="fill: #ffc0cb; stroke: #ffffff; stroke-linejoin: miter"/>
   </g>
   <g id="patch_14">
    <path d="M 99.733235 183.488644 
L 115.324412 183.488644 
L 115.324412 178.992322 
L 99.733235 178.992322 
z
" clip-path="url(#peb1265bff0)" style="fill: #87ceeb; stroke: #ffffff; stroke-linejoin: miter"/>
   </g>
   <g id="patch_15">
    <path d="M 99.733235 178.992322 
L 115.324412 178.992322 
L 115.324412 178.896 
L 99.733235 178.896 
z
" clip-path="url(#peb1265bff0)" style="stroke: #ffffff; stroke-linejoin: miter"/>
   </g>
  </g>
  <g id="axes_5">
   <g id="patch_16">
    <path d="M 91.937647 165.168 
L 123.12 165.168 
L 123.12 109.728 
L 91.937647 109.728 
z
" style="fill: #ffffff"/>
   </g>
   <g id="matplotlib.axis_6">
    <g id="ytick_12">
     <g id="line2d_6">
      <path d="M 91.937647 165.168 
L 123.12 165.168 
" clip-path="url(#p0e1be08cd0)" style="fill: none; stroke: #cccccc; stroke-linecap: round"/>
     </g>
     <g id="text_16">
      <text style="fill: #262626; font: 8px 'Arial', 'DejaVu Sans', 'Liberation Sans', 'Bitstream Vera Sans', sans-serif; text-anchor: end" x="84.937647" y="168.031125" transform="rotate(-0 84.937647 168.031125)">0.0e+00</text>
     </g>
    </g>
    <g id="ytick_13">
     <g id="line2d_7">
      <path d="M 91.937647 145.903552 
L 123.12 145.903552 
" clip-path="url(#p0e1be08cd0)" style="fill: none; stroke: #cccccc; stroke-linecap: round"/>
     </g>
     <g id="text_17">
      <text style="fill: #262626; font: 8px 'Arial', 'DejaVu Sans', 'Liberation Sans', 'Bitstream Vera Sans', sans-serif; text-anchor: end" x="84.937647" y="148.766677" transform="rotate(-0 84.937647 148.766677)">1.0e+04</text>
     </g>
    </g>
    <g id="ytick_14">
     <g id="line2d_8">
      <path d="M 91.937647 126.639103 
L 123.12 126.639103 
" clip-path="url(#p0e1be08cd0)" style="fill: none; stroke: #cccccc; stroke-linecap: round"/>
     </g>
     <g id="text_18">
      <text style="fill: #262626; font: 8px 'Arial', 'DejaVu Sans', 'Liberation Sans', 'Bitstream Vera Sans', sans-serif; text-anchor: end" x="84.937647" y="129.502228" transform="rotate(-0 84.937647 129.502228)">2.0e+04</text>
     </g>
    </g>
    <g id="text_19">
     <text style="fill: #262626; font: 8px 'Arial', 'DejaVu Sans', 'Liberation Sans', 'Bitstream Vera Sans', sans-serif" transform="translate(41.747397 146.1155) rotate(-90)"># NT</text>
     <text style="fill: #262626; font: 8px 'Arial', 'DejaVu Sans', 'Liberation Sans', 'Bitstream Vera Sans', sans-serif" transform="translate(50.208897 151.453) rotate(-90)">variants</text>
    </g>
   </g>
   <g id="patch_17">
    <path d="M 91.937647 165.168 
L 91.937647 109.728 
" style="fill: none; stroke: #cccccc; stroke-width: 1.25; stroke-linejoin: miter; stroke-linecap: square"/>
   </g>
   <g id="text_20">
    <text style="fill: #262626; font: 8px 'Arial', 'DejaVu Sans', 'Liberation Sans', 'Bitstream Vera Sans', sans-serif; text-anchor: middle" x="107.528824" y="110.2236" transform="rotate(-0 107.528824 110.2236)">27408</text>
   </g>
   <g id="patch_18">
    <path d="M 99.733235 165.168 
L 115.324412 165.168 
L 115.324412 165.038928 
L 99.733235 165.038928 
z
" clip-path="url(#p0e1be08cd0)" style="fill: #ff0000; stroke: #ffffff; stroke-linejoin: miter"/>
   </g>
   <g id="patch_19">
    <path d="M 99.733235 165.038928 
L 115.324412 165.038928 
L 115.324412 136.976406 
L 99.733235 136.976406 
z
" clip-path="url(#p0e1be08cd0)" style="fill: #ffa500; stroke: #ffffff; stroke-linejoin: miter"/>
   </g>
   <g id="patch_20">
    <path d="M 99.733235 136.976406 
L 115.324412 136.976406 
L 115.324412 112.368 
L 99.733235 112.368 
z
" clip-path="url(#p0e1be08cd0)" style="fill: #008000; stroke: #ffffff; stroke-linejoin: miter"/>
   </g>
  </g>
  <g id="axes_6">
   <g id="patch_21">
    <path d="M 91.937647 98.64 
L 123.12 98.64 
L 123.12 43.2 
L 91.937647 43.2 
z
" style="fill: #ffffff"/>
   </g>
   <g id="matplotlib.axis_7">
    <g id="ytick_15">
     <g id="line2d_9">
      <path d="M 91.937647 98.64 
L 123.12 98.64 
" clip-path="url(#p69d18dc79c)" style="fill: none; stroke: #cccccc; stroke-linecap: round"/>
     </g>
     <g id="text_21">
      <text style="fill: #262626; font: 8px 'Arial', 'DejaVu Sans', 'Liberation Sans', 'Bitstream Vera Sans', sans-serif; text-anchor: end" x="84.937647" y="101.503125" transform="rotate(-0 84.937647 101.503125)">0</text>
     </g>
    </g>
    <g id="ytick_16">
     <g id="line2d_10">
      <path d="M 91.937647 80.16 
L 123.12 80.16 
" clip-path="url(#p69d18dc79c)" style="fill: none; stroke: #cccccc; stroke-linecap: round"/>
     </g>
     <g id="text_22">
      <text style="fill: #262626; font: 8px 'Arial', 'DejaVu Sans', 'Liberation Sans', 'Bitstream Vera Sans', sans-serif; text-anchor: end" x="84.937647" y="83.023125" transform="rotate(-0 84.937647 83.023125)">1</text>
     </g>
    </g>
    <g id="ytick_17">
     <g id="line2d_11">
      <path d="M 91.937647 61.68 
L 123.12 61.68 
" clip-path="url(#p69d18dc79c)" style="fill: none; stroke: #cccccc; stroke-linecap: round"/>
     </g>
     <g id="text_23">
      <text style="fill: #262626; font: 8px 'Arial', 'DejaVu Sans', 'Liberation Sans', 'Bitstream Vera Sans', sans-serif; text-anchor: end" x="84.937647" y="64.543125" transform="rotate(-0 84.937647 64.543125)">2</text>
     </g>
    </g>
    <g id="ytick_18">
     <g id="line2d_12">
      <path d="M 91.937647 43.2 
L 123.12 43.2 
" clip-path="url(#p69d18dc79c)" style="fill: none; stroke: #cccccc; stroke-linecap: round"/>
     </g>
     <g id="text_24">
      <text style="fill: #262626; font: 8px 'Arial', 'DejaVu Sans', 'Liberation Sans', 'Bitstream Vera Sans', sans-serif; text-anchor: end" x="84.937647" y="46.063125" transform="rotate(-0 84.937647 46.063125)">3</text>
     </g>
    </g>
    <g id="text_25">
     <text style="fill: #262626; font: 8px 'Arial', 'DejaVu Sans', 'Liberation Sans', 'Bitstream Vera Sans', sans-serif" transform="translate(41.536647 82.041875) rotate(-90)">Log10</text>
     <text style="fill: #262626; font: 8px 'Arial', 'DejaVu Sans', 'Liberation Sans', 'Bitstream Vera Sans', sans-serif" transform="translate(50.208897 86.481875) rotate(-90)">input RC</text>
    </g>
   </g>
   <g id="PolyCollection_1">
    <defs>
     <path id="m01677a5ea1" d="M 100.06699 -271.968098 
L 98.360069 -271.968098 
L 98.250583 -272.346714 
L 98.131139 -272.72533 
L 98.001512 -273.103946 
L 97.861642 -273.482562 
L 97.711678 -273.861178 
L 97.552015 -274.239794 
L 97.383331 -274.61841 
L 97.206612 -274.997026 
L 97.023171 -275.375642 
L 96.834657 -275.754258 
L 96.643042 -276.132874 
L 96.450603 -276.51149 
L 96.259879 -276.890106 
L 96.073621 -277.268722 
L 95.894722 -277.647338 
L 95.726139 -278.025954 
L 95.570807 -278.40457 
L 95.431549 -278.783186 
L 95.310984 -279.161802 
L 95.211441 -279.540418 
L 95.134879 -279.919034 
L 95.082824 -280.29765 
L 95.056319 -280.676266 
L 95.055882 -281.054882 
L 95.081499 -281.433498 
L 95.13262 -281.812114 
L 95.20818 -282.19073 
L 95.306638 -282.569346 
L 95.426022 -282.947962 
L 95.563992 -283.326578 
L 95.717911 -283.705194 
L 95.884915 -284.08381 
L 96.061991 -284.462426 
L 96.246055 -284.841042 
L 96.434023 -285.219658 
L 96.622883 -285.598274 
L 96.809753 -285.97689 
L 96.991941 -286.355506 
L 97.166991 -286.734122 
L 97.332724 -287.112738 
L 97.487269 -287.491354 
L 97.629082 -287.86997 
L 97.756966 -288.248586 
L 97.870074 -288.627202 
L 97.967909 -289.005818 
L 98.050315 -289.384434 
L 98.117461 -289.76305 
L 98.16982 -290.141666 
L 98.208144 -290.520282 
L 98.233429 -290.898899 
L 98.246883 -291.277515 
L 98.249889 -291.656131 
L 98.243959 -292.034747 
L 98.230703 -292.413363 
L 98.211781 -292.791979 
L 98.188866 -293.170595 
L 98.163611 -293.549211 
L 98.137605 -293.927827 
L 98.112353 -294.306443 
L 98.089238 -294.685059 
L 98.069502 -295.063675 
L 98.054225 -295.442291 
L 98.044308 -295.820907 
L 98.040463 -296.199523 
L 98.043204 -296.578139 
L 98.052845 -296.956755 
L 98.069502 -297.335371 
L 98.093095 -297.713987 
L 98.123364 -298.092603 
L 98.159877 -298.471219 
L 98.202048 -298.849835 
L 98.249163 -299.228451 
L 98.300399 -299.607067 
L 98.354851 -299.985683 
L 98.411565 -300.364299 
L 98.469561 -300.742915 
L 98.527864 -301.121531 
L 98.585535 -301.500147 
L 98.641692 -301.878763 
L 98.695538 -302.257379 
L 98.746379 -302.635995 
L 98.793638 -303.014611 
L 98.83687 -303.393227 
L 98.875763 -303.771843 
L 98.910146 -304.150459 
L 98.939982 -304.529075 
L 98.965358 -304.907691 
L 98.986481 -305.286307 
L 99.003657 -305.664923 
L 99.017274 -306.043539 
L 99.027787 -306.422155 
L 99.035692 -306.800771 
L 99.04151 -307.179387 
L 99.04576 -307.558003 
L 99.048947 -307.936619 
L 99.051541 -308.315235 
L 99.053959 -308.693851 
L 99.05656 -309.072467 
L 99.059631 -309.451083 
L 99.367427 -309.451083 
L 99.367427 -309.451083 
L 99.370499 -309.072467 
L 99.3731 -308.693851 
L 99.375518 -308.315235 
L 99.378111 -307.936619 
L 99.381299 -307.558003 
L 99.385549 -307.179387 
L 99.391366 -306.800771 
L 99.399272 -306.422155 
L 99.409785 -306.043539 
L 99.423402 -305.664923 
L 99.440578 -305.286307 
L 99.461701 -304.907691 
L 99.487077 -304.529075 
L 99.516913 -304.150459 
L 99.551296 -303.771843 
L 99.590189 -303.393227 
L 99.633421 -303.014611 
L 99.68068 -302.635995 
L 99.731521 -302.257379 
L 99.785367 -301.878763 
L 99.841524 -301.500147 
L 99.899195 -301.121531 
L 99.957498 -300.742915 
L 100.015493 -300.364299 
L 100.072207 -299.985683 
L 100.12666 -299.607067 
L 100.177896 -299.228451 
L 100.225011 -298.849835 
L 100.267182 -298.471219 
L 100.303694 -298.092603 
L 100.333963 -297.713987 
L 100.357557 -297.335371 
L 100.374214 -296.956755 
L 100.383855 -296.578139 
L 100.386596 -296.199523 
L 100.382751 -295.820907 
L 100.372834 -295.442291 
L 100.357557 -295.063675 
L 100.337821 -294.685059 
L 100.314706 -294.306443 
L 100.289453 -293.927827 
L 100.263448 -293.549211 
L 100.238192 -293.170595 
L 100.215278 -292.791979 
L 100.196356 -292.413363 
L 100.183099 -292.034747 
L 100.17717 -291.656131 
L 100.180176 -291.277515 
L 100.19363 -290.898899 
L 100.218915 -290.520282 
L 100.257239 -290.141666 
L 100.309598 -289.76305 
L 100.376744 -289.384434 
L 100.459149 -289.005818 
L 100.556985 -288.627202 
L 100.670093 -288.248586 
L 100.797977 -287.86997 
L 100.93979 -287.491354 
L 101.094334 -287.112738 
L 101.260068 -286.734122 
L 101.435118 -286.355506 
L 101.617306 -285.97689 
L 101.804176 -285.598274 
L 101.993035 -285.219658 
L 102.181004 -284.841042 
L 102.365068 -284.462426 
L 102.542144 -284.08381 
L 102.709147 -283.705194 
L 102.863066 -283.326578 
L 103.001037 -282.947962 
L 103.120421 -282.569346 
L 103.218879 -282.19073 
L 103.294439 -281.812114 
L 103.34556 -281.433498 
L 103.371176 -281.054882 
L 103.37074 -280.676266 
L 103.344234 -280.29765 
L 103.29218 -279.919034 
L 103.215618 -279.540418 
L 103.116074 -279.161802 
L 102.995509 -278.783186 
L 102.856252 -278.40457 
L 102.70092 -278.025954 
L 102.532337 -277.647338 
L 102.353438 -277.268722 
L 102.16718 -276.890106 
L 101.976456 -276.51149 
L 101.784017 -276.132874 
L 101.592402 -275.754258 
L 101.403888 -275.375642 
L 101.220447 -274.997026 
L 101.043728 -274.61841 
L 100.875044 -274.239794 
L 100.715381 -273.861178 
L 100.565417 -273.482562 
L 100.425547 -273.103946 
L 100.29592 -272.72533 
L 100.176476 -272.346714 
L 100.06699 -271.968098 
z
" style="stroke: #000000; stroke-width: 0.5"/>
    </defs>
    <g clip-path="url(#p69d18dc79c)">
     <use xlink:href="#m01677a5ea1" x="0" y="360" style="stroke: #000000; stroke-width: 0.5"/>
    </g>
   </g>
   <g id="PolyCollection_2">
    <defs>
     <path id="md71e0c2255" d="M 107.587937 -270.177201 
L 107.46971 -270.177201 
L 107.44962 -270.531766 
L 107.42416 -270.886331 
L 107.391615 -271.240896 
L 107.349876 -271.595461 
L 107.296664 -271.950026 
L 107.229806 -272.304591 
L 107.147532 -272.659156 
L 107.048734 -273.013721 
L 106.933156 -273.368286 
L 106.801452 -273.722851 
L 106.65507 -274.077416 
L 106.495943 -274.431982 
L 106.326044 -274.786547 
L 106.146964 -275.141112 
L 105.959698 -275.495677 
L 105.764755 -275.850242 
L 105.562599 -276.204807 
L 105.354269 -276.559372 
L 105.14191 -276.913937 
L 104.928938 -277.268502 
L 104.719712 -277.623067 
L 104.51879 -277.977632 
L 104.330066 -278.332197 
L 104.156153 -278.686762 
L 103.998275 -279.041327 
L 103.856654 -279.395892 
L 103.731194 -279.750458 
L 103.622108 -280.105023 
L 103.53027 -280.459588 
L 103.457225 -280.814153 
L 103.404968 -281.168718 
L 103.375634 -281.523283 
L 103.371176 -281.877848 
L 103.393026 -282.232413 
L 103.44175 -282.586978 
L 103.516804 -282.941543 
L 103.616564 -283.296108 
L 103.738722 -283.650673 
L 103.88092 -284.005238 
L 104.041301 -284.359803 
L 104.218607 -284.714368 
L 104.411752 -285.068933 
L 104.619112 -285.423499 
L 104.837951 -285.778064 
L 105.064308 -286.132629 
L 105.293369 -286.487194 
L 105.520062 -286.841759 
L 105.739585 -287.196324 
L 105.94771 -287.550889 
L 106.140888 -287.905454 
L 106.31629 -288.260019 
L 106.471885 -288.614584 
L 106.606602 -288.969149 
L 106.720507 -289.323714 
L 106.814883 -289.678279 
L 106.89209 -290.032844 
L 106.955146 -290.387409 
L 107.007063 -290.741975 
L 107.050171 -291.09654 
L 107.085658 -291.451105 
L 107.113542 -291.80567 
L 107.133069 -292.160235 
L 107.143384 -292.5148 
L 107.144207 -292.869365 
L 107.136283 -293.22393 
L 107.12147 -293.578495 
L 107.102449 -293.93306 
L 107.082152 -294.287625 
L 107.06305 -294.64219 
L 107.04656 -294.996755 
L 107.032791 -295.35132 
L 107.02078 -295.705885 
L 107.00917 -296.06045 
L 106.99707 -296.415016 
L 106.984726 -296.769581 
L 106.973696 -297.124146 
L 106.966437 -297.478711 
L 106.965503 -297.833276 
L 106.972695 -298.187841 
L 106.988518 -298.542406 
L 107.012108 -298.896971 
L 107.041595 -299.251536 
L 107.074688 -299.606101 
L 107.109262 -299.960666 
L 107.143781 -300.315231 
L 107.177454 -300.669796 
L 107.210157 -301.024361 
L 107.242152 -301.378926 
L 107.273742 -301.733492 
L 107.304981 -302.088057 
L 107.335546 -302.442622 
L 107.364804 -302.797187 
L 107.392003 -303.151752 
L 107.416501 -303.506317 
L 107.437912 -303.860882 
L 107.45616 -304.215447 
L 107.471426 -304.570012 
L 107.484055 -304.924577 
L 107.494447 -305.279142 
L 107.5632 -305.279142 
L 107.5632 -305.279142 
L 107.573592 -304.924577 
L 107.586221 -304.570012 
L 107.601487 -304.215447 
L 107.619735 -303.860882 
L 107.641146 -303.506317 
L 107.665644 -303.151752 
L 107.692844 -302.797187 
L 107.722101 -302.442622 
L 107.752666 -302.088057 
L 107.783905 -301.733492 
L 107.815495 -301.378926 
L 107.84749 -301.024361 
L 107.880193 -300.669796 
L 107.913866 -300.315231 
L 107.948385 -299.960666 
L 107.982959 -299.606101 
L 108.016052 -299.251536 
L 108.045539 -298.896971 
L 108.069129 -298.542406 
L 108.084952 -298.187841 
L 108.092144 -297.833276 
L 108.09121 -297.478711 
L 108.083951 -297.124146 
L 108.072921 -296.769581 
L 108.060577 -296.415016 
L 108.048477 -296.06045 
L 108.036867 -295.705885 
L 108.024856 -295.35132 
L 108.011087 -294.996755 
L 107.994597 -294.64219 
L 107.975495 -294.287625 
L 107.955198 -293.93306 
L 107.936177 -293.578495 
L 107.921364 -293.22393 
L 107.91344 -292.869365 
L 107.914263 -292.5148 
L 107.924578 -292.160235 
L 107.944105 -291.80567 
L 107.971989 -291.451105 
L 108.007477 -291.09654 
L 108.050584 -290.741975 
L 108.102501 -290.387409 
L 108.165557 -290.032844 
L 108.242764 -289.678279 
L 108.33714 -289.323714 
L 108.451045 -288.969149 
L 108.585762 -288.614584 
L 108.741357 -288.260019 
L 108.916759 -287.905454 
L 109.109937 -287.550889 
L 109.318062 -287.196324 
L 109.537585 -286.841759 
L 109.764278 -286.487194 
L 109.993339 -286.132629 
L 110.219696 -285.778064 
L 110.438535 -285.423499 
L 110.645895 -285.068933 
L 110.83904 -284.714368 
L 111.016346 -284.359803 
L 111.176727 -284.005238 
L 111.318925 -283.650673 
L 111.441083 -283.296108 
L 111.540843 -282.941543 
L 111.615898 -282.586978 
L 111.664621 -282.232413 
L 111.686471 -281.877848 
L 111.682013 -281.523283 
L 111.652679 -281.168718 
L 111.600422 -280.814153 
L 111.527377 -280.459588 
L 111.435539 -280.105023 
L 111.326453 -279.750458 
L 111.200993 -279.395892 
L 111.059372 -279.041327 
L 110.901494 -278.686762 
L 110.727581 -278.332197 
L 110.538857 -277.977632 
L 110.337935 -277.623067 
L 110.128709 -277.268502 
L 109.915737 -276.913937 
L 109.703378 -276.559372 
L 109.495048 -276.204807 
L 109.292892 -275.850242 
L 109.097949 -275.495677 
L 108.910683 -275.141112 
L 108.731603 -274.786547 
L 108.561704 -274.431982 
L 108.402577 -274.077416 
L 108.256195 -273.722851 
L 108.124491 -273.368286 
L 108.008913 -273.013721 
L 107.910116 -272.659156 
L 107.827841 -272.304591 
L 107.760983 -271.950026 
L 107.707771 -271.595461 
L 107.666032 -271.240896 
L 107.633487 -270.886331 
L 107.608028 -270.531766 
L 107.587937 -270.177201 
z
" style="stroke: #000000; stroke-width: 0.5"/>
    </defs>
    <g clip-path="url(#p69d18dc79c)">
     <use xlink:href="#md71e0c2255" x="0" y="360" style="fill: #94c9de; stroke: #000000; stroke-width: 0.5"/>
    </g>
   </g>
   <g id="PolyCollection_3">
    <defs>
     <path id="mb6b53dce9c" d="M 115.875355 -269.478868 
L 115.81288 -269.478868 
L 115.799844 -269.770395 
L 115.785052 -270.061922 
L 115.768036 -270.353449 
L 115.748065 -270.644976 
L 115.724799 -270.936503 
L 115.698834 -271.22803 
L 115.671193 -271.519557 
L 115.642002 -271.811084 
L 115.609704 -272.102611 
L 115.57134 -272.394138 
L 115.523411 -272.685665 
L 115.46314 -272.977192 
L 115.389556 -273.268719 
L 115.303122 -273.560246 
L 115.204578 -273.851773 
L 115.095527 -274.1433 
L 114.980304 -274.434827 
L 114.865376 -274.726354 
L 114.755274 -275.017881 
L 114.648854 -275.309408 
L 114.539798 -275.600935 
L 114.420972 -275.892462 
L 114.288637 -276.183989 
L 114.143156 -276.475516 
L 113.986617 -276.767043 
L 113.820822 -277.05857 
L 113.647865 -277.350097 
L 113.471539 -277.641624 
L 113.296989 -277.933151 
L 113.129364 -278.224678 
L 112.972979 -278.516205 
L 112.830099 -278.807732 
L 112.699277 -279.099259 
L 112.574858 -279.390786 
L 112.448169 -279.682313 
L 112.311281 -279.97384 
L 112.163728 -280.265367 
L 112.016728 -280.556893 
L 111.888762 -280.84842 
L 111.795022 -281.139947 
L 111.738718 -281.431474 
L 111.710207 -281.723001 
L 111.69528 -282.014528 
L 111.686471 -282.306055 
L 111.686595 -282.597582 
L 111.702262 -282.889109 
L 111.736816 -283.180636 
L 111.789287 -283.472163 
L 111.855231 -283.76369 
L 111.926589 -284.055217 
L 111.996322 -284.346744 
L 112.067592 -284.638271 
L 112.154067 -284.929798 
L 112.266653 -285.221325 
L 112.402174 -285.512852 
L 112.548248 -285.804379 
L 112.69822 -286.095906 
L 112.857283 -286.387433 
L 113.031135 -286.67896 
L 113.212474 -286.970487 
L 113.385045 -287.262014 
L 113.540542 -287.553541 
L 113.68703 -287.845068 
L 113.839759 -288.136595 
L 114.005058 -288.428122 
L 114.174039 -288.719649 
L 114.332235 -289.011176 
L 114.473735 -289.302703 
L 114.603659 -289.59423 
L 114.728781 -289.885757 
L 114.849864 -290.177284 
L 114.962918 -290.468811 
L 115.064508 -290.760338 
L 115.154525 -291.051865 
L 115.234953 -291.343392 
L 115.307513 -291.634919 
L 115.373286 -291.926446 
L 115.433961 -292.217973 
L 115.491779 -292.5095 
L 115.547285 -292.801027 
L 115.59792 -293.092554 
L 115.640173 -293.384081 
L 115.673163 -293.675608 
L 115.699408 -293.967135 
L 115.722402 -294.258662 
L 115.744204 -294.550189 
L 115.764943 -294.841716 
L 115.783565 -295.133243 
L 115.798843 -295.42477 
L 115.810202 -295.716297 
L 115.817984 -296.007824 
L 115.823134 -296.29935 
L 115.826743 -296.590877 
L 115.82972 -296.882404 
L 115.832555 -297.173931 
L 115.835292 -297.465458 
L 115.837737 -297.756985 
L 115.839718 -298.048512 
L 115.841216 -298.340039 
L 115.847019 -298.340039 
L 115.847019 -298.340039 
L 115.848518 -298.048512 
L 115.850498 -297.756985 
L 115.852943 -297.465458 
L 115.85568 -297.173931 
L 115.858516 -296.882404 
L 115.861492 -296.590877 
L 115.865102 -296.29935 
L 115.870251 -296.007824 
L 115.878034 -295.716297 
L 115.889392 -295.42477 
L 115.90467 -295.133243 
L 115.923292 -294.841716 
L 115.944032 -294.550189 
L 115.965833 -294.258662 
L 115.988827 -293.967135 
L 116.015072 -293.675608 
L 116.048062 -293.384081 
L 116.090316 -293.092554 
L 116.14095 -292.801027 
L 116.196456 -292.5095 
L 116.254274 -292.217973 
L 116.314949 -291.926446 
L 116.380723 -291.634919 
L 116.453283 -291.343392 
L 116.53371 -291.051865 
L 116.623727 -290.760338 
L 116.725318 -290.468811 
L 116.838372 -290.177284 
L 116.959454 -289.885757 
L 117.084576 -289.59423 
L 117.2145 -289.302703 
L 117.356 -289.011176 
L 117.514196 -288.719649 
L 117.683177 -288.428122 
L 117.848476 -288.136595 
L 118.001205 -287.845068 
L 118.147693 -287.553541 
L 118.30319 -287.262014 
L 118.475761 -286.970487 
L 118.6571 -286.67896 
L 118.830952 -286.387433 
L 118.990015 -286.095906 
L 119.139987 -285.804379 
L 119.286061 -285.512852 
L 119.421583 -285.221325 
L 119.534168 -284.929798 
L 119.620644 -284.638271 
L 119.691913 -284.346744 
L 119.761647 -284.055217 
L 119.833004 -283.76369 
L 119.898948 -283.472163 
L 119.951419 -283.180636 
L 119.985974 -282.889109 
L 120.00164 -282.597582 
L 120.001765 -282.306055 
L 119.992955 -282.014528 
L 119.978028 -281.723001 
L 119.949517 -281.431474 
L 119.893213 -281.139947 
L 119.799473 -280.84842 
L 119.671508 -280.556893 
L 119.524507 -280.265367 
L 119.376954 -279.97384 
L 119.240066 -279.682313 
L 119.113377 -279.390786 
L 118.988959 -279.099259 
L 118.858136 -278.807732 
L 118.715257 -278.516205 
L 118.558872 -278.224678 
L 118.391246 -277.933151 
L 118.216696 -277.641624 
L 118.04037 -277.350097 
L 117.867413 -277.05857 
L 117.701618 -276.767043 
L 117.54508 -276.475516 
L 117.399598 -276.183989 
L 117.267264 -275.892462 
L 117.148437 -275.600935 
L 117.039381 -275.309408 
L 116.932961 -275.017881 
L 116.822859 -274.726354 
L 116.707931 -274.434827 
L 116.592708 -274.1433 
L 116.483657 -273.851773 
L 116.385113 -273.560246 
L 116.29868 -273.268719 
L 116.225096 -272.977192 
L 116.164825 -272.685665 
L 116.116896 -272.394138 
L 116.078531 -272.102611 
L 116.046233 -271.811084 
L 116.017042 -271.519557 
L 115.989401 -271.22803 
L 115.963436 -270.936503 
L 115.94017 -270.644976 
L 115.920199 -270.353449 
L 115.903183 -270.061922 
L 115.888391 -269.770395 
L 115.875355 -269.478868 
z
" style="stroke: #000000; stroke-width: 0.5"/>
    </defs>
    <g clip-path="url(#p69d18dc79c)">
     <use xlink:href="#mb6b53dce9c" x="0" y="360" style="fill: #f7c8d0; stroke: #000000; stroke-width: 0.5"/>
    </g>
   </g>
   <g id="patch_22">
    <path d="M 107.528824 98.64 
L 107.528824 98.64 
L 107.528824 98.64 
L 107.528824 98.64 
z
" clip-path="url(#p69d18dc79c)" style="stroke: #000000; stroke-width: 0.5; stroke-linejoin: miter"/>
   </g>
   <g id="patch_23">
    <path d="M 107.528824 98.64 
L 107.528824 98.64 
L 107.528824 98.64 
L 107.528824 98.64 
z
" clip-path="url(#p69d18dc79c)" style="fill: #94c9de; stroke: #000000; stroke-width: 0.5; stroke-linejoin: miter"/>
   </g>
   <g id="patch_24">
    <path d="M 107.528824 98.64 
L 107.528824 98.64 
L 107.528824 98.64 
L 107.528824 98.64 
z
" clip-path="url(#p69d18dc79c)" style="fill: #f7c8d0; stroke: #000000; stroke-width: 0.5; stroke-linejoin: miter"/>
   </g>
   <g id="line2d_13">
    <path d="M 99.213529 88.031902 
L 99.213529 65.914655 
" clip-path="url(#p69d18dc79c)" style="fill: none; stroke: #000000; stroke-width: 0.75; stroke-linecap: round"/>
   </g>
   <g id="line2d_14">
    <path d="M 99.213529 80.468751 
L 99.213529 74.142855 
" clip-path="url(#p69d18dc79c)" style="fill: none; stroke: #000000; stroke-width: 2.25; stroke-linecap: round"/>
   </g>
   <g id="line2d_15">
    <path d="M 99.213529 78.210172 
" clip-path="url(#p69d18dc79c)" style="fill: none; stroke: #000000; stroke-width: 1.5; stroke-linecap: round"/>
    <defs>
     <path id="me911af1f2d" d="M 0.9375 0 
L -0.9375 -0 
" style="stroke: #ffffff; stroke-width: 0.45"/>
    </defs>
    <g clip-path="url(#p69d18dc79c)">
     <use xlink:href="#me911af1f2d" x="99.213529" y="78.210172" style="fill: #ffffff; stroke: #ffffff; stroke-width: 0.45"/>
    </g>
   </g>
   <g id="line2d_16">
    <path d="M 107.528824 89.822799 
L 107.528824 65.388187 
" clip-path="url(#p69d18dc79c)" style="fill: none; stroke: #000000; stroke-width: 0.75; stroke-linecap: round"/>
   </g>
   <g id="line2d_17">
    <path d="M 107.528824 80.785701 
L 107.528824 74.596966 
" clip-path="url(#p69d18dc79c)" style="fill: none; stroke: #000000; stroke-width: 2.25; stroke-linecap: round"/>
   </g>
   <g id="line2d_18">
    <path d="M 107.528824 77.751432 
" clip-path="url(#p69d18dc79c)" style="fill: none; stroke: #000000; stroke-width: 1.5; stroke-linecap: round"/>
    <g clip-path="url(#p69d18dc79c)">
     <use xlink:href="#me911af1f2d" x="107.528824" y="77.751432" style="fill: #ffffff; stroke: #ffffff; stroke-width: 0.45"/>
    </g>
   </g>
   <g id="line2d_19">
    <path d="M 115.844118 89.180395 
L 115.844118 65.484305 
" clip-path="url(#p69d18dc79c)" style="fill: none; stroke: #000000; stroke-width: 0.75; stroke-linecap: round"/>
   </g>
   <g id="line2d_20">
    <path d="M 115.844118 80.363195 
L 115.844118 74.398789 
" clip-path="url(#p69d18dc79c)" style="fill: none; stroke: #000000; stroke-width: 2.25; stroke-linecap: round"/>
   </g>
   <g id="line2d_21">
    <path d="M 115.844118 77.459554 
" clip-path="url(#p69d18dc79c)" style="fill: none; stroke: #000000; stroke-width: 1.5; stroke-linecap: round"/>
    <g clip-path="url(#p69d18dc79c)">
     <use xlink:href="#me911af1f2d" x="115.844118" y="77.459554" style="fill: #ffffff; stroke: #ffffff; stroke-width: 0.45"/>
    </g>
   </g>
   <g id="line2d_22">
    <path d="M 91.937647 89.822799 
L 123.12 89.822799 
" clip-path="url(#p69d18dc79c)" style="fill: none; stroke-dasharray: 5.55,2.4; stroke-dashoffset: 0; stroke: #ffa500; stroke-width: 1.5"/>
   </g>
   <g id="line2d_23">
    <path d="M 91.937647 80.16 
L 123.12 80.16 
" clip-path="url(#p69d18dc79c)" style="fill: none; stroke-dasharray: 5.55,2.4; stroke-dashoffset: 0; stroke: #008000; stroke-width: 1.5"/>
   </g>
   <g id="patch_25">
    <path d="M 91.937647 98.64 
L 91.937647 43.2 
" style="fill: none; stroke: #cccccc; stroke-width: 1.25; stroke-linejoin: miter; stroke-linecap: square"/>
   </g>
  </g>
 </g>
 <defs>
  <clipPath id="p7dfcbc18ce">
   <rect x="17.1" y="242.784" width="106.02" height="77.616"/>
  </clipPath>
  <clipPath id="p2a530c0ed2">
   <rect x="91.937647" y="242.784" width="31.182353" height="77.616"/>
  </clipPath>
  <clipPath id="pf168afee62">
   <rect x="17.1" y="242.784" width="31.182353" height="77.616"/>
  </clipPath>
  <clipPath id="peb1265bff0">
   <rect x="91.937647" y="176.256" width="31.182353" height="55.44"/>
  </clipPath>
  <clipPath id="p0e1be08cd0">
   <rect x="91.937647" y="109.728" width="31.182353" height="55.44"/>
  </clipPath>
  <clipPath id="p69d18dc79c">
   <rect x="91.937647" y="43.2" width="31.182353" height="55.44"/>
  </clipPath>
 </defs>
</svg>
