<?xml version="1.0" encoding="utf-8" standalone="no"?>
<!DOCTYPE svg PUBLIC "-//W3C//DTD SVG 1.1//EN"
  "http://www.w3.org/Graphics/SVG/1.1/DTD/svg11.dtd">
<svg xmlns:xlink="http://www.w3.org/1999/xlink" width="108pt" height="108pt" viewBox="0 0 108 108" xmlns="http://www.w3.org/2000/svg" version="1.1">
 <metadata>
  <rdf:RDF xmlns:dc="http://purl.org/dc/elements/1.1/" xmlns:cc="http://creativecommons.org/ns#" xmlns:rdf="http://www.w3.org/1999/02/22-rdf-syntax-ns#">
   <cc:Work>
    <dc:type rdf:resource="http://purl.org/dc/dcmitype/StillImage"/>
    <dc:date>2024-04-24T13:41:58.570060</dc:date>
    <dc:format>image/svg+xml</dc:format>
    <dc:creator>
     <cc:Agent>
      <dc:title>Matplotlib v3.8.1, https://matplotlib.org/</dc:title>
     </cc:Agent>
    </dc:creator>
   </cc:Work>
  </rdf:RDF>
 </metadata>
 <defs>
  <style type="text/css">*{stroke-linejoin: round; stroke-linecap: butt}</style>
 </defs>
 <g id="figure_1">
  <g id="patch_1">
   <path d="M 0 108 
L 108 108 
L 108 0 
L 0 0 
z
" style="fill: #ffffff"/>
  </g>
  <g id="axes_1">
   <g id="patch_2">
    <path d="M 13.5 96.12 
L 97.2 96.12 
L 97.2 12.96 
L 13.5 12.96 
z
" style="fill: #ffffff"/>
   </g>
   <g id="matplotlib.axis_1">
    <g id="xtick_1">
     <g id="line2d_1">
      <path d="M 30.094416 96.12 
L 30.094416 12.96 
" clip-path="url(#pec339e72fe)" style="fill: none; stroke: #cccccc; stroke-linecap: round"/>
     </g>
     <g id="text_1">
      <!-- $\mathdefault{10^{-2}}$ -->
      <g style="fill: #262626" transform="translate(22.174416 111.37)">
       <text>
        <tspan style="font: 8px 'Arial'" x="0 4.449219" y="-0.39949999999999974">10</tspan>
        <tspan style="font: 5.6px 'Arial'" x="9.037825 12.308137" y="-5.975">−2</tspan>
       </text>
      </g>
     </g>
    </g>
    <g id="xtick_2"/>
    <g id="xtick_3"/>
    <g id="xtick_4"/>
    <g id="xtick_5"/>
    <g id="xtick_6"/>
    <g id="xtick_7"/>
    <g id="xtick_8"/>
    <g id="xtick_9"/>
    <g id="xtick_10"/>
    <g id="text_2">
     <text style="fill: #262626; font: 8px 'Arial', 'DejaVu Sans', 'Liberation Sans', 'Bitstream Vera Sans', sans-serif; text-anchor: middle" x="55.35" y="122.78375" transform="rotate(-0 55.35 122.78375)">Allele frequency in pool</text>
    </g>
   </g>
   <g id="matplotlib.axis_2">
    <g id="ytick_1">
     <g id="line2d_2">
      <path d="M 13.5 68.395176 
L 97.2 68.395176 
" clip-path="url(#pec339e72fe)" style="fill: none; stroke: #cccccc; stroke-linecap: round"/>
     </g>
     <g id="text_3">
      <!-- $\mathdefault{10^{-3}}$ -->
      <g style="fill: #262626" transform="translate(-9.34 72.520176)">
       <text>
        <tspan style="font: 8px 'Arial'" x="0 4.449219" y="-0.39949999999999974">10</tspan>
        <tspan style="font: 5.6px 'Arial'" x="9.037825 12.308137" y="-5.975">−3</tspan>
       </text>
      </g>
     </g>
    </g>
    <g id="ytick_2">
     <g id="line2d_3">
      <path d="M 13.5 19.807551 
L 97.2 19.807551 
" clip-path="url(#pec339e72fe)" style="fill: none; stroke: #cccccc; stroke-linecap: round"/>
     </g>
     <g id="text_4">
      <!-- $\mathdefault{10^{-2}}$ -->
      <g style="fill: #262626" transform="translate(-9.34 23.932551)">
       <text>
        <tspan style="font: 8px 'Arial'" x="0 4.449219" y="-0.39949999999999974">10</tspan>
        <tspan style="font: 5.6px 'Arial'" x="9.037825 12.308137" y="-5.975">−2</tspan>
       </text>
      </g>
     </g>
    </g>
    <g id="ytick_3"/>
    <g id="ytick_4"/>
    <g id="ytick_5"/>
    <g id="ytick_6"/>
    <g id="ytick_7"/>
    <g id="ytick_8"/>
    <g id="ytick_9"/>
    <g id="ytick_10"/>
    <g id="ytick_11"/>
    <g id="ytick_12"/>
    <g id="ytick_13"/>
    <g id="ytick_14"/>
    <g id="ytick_15"/>
    <g id="ytick_16"/>
    <g id="ytick_17"/>
    <g id="text_5">
     <text style="fill: #262626; font: 8px 'Arial', 'DejaVu Sans', 'Liberation Sans', 'Bitstream Vera Sans', sans-serif" transform="translate(-23.60225 82.999375) rotate(-90)">Allele frequency</text>
     <text style="fill: #262626; font: 8px 'Arial', 'DejaVu Sans', 'Liberation Sans', 'Bitstream Vera Sans', sans-serif" transform="translate(-14.93 77.4375) rotate(-90)">in DMS input</text>
    </g>
   </g>
   <g id="PathCollection_1">
    <defs>
     <path id="m8d91771635" d="M 0 3 
C 0.795609 3 1.55874 2.683901 2.12132 2.12132 
C 2.683901 1.55874 3 0.795609 3 0 
C 3 -0.795609 2.683901 -1.55874 2.12132 -2.12132 
C 1.55874 -2.683901 0.795609 -3 0 -3 
C -0.795609 -3 -1.55874 -2.683901 -2.12132 -2.12132 
C -2.683901 -1.55874 -3 -0.795609 -3 0 
C -3 0.795609 -2.683901 1.55874 -2.12132 2.12132 
C -1.55874 2.683901 -0.795609 3 0 3 
z
" style="stroke: #ffffff; stroke-opacity: 0.2; stroke-width: 0.48"/>
    </defs>
    <g clip-path="url(#pec339e72fe)">
     <use xlink:href="#m8d91771635" x="58.454755" y="72.866631" style="fill: #87ceeb; fill-opacity: 0.2; stroke: #ffffff; stroke-opacity: 0.2; stroke-width: 0.48"/>
     <use xlink:href="#m8d91771635" x="59.04337" y="67.732414" style="fill: #87ceeb; fill-opacity: 0.2; stroke: #ffffff; stroke-opacity: 0.2; stroke-width: 0.48"/>
     <use xlink:href="#m8d91771635" x="65.794574" y="50.206305" style="fill: #87ceeb; fill-opacity: 0.2; stroke: #ffffff; stroke-opacity: 0.2; stroke-width: 0.48"/>
     <use xlink:href="#m8d91771635" x="58.256296" y="47.283418" style="fill: #87ceeb; fill-opacity: 0.2; stroke: #ffffff; stroke-opacity: 0.2; stroke-width: 0.48"/>
     <use xlink:href="#m8d91771635" x="57.137022" y="48.486585" style="fill: #87ceeb; fill-opacity: 0.2; stroke: #ffffff; stroke-opacity: 0.2; stroke-width: 0.48"/>
     <use xlink:href="#m8d91771635" x="58.189889" y="45.300322" style="fill: #87ceeb; fill-opacity: 0.2; stroke: #ffffff; stroke-opacity: 0.2; stroke-width: 0.48"/>
     <use xlink:href="#m8d91771635" x="63.158448" y="37.398377" style="fill: #87ceeb; fill-opacity: 0.2; stroke: #ffffff; stroke-opacity: 0.2; stroke-width: 0.48"/>
     <use xlink:href="#m8d91771635" x="64.20148" y="47.512835" style="fill: #87ceeb; fill-opacity: 0.2; stroke: #ffffff; stroke-opacity: 0.2; stroke-width: 0.48"/>
     <use xlink:href="#m8d91771635" x="62.64823" y="57.982519" style="fill: #87ceeb; fill-opacity: 0.2; stroke: #ffffff; stroke-opacity: 0.2; stroke-width: 0.48"/>
     <use xlink:href="#m8d91771635" x="51.393527" y="49.628922" style="fill: #87ceeb; fill-opacity: 0.2; stroke: #ffffff; stroke-opacity: 0.2; stroke-width: 0.48"/>
     <use xlink:href="#m8d91771635" x="47.814048" y="52.022616" style="fill: #87ceeb; fill-opacity: 0.2; stroke: #ffffff; stroke-opacity: 0.2; stroke-width: 0.48"/>
     <use xlink:href="#m8d91771635" x="56.290626" y="39.773595" style="fill: #87ceeb; fill-opacity: 0.2; stroke: #ffffff; stroke-opacity: 0.2; stroke-width: 0.48"/>
     <use xlink:href="#m8d91771635" x="66.906766" y="39.694086" style="fill: #87ceeb; fill-opacity: 0.2; stroke: #ffffff; stroke-opacity: 0.2; stroke-width: 0.48"/>
     <use xlink:href="#m8d91771635" x="61.880411" y="46.639862" style="fill: #87ceeb; fill-opacity: 0.2; stroke: #ffffff; stroke-opacity: 0.2; stroke-width: 0.48"/>
     <use xlink:href="#m8d91771635" x="66.606034" y="41.295926" style="fill: #87ceeb; fill-opacity: 0.2; stroke: #ffffff; stroke-opacity: 0.2; stroke-width: 0.48"/>
     <use xlink:href="#m8d91771635" x="47.234447" y="78.031458" style="fill: #87ceeb; fill-opacity: 0.2; stroke: #ffffff; stroke-opacity: 0.2; stroke-width: 0.48"/>
     <use xlink:href="#m8d91771635" x="64.022334" y="46.824784" style="fill: #87ceeb; fill-opacity: 0.2; stroke: #ffffff; stroke-opacity: 0.2; stroke-width: 0.48"/>
     <use xlink:href="#m8d91771635" x="64.963559" y="53.288709" style="fill: #87ceeb; fill-opacity: 0.2; stroke: #ffffff; stroke-opacity: 0.2; stroke-width: 0.48"/>
     <use xlink:href="#m8d91771635" x="57.572863" y="48.111159" style="fill: #87ceeb; fill-opacity: 0.2; stroke: #ffffff; stroke-opacity: 0.2; stroke-width: 0.48"/>
     <use xlink:href="#m8d91771635" x="65.826549" y="53.85691" style="fill: #87ceeb; fill-opacity: 0.2; stroke: #ffffff; stroke-opacity: 0.2; stroke-width: 0.48"/>
     <use xlink:href="#m8d91771635" x="76.59971" y="50.856876" style="fill: #87ceeb; fill-opacity: 0.2; stroke: #ffffff; stroke-opacity: 0.2; stroke-width: 0.48"/>
     <use xlink:href="#m8d91771635" x="60.714184" y="45.956496" style="fill: #87ceeb; fill-opacity: 0.2; stroke: #ffffff; stroke-opacity: 0.2; stroke-width: 0.48"/>
     <use xlink:href="#m8d91771635" x="27.876431" y="34.8623" style="fill: #87ceeb; fill-opacity: 0.2; stroke: #ffffff; stroke-opacity: 0.2; stroke-width: 0.48"/>
     <use xlink:href="#m8d91771635" x="60.51592" y="58.362229" style="fill: #87ceeb; fill-opacity: 0.2; stroke: #ffffff; stroke-opacity: 0.2; stroke-width: 0.48"/>
     <use xlink:href="#m8d91771635" x="63.273361" y="33.74369" style="fill: #87ceeb; fill-opacity: 0.2; stroke: #ffffff; stroke-opacity: 0.2; stroke-width: 0.48"/>
     <use xlink:href="#m8d91771635" x="55.104558" y="53.14558" style="fill: #87ceeb; fill-opacity: 0.2; stroke: #ffffff; stroke-opacity: 0.2; stroke-width: 0.48"/>
     <use xlink:href="#m8d91771635" x="55.652645" y="49.873931" style="fill: #87ceeb; fill-opacity: 0.2; stroke: #ffffff; stroke-opacity: 0.2; stroke-width: 0.48"/>
     <use xlink:href="#m8d91771635" x="71.681599" y="39.812034" style="fill: #87ceeb; fill-opacity: 0.2; stroke: #ffffff; stroke-opacity: 0.2; stroke-width: 0.48"/>
     <use xlink:href="#m8d91771635" x="62.272363" y="68.397552" style="fill: #87ceeb; fill-opacity: 0.2; stroke: #ffffff; stroke-opacity: 0.2; stroke-width: 0.48"/>
     <use xlink:href="#m8d91771635" x="71.028171" y="40.924633" style="fill: #87ceeb; fill-opacity: 0.2; stroke: #ffffff; stroke-opacity: 0.2; stroke-width: 0.48"/>
     <use xlink:href="#m8d91771635" x="64.711399" y="40.518366" style="fill: #87ceeb; fill-opacity: 0.2; stroke: #ffffff; stroke-opacity: 0.2; stroke-width: 0.48"/>
     <use xlink:href="#m8d91771635" x="54.900415" y="60.358873" style="fill: #87ceeb; fill-opacity: 0.2; stroke: #ffffff; stroke-opacity: 0.2; stroke-width: 0.48"/>
     <use xlink:href="#m8d91771635" x="55.666951" y="45.591272" style="fill: #87ceeb; fill-opacity: 0.2; stroke: #ffffff; stroke-opacity: 0.2; stroke-width: 0.48"/>
     <use xlink:href="#m8d91771635" x="67.520766" y="34.255502" style="fill: #87ceeb; fill-opacity: 0.2; stroke: #ffffff; stroke-opacity: 0.2; stroke-width: 0.48"/>
     <use xlink:href="#m8d91771635" x="52.035135" y="69.561879" style="fill: #87ceeb; fill-opacity: 0.2; stroke: #ffffff; stroke-opacity: 0.2; stroke-width: 0.48"/>
     <use xlink:href="#m8d91771635" x="75.256519" y="31.048542" style="fill: #87ceeb; fill-opacity: 0.2; stroke: #ffffff; stroke-opacity: 0.2; stroke-width: 0.48"/>
     <use xlink:href="#m8d91771635" x="72.717701" y="38.872249" style="fill: #87ceeb; fill-opacity: 0.2; stroke: #ffffff; stroke-opacity: 0.2; stroke-width: 0.48"/>
     <use xlink:href="#m8d91771635" x="63.536218" y="55.007623" style="fill: #87ceeb; fill-opacity: 0.2; stroke: #ffffff; stroke-opacity: 0.2; stroke-width: 0.48"/>
     <use xlink:href="#m8d91771635" x="70.918052" y="51.832336" style="fill: #87ceeb; fill-opacity: 0.2; stroke: #ffffff; stroke-opacity: 0.2; stroke-width: 0.48"/>
    </g>
   </g>
   <g id="PathCollection_2">
    <defs>
     <path id="m62ed8b33d6" d="M 0 3 
C 0.795609 3 1.55874 2.683901 2.12132 2.12132 
C 2.683901 1.55874 3 0.795609 3 0 
C 3 -0.795609 2.683901 -1.55874 2.12132 -2.12132 
C 1.55874 -2.683901 0.795609 -3 0 -3 
C -0.795609 -3 -1.55874 -2.683901 -2.12132 -2.12132 
C -2.683901 -1.55874 -3 -0.795609 -3 0 
C -3 0.795609 -2.683901 1.55874 -2.12132 2.12132 
C -1.55874 2.683901 -0.795609 3 0 3 
z
" style="stroke: #ffffff; stroke-width: 0.48"/>
    </defs>
    <g clip-path="url(#pec339e72fe)">
     <use xlink:href="#m62ed8b33d6" x="45.97894" y="17.326039" style="stroke: #ffffff; stroke-width: 0.48"/>
    </g>
   </g>
   <g id="QuadContourSet_1">
    <path d="M 44.646188 84.920717 
L 45.035515 85.040295 
L 45.424842 85.121523 
L 45.81417 85.168567 
L 46.203497 85.18495 
L 46.592824 85.173649 
L 46.982152 85.137196 
L 47.371479 85.077763 
L 47.760806 84.997244 
L 48.150134 84.897341 
L 48.350637 84.836985 
L 48.539461 84.78143 
L 48.928788 84.652279 
L 49.318116 84.50983 
L 49.548904 84.419095 
L 49.707443 84.358034 
L 50.09677 84.200761 
L 50.486098 84.036926 
L 50.569886 84.001206 
L 50.875425 83.873901 
L 51.264752 83.710802 
L 51.57099 83.583317 
L 51.65408 83.549627 
L 52.043407 83.396614 
L 52.432734 83.248049 
L 52.658948 83.165427 
L 52.822062 83.107866 
L 53.211389 82.978077 
L 53.600716 82.855012 
L 53.959489 82.747538 
L 53.990044 82.738764 
L 54.379371 82.633717 
L 54.768698 82.533248 
L 55.158026 82.435777 
L 55.547353 82.33947 
L 55.587169 82.329648 
L 55.93668 82.247613 
L 56.326008 82.15393 
L 56.715335 82.055739 
L 57.104663 81.950895 
L 57.240498 81.911759 
L 57.49399 81.842036 
L 57.883317 81.725757 
L 58.272645 81.597535 
L 58.558475 81.493869 
L 58.661972 81.45776 
L 59.051299 81.309873 
L 59.440627 81.145064 
L 59.590417 81.07598 
L 59.829954 80.968597 
L 60.219281 80.77679 
L 60.439563 80.65809 
L 60.608609 80.568755 
L 60.997936 80.345218 
L 61.167042 80.240201 
L 61.387263 80.104799 
L 61.776591 79.843985 
L 61.807322 79.822312 
L 62.165918 79.569461 
L 62.38315 79.404422 
L 62.555245 79.272837 
L 62.905981 78.986533 
L 62.944573 78.954617 
L 63.3339 78.61753 
L 63.388024 78.568643 
L 63.723227 78.258814 
L 63.83546 78.150754 
L 64.112555 77.875925 
L 64.252244 77.732864 
L 64.501882 77.467753 
L 64.642415 77.314975 
L 64.891209 77.032658 
L 65.00892 76.897085 
L 65.280537 76.568428 
L 65.353807 76.479196 
L 65.669864 76.07223 
L 65.678363 76.061307 
L 65.989581 75.643417 
L 66.059191 75.543856 
L 66.284483 75.225528 
L 66.448519 74.976679 
L 66.562227 74.807638 
L 66.823598 74.389749 
L 66.837846 74.365777 
L 67.079148 73.971859 
L 67.227173 73.708948 
L 67.317814 73.55397 
L 67.545898 73.13608 
L 67.616501 72.997716 
L 67.766072 72.718191 
L 67.971676 72.300302 
L 68.005828 72.226898 
L 68.175424 71.882412 
L 68.364095 71.464523 
L 68.395156 71.392103 
L 68.553272 71.046633 
L 68.730156 70.628744 
L 68.784483 70.493753 
L 68.906915 70.210854 
L 69.077185 69.792965 
L 69.17381 69.543652 
L 69.24454 69.375075 
L 69.413738 68.957186 
L 69.563138 68.570314 
L 69.576174 68.539296 
L 69.750431 68.121407 
L 69.918908 67.703518 
L 69.952465 67.620643 
L 70.100449 67.285628 
L 70.282885 66.867739 
L 70.341792 66.734627 
L 70.479402 66.449849 
L 70.681946 66.03196 
L 70.73112 65.933049 
L 70.904062 65.61407 
L 71.120447 65.217249 
L 71.132979 65.196181 
L 71.389778 64.778291 
L 71.509774 64.585895 
L 71.66242 64.360402 
L 71.899102 64.0158 
L 71.953596 63.942513 
L 72.270149 63.524623 
L 72.288429 63.501052 
L 72.616785 63.106734 
L 72.677756 63.03448 
L 72.989323 62.688844 
L 73.067084 62.603569 
L 73.389067 62.270955 
L 73.456411 62.202022 
L 73.815708 61.853065 
L 73.845738 61.824081 
L 74.235066 61.466637 
L 74.270877 61.435176 
L 74.624393 61.125602 
L 74.751758 61.017286 
L 75.01372 60.794324 
L 75.247392 60.599397 
L 75.403048 60.46886 
L 75.749666 60.181508 
L 75.792375 60.145737 
L 76.181702 59.824815 
L 76.256268 59.763618 
L 76.57103 59.501091 
L 76.755695 59.345729 
L 76.960357 59.169708 
L 77.238091 58.927839 
L 77.349684 58.827868 
L 77.699416 58.50995 
L 77.739012 58.472678 
L 78.128339 58.101257 
L 78.137887 58.09206 
L 78.517666 57.710068 
L 78.552826 57.674171 
L 78.906994 57.293829 
L 78.941555 57.256281 
L 79.296321 56.847829 
L 79.30446 56.838392 
L 79.644784 56.420503 
L 79.685648 56.366664 
L 79.962442 56.002613 
L 80.074976 55.842274 
L 80.257164 55.584724 
L 80.464303 55.264911 
L 80.528764 55.166834 
L 80.78202 54.748945 
L 80.853631 54.61956 
L 81.017419 54.331055 
L 81.230079 53.913166 
L 81.242958 53.885536 
L 81.431657 53.495276 
L 81.610086 53.077387 
L 81.632285 53.019812 
L 81.778066 52.659497 
L 81.926647 52.241608 
L 82.021613 51.936879 
L 82.059058 51.823719 
L 82.180548 51.405829 
L 82.284483 50.98794 
L 82.372222 50.57005 
L 82.41094 50.348015 
L 82.447889 50.152161 
L 82.511501 49.734271 
L 82.560482 49.316382 
L 82.595585 48.898492 
L 82.617458 48.480603 
L 82.626699 48.062714 
L 82.623893 47.644824 
L 82.609663 47.226935 
L 82.584711 46.809045 
L 82.54987 46.391156 
L 82.506137 45.973266 
L 82.454709 45.555377 
L 82.41094 45.2369 
L 82.398292 45.137487 
L 82.341933 44.719598 
L 82.283435 44.301709 
L 82.224627 43.883819 
L 82.167358 43.46593 
L 82.113403 43.04804 
L 82.064369 42.630151 
L 82.021613 42.212261 
L 82.021613 42.212261 
L 81.990285 41.794372 
L 81.966186 41.376482 
L 81.949493 40.958593 
L 81.940085 40.540704 
L 81.937591 40.122814 
L 81.941441 39.704925 
L 81.950926 39.287035 
L 81.965248 38.869146 
L 81.983572 38.451256 
L 82.005057 38.033367 
L 82.021613 37.743528 
L 82.029941 37.615477 
L 82.058989 37.197588 
L 82.088936 36.779698 
L 82.118997 36.361809 
L 82.148451 35.94392 
L 82.176642 35.52603 
L 82.202964 35.108141 
L 82.226856 34.690251 
L 82.247782 34.272362 
L 82.265223 33.854472 
L 82.278663 33.436583 
L 82.287572 33.018693 
L 82.291397 32.600804 
L 82.289541 32.182915 
L 82.281355 31.765025 
L 82.266114 31.347136 
L 82.243006 30.929246 
L 82.211109 30.511357 
L 82.169367 30.093467 
L 82.116568 29.675578 
L 82.051305 29.257688 
L 82.021613 29.096381 
L 81.976063 28.839799 
L 81.888225 28.42191 
L 81.783067 28.00402 
L 81.65801 27.586131 
L 81.632285 27.509273 
L 81.517781 27.168241 
L 81.353475 26.750352 
L 81.242958 26.504592 
L 81.163172 26.332462 
L 80.94377 25.914573 
L 80.853631 25.761121 
L 80.688846 25.496683 
L 80.464303 25.176964 
L 80.389528 25.078794 
L 80.074976 24.70342 
L 80.03542 24.660905 
L 79.685648 24.311488 
L 79.607596 24.243015 
L 79.296321 23.983847 
L 79.073108 23.825126 
L 78.906994 23.710771 
L 78.517666 23.482544 
L 78.365166 23.407236 
L 78.128339 23.290733 
L 77.739012 23.13206 
L 77.349684 23.005498 
L 77.289368 22.989347 
L 76.960357 22.898462 
L 76.57103 22.814227 
L 76.181702 22.750483 
L 75.792375 22.704109 
L 75.403048 22.672433 
L 75.01372 22.653144 
L 74.624393 22.644223 
L 74.235066 22.64389 
L 73.845738 22.650577 
L 73.456411 22.662903 
L 73.067084 22.679669 
L 72.677756 22.699853 
L 72.288429 22.722619 
L 71.899102 22.747325 
L 71.509774 22.773528 
L 71.120447 22.800993 
L 70.73112 22.829692 
L 70.341792 22.859804 
L 69.952465 22.891702 
L 69.563138 22.925938 
L 69.17381 22.963233 
L 68.927057 22.989347 
L 68.784483 23.002651 
L 68.395156 23.043217 
L 68.005828 23.088974 
L 67.616501 23.140969 
L 67.227173 23.200335 
L 66.837846 23.268295 
L 66.448519 23.346178 
L 66.180687 23.407236 
L 66.059191 23.431996 
L 65.669864 23.521594 
L 65.280537 23.623836 
L 64.891209 23.740401 
L 64.639957 23.825126 
L 64.501882 23.867331 
L 64.112555 23.999792 
L 63.723227 24.150095 
L 63.506963 24.243015 
L 63.3339 24.311242 
L 62.944573 24.48094 
L 62.578794 24.660905 
L 62.555245 24.671633 
L 62.165918 24.862928 
L 61.777362 25.078794 
L 61.776591 25.079194 
L 61.387263 25.294666 
L 61.060798 25.496683 
L 60.997936 25.533304 
L 60.608609 25.77595 
L 60.404861 25.914573 
L 60.219281 26.034276 
L 59.829954 26.307555 
L 59.796255 26.332462 
L 59.440627 26.583178 
L 59.22155 26.750352 
L 59.051299 26.874745 
L 58.677852 27.168241 
L 58.661972 27.180232 
L 58.272645 27.48674 
L 58.153749 27.586131 
L 57.883317 27.804193 
L 57.649569 28.00402 
L 57.49399 28.132639 
L 57.162506 28.42191 
L 57.104663 28.470835 
L 56.715335 28.81499 
L 56.688228 28.839799 
L 56.326008 29.162027 
L 56.223225 29.257688 
L 55.93668 29.517439 
L 55.769534 29.675578 
L 55.547353 29.880721 
L 55.326142 30.093467 
L 55.158026 30.251578 
L 54.892398 30.511357 
L 54.768698 30.629912 
L 54.467922 30.929246 
L 54.379371 31.015805 
L 54.052524 31.347136 
L 53.990044 31.409498 
L 53.646131 31.765025 
L 53.600716 31.81137 
L 53.248721 32.182915 
L 53.211389 32.221921 
L 52.860279 32.600804 
L 52.822062 32.641744 
L 52.480759 33.018693 
L 52.432734 33.071504 
L 52.110073 33.436583 
L 52.043407 33.511914 
L 51.748084 33.854472 
L 51.65408 33.963701 
L 51.394617 34.272362 
L 51.264752 34.427581 
L 51.049467 34.690251 
L 50.875425 34.904219 
L 50.712418 35.108141 
L 50.486098 35.394205 
L 50.383257 35.52603 
L 50.09677 35.898011 
L 50.061783 35.94392 
L 49.744182 36.361809 
L 49.707443 36.410364 
L 49.429779 36.779698 
L 49.318116 36.930773 
L 49.121469 37.197588 
L 48.928788 37.463972 
L 48.819138 37.615477 
L 48.539461 38.009847 
L 48.522717 38.033367 
L 48.224082 38.451256 
L 48.150134 38.556454 
L 47.928718 38.869146 
L 47.760806 39.111811 
L 47.638343 39.287035 
L 47.371479 39.678352 
L 47.353132 39.704925 
L 47.064007 40.122814 
L 46.982152 40.243632 
L 46.777905 40.540704 
L 46.592824 40.817717 
L 46.497147 40.958593 
L 46.220389 41.376482 
L 46.203497 41.402061 
L 45.939677 41.794372 
L 45.81417 41.987699 
L 45.665539 42.212261 
L 45.424842 42.590284 
L 45.398934 42.630151 
L 45.130207 43.04804 
L 45.035515 43.200875 
L 44.867628 43.46593 
L 44.646188 43.833471 
L 44.615138 43.883819 
L 44.362401 44.301709 
L 44.25686 44.485016 
L 44.118288 44.719598 
L 43.885584 45.137487 
L 43.867533 45.170754 
L 43.652765 45.555377 
L 43.478205 45.892833 
L 43.435292 45.973266 
L 43.220842 46.391156 
L 43.088878 46.668593 
L 43.019677 46.809045 
L 42.824826 47.226935 
L 42.699551 47.518693 
L 42.643164 47.644824 
L 42.467276 48.062714 
L 42.310223 48.4767 
L 42.308673 48.480603 
L 42.151348 48.898492 
L 42.010567 49.316382 
L 41.920896 49.610926 
L 41.881216 49.734271 
L 41.758383 50.152161 
L 41.650324 50.57005 
L 41.556076 50.98794 
L 41.531569 51.111737 
L 41.469282 51.405829 
L 41.394057 51.823719 
L 41.332337 52.241608 
L 41.283769 52.659497 
L 41.248177 53.077387 
L 41.225556 53.495276 
L 41.216066 53.913166 
L 41.220035 54.331055 
L 41.237957 54.748945 
L 41.270492 55.166834 
L 41.318467 55.584724 
L 41.38288 56.002613 
L 41.464887 56.420503 
L 41.531569 56.699334 
L 41.563474 56.838392 
L 41.676674 57.256281 
L 41.810574 57.674171 
L 41.920896 57.972971 
L 41.963863 58.09206 
L 42.132659 58.50995 
L 42.310223 58.897192 
L 42.324076 58.927839 
L 42.527922 59.345729 
L 42.699551 59.66588 
L 42.751329 59.763618 
L 42.985118 60.181508 
L 43.088878 60.358231 
L 43.228073 60.599397 
L 43.477676 61.017286 
L 43.478205 61.018177 
L 43.718752 61.435176 
L 43.867533 61.695462 
L 43.954052 61.853065 
L 44.172851 62.270955 
L 44.25686 62.44319 
L 44.369702 62.688844 
L 44.541967 63.106734 
L 44.646188 63.399031 
L 44.687625 63.524623 
L 44.800487 63.942513 
L 44.886453 64.360402 
L 44.944882 64.778291 
L 44.976145 65.196181 
L 44.981456 65.61407 
L 44.962669 66.03196 
L 44.922066 66.449849 
L 44.862154 66.867739 
L 44.785494 67.285628 
L 44.694577 67.703518 
L 44.646188 67.8969 
L 44.587718 68.121407 
L 44.467303 68.539296 
L 44.339195 68.957186 
L 44.25686 69.210774 
L 44.201653 69.375075 
L 44.054554 69.792965 
L 43.905415 70.210854 
L 43.867533 70.313834 
L 43.748227 70.628744 
L 43.589856 71.046633 
L 43.478205 71.342641 
L 43.430933 71.464523 
L 43.268918 71.882412 
L 43.111847 72.300302 
L 43.088878 72.361932 
L 42.952672 72.718191 
L 42.799306 73.13608 
L 42.699551 73.419012 
L 42.650701 73.55397 
L 42.505136 73.971859 
L 42.368747 74.389749 
L 42.310223 74.579525 
L 42.237906 74.807638 
L 42.114441 75.225528 
L 42.001662 75.643417 
L 41.920896 75.972882 
L 41.898531 76.061307 
L 41.80315 76.479196 
L 41.719946 76.897085 
L 41.649099 77.314975 
L 41.590916 77.732864 
L 41.545838 78.150754 
L 41.531569 78.341089 
L 41.51383 78.568643 
L 41.496437 78.986533 
L 41.495092 79.404422 
L 41.510867 79.822312 
L 41.531569 80.076773 
L 41.544776 80.240201 
L 41.598038 80.65809 
L 41.673283 81.07598 
L 41.772998 81.493869 
L 41.900115 81.911759 
L 41.920896 81.968763 
L 42.059038 82.329648 
L 42.254507 82.747538 
L 42.310223 82.849872 
L 42.496921 83.165427 
L 42.699551 83.457877 
L 42.796752 83.583317 
L 43.088878 83.914313 
L 43.177478 84.001206 
L 43.478205 84.266828 
L 43.68509 84.419095 
L 43.867533 84.542916 
L 44.25686 84.757328 
L 44.441838 84.836985 
L 44.646188 84.920717 
z
M 25.569148 41.455719 
L 25.958475 41.531785 
L 26.347802 41.565453 
L 26.73713 41.559779 
L 27.126457 41.516999 
L 27.515784 41.438583 
L 27.729757 41.376482 
L 27.905112 41.325101 
L 28.294439 41.17701 
L 28.683766 40.994335 
L 28.748753 40.958593 
L 29.073094 40.775255 
L 29.431212 40.540704 
L 29.462421 40.519477 
L 29.851748 40.223254 
L 29.971133 40.122814 
L 30.241076 39.883679 
L 30.42663 39.704925 
L 30.630403 39.496057 
L 30.821175 39.287035 
L 31.01973 39.053118 
L 31.168161 38.869146 
L 31.409058 38.544688 
L 31.475984 38.451256 
L 31.75008 38.033367 
L 31.798385 37.952354 
L 31.99548 37.615477 
L 32.187713 37.247239 
L 32.213494 37.197588 
L 32.408368 36.779698 
L 32.57704 36.365935 
L 32.57874 36.361809 
L 32.729783 35.94392 
L 32.858491 35.52603 
L 32.96613 35.108141 
L 32.966367 35.107 
L 33.055844 34.690251 
L 33.124766 34.272362 
L 33.173092 33.854472 
L 33.200621 33.436583 
L 33.206733 33.018693 
L 33.190368 32.600804 
L 33.149983 32.182915 
L 33.083491 31.765025 
L 32.988181 31.347136 
L 32.966367 31.272332 
L 32.860374 30.929246 
L 32.694903 30.511357 
L 32.57704 30.268454 
L 32.483419 30.093467 
L 32.21498 29.675578 
L 32.187713 29.638476 
L 31.8644 29.257688 
L 31.798385 29.189174 
L 31.409058 28.853103 
L 31.390055 28.839799 
L 31.01973 28.60048 
L 30.647078 28.42191 
L 30.630403 28.414324 
L 30.241076 28.282463 
L 29.851748 28.19934 
L 29.462421 28.159667 
L 29.073094 28.159713 
L 28.683766 28.197064 
L 28.294439 28.270474 
L 27.905112 28.379781 
L 27.792304 28.42191 
L 27.515784 28.522106 
L 27.126457 28.69947 
L 26.872354 28.839799 
L 26.73713 28.913529 
L 26.347802 29.163783 
L 26.221168 29.257688 
L 25.958475 29.453426 
L 25.697265 29.675578 
L 25.569148 29.786431 
L 25.252936 30.093467 
L 25.17982 30.166622 
L 24.867918 30.511357 
L 24.790493 30.600707 
L 24.528942 30.929246 
L 24.401166 31.099152 
L 24.227416 31.347136 
L 24.011838 31.677604 
L 23.957994 31.765025 
L 23.718149 32.182915 
L 23.622511 32.365027 
L 23.503852 32.600804 
L 23.313852 33.018693 
L 23.233184 33.216737 
L 23.146094 33.436583 
L 23.000025 33.854472 
L 22.874804 34.272362 
L 22.843856 34.394139 
L 22.769426 34.690251 
L 22.684239 35.108141 
L 22.619254 35.52603 
L 22.574595 35.94392 
L 22.550722 36.361809 
L 22.548445 36.779698 
L 22.568946 37.197588 
L 22.61381 37.615477 
L 22.685063 38.033367 
L 22.785223 38.451256 
L 22.843856 38.640136 
L 22.919423 38.869146 
L 23.092801 39.287035 
L 23.233184 39.56295 
L 23.312951 39.704925 
L 23.593266 40.122814 
L 23.622511 40.160636 
L 23.961463 40.540704 
L 24.011838 40.590367 
L 24.401166 40.912494 
L 24.470252 40.958593 
L 24.790493 41.153462 
L 25.17982 41.332221 
L 25.314209 41.376482 
L 25.569148 41.455719 
z
" clip-path="url(#pec339e72fe)" style="fill: none; stroke: #87ceeb; stroke-width: 1.5"/>
    <path d="M 57.104663 71.887982 
L 57.49399 71.950974 
L 57.883317 71.968602 
L 58.272645 71.942022 
L 58.604546 71.882412 
L 58.661972 71.871605 
L 59.051299 71.75217 
L 59.440627 71.589753 
L 59.678019 71.464523 
L 59.829954 71.380384 
L 60.219281 71.120561 
L 60.314316 71.046633 
L 60.608609 70.806156 
L 60.800034 70.628744 
L 60.997936 70.436276 
L 61.206185 70.210854 
L 61.387263 70.005696 
L 61.558744 69.792965 
L 61.776591 69.511275 
L 61.874185 69.375075 
L 62.163075 68.957186 
L 62.165918 68.952945 
L 62.42567 68.539296 
L 62.555245 68.329008 
L 62.67649 68.121407 
L 62.917929 67.703518 
L 62.944573 67.657296 
L 63.149353 67.285628 
L 63.3339 66.954384 
L 63.380473 66.867739 
L 63.608787 66.449849 
L 63.723227 66.246284 
L 63.840163 66.03196 
L 64.076061 65.61407 
L 64.112555 65.551991 
L 64.316483 65.196181 
L 64.501882 64.886504 
L 64.56546 64.778291 
L 64.821944 64.360402 
L 64.891209 64.252659 
L 65.087411 63.942513 
L 65.280537 63.649956 
L 65.36238 63.524623 
L 65.646138 63.106734 
L 65.669864 63.07316 
L 65.938935 62.688844 
L 66.059191 62.522451 
L 66.240085 62.270955 
L 66.448519 61.988522 
L 66.548432 61.853065 
L 66.837846 61.468247 
L 66.862807 61.435176 
L 67.183283 61.017286 
L 67.227173 60.960683 
L 67.508705 60.599397 
L 67.616501 60.461451 
L 67.837256 60.181508 
L 68.005828 59.966935 
L 68.167682 59.763618 
L 68.395156 59.474945 
L 68.498756 59.345729 
L 68.784483 58.98343 
L 68.829273 58.927839 
L 69.158882 58.50995 
L 69.17381 58.490576 
L 69.488471 58.09206 
L 69.563138 57.99428 
L 69.814689 57.674171 
L 69.952465 57.491795 
L 70.136317 57.256281 
L 70.341792 56.980874 
L 70.452074 56.838392 
L 70.73112 56.458984 
L 70.760589 56.420503 
L 71.06466 56.002613 
L 71.120447 55.921276 
L 71.361663 55.584724 
L 71.509774 55.363595 
L 71.647921 55.166834 
L 71.899102 54.7818 
L 71.921628 54.748945 
L 72.188984 54.331055 
L 72.288429 54.162254 
L 72.443055 53.913166 
L 72.677756 53.499199 
L 72.680103 53.495276 
L 72.910797 53.077387 
L 73.067084 52.763952 
L 73.122125 52.659497 
L 73.322631 52.241608 
L 73.456411 51.931262 
L 73.505433 51.823719 
L 73.677892 51.405829 
L 73.831554 50.98794 
L 73.845738 50.945387 
L 73.977999 50.57005 
L 74.109604 50.152161 
L 74.227431 49.734271 
L 74.235066 49.704708 
L 74.340908 49.316382 
L 74.444279 48.898492 
L 74.538924 48.480603 
L 74.624393 48.073601 
L 74.6268 48.062714 
L 74.715128 47.644824 
L 74.799071 47.226935 
L 74.879883 46.809045 
L 74.958586 46.391156 
L 75.01372 46.095113 
L 75.037506 45.973266 
L 75.119274 45.555377 
L 75.20035 45.137487 
L 75.280894 44.719598 
L 75.360907 44.301709 
L 75.403048 44.08151 
L 75.442642 43.883819 
L 75.525881 43.46593 
L 75.607493 43.04804 
L 75.687075 42.630151 
L 75.764191 42.212261 
L 75.792375 42.054273 
L 75.841049 41.794372 
L 75.915666 41.376482 
L 75.985847 40.958593 
L 76.051097 40.540704 
L 76.110913 40.122814 
L 76.164781 39.704925 
L 76.181702 39.554814 
L 76.213645 39.287035 
L 76.255737 38.869146 
L 76.289589 38.451256 
L 76.314542 38.033367 
L 76.329856 37.615477 
L 76.334692 37.197588 
L 76.328079 36.779698 
L 76.30889 36.361809 
L 76.275802 35.94392 
L 76.227259 35.52603 
L 76.181702 35.232914 
L 76.1618 35.108141 
L 76.077752 34.690251 
L 75.971313 34.272362 
L 75.839117 33.854472 
L 75.792375 33.728194 
L 75.677016 33.436583 
L 75.478951 33.018693 
L 75.403048 32.879711 
L 75.235817 32.600804 
L 75.01372 32.282165 
L 74.936306 32.182915 
L 74.624393 31.828432 
L 74.560717 31.765025 
L 74.235066 31.4702 
L 74.076705 31.347136 
L 73.845738 31.180328 
L 73.456411 30.943146 
L 73.430276 30.929246 
L 73.067084 30.744553 
L 72.677756 30.579712 
L 72.488893 30.511357 
L 72.288429 30.440324 
L 71.899102 30.321835 
L 71.509774 30.222588 
L 71.120447 30.139698 
L 70.861592 30.093467 
L 70.73112 30.06994 
L 70.341792 30.01107 
L 69.952465 29.964045 
L 69.563138 29.928173 
L 69.17381 29.903096 
L 68.784483 29.888742 
L 68.395156 29.885271 
L 68.005828 29.893039 
L 67.616501 29.91256 
L 67.227173 29.944488 
L 66.837846 29.989594 
L 66.448519 30.048755 
L 66.213853 30.093467 
L 66.059191 30.121239 
L 65.669864 30.206169 
L 65.280537 30.307135 
L 64.891209 30.425292 
L 64.644889 30.511357 
L 64.501882 30.558924 
L 64.112555 30.705844 
L 63.723227 30.872379 
L 63.603595 30.929246 
L 63.3339 31.05216 
L 62.944573 31.249344 
L 62.768783 31.347136 
L 62.555245 31.461536 
L 62.165918 31.689822 
L 62.047301 31.765025 
L 61.776591 31.930873 
L 61.398155 32.182915 
L 61.387263 32.189937 
L 60.997936 32.456444 
L 60.801267 32.600804 
L 60.608609 32.73794 
L 60.238831 33.018693 
L 60.219281 33.033099 
L 59.829954 33.333942 
L 59.704063 33.436583 
L 59.440627 33.645203 
L 59.189606 33.854472 
L 59.051299 33.966509 
L 58.691504 34.272362 
L 58.661972 34.296764 
L 58.272645 34.63127 
L 58.206765 34.690251 
L 57.883317 34.97209 
L 57.733737 35.108141 
L 57.49399 35.320568 
L 57.27169 35.52603 
L 57.104663 35.676605 
L 56.820323 35.94392 
L 56.715335 36.040345 
L 56.379701 36.361809 
L 56.326008 36.412149 
L 55.950102 36.779698 
L 55.93668 36.792575 
L 55.547353 37.181276 
L 55.531643 37.197588 
L 55.158026 37.580055 
L 55.124794 37.615477 
L 54.768698 37.990898 
L 54.729974 38.033367 
L 54.379371 38.414986 
L 54.347292 38.451256 
L 53.990044 38.853611 
L 53.976739 38.869146 
L 53.617798 39.287035 
L 53.600716 39.306912 
L 53.26997 39.704925 
L 53.211389 39.775817 
L 52.933273 40.122814 
L 52.822062 40.262927 
L 52.607468 40.540704 
L 52.432734 40.770052 
L 52.292393 40.958593 
L 52.043407 41.2992 
L 51.987989 41.376482 
L 51.692813 41.794372 
L 51.65408 41.850049 
L 51.405623 42.212261 
L 51.264752 42.423742 
L 51.128594 42.630151 
L 50.875425 43.027133 
L 50.862164 43.04804 
L 50.601506 43.46593 
L 50.486098 43.658423 
L 50.350959 43.883819 
L 50.111262 44.301709 
L 50.09677 44.327687 
L 49.876958 44.719598 
L 49.707443 45.0395 
L 49.655031 45.137487 
L 49.440576 45.555377 
L 49.318116 45.808706 
L 49.23741 45.973266 
L 49.043727 46.391156 
L 48.928788 46.657114 
L 48.861848 46.809045 
L 48.689846 47.226935 
L 48.539461 47.627047 
L 48.532618 47.644824 
L 48.383888 48.062714 
L 48.250786 48.480603 
L 48.150134 48.837307 
L 48.132343 48.898492 
L 48.025715 49.316382 
L 47.935638 49.734271 
L 47.862302 50.152161 
L 47.806061 50.57005 
L 47.767433 50.98794 
L 47.760806 51.124549 
L 47.746591 51.405829 
L 47.74531 51.823719 
L 47.760806 52.158293 
L 47.764582 52.241608 
L 47.804392 52.659497 
L 47.866352 53.077387 
L 47.951582 53.495276 
L 48.061176 53.913166 
L 48.150134 54.190923 
L 48.195022 54.331055 
L 48.352376 54.748945 
L 48.535887 55.166834 
L 48.539461 55.174157 
L 48.74137 55.584724 
L 48.928788 55.926262 
L 48.971128 56.002613 
L 49.220882 56.420503 
L 49.318116 56.573061 
L 49.489136 56.838392 
L 49.707443 57.160927 
L 49.772771 57.256281 
L 50.067189 57.674171 
L 50.09677 57.715645 
L 50.367857 58.09206 
L 50.486098 58.256155 
L 50.670774 58.50995 
L 50.875425 58.795516 
L 50.971212 58.927839 
L 51.264752 59.345729 
L 51.264752 59.345729 
L 51.547809 59.763618 
L 51.65408 59.929232 
L 51.817482 60.181508 
L 52.043407 60.554213 
L 52.07111 60.599397 
L 52.307861 61.017286 
L 52.432734 61.257599 
L 52.526286 61.435176 
L 52.726314 61.853065 
L 52.822062 62.074997 
L 52.908187 62.270955 
L 53.072567 62.688844 
L 53.211389 63.085099 
L 53.219163 63.106734 
L 53.351547 63.524623 
L 53.468361 63.942513 
L 53.57106 64.360402 
L 53.600716 64.498813 
L 53.662935 64.778291 
L 53.744705 65.196181 
L 53.817473 65.61407 
L 53.883337 66.03196 
L 53.944612 66.449849 
L 53.990044 66.771643 
L 54.004395 66.867739 
L 54.066854 67.285628 
L 54.133629 67.703518 
L 54.208477 68.121407 
L 54.295672 68.539296 
L 54.379371 68.876237 
L 54.401141 68.957186 
L 54.534957 69.375075 
L 54.700205 69.792965 
L 54.768698 69.93651 
L 54.914019 70.210854 
L 55.158026 70.587247 
L 55.188578 70.628744 
L 55.547353 71.035503 
L 55.558875 71.046633 
L 55.93668 71.357151 
L 56.097802 71.464523 
L 56.326008 71.596212 
L 56.715335 71.769024 
L 57.084204 71.882412 
L 57.104663 71.887982 
z
" clip-path="url(#pec339e72fe)" style="fill: none; stroke: #87ceeb; stroke-width: 1.5"/>
    <path d="M 59.829954 60.183246 
L 60.219281 60.280948 
L 60.608609 60.331797 
L 60.997936 60.336591 
L 61.387263 60.296878 
L 61.776591 60.214739 
L 61.880816 60.181508 
L 62.165918 60.093793 
L 62.555245 59.936141 
L 62.903744 59.763618 
L 62.944573 59.743919 
L 63.3339 59.52095 
L 63.602488 59.345729 
L 63.723227 59.268175 
L 64.112555 58.988001 
L 64.188598 58.927839 
L 64.501882 58.681303 
L 64.702875 58.50995 
L 64.891209 58.349046 
L 65.171906 58.09206 
L 65.280537 57.991659 
L 65.60434 57.674171 
L 65.669864 57.608843 
L 66.006364 57.256281 
L 66.059191 57.199603 
L 66.382448 56.838392 
L 66.448519 56.762271 
L 66.735807 56.420503 
L 66.837846 56.294513 
L 67.068706 56.002613 
L 67.227173 55.793329 
L 67.38266 55.584724 
L 67.616501 55.255047 
L 67.678573 55.166834 
L 67.957239 54.748945 
L 68.005828 54.671792 
L 68.220212 54.331055 
L 68.395156 54.034608 
L 68.467279 53.913166 
L 68.699731 53.495276 
L 68.784483 53.332104 
L 68.918526 53.077387 
L 69.123056 52.659497 
L 69.17381 52.548189 
L 69.316347 52.241608 
L 69.496633 51.823719 
L 69.563138 51.65814 
L 69.667063 51.405829 
L 69.827274 50.98794 
L 69.952465 50.6379 
L 69.977473 50.57005 
L 70.122086 50.152161 
L 70.258018 49.734271 
L 70.341792 49.462483 
L 70.38835 49.316382 
L 70.51532 48.898492 
L 70.636969 48.480603 
L 70.73112 48.145794 
L 70.755312 48.062714 
L 70.873553 47.644824 
L 70.988881 47.226935 
L 71.102005 46.809045 
L 71.120447 46.739805 
L 71.216516 46.391156 
L 71.329744 45.973266 
L 71.44124 45.555377 
L 71.509774 45.294132 
L 71.552248 45.137487 
L 71.662938 44.719598 
L 71.770842 44.301709 
L 71.875567 43.883819 
L 71.899102 43.78569 
L 71.978221 43.46593 
L 72.076348 43.04804 
L 72.168633 42.630151 
L 72.254221 42.212261 
L 72.288429 42.026874 
L 72.332673 41.794372 
L 72.402271 41.376482 
L 72.461304 40.958593 
L 72.508441 40.540704 
L 72.542172 40.122814 
L 72.56077 39.704925 
L 72.56225 39.287035 
L 72.544316 38.869146 
L 72.504295 38.451256 
L 72.439052 38.033367 
L 72.344888 37.615477 
L 72.288429 37.424533 
L 72.215675 37.197588 
L 72.044773 36.779698 
L 71.899102 36.49458 
L 71.823727 36.361809 
L 71.538072 35.94392 
L 71.509774 35.908187 
L 71.164456 35.52603 
L 71.120447 35.483365 
L 70.73112 35.155514 
L 70.665396 35.108141 
L 70.341792 34.895493 
L 69.963422 34.690251 
L 69.952465 34.684713 
L 69.563138 34.515524 
L 69.17381 34.379387 
L 68.784483 34.272362 
L 68.784483 34.272362 
L 68.395156 34.191046 
L 68.005828 34.133533 
L 67.616501 34.098429 
L 67.227173 34.084772 
L 66.837846 34.091941 
L 66.448519 34.119577 
L 66.059191 34.167525 
L 65.669864 34.23579 
L 65.510274 34.272362 
L 65.280537 34.323246 
L 64.891209 34.429642 
L 64.501882 34.555965 
L 64.145181 34.690251 
L 64.112555 34.70215 
L 63.723227 34.864143 
L 63.3339 35.045618 
L 63.212852 35.108141 
L 62.944573 35.242475 
L 62.555245 35.456068 
L 62.437816 35.52603 
L 62.165918 35.683066 
L 61.776591 35.925539 
L 61.748982 35.94392 
L 61.387263 36.177291 
L 61.118909 36.361809 
L 60.997936 36.442412 
L 60.608609 36.717085 
L 60.524449 36.779698 
L 60.219281 36.999738 
L 59.958852 37.197588 
L 59.829954 37.292547 
L 59.440627 37.593905 
L 59.413985 37.615477 
L 59.051299 37.900734 
L 58.890562 38.033367 
L 58.661972 38.216906 
L 58.383778 38.451256 
L 58.272645 38.542564 
L 57.893958 38.869146 
L 57.883317 38.878122 
L 57.49399 39.221822 
L 57.42358 39.287035 
L 57.104663 39.577449 
L 56.971364 39.704925 
L 56.715335 39.94664 
L 56.537667 40.122814 
L 56.326008 40.330953 
L 56.122852 40.540704 
L 55.93668 40.732265 
L 55.726979 40.958593 
L 55.547353 41.152822 
L 55.349839 41.376482 
L 55.158026 41.595304 
L 54.991023 41.794372 
L 54.768698 42.062914 
L 54.650024 42.212261 
L 54.379371 42.559498 
L 54.326332 42.630151 
L 54.019648 43.04804 
L 53.990044 43.08941 
L 53.72938 43.46593 
L 53.600716 43.6588 
L 53.454831 43.883819 
L 53.211389 44.276275 
L 53.195983 44.301709 
L 52.952414 44.719598 
L 52.822062 44.956308 
L 52.72403 45.137487 
L 52.510994 45.555377 
L 52.432734 45.719432 
L 52.312985 45.973266 
L 52.130702 46.391156 
L 52.043407 46.609523 
L 51.964001 46.809045 
L 51.813449 47.226935 
L 51.67994 47.644824 
L 51.65408 47.737632 
L 51.563172 48.062714 
L 51.464573 48.480603 
L 51.384938 48.898492 
L 51.325027 49.316382 
L 51.285777 49.734271 
L 51.268291 50.152161 
L 51.273818 50.57005 
L 51.303724 50.98794 
L 51.359449 51.405829 
L 51.44245 51.823719 
L 51.55413 52.241608 
L 51.65408 52.538638 
L 51.696231 52.659497 
L 51.870975 53.077387 
L 52.043407 53.427095 
L 52.078607 53.495276 
L 52.32254 53.913166 
L 52.432734 54.082563 
L 52.603058 54.331055 
L 52.822062 54.624171 
L 52.920693 54.748945 
L 53.211389 55.094127 
L 53.276302 55.166834 
L 53.600716 55.51494 
L 53.669649 55.584724 
L 53.990044 55.901196 
L 54.098615 56.002613 
L 54.379371 56.262729 
L 54.558687 56.420503 
L 54.768698 56.606446 
L 55.043087 56.838392 
L 55.158026 56.937384 
L 55.543775 57.256281 
L 55.547353 57.259326 
L 55.93668 57.578212 
L 56.058229 57.674171 
L 56.326008 57.893706 
L 56.577004 58.09206 
L 56.715335 58.205978 
L 57.099955 58.50995 
L 57.104663 58.513829 
L 57.49399 58.818399 
L 57.642717 58.927839 
L 57.883317 59.111254 
L 58.217322 59.345729 
L 58.272645 59.385736 
L 58.661972 59.638268 
L 58.884873 59.763618 
L 59.051299 59.858841 
L 59.440627 60.042684 
L 59.825169 60.181508 
L 59.829954 60.183246 
z
" clip-path="url(#pec339e72fe)" style="fill: none; stroke: #87ceeb; stroke-width: 1.5"/>
    <path d="M 59.829954 54.352093 
L 60.219281 54.45089 
L 60.608609 54.527863 
L 60.997936 54.579372 
L 61.387263 54.60147 
L 61.776591 54.5902 
L 62.165918 54.541929 
L 62.555245 54.453661 
L 62.921553 54.331055 
L 62.944573 54.322994 
L 63.3339 54.142434 
L 63.723227 53.915876 
L 63.727131 53.913166 
L 64.112555 53.631262 
L 64.272866 53.495276 
L 64.501882 53.289624 
L 64.711155 53.077387 
L 64.891209 52.883255 
L 65.07897 52.659497 
L 65.280537 52.403277 
L 65.397711 52.241608 
L 65.669864 51.840208 
L 65.680327 51.823719 
L 65.928419 51.405829 
L 66.059191 51.169805 
L 66.154948 50.98794 
L 66.360618 50.57005 
L 66.448519 50.379004 
L 66.549081 50.152161 
L 66.722766 49.734271 
L 66.837846 49.439606 
L 66.884792 49.316382 
L 67.034584 48.898492 
L 67.176491 48.480603 
L 67.227173 48.322579 
L 67.3095 48.062714 
L 67.435127 47.644824 
L 67.555095 47.226935 
L 67.616501 47.001459 
L 67.668811 46.809045 
L 67.776204 46.391156 
L 67.878411 45.973266 
L 67.975252 45.555377 
L 68.005828 45.412296 
L 68.064993 45.137487 
L 68.14731 44.719598 
L 68.221785 44.301709 
L 68.287072 43.883819 
L 68.341421 43.46593 
L 68.382597 43.04804 
L 68.395156 42.834356 
L 68.407317 42.630151 
L 68.412683 42.212261 
L 68.395156 41.794372 
L 68.395156 41.794372 
L 68.34743 41.376482 
L 68.263375 40.958593 
L 68.134349 40.540704 
L 68.005828 40.243178 
L 67.944419 40.122814 
L 67.663859 39.704925 
L 67.616501 39.648488 
L 67.234567 39.287035 
L 67.227173 39.281226 
L 66.837846 39.040743 
L 66.448519 38.875131 
L 66.427712 38.869146 
L 66.059191 38.774625 
L 65.669864 38.721427 
L 65.280537 38.708521 
L 64.891209 38.730622 
L 64.501882 38.78352 
L 64.112555 38.863834 
L 64.093542 38.869146 
L 63.723227 38.969951 
L 63.3339 39.097887 
L 62.944573 39.245671 
L 62.849901 39.287035 
L 62.555245 39.412322 
L 62.165918 39.595407 
L 61.953823 39.704925 
L 61.776591 39.794073 
L 61.387263 40.007004 
L 61.190742 40.122814 
L 60.997936 40.23376 
L 60.608609 40.473655 
L 60.507095 40.540704 
L 60.219281 40.727048 
L 59.882272 40.958593 
L 59.829954 40.99398 
L 59.440627 41.275438 
L 59.30914 41.376482 
L 59.051299 41.572775 
L 58.777295 41.794372 
L 58.661972 41.887319 
L 58.282959 42.212261 
L 58.272645 42.221133 
L 57.883317 42.578096 
L 57.829898 42.630151 
L 57.49399 42.961483 
L 57.411395 43.04804 
L 57.104663 43.376036 
L 57.025462 43.46593 
L 56.715335 43.828234 
L 56.670429 43.883819 
L 56.345525 44.301709 
L 56.326008 44.328034 
L 56.051586 44.719598 
L 55.93668 44.893464 
L 55.783661 45.137487 
L 55.547353 45.542179 
L 55.540009 45.555377 
L 55.327042 45.973266 
L 55.158026 46.340766 
L 55.135834 46.391156 
L 54.974325 46.809045 
L 54.836216 47.226935 
L 54.768698 47.477811 
L 54.7254 47.644824 
L 54.643977 48.062714 
L 54.59078 48.480603 
L 54.567995 48.898492 
L 54.578016 49.316382 
L 54.623377 49.734271 
L 54.706649 50.152161 
L 54.768698 50.364513 
L 54.834452 50.57005 
L 55.012123 50.98794 
L 55.158026 51.261258 
L 55.243567 51.405829 
L 55.53854 51.823719 
L 55.547353 51.834618 
L 55.913731 52.241608 
L 55.93668 52.264506 
L 56.326008 52.613733 
L 56.383075 52.659497 
L 56.715335 52.908061 
L 56.967178 53.077387 
L 57.104663 53.165678 
L 57.49399 53.392307 
L 57.689011 53.495276 
L 57.883317 53.59577 
L 58.272645 53.779409 
L 58.583128 53.913166 
L 58.661972 53.947042 
L 59.051299 54.097617 
L 59.440627 54.233213 
L 59.761452 54.331055 
L 59.829954 54.352093 
z
" clip-path="url(#pec339e72fe)" style="fill: none; stroke: #87ceeb; stroke-width: 1.5"/>
    <path clip-path="url(#pec339e72fe)" style="fill: none; stroke: #87ceeb; stroke-width: 1.5"/>
   </g>
   <g id="patch_3">
    <path d="M 13.5 96.12 
L 13.5 12.96 
" style="fill: none; stroke: #cccccc; stroke-width: 1.25; stroke-linejoin: miter; stroke-linecap: square"/>
   </g>
   <g id="patch_4">
    <path d="M 97.2 96.12 
L 97.2 12.96 
" style="fill: none; stroke: #cccccc; stroke-width: 1.25; stroke-linejoin: miter; stroke-linecap: square"/>
   </g>
   <g id="patch_5">
    <path d="M 13.5 96.12 
L 97.2 96.12 
" style="fill: none; stroke: #cccccc; stroke-width: 1.25; stroke-linejoin: miter; stroke-linecap: square"/>
   </g>
   <g id="patch_6">
    <path d="M 13.5 12.96 
L 97.2 12.96 
" style="fill: none; stroke: #cccccc; stroke-width: 1.25; stroke-linejoin: miter; stroke-linecap: square"/>
   </g>
   <g id="text_6">
    <text style="fill: #262626; font: 8px 'Arial', 'DejaVu Sans', 'Liberation Sans', 'Bitstream Vera Sans', sans-serif; text-anchor: start" x="73.764" y="21.276" transform="rotate(-0 73.764 21.276)">100.0%</text>
   </g>
  </g>
 </g>
 <defs>
  <clipPath id="pec339e72fe">
   <rect x="13.5" y="12.96" width="83.7" height="83.16"/>
  </clipPath>
 </defs>
</svg>
