<?xml version="1.0" encoding="utf-8" standalone="no"?>
<!DOCTYPE svg PUBLIC "-//W3C//DTD SVG 1.1//EN"
  "http://www.w3.org/Graphics/SVG/1.1/DTD/svg11.dtd">
<svg xmlns:xlink="http://www.w3.org/1999/xlink" width="108pt" height="108pt" viewBox="0 0 108 108" xmlns="http://www.w3.org/2000/svg" version="1.1">
 <metadata>
  <rdf:RDF xmlns:dc="http://purl.org/dc/elements/1.1/" xmlns:cc="http://creativecommons.org/ns#" xmlns:rdf="http://www.w3.org/1999/02/22-rdf-syntax-ns#">
   <cc:Work>
    <dc:type rdf:resource="http://purl.org/dc/dcmitype/StillImage"/>
    <dc:date>2024-04-24T13:40:13.925136</dc:date>
    <dc:format>image/svg+xml</dc:format>
    <dc:creator>
     <cc:Agent>
      <dc:title>Matplotlib v3.8.1, https://matplotlib.org/</dc:title>
     </cc:Agent>
    </dc:creator>
   </cc:Work>
  </rdf:RDF>
 </metadata>
 <defs>
  <style type="text/css">*{stroke-linejoin: round; stroke-linecap: butt}</style>
 </defs>
 <g id="figure_1">
  <g id="patch_1">
   <path d="M 0 108 
L 108 108 
L 108 0 
L 0 0 
z
" style="fill: #ffffff"/>
  </g>
  <g id="axes_1">
   <g id="patch_2">
    <path d="M 13.5 96.12 
L 97.2 96.12 
L 97.2 12.96 
L 13.5 12.96 
z
" style="fill: #ffffff"/>
   </g>
   <g id="matplotlib.axis_1">
    <g id="xtick_1">
     <g id="line2d_1">
      <path d="M 59.866024 96.12 
L 59.866024 12.96 
" clip-path="url(#pfde912bfe7)" style="fill: none; stroke: #cccccc; stroke-linecap: round"/>
     </g>
     <g id="text_1">
      <!-- $\mathdefault{10^{-2}}$ -->
      <g style="fill: #262626" transform="translate(51.946024 111.37)">
       <text>
        <tspan style="font: 8px 'Arial'" x="0 4.449219" y="-0.39949999999999974">10</tspan>
        <tspan style="font: 5.6px 'Arial'" x="9.037825 12.308137" y="-5.975">−2</tspan>
       </text>
      </g>
     </g>
    </g>
    <g id="xtick_2"/>
    <g id="xtick_3"/>
    <g id="xtick_4"/>
    <g id="xtick_5"/>
    <g id="xtick_6"/>
    <g id="xtick_7"/>
    <g id="xtick_8"/>
    <g id="xtick_9"/>
    <g id="xtick_10"/>
    <g id="text_2">
     <text style="fill: #262626; font: 8px 'Arial', 'DejaVu Sans', 'Liberation Sans', 'Bitstream Vera Sans', sans-serif; text-anchor: middle" x="55.35" y="122.78375" transform="rotate(-0 55.35 122.78375)">Allele frequency in pool</text>
    </g>
   </g>
   <g id="matplotlib.axis_2">
    <g id="ytick_1">
     <g id="line2d_2">
      <path d="M 13.5 80.941034 
L 97.2 80.941034 
" clip-path="url(#pfde912bfe7)" style="fill: none; stroke: #cccccc; stroke-linecap: round"/>
     </g>
     <g id="text_3">
      <!-- $\mathdefault{10^{-5}}$ -->
      <g style="fill: #262626" transform="translate(-9.34 85.026034)">
       <text>
        <tspan style="font: 8px 'Arial'" x="0 4.449219" y="-0.46512500000000045">10</tspan>
        <tspan style="font: 5.6px 'Arial'" x="9.037825 12.308137" y="-6.040625">−5</tspan>
       </text>
      </g>
     </g>
    </g>
    <g id="ytick_2">
     <g id="line2d_3">
      <path d="M 13.5 65.069876 
L 97.2 65.069876 
" clip-path="url(#pfde912bfe7)" style="fill: none; stroke: #cccccc; stroke-linecap: round"/>
     </g>
     <g id="text_4">
      <!-- $\mathdefault{10^{-4}}$ -->
      <g style="fill: #262626" transform="translate(-9.34 69.154876)">
       <text>
        <tspan style="font: 8px 'Arial'" x="0 4.449219" y="-0.41043750000000045">10</tspan>
        <tspan style="font: 5.6px 'Arial'" x="9.037825 12.308137" y="-5.9859375">−4</tspan>
       </text>
      </g>
     </g>
    </g>
    <g id="ytick_3">
     <g id="line2d_4">
      <path d="M 13.5 49.198718 
L 97.2 49.198718 
" clip-path="url(#pfde912bfe7)" style="fill: none; stroke: #cccccc; stroke-linecap: round"/>
     </g>
     <g id="text_5">
      <!-- $\mathdefault{10^{-3}}$ -->
      <g style="fill: #262626" transform="translate(-9.34 53.323718)">
       <text>
        <tspan style="font: 8px 'Arial'" x="0 4.449219" y="-0.39949999999999974">10</tspan>
        <tspan style="font: 5.6px 'Arial'" x="9.037825 12.308137" y="-5.975">−3</tspan>
       </text>
      </g>
     </g>
    </g>
    <g id="ytick_4">
     <g id="line2d_5">
      <path d="M 13.5 33.327559 
L 97.2 33.327559 
" clip-path="url(#pfde912bfe7)" style="fill: none; stroke: #cccccc; stroke-linecap: round"/>
     </g>
     <g id="text_6">
      <!-- $\mathdefault{10^{-2}}$ -->
      <g style="fill: #262626" transform="translate(-9.34 37.452559)">
       <text>
        <tspan style="font: 8px 'Arial'" x="0 4.449219" y="-0.39949999999999974">10</tspan>
        <tspan style="font: 5.6px 'Arial'" x="9.037825 12.308137" y="-5.975">−2</tspan>
       </text>
      </g>
     </g>
    </g>
    <g id="ytick_5">
     <g id="line2d_6">
      <path d="M 13.5 17.456401 
L 97.2 17.456401 
" clip-path="url(#pfde912bfe7)" style="fill: none; stroke: #cccccc; stroke-linecap: round"/>
     </g>
     <g id="text_7">
      <!-- $\mathdefault{10^{-1}}$ -->
      <g style="fill: #262626" transform="translate(-9.34 21.581401)">
       <text>
        <tspan style="font: 8px 'Arial'" x="0 4.449219" y="-0.39949999999999974">10</tspan>
        <tspan style="font: 5.6px 'Arial'" x="9.037825 12.308137" y="-5.975">−1</tspan>
       </text>
      </g>
     </g>
    </g>
    <g id="ytick_6"/>
    <g id="ytick_7"/>
    <g id="ytick_8"/>
    <g id="ytick_9"/>
    <g id="ytick_10"/>
    <g id="ytick_11"/>
    <g id="ytick_12"/>
    <g id="ytick_13"/>
    <g id="ytick_14"/>
    <g id="ytick_15"/>
    <g id="ytick_16"/>
    <g id="ytick_17"/>
    <g id="ytick_18"/>
    <g id="ytick_19"/>
    <g id="ytick_20"/>
    <g id="ytick_21"/>
    <g id="ytick_22"/>
    <g id="ytick_23"/>
    <g id="ytick_24"/>
    <g id="ytick_25"/>
    <g id="ytick_26"/>
    <g id="ytick_27"/>
    <g id="ytick_28"/>
    <g id="ytick_29"/>
    <g id="ytick_30"/>
    <g id="ytick_31"/>
    <g id="ytick_32"/>
    <g id="ytick_33"/>
    <g id="ytick_34"/>
    <g id="ytick_35"/>
    <g id="ytick_36"/>
    <g id="ytick_37"/>
    <g id="ytick_38"/>
    <g id="ytick_39"/>
    <g id="ytick_40"/>
    <g id="ytick_41"/>
    <g id="ytick_42"/>
    <g id="ytick_43"/>
    <g id="ytick_44"/>
    <g id="ytick_45"/>
    <g id="text_8">
     <text style="fill: #262626; font: 8px 'Arial', 'DejaVu Sans', 'Liberation Sans', 'Bitstream Vera Sans', sans-serif" transform="translate(-23.60225 82.999375) rotate(-90)">Allele frequency</text>
     <text style="fill: #262626; font: 8px 'Arial', 'DejaVu Sans', 'Liberation Sans', 'Bitstream Vera Sans', sans-serif" transform="translate(-14.93 77.4375) rotate(-90)">in DMS input</text>
    </g>
   </g>
   <g id="PathCollection_1">
    <defs>
     <path id="mfa33d99974" d="M 0 3 
C 0.795609 3 1.55874 2.683901 2.12132 2.12132 
C 2.683901 1.55874 3 0.795609 3 0 
C 3 -0.795609 2.683901 -1.55874 2.12132 -2.12132 
C 1.55874 -2.683901 0.795609 -3 0 -3 
C -0.795609 -3 -1.55874 -2.683901 -2.12132 -2.12132 
C -2.683901 -1.55874 -3 -0.795609 -3 0 
C -3 0.795609 -2.683901 1.55874 -2.12132 2.12132 
C -1.55874 2.683901 -0.795609 3 0 3 
z
" style="stroke: #ffffff; stroke-opacity: 0.2; stroke-width: 0.48"/>
    </defs>
    <g clip-path="url(#pfde912bfe7)">
     <use xlink:href="#mfa33d99974" x="61.985146" y="35.436462" style="fill: #87ceeb; fill-opacity: 0.2; stroke: #ffffff; stroke-opacity: 0.2; stroke-width: 0.48"/>
     <use xlink:href="#mfa33d99974" x="79.796408" y="79.705295" style="fill: #87ceeb; fill-opacity: 0.2; stroke: #ffffff; stroke-opacity: 0.2; stroke-width: 0.48"/>
     <use xlink:href="#mfa33d99974" x="58.789917" y="37.603181" style="fill: #87ceeb; fill-opacity: 0.2; stroke: #ffffff; stroke-opacity: 0.2; stroke-width: 0.48"/>
     <use xlink:href="#mfa33d99974" x="43.089727" y="39.945431" style="fill: #87ceeb; fill-opacity: 0.2; stroke: #ffffff; stroke-opacity: 0.2; stroke-width: 0.48"/>
     <use xlink:href="#mfa33d99974" x="47.340447" y="49.505917" style="fill: #87ceeb; fill-opacity: 0.2; stroke: #ffffff; stroke-opacity: 0.2; stroke-width: 0.48"/>
     <use xlink:href="#mfa33d99974" x="54.331127" y="47.484463" style="fill: #87ceeb; fill-opacity: 0.2; stroke: #ffffff; stroke-opacity: 0.2; stroke-width: 0.48"/>
     <use xlink:href="#mfa33d99974" x="67.398195" y="41.39479" style="fill: #87ceeb; fill-opacity: 0.2; stroke: #ffffff; stroke-opacity: 0.2; stroke-width: 0.48"/>
     <use xlink:href="#mfa33d99974" x="52.339276" y="42.216602" style="fill: #87ceeb; fill-opacity: 0.2; stroke: #ffffff; stroke-opacity: 0.2; stroke-width: 0.48"/>
     <use xlink:href="#mfa33d99974" x="60.888984" y="76.823499" style="fill: #87ceeb; fill-opacity: 0.2; stroke: #ffffff; stroke-opacity: 0.2; stroke-width: 0.48"/>
     <use xlink:href="#mfa33d99974" x="65.864146" y="49.586445" style="fill: #87ceeb; fill-opacity: 0.2; stroke: #ffffff; stroke-opacity: 0.2; stroke-width: 0.48"/>
     <use xlink:href="#mfa33d99974" x="57.261583" y="44.951949" style="fill: #87ceeb; fill-opacity: 0.2; stroke: #ffffff; stroke-opacity: 0.2; stroke-width: 0.48"/>
     <use xlink:href="#mfa33d99974" x="74.947289" y="39.030693" style="fill: #87ceeb; fill-opacity: 0.2; stroke: #ffffff; stroke-opacity: 0.2; stroke-width: 0.48"/>
     <use xlink:href="#mfa33d99974" x="40.168789" y="70.157325" style="fill: #87ceeb; fill-opacity: 0.2; stroke: #ffffff; stroke-opacity: 0.2; stroke-width: 0.48"/>
     <use xlink:href="#mfa33d99974" x="61.345116" y="44.781223" style="fill: #87ceeb; fill-opacity: 0.2; stroke: #ffffff; stroke-opacity: 0.2; stroke-width: 0.48"/>
     <use xlink:href="#mfa33d99974" x="47.513825" y="35.175727" style="fill: #87ceeb; fill-opacity: 0.2; stroke: #ffffff; stroke-opacity: 0.2; stroke-width: 0.48"/>
     <use xlink:href="#mfa33d99974" x="59.704301" y="38.18195" style="fill: #87ceeb; fill-opacity: 0.2; stroke: #ffffff; stroke-opacity: 0.2; stroke-width: 0.48"/>
     <use xlink:href="#mfa33d99974" x="63.238506" y="47.482938" style="fill: #87ceeb; fill-opacity: 0.2; stroke: #ffffff; stroke-opacity: 0.2; stroke-width: 0.48"/>
     <use xlink:href="#mfa33d99974" x="59.464504" y="40.072215" style="fill: #87ceeb; fill-opacity: 0.2; stroke: #ffffff; stroke-opacity: 0.2; stroke-width: 0.48"/>
     <use xlink:href="#mfa33d99974" x="71.944931" y="41.758852" style="fill: #87ceeb; fill-opacity: 0.2; stroke: #ffffff; stroke-opacity: 0.2; stroke-width: 0.48"/>
     <use xlink:href="#mfa33d99974" x="59.87444" y="47.533669" style="fill: #87ceeb; fill-opacity: 0.2; stroke: #ffffff; stroke-opacity: 0.2; stroke-width: 0.48"/>
     <use xlink:href="#mfa33d99974" x="53.631588" y="38.633912" style="fill: #87ceeb; fill-opacity: 0.2; stroke: #ffffff; stroke-opacity: 0.2; stroke-width: 0.48"/>
     <use xlink:href="#mfa33d99974" x="30.903592" y="64.617015" style="fill: #87ceeb; fill-opacity: 0.2; stroke: #ffffff; stroke-opacity: 0.2; stroke-width: 0.48"/>
     <use xlink:href="#mfa33d99974" x="65.8976" y="37.748862" style="fill: #87ceeb; fill-opacity: 0.2; stroke: #ffffff; stroke-opacity: 0.2; stroke-width: 0.48"/>
     <use xlink:href="#mfa33d99974" x="51.493993" y="41.569867" style="fill: #87ceeb; fill-opacity: 0.2; stroke: #ffffff; stroke-opacity: 0.2; stroke-width: 0.48"/>
     <use xlink:href="#mfa33d99974" x="73.456868" y="36.7599" style="fill: #87ceeb; fill-opacity: 0.2; stroke: #ffffff; stroke-opacity: 0.2; stroke-width: 0.48"/>
     <use xlink:href="#mfa33d99974" x="48.336575" y="53.631449" style="fill: #87ceeb; fill-opacity: 0.2; stroke: #ffffff; stroke-opacity: 0.2; stroke-width: 0.48"/>
     <use xlink:href="#mfa33d99974" x="52.581477" y="63.243725" style="fill: #87ceeb; fill-opacity: 0.2; stroke: #ffffff; stroke-opacity: 0.2; stroke-width: 0.48"/>
     <use xlink:href="#mfa33d99974" x="41.2862" y="37.723621" style="fill: #87ceeb; fill-opacity: 0.2; stroke: #ffffff; stroke-opacity: 0.2; stroke-width: 0.48"/>
     <use xlink:href="#mfa33d99974" x="68.230353" y="38.834643" style="fill: #87ceeb; fill-opacity: 0.2; stroke: #ffffff; stroke-opacity: 0.2; stroke-width: 0.48"/>
     <use xlink:href="#mfa33d99974" x="55.947446" y="78.030439" style="fill: #87ceeb; fill-opacity: 0.2; stroke: #ffffff; stroke-opacity: 0.2; stroke-width: 0.48"/>
     <use xlink:href="#mfa33d99974" x="78.771583" y="38.798669" style="fill: #87ceeb; fill-opacity: 0.2; stroke: #ffffff; stroke-opacity: 0.2; stroke-width: 0.48"/>
     <use xlink:href="#mfa33d99974" x="48.068108" y="44.367385" style="fill: #87ceeb; fill-opacity: 0.2; stroke: #ffffff; stroke-opacity: 0.2; stroke-width: 0.48"/>
     <use xlink:href="#mfa33d99974" x="61.883638" y="31.683064" style="fill: #87ceeb; fill-opacity: 0.2; stroke: #ffffff; stroke-opacity: 0.2; stroke-width: 0.48"/>
     <use xlink:href="#mfa33d99974" x="75.313927" y="43.858187" style="fill: #87ceeb; fill-opacity: 0.2; stroke: #ffffff; stroke-opacity: 0.2; stroke-width: 0.48"/>
     <use xlink:href="#mfa33d99974" x="32.457117" y="45.007194" style="fill: #87ceeb; fill-opacity: 0.2; stroke: #ffffff; stroke-opacity: 0.2; stroke-width: 0.48"/>
     <use xlink:href="#mfa33d99974" x="64.048376" y="42.161652" style="fill: #87ceeb; fill-opacity: 0.2; stroke: #ffffff; stroke-opacity: 0.2; stroke-width: 0.48"/>
     <use xlink:href="#mfa33d99974" x="58.006459" y="36.987823" style="fill: #87ceeb; fill-opacity: 0.2; stroke: #ffffff; stroke-opacity: 0.2; stroke-width: 0.48"/>
     <use xlink:href="#mfa33d99974" x="60.392595" y="35.59022" style="fill: #87ceeb; fill-opacity: 0.2; stroke: #ffffff; stroke-opacity: 0.2; stroke-width: 0.48"/>
     <use xlink:href="#mfa33d99974" x="73.036247" y="45.62886" style="fill: #87ceeb; fill-opacity: 0.2; stroke: #ffffff; stroke-opacity: 0.2; stroke-width: 0.48"/>
     <use xlink:href="#mfa33d99974" x="54.7192" y="44.396539" style="fill: #87ceeb; fill-opacity: 0.2; stroke: #ffffff; stroke-opacity: 0.2; stroke-width: 0.48"/>
     <use xlink:href="#mfa33d99974" x="61.997811" y="41.842571" style="fill: #87ceeb; fill-opacity: 0.2; stroke: #ffffff; stroke-opacity: 0.2; stroke-width: 0.48"/>
     <use xlink:href="#mfa33d99974" x="69.469831" y="46.345187" style="fill: #87ceeb; fill-opacity: 0.2; stroke: #ffffff; stroke-opacity: 0.2; stroke-width: 0.48"/>
     <use xlink:href="#mfa33d99974" x="70.632367" y="58.287684" style="fill: #87ceeb; fill-opacity: 0.2; stroke: #ffffff; stroke-opacity: 0.2; stroke-width: 0.48"/>
     <use xlink:href="#mfa33d99974" x="71.400598" y="44.071426" style="fill: #87ceeb; fill-opacity: 0.2; stroke: #ffffff; stroke-opacity: 0.2; stroke-width: 0.48"/>
     <use xlink:href="#mfa33d99974" x="60.993844" y="45.756383" style="fill: #87ceeb; fill-opacity: 0.2; stroke: #ffffff; stroke-opacity: 0.2; stroke-width: 0.48"/>
     <use xlink:href="#mfa33d99974" x="53.913328" y="47.559805" style="fill: #87ceeb; fill-opacity: 0.2; stroke: #ffffff; stroke-opacity: 0.2; stroke-width: 0.48"/>
     <use xlink:href="#mfa33d99974" x="68.400262" y="35.878047" style="fill: #87ceeb; fill-opacity: 0.2; stroke: #ffffff; stroke-opacity: 0.2; stroke-width: 0.48"/>
     <use xlink:href="#mfa33d99974" x="34.39196" y="46.508478" style="fill: #87ceeb; fill-opacity: 0.2; stroke: #ffffff; stroke-opacity: 0.2; stroke-width: 0.48"/>
     <use xlink:href="#mfa33d99974" x="67.693874" y="37.704077" style="fill: #87ceeb; fill-opacity: 0.2; stroke: #ffffff; stroke-opacity: 0.2; stroke-width: 0.48"/>
     <use xlink:href="#mfa33d99974" x="51.152835" y="40.034559" style="fill: #87ceeb; fill-opacity: 0.2; stroke: #ffffff; stroke-opacity: 0.2; stroke-width: 0.48"/>
     <use xlink:href="#mfa33d99974" x="56.777257" y="42.213813" style="fill: #87ceeb; fill-opacity: 0.2; stroke: #ffffff; stroke-opacity: 0.2; stroke-width: 0.48"/>
     <use xlink:href="#mfa33d99974" x="64.154755" y="36.119094" style="fill: #87ceeb; fill-opacity: 0.2; stroke: #ffffff; stroke-opacity: 0.2; stroke-width: 0.48"/>
     <use xlink:href="#mfa33d99974" x="65.82507" y="59.992688" style="fill: #87ceeb; fill-opacity: 0.2; stroke: #ffffff; stroke-opacity: 0.2; stroke-width: 0.48"/>
     <use xlink:href="#mfa33d99974" x="61.769037" y="36.584854" style="fill: #87ceeb; fill-opacity: 0.2; stroke: #ffffff; stroke-opacity: 0.2; stroke-width: 0.48"/>
     <use xlink:href="#mfa33d99974" x="72.3266" y="47.320862" style="fill: #87ceeb; fill-opacity: 0.2; stroke: #ffffff; stroke-opacity: 0.2; stroke-width: 0.48"/>
     <use xlink:href="#mfa33d99974" x="79.693684" y="29.374705" style="fill: #87ceeb; fill-opacity: 0.2; stroke: #ffffff; stroke-opacity: 0.2; stroke-width: 0.48"/>
     <use xlink:href="#mfa33d99974" x="47.001056" y="33.58348" style="fill: #87ceeb; fill-opacity: 0.2; stroke: #ffffff; stroke-opacity: 0.2; stroke-width: 0.48"/>
     <use xlink:href="#mfa33d99974" x="70.180397" y="40.126596" style="fill: #87ceeb; fill-opacity: 0.2; stroke: #ffffff; stroke-opacity: 0.2; stroke-width: 0.48"/>
     <use xlink:href="#mfa33d99974" x="55.441662" y="43.679472" style="fill: #87ceeb; fill-opacity: 0.2; stroke: #ffffff; stroke-opacity: 0.2; stroke-width: 0.48"/>
     <use xlink:href="#mfa33d99974" x="76.730195" y="32.858751" style="fill: #87ceeb; fill-opacity: 0.2; stroke: #ffffff; stroke-opacity: 0.2; stroke-width: 0.48"/>
     <use xlink:href="#mfa33d99974" x="47.042395" y="51.778646" style="fill: #87ceeb; fill-opacity: 0.2; stroke: #ffffff; stroke-opacity: 0.2; stroke-width: 0.48"/>
     <use xlink:href="#mfa33d99974" x="45.212272" y="34.782308" style="fill: #87ceeb; fill-opacity: 0.2; stroke: #ffffff; stroke-opacity: 0.2; stroke-width: 0.48"/>
     <use xlink:href="#mfa33d99974" x="52.658921" y="34.76224" style="fill: #87ceeb; fill-opacity: 0.2; stroke: #ffffff; stroke-opacity: 0.2; stroke-width: 0.48"/>
    </g>
   </g>
   <g id="PathCollection_2">
    <defs>
     <path id="ma188d86fab" d="M 0 3 
C 0.795609 3 1.55874 2.683901 2.12132 2.12132 
C 2.683901 1.55874 3 0.795609 3 0 
C 3 -0.795609 2.683901 -1.55874 2.12132 -2.12132 
C 1.55874 -2.683901 0.795609 -3 0 -3 
C -0.795609 -3 -1.55874 -2.683901 -2.12132 -2.12132 
C -2.683901 -1.55874 -3 -0.795609 -3 0 
C -3 0.795609 -2.683901 1.55874 -2.12132 2.12132 
C -1.55874 2.683901 -0.795609 3 0 3 
z
" style="stroke: #ffffff; stroke-width: 0.48"/>
    </defs>
    <g clip-path="url(#pfde912bfe7)">
     <use xlink:href="#ma188d86fab" x="59.670159" y="39.84537" style="stroke: #ffffff; stroke-width: 0.48"/>
    </g>
   </g>
   <g id="QuadContourSet_1">
    <path d="M 55.560302 84.876116 
L 55.980905 84.927258 
L 56.401508 84.959302 
L 56.822111 84.972931 
L 57.242714 84.968724 
L 57.663317 84.947156 
L 58.08392 84.908596 
L 58.504523 84.853314 
L 58.601066 84.836985 
L 58.925126 84.780901 
L 59.345729 84.691868 
L 59.766332 84.586465 
L 60.186935 84.464669 
L 60.327804 84.419095 
L 60.607538 84.325058 
L 61.028141 84.168278 
L 61.433924 84.001206 
L 61.448744 83.99479 
L 61.869347 83.800965 
L 62.28995 83.590539 
L 62.303811 83.583317 
L 62.710553 83.357522 
L 63.037097 83.165427 
L 63.131156 83.105856 
L 63.551759 82.830995 
L 63.676306 82.747538 
L 63.972362 82.531399 
L 64.243357 82.329648 
L 64.392965 82.206927 
L 64.750806 81.911759 
L 64.813568 81.854038 
L 65.208477 81.493869 
L 65.234171 81.467412 
L 65.622868 81.07598 
L 65.654774 81.039209 
L 65.997722 80.65809 
L 66.075377 80.557856 
L 66.334299 80.240201 
L 66.49598 80.005968 
L 66.631352 79.822312 
L 66.888112 79.404422 
L 66.916583 79.348317 
L 67.116207 78.986533 
L 67.299677 78.568643 
L 67.337186 78.459573 
L 67.45475 78.150754 
L 67.573428 77.732864 
L 67.656494 77.314975 
L 67.708177 76.897085 
L 67.73176 76.479196 
L 67.729821 76.061307 
L 67.70443 75.643417 
L 67.657327 75.225528 
L 67.590091 74.807638 
L 67.50431 74.389749 
L 67.401779 73.971859 
L 67.337186 73.735347 
L 67.288059 73.55397 
L 67.166884 73.13608 
L 67.037299 72.718191 
L 66.916583 72.337362 
L 66.904453 72.300302 
L 66.778442 71.882412 
L 66.661282 71.464523 
L 66.56292 71.046633 
L 66.49598 70.628744 
L 66.49598 70.628744 
L 66.476246 70.210854 
L 66.49598 70.019562 
L 66.521974 69.792965 
L 66.655596 69.375075 
L 66.901734 68.957186 
L 66.916583 68.93951 
L 67.279284 68.539296 
L 67.337186 68.490089 
L 67.757789 68.150284 
L 67.795054 68.121407 
L 68.178392 67.866584 
L 68.430257 67.703518 
L 68.598995 67.605311 
L 69.019598 67.360329 
L 69.147058 67.285628 
L 69.440201 67.12424 
L 69.860804 66.888027 
L 69.896216 66.867739 
L 70.281407 66.653804 
L 70.635953 66.449849 
L 70.70201 66.412305 
L 71.122613 66.165513 
L 71.341635 66.03196 
L 71.543216 65.907979 
L 71.963819 65.638337 
L 72.000651 65.61407 
L 72.384422 65.354676 
L 72.609791 65.196181 
L 72.805025 65.053642 
L 73.168997 64.778291 
L 73.225628 64.733335 
L 73.646231 64.390616 
L 73.68259 64.360402 
L 74.066834 64.021621 
L 74.154947 63.942513 
L 74.487437 63.62318 
L 74.589006 63.524623 
L 74.90804 63.191074 
L 74.988546 63.106734 
L 75.328643 62.720522 
L 75.356716 62.688844 
L 75.69869 62.270955 
L 75.749246 62.203602 
L 76.017164 61.853065 
L 76.169849 61.63418 
L 76.312347 61.435176 
L 76.585515 61.017286 
L 76.590452 61.009125 
L 76.847541 60.599397 
L 77.011055 60.3149 
L 77.091143 60.181508 
L 77.324389 59.763618 
L 77.431658 59.557631 
L 77.547845 59.345729 
L 77.763562 58.927839 
L 77.852261 58.747432 
L 77.975909 58.50995 
L 78.18481 58.09206 
L 78.272864 57.911102 
L 78.395359 57.674171 
L 78.607054 57.256281 
L 78.693467 57.084395 
L 78.824979 56.838392 
L 79.047008 56.420503 
L 79.11407 56.295092 
L 79.280152 56.002613 
L 79.516631 55.584724 
L 79.534673 55.553339 
L 79.769922 55.166834 
L 79.955276 54.860506 
L 80.026764 54.748945 
L 80.294897 54.331055 
L 80.375879 54.204549 
L 80.572701 53.913166 
L 80.796482 53.57571 
L 80.852788 53.495276 
L 81.141707 53.077387 
L 81.217085 52.966121 
L 81.435913 52.659497 
L 81.637688 52.366301 
L 81.728222 52.241608 
L 82.020792 51.823719 
L 82.058291 51.768378 
L 82.31765 51.405829 
L 82.478894 51.167677 
L 82.607744 50.98794 
L 82.890022 50.57005 
L 82.899497 50.555407 
L 83.176716 50.152161 
L 83.320101 49.928011 
L 83.452304 49.734271 
L 83.717506 49.316382 
L 83.740704 49.277662 
L 83.984352 48.898492 
L 84.161307 48.598328 
L 84.236101 48.480603 
L 84.483416 48.062714 
L 84.58191 47.882301 
L 84.722552 47.644824 
L 84.949407 47.226935 
L 85.002513 47.121341 
L 85.174085 46.809045 
L 85.382734 46.391156 
L 85.423116 46.303714 
L 85.591014 45.973266 
L 85.783618 45.555377 
L 85.843719 45.413437 
L 85.973195 45.137487 
L 86.151657 44.719598 
L 86.264322 44.429423 
L 86.319659 44.301709 
L 86.485559 43.883819 
L 86.635398 43.46593 
L 86.684925 43.314418 
L 86.782956 43.04804 
L 86.922424 42.630151 
L 87.048366 42.212261 
L 87.105528 42.002752 
L 87.170077 41.794372 
L 87.286966 41.376482 
L 87.39218 40.958593 
L 87.486821 40.540704 
L 87.526131 40.346771 
L 87.578164 40.122814 
L 87.664717 39.704925 
L 87.741869 39.287035 
L 87.81041 38.869146 
L 87.871039 38.451256 
L 87.924367 38.033367 
L 87.946734 37.830366 
L 87.97416 37.615477 
L 88.019685 37.197588 
L 88.058407 36.779698 
L 88.090742 36.361809 
L 88.117027 35.94392 
L 88.137523 35.52603 
L 88.15241 35.108141 
L 88.161786 34.690251 
L 88.165656 34.272362 
L 88.163932 33.854472 
L 88.156421 33.436583 
L 88.14282 33.018693 
L 88.122703 32.600804 
L 88.095517 32.182915 
L 88.060564 31.765025 
L 88.016992 31.347136 
L 87.963776 30.929246 
L 87.946734 30.813275 
L 87.904033 30.511357 
L 87.834501 30.093467 
L 87.751989 29.675578 
L 87.654633 29.257688 
L 87.540248 28.839799 
L 87.526131 28.792669 
L 87.415593 28.42191 
L 87.270724 28.00402 
L 87.105528 27.596146 
L 87.101409 27.586131 
L 86.916109 27.168241 
L 86.698656 26.750352 
L 86.684925 26.725625 
L 86.456862 26.332462 
L 86.264322 26.039645 
L 86.177005 25.914573 
L 85.856426 25.496683 
L 85.843719 25.481012 
L 85.488691 25.078794 
L 85.423116 25.009221 
L 85.058988 24.660905 
L 85.002513 24.60921 
L 84.58191 24.266193 
L 84.54988 24.243015 
L 84.161307 23.965723 
L 83.930314 23.825126 
L 83.740704 23.709149 
L 83.320101 23.488076 
L 83.139709 23.407236 
L 82.899497 23.296121 
L 82.478894 23.131968 
L 82.058291 22.998849 
L 82.022863 22.989347 
L 81.637688 22.879087 
L 81.217085 22.783115 
L 80.796482 22.708763 
L 80.375879 22.653289 
L 79.955276 22.614463 
L 79.534673 22.590443 
L 79.11407 22.579677 
L 78.693467 22.580832 
L 78.272864 22.592728 
L 77.852261 22.614285 
L 77.431658 22.644474 
L 77.011055 22.682274 
L 76.590452 22.726637 
L 76.169849 22.776452 
L 75.749246 22.83052 
L 75.328643 22.887535 
L 74.90804 22.94608 
L 74.597159 22.989347 
L 74.487437 23.002252 
L 74.066834 23.050136 
L 73.646231 23.095005 
L 73.225628 23.135559 
L 72.805025 23.170605 
L 72.384422 23.199124 
L 71.963819 23.220323 
L 71.543216 23.233697 
L 71.122613 23.239055 
L 70.70201 23.236532 
L 70.281407 23.226578 
L 69.860804 23.209916 
L 69.440201 23.187491 
L 69.019598 23.160403 
L 68.598995 23.129837 
L 68.178392 23.097002 
L 67.757789 23.063077 
L 67.337186 23.029162 
L 66.916583 22.996258 
L 66.824597 22.989347 
L 66.49598 22.96009 
L 66.075377 22.92567 
L 65.654774 22.895237 
L 65.234171 22.869409 
L 64.813568 22.848678 
L 64.392965 22.833428 
L 63.972362 22.82395 
L 63.551759 22.82046 
L 63.131156 22.82311 
L 62.710553 22.832001 
L 62.28995 22.847182 
L 61.869347 22.868661 
L 61.448744 22.896403 
L 61.028141 22.930325 
L 60.607538 22.970289 
L 60.431472 22.989347 
L 60.186935 23.011277 
L 59.766332 23.053333 
L 59.345729 23.099569 
L 58.925126 23.149599 
L 58.504523 23.202958 
L 58.08392 23.259096 
L 57.663317 23.317382 
L 57.242714 23.377108 
L 57.031017 23.407236 
L 56.822111 23.432133 
L 56.401508 23.481645 
L 55.980905 23.53032 
L 55.560302 23.577538 
L 55.139698 23.622747 
L 54.719095 23.665499 
L 54.298492 23.70548 
L 53.877889 23.74254 
L 53.457286 23.776713 
L 53.036683 23.808223 
L 52.793036 23.825126 
L 52.61608 23.835374 
L 52.195477 23.858267 
L 51.774874 23.880396 
L 51.354271 23.902481 
L 50.933668 23.925325 
L 50.513065 23.949795 
L 50.092462 23.976808 
L 49.671859 24.007318 
L 49.251256 24.042314 
L 48.830653 24.08282 
L 48.41005 24.12991 
L 47.989447 24.184722 
L 47.604345 24.243015 
L 47.568844 24.247587 
L 47.148241 24.30944 
L 46.727638 24.38097 
L 46.307035 24.463526 
L 45.886432 24.558665 
L 45.492991 24.660905 
L 45.465829 24.667037 
L 45.045226 24.772682 
L 44.624623 24.893838 
L 44.20402 25.032921 
L 44.078974 25.078794 
L 43.783417 25.174786 
L 43.362814 25.329242 
L 42.965092 25.496683 
L 42.942211 25.505328 
L 42.521608 25.678326 
L 42.101005 25.877675 
L 42.029574 25.914573 
L 41.680402 26.078937 
L 41.259799 26.305295 
L 41.213138 26.332462 
L 40.839196 26.533361 
L 40.484075 26.750352 
L 40.418593 26.78763 
L 39.99799 27.047656 
L 39.82189 27.168241 
L 39.577387 27.326041 
L 39.215289 27.586131 
L 39.156784 27.626086 
L 38.736181 27.936852 
L 38.652341 28.00402 
L 38.315578 28.26326 
L 38.126542 28.42191 
L 37.894975 28.610102 
L 37.633694 28.839799 
L 37.474372 28.976406 
L 37.168766 29.257688 
L 37.053769 29.361602 
L 36.727642 29.675578 
L 36.633166 29.7654 
L 36.306914 30.093467 
L 36.212563 30.187635 
L 35.903723 30.511357 
L 35.79196 30.62811 
L 35.515615 30.929246 
L 35.371357 31.086397 
L 35.140425 31.347136 
L 34.950754 31.561623 
L 34.776163 31.765025 
L 34.530151 32.052256 
L 34.420924 32.182915 
L 34.109548 32.555926 
L 34.072802 32.600804 
L 33.726796 33.018693 
L 33.688945 33.063919 
L 33.380798 33.436583 
L 33.268342 33.571882 
L 33.035557 33.854472 
L 32.847739 34.080296 
L 32.689082 34.272362 
L 32.427136 34.584938 
L 32.339387 34.690251 
L 32.006533 35.082187 
L 31.984621 35.108141 
L 31.620678 35.52603 
L 31.58593 35.564803 
L 31.248383 35.94392 
L 31.165327 36.034759 
L 30.869118 36.361809 
L 30.744724 36.495419 
L 30.483568 36.779698 
L 30.324121 36.948649 
L 30.093359 37.197588 
L 29.903518 37.397414 
L 29.70102 37.615477 
L 29.482915 37.845599 
L 29.309794 38.033367 
L 29.062312 38.297906 
L 28.923353 38.451256 
L 28.641709 38.759892 
L 28.545476 38.869146 
L 28.221106 39.23819 
L 28.179765 39.287035 
L 27.828251 39.704925 
L 27.800503 39.738255 
L 27.492458 40.122814 
L 27.379899 40.268002 
L 27.176322 40.540704 
L 26.959296 40.845659 
L 26.881743 40.958593 
L 26.607462 41.376482 
L 26.538693 41.487139 
L 26.35345 41.794372 
L 26.124302 42.212261 
L 26.11809 42.224248 
L 25.912474 42.630151 
L 25.726307 43.04804 
L 25.697487 43.118932 
L 25.558301 43.46593 
L 25.413309 43.883819 
L 25.291374 44.301709 
L 25.276884 44.360007 
L 25.187444 44.719598 
L 25.105342 45.137487 
L 25.045157 45.555377 
L 25.006546 45.973266 
L 24.989434 46.391156 
L 24.994005 46.809045 
L 25.020698 47.226935 
L 25.070199 47.644824 
L 25.143436 48.062714 
L 25.241563 48.480603 
L 25.276884 48.599481 
L 25.363026 48.898492 
L 25.510464 49.316382 
L 25.686732 49.734271 
L 25.697487 49.756344 
L 25.889094 50.152161 
L 26.11809 50.561427 
L 26.122946 50.57005 
L 26.386472 50.98794 
L 26.538693 51.204655 
L 26.683305 51.405829 
L 26.959296 51.756748 
L 27.013836 51.823719 
L 27.378976 52.241608 
L 27.379899 52.242617 
L 27.780139 52.659497 
L 27.800503 52.680072 
L 28.216506 53.077387 
L 28.221106 53.081749 
L 28.641709 53.457076 
L 28.687709 53.495276 
L 29.062312 53.813299 
L 29.189492 53.913166 
L 29.482915 54.15575 
L 29.713105 54.331055 
L 29.903518 54.489068 
L 30.244351 54.748945 
L 30.324121 54.818067 
L 30.744724 55.152675 
L 30.764108 55.166834 
L 31.165327 55.518604 
L 31.24766 55.584724 
L 31.58593 55.936429 
L 31.655402 56.002613 
L 31.952821 56.420503 
L 32.006533 56.577449 
L 32.105368 56.838392 
L 32.077822 57.256281 
L 32.006533 57.383256 
L 31.851453 57.674171 
L 31.58593 57.93065 
L 31.433034 58.09206 
L 31.165327 58.28445 
L 30.886728 58.50995 
L 30.744724 58.598498 
L 30.324121 58.899903 
L 30.290086 58.927839 
L 29.903518 59.193369 
L 29.711661 59.345729 
L 29.482915 59.505637 
L 29.16403 59.763618 
L 29.062312 59.839001 
L 28.661582 60.181508 
L 28.641709 60.197604 
L 28.221106 60.587323 
L 28.209585 60.599397 
L 27.804484 61.017286 
L 27.800503 61.021415 
L 27.445572 61.435176 
L 27.379899 61.51462 
L 27.128284 61.853065 
L 26.959296 62.096795 
L 26.849447 62.270955 
L 26.609043 62.688844 
L 26.538693 62.826017 
L 26.405815 63.106734 
L 26.237478 63.524623 
L 26.11809 63.891535 
L 26.10254 63.942513 
L 26.002948 64.360402 
L 25.936271 64.778291 
L 25.902896 65.196181 
L 25.903402 65.61407 
L 25.938591 66.03196 
L 26.009508 66.449849 
L 26.117453 66.867739 
L 26.11809 66.869544 
L 26.267324 67.285628 
L 26.458217 67.703518 
L 26.538693 67.847284 
L 26.69637 68.121407 
L 26.959296 68.505793 
L 26.983007 68.539296 
L 27.3263 68.957186 
L 27.379899 69.014575 
L 27.729488 69.375075 
L 27.800503 69.440702 
L 28.19609 69.792965 
L 28.221106 69.813273 
L 28.641709 70.143289 
L 28.730479 70.210854 
L 29.062312 70.445276 
L 29.32747 70.628744 
L 29.482915 70.729935 
L 29.903518 71.000486 
L 29.975782 71.046633 
L 30.324121 71.258664 
L 30.658918 71.464523 
L 30.744724 71.515238 
L 31.165327 71.766257 
L 31.355773 71.882412 
L 31.58593 72.018062 
L 32.006533 72.27281 
L 32.051039 72.300302 
L 32.427136 72.524781 
L 32.741759 72.718191 
L 32.847739 72.781103 
L 33.268342 73.03421 
L 33.435467 73.13608 
L 33.688945 73.284243 
L 34.109548 73.530803 
L 34.149599 73.55397 
L 34.530151 73.763289 
L 34.917701 73.971859 
L 34.950754 73.988745 
L 35.371357 74.193612 
L 35.79196 74.387149 
L 35.798077 74.389749 
L 36.212563 74.55556 
L 36.633166 74.707506 
L 36.947875 74.807638 
L 37.053769 74.839422 
L 37.474372 74.946806 
L 37.894975 75.034514 
L 38.315578 75.102031 
L 38.736181 75.14915 
L 39.156784 75.175966 
L 39.577387 75.182858 
L 39.99799 75.170471 
L 40.418593 75.139689 
L 40.839196 75.091612 
L 41.259799 75.027526 
L 41.680402 74.94889 
L 42.101005 74.857314 
L 42.307497 74.807638 
L 42.521608 74.751531 
L 42.942211 74.633587 
L 43.362814 74.508756 
L 43.751414 74.389749 
L 43.783417 74.378925 
L 44.20402 74.241033 
L 44.624623 74.105748 
L 45.045226 73.976774 
L 45.063933 73.971859 
L 45.465829 73.853323 
L 45.886432 73.748218 
L 46.307035 73.669342 
L 46.727638 73.627731 
L 47.148241 73.640915 
L 47.568844 73.739825 
L 47.968909 73.971859 
L 47.989447 73.986898 
L 48.308854 74.389749 
L 48.41005 74.573824 
L 48.498878 74.807638 
L 48.617096 75.225528 
L 48.703146 75.643417 
L 48.77081 76.061307 
L 48.82931 76.479196 
L 48.830653 76.488364 
L 48.880757 76.897085 
L 48.934794 77.314975 
L 48.995032 77.732864 
L 49.064494 78.150754 
L 49.145948 78.568643 
L 49.242071 78.986533 
L 49.251256 79.019349 
L 49.350935 79.404422 
L 49.479421 79.822312 
L 49.631009 80.240201 
L 49.671859 80.335462 
L 49.80524 80.65809 
L 50.008543 81.07598 
L 50.092462 81.224041 
L 50.244156 81.493869 
L 50.513065 81.903811 
L 50.518335 81.911759 
L 50.83761 82.329648 
L 50.933668 82.439622 
L 51.212951 82.747538 
L 51.354271 82.885222 
L 51.658658 83.165427 
L 51.774874 83.261171 
L 52.195477 83.582267 
L 52.196966 83.583317 
L 52.61608 83.851843 
L 52.876688 84.001206 
L 53.036683 84.08581 
L 53.457286 84.284069 
L 53.787521 84.419095 
L 53.877889 84.453818 
L 54.298492 84.593894 
L 54.719095 84.710372 
L 55.139698 84.804373 
L 55.32724 84.836985 
L 55.560302 84.876116 
z
M 77.852261 84.034921 
L 78.272864 84.124888 
L 78.693467 84.17849 
L 79.11407 84.196544 
L 79.534673 84.179964 
L 79.955276 84.129694 
L 80.375879 84.046653 
L 80.542727 84.001206 
L 80.796482 83.925016 
L 81.217085 83.765513 
L 81.616734 83.583317 
L 81.637688 83.572621 
L 82.058291 83.325865 
L 82.3016 83.165427 
L 82.478894 83.032636 
L 82.826765 82.747538 
L 82.899497 82.678751 
L 83.244798 82.329648 
L 83.320101 82.240324 
L 83.584603 81.911759 
L 83.740704 81.680265 
L 83.862984 81.493869 
L 84.087756 81.07598 
L 84.161307 80.902836 
L 84.26474 80.65809 
L 84.39741 80.240201 
L 84.488657 79.822312 
L 84.538927 79.404422 
L 84.547712 78.986533 
L 84.513525 78.568643 
L 84.433833 78.150754 
L 84.30494 77.732864 
L 84.161307 77.400285 
L 84.120246 77.314975 
L 83.865902 76.897085 
L 83.740704 76.729031 
L 83.524941 76.479196 
L 83.320101 76.275536 
L 83.061413 76.061307 
L 82.899497 75.94068 
L 82.478894 75.687557 
L 82.386139 75.643417 
L 82.058291 75.495866 
L 81.637688 75.355262 
L 81.217085 75.258708 
L 80.977892 75.225528 
L 80.796482 75.200452 
L 80.375879 75.177592 
L 79.955276 75.188805 
L 79.60594 75.225528 
L 79.534673 75.232744 
L 79.11407 75.307077 
L 78.693467 75.413486 
L 78.272864 75.553449 
L 78.055043 75.643417 
L 77.852261 75.727278 
L 77.431658 75.936842 
L 77.219429 76.061307 
L 77.011055 76.187285 
L 76.596268 76.479196 
L 76.590452 76.483524 
L 76.169849 76.836341 
L 76.104998 76.897085 
L 75.749246 77.264171 
L 75.704331 77.314975 
L 75.378847 77.732864 
L 75.328643 77.80873 
L 75.117863 78.150754 
L 74.915778 78.568643 
L 74.90804 78.589463 
L 74.767825 78.986533 
L 74.671928 79.404422 
L 74.6254 79.822312 
L 74.626637 80.240201 
L 74.675046 80.65809 
L 74.770983 81.07598 
L 74.90804 81.471331 
L 74.915898 81.493869 
L 75.116976 81.911759 
L 75.328643 82.254331 
L 75.377384 82.329648 
L 75.714288 82.747538 
L 75.749246 82.783559 
L 76.15367 83.165427 
L 76.169849 83.17839 
L 76.590452 83.478177 
L 76.762627 83.583317 
L 77.011055 83.714806 
L 77.431658 83.897544 
L 77.739531 84.001206 
L 77.852261 84.034921 
z
" clip-path="url(#pfde912bfe7)" style="fill: none; stroke: #87ceeb; stroke-width: 1.5"/>
    <path d="M 48.41005 55.185093 
L 48.830653 55.269472 
L 49.251256 55.333835 
L 49.671859 55.379866 
L 50.092462 55.409282 
L 50.513065 55.423809 
L 50.933668 55.425159 
L 51.354271 55.415016 
L 51.774874 55.39502 
L 52.195477 55.366754 
L 52.61608 55.331729 
L 53.036683 55.291383 
L 53.457286 55.247065 
L 53.877889 55.200034 
L 54.16533 55.166834 
L 54.298492 55.151791 
L 54.719095 55.103932 
L 55.139698 55.056722 
L 55.560302 55.010978 
L 55.980905 54.967417 
L 56.401508 54.92666 
L 56.822111 54.889243 
L 57.242714 54.855615 
L 57.663317 54.826145 
L 58.08392 54.801127 
L 58.504523 54.780783 
L 58.925126 54.765264 
L 59.345729 54.754649 
L 59.766332 54.748945 
L 59.766332 54.748945 
L 60.186935 54.748108 
L 60.28366 54.748945 
L 60.607538 54.751902 
L 61.028141 54.760164 
L 61.448744 54.772518 
L 61.869347 54.788499 
L 62.28995 54.807514 
L 62.710553 54.828826 
L 63.131156 54.851541 
L 63.551759 54.874596 
L 63.972362 54.896755 
L 64.392965 54.916606 
L 64.813568 54.932573 
L 65.234171 54.942927 
L 65.654774 54.945822 
L 66.075377 54.939332 
L 66.49598 54.921502 
L 66.916583 54.890409 
L 67.337186 54.84422 
L 67.757789 54.78126 
L 67.927492 54.748945 
L 68.178392 54.701912 
L 68.598995 54.605045 
L 69.019598 54.488507 
L 69.440201 54.351644 
L 69.496078 54.331055 
L 69.860804 54.198848 
L 70.281407 54.026576 
L 70.531145 53.913166 
L 70.70201 53.836628 
L 71.122613 53.630858 
L 71.377992 53.495276 
L 71.543216 53.408391 
L 71.963819 53.171313 
L 72.120564 53.077387 
L 72.384422 52.919912 
L 72.795471 52.659497 
L 72.805025 52.653434 
L 73.225628 52.374953 
L 73.418023 52.241608 
L 73.646231 52.082015 
L 74.001016 51.823719 
L 74.066834 51.77504 
L 74.487437 51.454202 
L 74.549237 51.405829 
L 74.90804 51.118264 
L 75.066724 50.98794 
L 75.328643 50.766139 
L 75.555787 50.57005 
L 75.749246 50.396639 
L 76.018215 50.152161 
L 76.169849 50.008065 
L 76.455532 49.734271 
L 76.590452 49.598183 
L 76.869036 49.316382 
L 77.011055 49.16422 
L 77.259799 48.898492 
L 77.431658 48.702861 
L 77.62865 48.480603 
L 77.852261 48.210269 
L 77.976153 48.062714 
L 78.272864 47.682131 
L 78.302571 47.644824 
L 78.611892 47.226935 
L 78.693467 47.107305 
L 78.902992 46.809045 
L 79.11407 46.481081 
L 79.174073 46.391156 
L 79.430201 45.973266 
L 79.534673 45.786376 
L 79.669734 45.555377 
L 79.892022 45.137487 
L 79.955276 45.006508 
L 80.101472 44.719598 
L 80.294094 44.301709 
L 80.375879 44.104925 
L 80.473669 43.883819 
L 80.639793 43.46593 
L 80.788896 43.04804 
L 80.796482 43.024018 
L 80.930256 42.630151 
L 81.056312 42.212261 
L 81.167678 41.794372 
L 81.217085 41.580692 
L 81.268365 41.376482 
L 81.358183 40.958593 
L 81.434606 40.540704 
L 81.498205 40.122814 
L 81.549415 39.704925 
L 81.588545 39.287035 
L 81.61578 38.869146 
L 81.63118 38.451256 
L 81.634681 38.033367 
L 81.626084 37.615477 
L 81.605042 37.197588 
L 81.571049 36.779698 
L 81.523411 36.361809 
L 81.46122 35.94392 
L 81.38332 35.52603 
L 81.288258 35.108141 
L 81.217085 34.840491 
L 81.175692 34.690251 
L 81.04465 34.272362 
L 80.889669 33.854472 
L 80.796482 33.632321 
L 80.709156 33.436583 
L 80.498606 33.018693 
L 80.375879 32.802458 
L 80.251384 32.600804 
L 79.959282 32.182915 
L 79.955276 32.177566 
L 79.610449 31.765025 
L 79.534673 31.682196 
L 79.185974 31.347136 
L 79.11407 31.28258 
L 78.693467 30.954627 
L 78.656081 30.929246 
L 78.272864 30.678666 
L 77.965827 30.511357 
L 77.852261 30.450715 
L 77.431658 30.255067 
L 77.011055 30.093955 
L 77.009627 30.093467 
L 76.590452 29.948946 
L 76.169849 29.826872 
L 75.749246 29.722973 
L 75.532727 29.675578 
L 75.328643 29.629269 
L 74.90804 29.54296 
L 74.487437 29.465775 
L 74.066834 29.395419 
L 73.646231 29.330014 
L 73.225628 29.268036 
L 73.15528 29.257688 
L 72.805025 29.202646 
L 72.384422 29.137418 
L 71.963819 29.072791 
L 71.543216 29.008282 
L 71.122613 28.943631 
L 70.70201 28.878768 
L 70.453316 28.839799 
L 70.281407 28.810515 
L 69.860804 28.737508 
L 69.440201 28.665067 
L 69.019598 28.593693 
L 68.598995 28.52394 
L 68.178392 28.456393 
L 67.957588 28.42191 
L 67.757789 28.387598 
L 67.337186 28.318077 
L 66.916583 28.253065 
L 66.49598 28.193113 
L 66.075377 28.138711 
L 65.654774 28.090283 
L 65.234171 28.048193 
L 64.813568 28.012737 
L 64.686876 28.00402 
L 64.392965 27.981375 
L 63.972362 27.956853 
L 63.551759 27.940545 
L 63.131156 27.93256 
L 62.710553 27.93297 
L 62.28995 27.941814 
L 61.869347 27.959106 
L 61.448744 27.984826 
L 61.21187 28.00402 
L 61.028141 28.017068 
L 60.607538 28.054144 
L 60.186935 28.098315 
L 59.766332 28.149421 
L 59.345729 28.207254 
L 58.925126 28.271557 
L 58.504523 28.342017 
L 58.08392 28.418253 
L 58.06475 28.42191 
L 57.663317 28.490227 
L 57.242714 28.565827 
L 56.822111 28.644974 
L 56.401508 28.72709 
L 55.980905 28.811553 
L 55.841071 28.839799 
L 55.560302 28.890867 
L 55.139698 28.967698 
L 54.719095 29.044835 
L 54.298492 29.121787 
L 53.877889 29.198143 
L 53.544565 29.257688 
L 53.457286 29.271834 
L 53.036683 29.337999 
L 52.61608 29.403273 
L 52.195477 29.467848 
L 51.774874 29.532096 
L 51.354271 29.596582 
L 50.933668 29.662063 
L 50.848172 29.675578 
L 50.513065 29.724134 
L 50.092462 29.787725 
L 49.671859 29.855376 
L 49.251256 29.928429 
L 48.830653 30.008376 
L 48.425896 30.093467 
L 48.41005 30.096567 
L 47.989447 30.186722 
L 47.568844 30.288189 
L 47.148241 30.402948 
L 46.796637 30.511357 
L 46.727638 30.531473 
L 46.307035 30.667908 
L 45.886432 30.823385 
L 45.632042 30.929246 
L 45.465829 30.995663 
L 45.045226 31.183642 
L 44.72212 31.347136 
L 44.624623 31.395145 
L 44.20402 31.624796 
L 43.974813 31.765025 
L 43.783417 31.880514 
L 43.362814 32.163985 
L 43.33708 32.182915 
L 42.942211 32.473271 
L 42.785158 32.600804 
L 42.521608 32.817056 
L 42.297062 33.018693 
L 42.101005 33.198509 
L 41.861668 33.436583 
L 41.680402 33.622719 
L 41.470447 33.854472 
L 41.259799 34.097056 
L 41.116934 34.272362 
L 40.839196 34.631652 
L 40.796314 34.690251 
L 40.505021 35.108141 
L 40.418593 35.240402 
L 40.239606 35.52603 
L 39.998166 35.94392 
L 39.99799 35.944244 
L 39.77781 36.361809 
L 39.578344 36.779698 
L 39.577387 36.781866 
L 39.396673 37.197588 
L 39.233698 37.615477 
L 39.156784 37.835266 
L 39.087672 38.033367 
L 38.958076 38.451256 
L 38.845805 38.869146 
L 38.750964 39.287035 
L 38.736181 39.367153 
L 38.672588 39.704925 
L 38.612679 40.122814 
L 38.572729 40.540704 
L 38.554333 40.958593 
L 38.559486 41.376482 
L 38.590563 41.794372 
L 38.650245 42.212261 
L 38.736181 42.606563 
L 38.741177 42.630151 
L 38.860486 43.04804 
L 39.01346 43.46593 
L 39.156784 43.785444 
L 39.198551 43.883819 
L 39.406247 44.301709 
L 39.577387 44.603087 
L 39.638569 44.719598 
L 39.881932 45.137487 
L 39.99799 45.320451 
L 40.133231 45.555377 
L 40.388852 45.973266 
L 40.418593 46.019118 
L 40.635422 46.391156 
L 40.839196 46.72989 
L 40.882017 46.809045 
L 41.116627 47.226935 
L 41.259799 47.476377 
L 41.347218 47.644824 
L 41.570074 48.062714 
L 41.680402 48.264466 
L 41.788582 48.480603 
L 42.004155 48.898492 
L 42.101005 49.079759 
L 42.218684 49.316382 
L 42.435497 49.734271 
L 42.521608 49.892162 
L 42.656243 50.152161 
L 42.8856 50.57005 
L 42.942211 50.666621 
L 43.124986 50.98794 
L 43.362814 51.376121 
L 43.38077 51.405829 
L 43.65541 51.823719 
L 43.783417 52.002498 
L 43.956342 52.241608 
L 44.20402 52.553965 
L 44.290047 52.659497 
L 44.624623 53.033009 
L 44.666242 53.077387 
L 45.045226 53.445657 
L 45.099708 53.495276 
L 45.465829 53.800544 
L 45.612811 53.913166 
L 45.886432 54.106484 
L 46.239531 54.331055 
L 46.307035 54.371007 
L 46.727638 54.594149 
L 47.063655 54.748945 
L 47.148241 54.78569 
L 47.568844 54.944363 
L 47.989447 55.077092 
L 48.336607 55.166834 
L 48.41005 55.185093 
z
" clip-path="url(#pfde912bfe7)" style="fill: none; stroke: #87ceeb; stroke-width: 1.5"/>
    <path d="M 52.195477 50.169131 
L 52.61608 50.261672 
L 53.036683 50.338022 
L 53.457286 50.400054 
L 53.877889 50.449471 
L 54.298492 50.487805 
L 54.719095 50.51642 
L 55.139698 50.536517 
L 55.560302 50.549148 
L 55.980905 50.555225 
L 56.401508 50.555538 
L 56.822111 50.550763 
L 57.242714 50.541476 
L 57.663317 50.528169 
L 58.08392 50.511255 
L 58.504523 50.491083 
L 58.925126 50.467942 
L 59.345729 50.442071 
L 59.766332 50.413665 
L 60.186935 50.382877 
L 60.607538 50.349825 
L 61.028141 50.314588 
L 61.448744 50.277212 
L 61.869347 50.237708 
L 62.28995 50.196047 
L 62.710553 50.152161 
L 62.710553 50.152161 
L 63.131156 50.104348 
L 63.551759 50.054019 
L 63.972362 50.000957 
L 64.392965 49.944888 
L 64.813568 49.885479 
L 65.234171 49.822336 
L 65.654774 49.755008 
L 65.777325 49.734271 
L 66.075377 49.681078 
L 66.49598 49.601006 
L 66.916583 49.514952 
L 67.337186 49.422255 
L 67.757789 49.32223 
L 67.780869 49.316382 
L 68.178392 49.209917 
L 68.598995 49.088425 
L 69.019598 48.957309 
L 69.19588 48.898492 
L 69.440201 48.811961 
L 69.860804 48.652574 
L 70.281407 48.481436 
L 70.28334 48.480603 
L 70.70201 48.288268 
L 71.122613 48.082108 
L 71.160178 48.062714 
L 71.543216 47.850632 
L 71.895187 47.644824 
L 71.963819 47.601493 
L 72.384422 47.324079 
L 72.525666 47.226935 
L 72.805025 47.018387 
L 73.07554 46.809045 
L 73.225628 46.68216 
L 73.560123 46.391156 
L 73.646231 46.308803 
L 73.989654 45.973266 
L 74.066834 45.889875 
L 74.372092 45.555377 
L 74.487437 45.414835 
L 74.713522 45.137487 
L 74.90804 44.870861 
L 75.018449 44.719598 
L 75.290046 44.301709 
L 75.328643 44.234227 
L 75.531283 43.883819 
L 75.74397 43.46593 
L 75.749246 43.453859 
L 75.930468 43.04804 
L 76.091246 42.630151 
L 76.169849 42.386502 
L 76.227864 42.212261 
L 76.3411 41.794372 
L 76.430939 41.376482 
L 76.497736 40.958593 
L 76.541574 40.540704 
L 76.562246 40.122814 
L 76.559234 39.704925 
L 76.531678 39.287035 
L 76.478325 38.869146 
L 76.397461 38.451256 
L 76.28683 38.033367 
L 76.169849 37.688292 
L 76.143643 37.615477 
L 75.964698 37.197588 
L 75.749246 36.787954 
L 75.744577 36.779698 
L 75.477529 36.361809 
L 75.328643 36.15987 
L 75.155117 35.94392 
L 74.90804 35.669125 
L 74.766822 35.52603 
L 74.487437 35.266628 
L 74.298858 35.108141 
L 74.066834 34.925759 
L 73.733895 34.690251 
L 73.646231 34.631228 
L 73.225628 34.370651 
L 73.051571 34.272362 
L 72.805025 34.137078 
L 72.384422 33.926206 
L 72.230808 33.854472 
L 71.963819 33.731257 
L 71.543216 33.551239 
L 71.255409 33.436583 
L 71.122613 33.383546 
L 70.70201 33.223147 
L 70.281407 33.074128 
L 70.117947 33.018693 
L 69.860804 32.93002 
L 69.440201 32.79209 
L 69.019598 32.662826 
L 68.808068 32.600804 
L 68.598995 32.53773 
L 68.178392 32.416912 
L 67.757789 32.304308 
L 67.337186 32.199826 
L 67.265146 32.182915 
L 66.916583 32.097727 
L 66.49598 32.00334 
L 66.075377 31.918008 
L 65.654774 31.841862 
L 65.234171 31.775048 
L 65.161963 31.765025 
L 64.813568 31.713958 
L 64.392965 31.662465 
L 63.972362 31.621461 
L 63.551759 31.591026 
L 63.131156 31.571222 
L 62.710553 31.562089 
L 62.28995 31.563654 
L 61.869347 31.575927 
L 61.448744 31.598903 
L 61.028141 31.632572 
L 60.607538 31.676913 
L 60.186935 31.731902 
L 59.974072 31.765025 
L 59.766332 31.794964 
L 59.345729 31.865075 
L 58.925126 31.944724 
L 58.504523 32.033835 
L 58.08392 32.132334 
L 57.884974 32.182915 
L 57.663317 32.235801 
L 57.242714 32.343766 
L 56.822111 32.459932 
L 56.401508 32.584238 
L 56.347824 32.600804 
L 55.980905 32.70823 
L 55.560302 32.838276 
L 55.139698 32.975611 
L 55.012061 33.018693 
L 54.719095 33.113476 
L 54.298492 33.25535 
L 53.877889 33.404435 
L 53.789376 33.436583 
L 53.457286 33.553507 
L 53.036683 33.708319 
L 52.658952 33.854472 
L 52.61608 33.870733 
L 52.195477 34.034316 
L 51.774874 34.208397 
L 51.6264 34.272362 
L 51.354271 34.389059 
L 50.933668 34.580703 
L 50.707354 34.690251 
L 50.513065 34.785299 
L 50.092462 35.005398 
L 49.909532 35.108141 
L 49.671859 35.24549 
L 49.251256 35.511626 
L 49.229907 35.52603 
L 48.830653 35.809295 
L 48.657996 35.94392 
L 48.41005 36.151129 
L 48.179984 36.361809 
L 47.989447 36.553073 
L 47.782607 36.779698 
L 47.568844 37.04366 
L 47.454098 37.197588 
L 47.18465 37.615477 
L 47.148241 37.681024 
L 46.966269 38.033367 
L 46.792073 38.451256 
L 46.727638 38.643278 
L 46.656432 38.869146 
L 46.554415 39.287035 
L 46.482149 39.704925 
L 46.436033 40.122814 
L 46.412898 40.540704 
L 46.410003 40.958593 
L 46.425026 41.376482 
L 46.456048 41.794372 
L 46.501537 42.212261 
L 46.560322 42.630151 
L 46.631585 43.04804 
L 46.714834 43.46593 
L 46.727638 43.520638 
L 46.809057 43.883819 
L 46.915191 44.301709 
L 47.033932 44.719598 
L 47.148241 45.079815 
L 47.166121 45.137487 
L 47.313093 45.555377 
L 47.476977 45.973266 
L 47.568844 46.182236 
L 47.660799 46.391156 
L 47.868171 46.809045 
L 47.989447 47.026108 
L 48.104194 47.226935 
L 48.375005 47.644824 
L 48.41005 47.69281 
L 48.692964 48.062714 
L 48.830653 48.221367 
L 49.070429 48.480603 
L 49.251256 48.65308 
L 49.530742 48.898492 
L 49.671859 49.008277 
L 50.092462 49.303693 
L 50.112498 49.316382 
L 50.513065 49.54266 
L 50.90317 49.734271 
L 50.933668 49.747763 
L 51.354271 49.912238 
L 51.774874 50.052241 
L 52.129614 50.152161 
L 52.195477 50.169131 
z
" clip-path="url(#pfde912bfe7)" style="fill: none; stroke: #87ceeb; stroke-width: 1.5"/>
    <path d="M 55.980905 46.815103 
L 56.401508 46.886592 
L 56.822111 46.941579 
L 57.242714 46.981404 
L 57.663317 47.007306 
L 58.08392 47.02043 
L 58.504523 47.021831 
L 58.925126 47.012479 
L 59.345729 46.993263 
L 59.766332 46.965004 
L 60.186935 46.928456 
L 60.607538 46.88431 
L 61.028141 46.833203 
L 61.205473 46.809045 
L 61.448744 46.772635 
L 61.869347 46.703588 
L 62.28995 46.628865 
L 62.710553 46.548923 
L 63.131156 46.464153 
L 63.475592 46.391156 
L 63.551759 46.373303 
L 63.972362 46.270895 
L 64.392965 46.164195 
L 64.813568 46.053251 
L 65.106397 45.973266 
L 65.234171 45.934396 
L 65.654774 45.802608 
L 66.075377 45.66589 
L 66.403322 45.555377 
L 66.49598 45.520313 
L 66.916583 45.3561 
L 67.337186 45.185125 
L 67.450226 45.137487 
L 67.757789 44.990658 
L 68.178392 44.781627 
L 68.29847 44.719598 
L 68.598995 44.541896 
L 68.989346 44.301709 
L 69.019598 44.280111 
L 69.440201 43.969225 
L 69.551705 43.883819 
L 69.860804 43.605881 
L 70.011738 43.46593 
L 70.281407 43.167423 
L 70.386569 43.04804 
L 70.688785 42.630151 
L 70.70201 42.606996 
L 70.924219 42.212261 
L 71.103842 41.794372 
L 71.122613 41.731056 
L 71.227384 41.376482 
L 71.299855 40.958593 
L 71.322205 40.540704 
L 71.29425 40.122814 
L 71.215084 39.704925 
L 71.122613 39.408883 
L 71.082329 39.287035 
L 70.891928 38.869146 
L 70.70201 38.548042 
L 70.641207 38.451256 
L 70.323436 38.033367 
L 70.281407 37.985842 
L 69.931887 37.615477 
L 69.860804 37.549031 
L 69.458712 37.197588 
L 69.440201 37.182934 
L 69.019598 36.868477 
L 68.892441 36.779698 
L 68.598995 36.5896 
L 68.219498 36.361809 
L 68.178392 36.338536 
L 67.757789 36.113251 
L 67.413864 35.94392 
L 67.337186 35.907737 
L 66.916583 35.721613 
L 66.49598 35.552618 
L 66.424432 35.52603 
L 66.075377 35.399803 
L 65.654774 35.26308 
L 65.234171 35.142206 
L 65.100285 35.108141 
L 64.813568 35.036108 
L 64.392965 34.945332 
L 63.972362 34.870201 
L 63.551759 34.810638 
L 63.131156 34.766578 
L 62.710553 34.737952 
L 62.28995 34.724684 
L 61.869347 34.726689 
L 61.448744 34.74388 
L 61.028141 34.776173 
L 60.607538 34.823502 
L 60.186935 34.88583 
L 59.766332 34.963169 
L 59.345729 35.055596 
L 59.140138 35.108141 
L 58.925126 35.161883 
L 58.504523 35.281679 
L 58.08392 35.416546 
L 57.776927 35.52603 
L 57.663317 35.566097 
L 57.242714 35.728843 
L 56.822111 35.907764 
L 56.743439 35.94392 
L 56.401508 36.101225 
L 55.980905 36.311924 
L 55.888074 36.361809 
L 55.560302 36.540291 
L 55.155539 36.779698 
L 55.139698 36.789299 
L 54.719095 37.061424 
L 54.524217 37.197588 
L 54.298492 37.361854 
L 53.975626 37.615477 
L 53.877889 37.696655 
L 53.501819 38.033367 
L 53.457286 38.076281 
L 53.095846 38.451256 
L 53.036683 38.518768 
L 52.751078 38.869146 
L 52.61608 39.056412 
L 52.461199 39.287035 
L 52.220864 39.704925 
L 52.195477 39.756836 
L 52.028249 40.122814 
L 51.877007 40.540704 
L 51.774874 40.918079 
L 51.764591 40.958593 
L 51.691015 41.376482 
L 51.652704 41.794372 
L 51.64907 42.212261 
L 51.680154 42.630151 
L 51.746653 43.04804 
L 51.774874 43.160847 
L 51.853125 43.46593 
L 52.001958 43.883819 
L 52.195477 44.301709 
L 52.195477 44.301709 
L 52.451992 44.719598 
L 52.61608 44.937223 
L 52.778313 45.137487 
L 53.036683 45.401394 
L 53.201653 45.555377 
L 53.457286 45.756053 
L 53.76621 45.973266 
L 53.877889 46.040369 
L 54.298492 46.26414 
L 54.573624 46.391156 
L 54.719095 46.449478 
L 55.139698 46.594627 
L 55.560302 46.71614 
L 55.952063 46.809045 
L 55.980905 46.815103 
z
" clip-path="url(#pfde912bfe7)" style="fill: none; stroke: #87ceeb; stroke-width: 1.5"/>
    <path clip-path="url(#pfde912bfe7)" style="fill: none; stroke: #87ceeb; stroke-width: 1.5"/>
   </g>
   <g id="patch_3">
    <path d="M 13.5 96.12 
L 13.5 12.96 
" style="fill: none; stroke: #cccccc; stroke-width: 1.25; stroke-linejoin: miter; stroke-linecap: square"/>
   </g>
   <g id="patch_4">
    <path d="M 97.2 96.12 
L 97.2 12.96 
" style="fill: none; stroke: #cccccc; stroke-width: 1.25; stroke-linejoin: miter; stroke-linecap: square"/>
   </g>
   <g id="patch_5">
    <path d="M 13.5 96.12 
L 97.2 96.12 
" style="fill: none; stroke: #cccccc; stroke-width: 1.25; stroke-linejoin: miter; stroke-linecap: square"/>
   </g>
   <g id="patch_6">
    <path d="M 13.5 12.96 
L 97.2 12.96 
" style="fill: none; stroke: #cccccc; stroke-width: 1.25; stroke-linejoin: miter; stroke-linecap: square"/>
   </g>
   <g id="text_9">
    <text style="fill: #262626; font: 8px 'Arial', 'DejaVu Sans', 'Liberation Sans', 'Bitstream Vera Sans', sans-serif; text-anchor: start" x="73.764" y="21.276" transform="rotate(-0 73.764 21.276)">67.4%</text>
   </g>
  </g>
 </g>
 <defs>
  <clipPath id="pfde912bfe7">
   <rect x="13.5" y="12.96" width="83.7" height="83.16"/>
  </clipPath>
 </defs>
</svg>
