<?xml version="1.0" encoding="utf-8" standalone="no"?>
<!DOCTYPE svg PUBLIC "-//W3C//DTD SVG 1.1//EN"
  "http://www.w3.org/Graphics/SVG/1.1/DTD/svg11.dtd">
<svg xmlns:xlink="http://www.w3.org/1999/xlink" width="288pt" height="144pt" viewBox="0 0 288 144" xmlns="http://www.w3.org/2000/svg" version="1.1">
 <metadata>
  <rdf:RDF xmlns:dc="http://purl.org/dc/elements/1.1/" xmlns:cc="http://creativecommons.org/ns#" xmlns:rdf="http://www.w3.org/1999/02/22-rdf-syntax-ns#">
   <cc:Work>
    <dc:type rdf:resource="http://purl.org/dc/dcmitype/StillImage"/>
    <dc:date>2024-05-03T10:20:36.840151</dc:date>
    <dc:format>image/svg+xml</dc:format>
    <dc:creator>
     <cc:Agent>
      <dc:title>Matplotlib v3.8.1, https://matplotlib.org/</dc:title>
     </cc:Agent>
    </dc:creator>
   </cc:Work>
  </rdf:RDF>
 </metadata>
 <defs>
  <style type="text/css">*{stroke-linejoin: round; stroke-linecap: butt}</style>
 </defs>
 <g id="figure_1">
  <g id="patch_1">
   <path d="M 0 144 
L 288 144 
L 288 0 
L 0 0 
z
" style="fill: #ffffff"/>
  </g>
  <g id="axes_1">
   <g id="patch_2">
    <path d="M 36 128.16 
L 259.2 128.16 
L 259.2 17.28 
L 36 17.28 
z
" style="fill: #ffffff"/>
   </g>
   <g id="matplotlib.axis_1">
    <g id="xtick_1">
     <g id="line2d_1">
      <path d="M 75.858963 128.16 
L 75.858963 17.28 
" clip-path="url(#p9922fcc679)" style="fill: none; stroke: #cccccc; stroke-linecap: round"/>
     </g>
     <g id="text_1">
      <!-- $\mathdefault{10^{-6}}$ -->
      <g style="fill: #262626" transform="translate(67.938963 143.41)">
       <text>
        <tspan style="font: 8px 'Arial'" x="0 4.449219" y="-0.39949999999999974">10</tspan>
        <tspan style="font: 5.6px 'Arial'" x="9.037825 12.308137" y="-5.975">−6</tspan>
       </text>
      </g>
     </g>
    </g>
    <g id="xtick_2">
     <g id="line2d_2">
      <path d="M 119.59306 128.16 
L 119.59306 17.28 
" clip-path="url(#p9922fcc679)" style="fill: none; stroke: #cccccc; stroke-linecap: round"/>
     </g>
     <g id="text_2">
      <!-- $\mathdefault{10^{-5}}$ -->
      <g style="fill: #262626" transform="translate(111.67306 143.33)">
       <text>
        <tspan style="font: 8px 'Arial'" x="0 4.449219" y="-0.46512500000000045">10</tspan>
        <tspan style="font: 5.6px 'Arial'" x="9.037825 12.308137" y="-6.040625">−5</tspan>
       </text>
      </g>
     </g>
    </g>
    <g id="xtick_3">
     <g id="line2d_3">
      <path d="M 163.327158 128.16 
L 163.327158 17.28 
" clip-path="url(#p9922fcc679)" style="fill: none; stroke: #cccccc; stroke-linecap: round"/>
     </g>
     <g id="text_3">
      <!-- $\mathdefault{10^{-4}}$ -->
      <g style="fill: #262626" transform="translate(155.407158 143.33)">
       <text>
        <tspan style="font: 8px 'Arial'" x="0 4.449219" y="-0.41043750000000045">10</tspan>
        <tspan style="font: 5.6px 'Arial'" x="9.037825 12.308137" y="-5.9859375">−4</tspan>
       </text>
      </g>
     </g>
    </g>
    <g id="xtick_4">
     <g id="line2d_4">
      <path d="M 207.061256 128.16 
L 207.061256 17.28 
" clip-path="url(#p9922fcc679)" style="fill: none; stroke: #cccccc; stroke-linecap: round"/>
     </g>
     <g id="text_4">
      <!-- $\mathdefault{10^{-3}}$ -->
      <g style="fill: #262626" transform="translate(199.141256 143.41)">
       <text>
        <tspan style="font: 8px 'Arial'" x="0 4.449219" y="-0.39949999999999974">10</tspan>
        <tspan style="font: 5.6px 'Arial'" x="9.037825 12.308137" y="-5.975">−3</tspan>
       </text>
      </g>
     </g>
    </g>
    <g id="xtick_5">
     <g id="line2d_5">
      <path d="M 250.795353 128.16 
L 250.795353 17.28 
" clip-path="url(#p9922fcc679)" style="fill: none; stroke: #cccccc; stroke-linecap: round"/>
     </g>
     <g id="text_5">
      <!-- $\mathdefault{10^{-2}}$ -->
      <g style="fill: #262626" transform="translate(242.875353 143.41)">
       <text>
        <tspan style="font: 8px 'Arial'" x="0 4.449219" y="-0.39949999999999974">10</tspan>
        <tspan style="font: 5.6px 'Arial'" x="9.037825 12.308137" y="-5.975">−2</tspan>
       </text>
      </g>
     </g>
    </g>
    <g id="xtick_6"/>
    <g id="xtick_7"/>
    <g id="xtick_8"/>
    <g id="xtick_9"/>
    <g id="xtick_10"/>
    <g id="xtick_11"/>
    <g id="xtick_12"/>
    <g id="xtick_13"/>
    <g id="xtick_14"/>
    <g id="xtick_15"/>
    <g id="xtick_16"/>
    <g id="xtick_17"/>
    <g id="xtick_18"/>
    <g id="xtick_19"/>
    <g id="xtick_20"/>
    <g id="xtick_21"/>
    <g id="xtick_22"/>
    <g id="xtick_23"/>
    <g id="xtick_24"/>
    <g id="xtick_25"/>
    <g id="xtick_26"/>
    <g id="xtick_27"/>
    <g id="xtick_28"/>
    <g id="xtick_29"/>
    <g id="xtick_30"/>
    <g id="xtick_31"/>
    <g id="xtick_32"/>
    <g id="xtick_33"/>
    <g id="xtick_34"/>
    <g id="xtick_35"/>
    <g id="xtick_36"/>
    <g id="xtick_37"/>
    <g id="xtick_38"/>
    <g id="xtick_39"/>
    <g id="xtick_40"/>
    <g id="xtick_41"/>
    <g id="xtick_42"/>
    <g id="xtick_43"/>
    <g id="xtick_44"/>
    <g id="xtick_45"/>
    <g id="text_6">
     <text style="fill: #262626; font: 8px 'Arial', 'DejaVu Sans', 'Liberation Sans', 'Bitstream Vera Sans', sans-serif; text-anchor: middle" x="147.6" y="154.82375" transform="rotate(-0 147.6 154.82375)">Average read frequency in the DMS input</text>
    </g>
   </g>
   <g id="matplotlib.axis_2">
    <g id="ytick_1">
     <g id="line2d_6">
      <path d="M 36 128.16 
L 259.2 128.16 
" clip-path="url(#p9922fcc679)" style="fill: none; stroke: #cccccc; stroke-linecap: round"/>
     </g>
     <g id="text_7">
      <text style="fill: #262626; font: 8px 'Arial', 'DejaVu Sans', 'Liberation Sans', 'Bitstream Vera Sans', sans-serif; text-anchor: end" x="29" y="131.023125" transform="rotate(-0 29 131.023125)">0</text>
     </g>
    </g>
    <g id="ytick_2">
     <g id="line2d_7">
      <path d="M 36 98.16 
L 259.2 98.16 
" clip-path="url(#p9922fcc679)" style="fill: none; stroke: #cccccc; stroke-linecap: round"/>
     </g>
     <g id="text_8">
      <text style="fill: #262626; font: 8px 'Arial', 'DejaVu Sans', 'Liberation Sans', 'Bitstream Vera Sans', sans-serif; text-anchor: end" x="29" y="101.023125" transform="rotate(-0 29 101.023125)">200</text>
     </g>
    </g>
    <g id="ytick_3">
     <g id="line2d_8">
      <path d="M 36 68.16 
L 259.2 68.16 
" clip-path="url(#p9922fcc679)" style="fill: none; stroke: #cccccc; stroke-linecap: round"/>
     </g>
     <g id="text_9">
      <text style="fill: #262626; font: 8px 'Arial', 'DejaVu Sans', 'Liberation Sans', 'Bitstream Vera Sans', sans-serif; text-anchor: end" x="29" y="71.023125" transform="rotate(-0 29 71.023125)">400</text>
     </g>
    </g>
    <g id="ytick_4">
     <g id="line2d_9">
      <path d="M 36 38.16 
L 259.2 38.16 
" clip-path="url(#p9922fcc679)" style="fill: none; stroke: #cccccc; stroke-linecap: round"/>
     </g>
     <g id="text_10">
      <text style="fill: #262626; font: 8px 'Arial', 'DejaVu Sans', 'Liberation Sans', 'Bitstream Vera Sans', sans-serif; text-anchor: end" x="29" y="41.023125" transform="rotate(-0 29 41.023125)">600</text>
     </g>
    </g>
    <g id="text_11">
     <text style="fill: #262626; font: 8px 'Arial', 'DejaVu Sans', 'Liberation Sans', 'Bitstream Vera Sans', sans-serif; text-anchor: middle" x="10.06375" y="72.72" transform="rotate(-90 10.06375 72.72)">Count</text>
    </g>
   </g>
   <g id="PolyCollection_1">
    <defs>
     <path id="md52b650427" d="M 46.145455 -121.44 
L 46.145455 -15.84 
L 56.290909 -15.84 
L 56.290909 -15.84 
L 66.436364 -15.84 
L 66.436364 -15.84 
L 76.581818 -15.84 
L 76.581818 -15.84 
L 86.727273 -15.84 
L 86.727273 -15.84 
L 96.872727 -15.84 
L 96.872727 -15.84 
L 107.018182 -15.84 
L 107.018182 -15.84 
L 117.163636 -15.84 
L 117.163636 -15.84 
L 127.309091 -15.84 
L 127.309091 -15.84 
L 137.454545 -15.84 
L 137.454545 -15.84 
L 147.6 -15.84 
L 147.6 -15.84 
L 157.745455 -15.84 
L 157.745455 -15.84 
L 167.890909 -15.84 
L 167.890909 -15.84 
L 178.036364 -15.84 
L 178.036364 -15.84 
L 188.181818 -15.84 
L 188.181818 -15.84 
L 198.327273 -15.84 
L 198.327273 -15.84 
L 208.472727 -15.84 
L 208.472727 -15.84 
L 218.618182 -15.84 
L 218.618182 -15.84 
L 228.763636 -15.84 
L 228.763636 -15.84 
L 238.909091 -15.84 
L 238.909091 -15.84 
L 249.054545 -15.84 
L 249.054545 -15.84 
L 249.054545 -17.04 
L 249.054545 -17.04 
L 249.054545 -17.04 
L 238.909091 -17.04 
L 238.909091 -21.24 
L 228.763636 -21.24 
L 228.763636 -24.54 
L 218.618182 -24.54 
L 218.618182 -29.04 
L 208.472727 -29.04 
L 208.472727 -26.04 
L 198.327273 -26.04 
L 198.327273 -23.94 
L 188.181818 -23.94 
L 188.181818 -20.79 
L 178.036364 -20.79 
L 178.036364 -17.79 
L 167.890909 -17.79 
L 167.890909 -18.84 
L 157.745455 -18.84 
L 157.745455 -17.79 
L 147.6 -17.79 
L 147.6 -18.54 
L 137.454545 -18.54 
L 137.454545 -17.19 
L 127.309091 -17.19 
L 127.309091 -17.04 
L 117.163636 -17.04 
L 117.163636 -18.54 
L 107.018182 -18.54 
L 107.018182 -26.49 
L 96.872727 -26.49 
L 96.872727 -38.79 
L 86.727273 -38.79 
L 86.727273 -54.24 
L 76.581818 -54.24 
L 76.581818 -77.49 
L 66.436364 -77.49 
L 66.436364 -106.29 
L 56.290909 -106.29 
L 56.290909 -121.44 
L 46.145455 -121.44 
z
" style="stroke: #4c72b0"/>
    </defs>
    <g clip-path="url(#p9922fcc679)">
     <use xlink:href="#md52b650427" x="0" y="144" style="fill: #4c72b0; fill-opacity: 0.75; stroke: #4c72b0"/>
    </g>
   </g>
   <g id="line2d_10">
    <path d="M 127.294253 128.16 
L 127.294253 17.28 
" clip-path="url(#p9922fcc679)" style="fill: none; stroke: #0000ff; stroke-width: 1.5; stroke-linecap: round"/>
   </g>
   <g id="line2d_11">
    <path d="M 49.528412 128.16 
L 49.528412 17.28 
" clip-path="url(#p9922fcc679)" style="fill: none; stroke: #000000; stroke-width: 1.5; stroke-linecap: round"/>
   </g>
   <g id="line2d_12">
    <path d="M 214.762448 128.16 
L 214.762448 17.28 
" clip-path="url(#p9922fcc679)" style="fill: none; stroke: #000000; stroke-width: 1.5; stroke-linecap: round"/>
   </g>
   <g id="patch_3">
    <path d="M 36 128.16 
L 36 17.28 
" style="fill: none; stroke: #cccccc; stroke-width: 1.25; stroke-linejoin: miter; stroke-linecap: square"/>
   </g>
   <g id="patch_4">
    <path d="M 259.2 128.16 
L 259.2 17.28 
" style="fill: none; stroke: #cccccc; stroke-width: 1.25; stroke-linejoin: miter; stroke-linecap: square"/>
   </g>
   <g id="patch_5">
    <path d="M 36 128.16 
L 259.2 128.16 
" style="fill: none; stroke: #cccccc; stroke-width: 1.25; stroke-linejoin: miter; stroke-linecap: square"/>
   </g>
   <g id="patch_6">
    <path d="M 36 17.28 
L 259.2 17.28 
" style="fill: none; stroke: #cccccc; stroke-width: 1.25; stroke-linejoin: miter; stroke-linecap: square"/>
   </g>
   <g id="text_12">
    <text style="fill: #262626; font: 8px 'Arial', 'DejaVu Sans', 'Liberation Sans', 'Bitstream Vera Sans', sans-serif" transform="translate(89.024238 58.1985)">84.2%</text>
    <text style="fill: #262626; font: 8px 'Arial', 'DejaVu Sans', 'Liberation Sans', 'Bitstream Vera Sans', sans-serif" transform="translate(89.024238 66.66)">2X</text>
   </g>
   <g id="text_13">
    <text style="fill: #262626; font: 8px 'Arial', 'DejaVu Sans', 'Liberation Sans', 'Bitstream Vera Sans', sans-serif" transform="translate(184.193626 58.1985)">15.8%</text>
    <text style="fill: #262626; font: 8px 'Arial', 'DejaVu Sans', 'Liberation Sans', 'Bitstream Vera Sans', sans-serif" transform="translate(184.193626 66.66)">17777X</text>
   </g>
  </g>
 </g>
 <defs>
  <clipPath id="p9922fcc679">
   <rect x="36" y="17.28" width="223.2" height="110.88"/>
  </clipPath>
 </defs>
</svg>
