<?xml version="1.0" encoding="utf-8" standalone="no"?>
<!DOCTYPE svg PUBLIC "-//W3C//DTD SVG 1.1//EN"
  "http://www.w3.org/Graphics/SVG/1.1/DTD/svg11.dtd">
<svg xmlns:xlink="http://www.w3.org/1999/xlink" width="136.8pt" height="360pt" viewBox="0 0 136.8 360" xmlns="http://www.w3.org/2000/svg" version="1.1">
 <metadata>
  <rdf:RDF xmlns:dc="http://purl.org/dc/elements/1.1/" xmlns:cc="http://creativecommons.org/ns#" xmlns:rdf="http://www.w3.org/1999/02/22-rdf-syntax-ns#">
   <cc:Work>
    <dc:type rdf:resource="http://purl.org/dc/dcmitype/StillImage"/>
    <dc:date>2024-04-24T13:35:28.701036</dc:date>
    <dc:format>image/svg+xml</dc:format>
    <dc:creator>
     <cc:Agent>
      <dc:title>Matplotlib v3.8.1, https://matplotlib.org/</dc:title>
     </cc:Agent>
    </dc:creator>
   </cc:Work>
  </rdf:RDF>
 </metadata>
 <defs>
  <style type="text/css">*{stroke-linejoin: round; stroke-linecap: butt}</style>
 </defs>
 <g id="figure_1">
  <g id="patch_1">
   <path d="M 0 360 
L 136.8 360 
L 136.8 0 
L 0 0 
z
" style="fill: #ffffff"/>
  </g>
  <g id="axes_1">
   <g id="patch_2">
    <path d="M 17.1 315.62069 
L 123.12 315.62069 
L 123.12 302.436385 
L 17.1 302.436385 
z
" clip-path="url(#p65e13811dd)" style="fill-opacity: 0.05098"/>
   </g>
   <g id="patch_3">
    <path d="M 17.1 299.140309 
L 123.12 299.140309 
L 123.12 285.956005 
L 17.1 285.956005 
L 17.1 299.140309 
z
" clip-path="url(#p65e13811dd)" style="fill: none"/>
   </g>
   <g id="patch_4">
    <path d="M 17.1 282.659929 
L 123.12 282.659929 
L 123.12 269.475624 
L 17.1 269.475624 
z
" clip-path="url(#p65e13811dd)" style="fill-opacity: 0.05098"/>
   </g>
   <g id="patch_5">
    <path d="M 17.1 266.179548 
L 123.12 266.179548 
L 123.12 252.995244 
L 17.1 252.995244 
L 17.1 266.179548 
z
" clip-path="url(#p65e13811dd)" style="fill: none"/>
   </g>
   <g id="patch_6">
    <path d="M 17.1 249.699168 
L 123.12 249.699168 
L 123.12 236.514863 
L 17.1 236.514863 
z
" clip-path="url(#p65e13811dd)" style="fill-opacity: 0.05098"/>
   </g>
   <g id="patch_7">
    <path d="M 17.1 233.218787 
L 123.12 233.218787 
L 123.12 220.034483 
L 17.1 220.034483 
L 17.1 233.218787 
z
" clip-path="url(#p65e13811dd)" style="fill: none"/>
   </g>
   <g id="matplotlib.axis_1"/>
   <g id="matplotlib.axis_2">
    <g id="ytick_1"/>
    <g id="ytick_2"/>
    <g id="ytick_3"/>
    <g id="ytick_4"/>
    <g id="ytick_5"/>
    <g id="ytick_6"/>
   </g>
  </g>
  <g id="axes_2">
   <g id="matplotlib.axis_3">
    <g id="ytick_7">
     <g id="text_1">
      <text style="fill: #262626; font: 8px 'Arial', 'DejaVu Sans', 'Liberation Sans', 'Bitstream Vera Sans', sans-serif; text-anchor: end" x="70.624571" y="311.903537" transform="rotate(-0 70.624571 311.903537)">inputD3</text>
     </g>
    </g>
    <g id="ytick_8">
     <g id="text_2">
      <text style="fill: #262626; font: 8px 'Arial', 'DejaVu Sans', 'Liberation Sans', 'Bitstream Vera Sans', sans-serif; text-anchor: end" x="70.624571" y="295.411282" transform="rotate(-0 70.624571 295.411282)">inputD5</text>
     </g>
    </g>
    <g id="ytick_9">
     <g id="text_3">
      <text style="fill: #262626; font: 8px 'Arial', 'DejaVu Sans', 'Liberation Sans', 'Bitstream Vera Sans', sans-serif; text-anchor: end" x="70.624571" y="278.930901" transform="rotate(-0 70.624571 278.930901)">inputD4</text>
     </g>
    </g>
    <g id="ytick_10">
     <g id="text_4">
      <text style="fill: #262626; font: 8px 'Arial', 'DejaVu Sans', 'Liberation Sans', 'Bitstream Vera Sans', sans-serif; text-anchor: end" x="70.624571" y="262.462396" transform="rotate(-0 70.624571 262.462396)">inputD6</text>
     </g>
    </g>
    <g id="ytick_11">
     <g id="text_5">
      <text style="fill: #262626; font: 8px 'Arial', 'DejaVu Sans', 'Liberation Sans', 'Bitstream Vera Sans', sans-serif; text-anchor: end" x="70.624571" y="245.982015" transform="rotate(-0 70.624571 245.982015)">inputD2</text>
     </g>
    </g>
    <g id="ytick_12">
     <g id="text_6">
      <text style="fill: #262626; font: 8px 'Arial', 'DejaVu Sans', 'Liberation Sans', 'Bitstream Vera Sans', sans-serif; text-anchor: end" x="70.624571" y="229.501635" transform="rotate(-0 70.624571 229.501635)">inputD1</text>
     </g>
    </g>
   </g>
   <g id="LineCollection_1">
    <path d="M 80.207143 309.028537 
L 80.207143 226.626635 
" clip-path="url(#p9fc376935b)" style="fill: none; stroke: #000000; stroke-width: 2"/>
    <path d="M 97.372286 309.028537 
L 97.372286 243.107015 
" clip-path="url(#p9fc376935b)" style="fill: none; stroke: #000000; stroke-width: 2"/>
    <path d="M 114.537429 309.028537 
L 114.537429 226.626635 
" clip-path="url(#p9fc376935b)" style="fill: none; stroke: #000000; stroke-width: 2"/>
   </g>
   <g id="PathCollection_1">
    <defs>
     <path id="C0_0_a41d1e17c6" d="M 0 7.071068 
C 1.875269 7.071068 3.673985 6.326016 5 5 
C 6.326016 3.673985 7.071068 1.875269 7.071068 -0 
C 7.071068 -1.875269 6.326016 -3.673985 5 -5 
C 3.673985 -6.326016 1.875269 -7.071068 0 -7.071068 
C -1.875269 -7.071068 -3.673985 -6.326016 -5 -5 
C -6.326016 -3.673985 -7.071068 -1.875269 -7.071068 0 
C -7.071068 1.875269 -6.326016 3.673985 -5 5 
C -3.673985 6.326016 -1.875269 7.071068 0 7.071068 
z
"/>
    </defs>
    <g clip-path="url(#p9fc376935b)">
     <use xlink:href="#C0_0_a41d1e17c6" x="80.207143" y="309.028537" style="stroke: #000000"/>
    </g>
    <g clip-path="url(#p9fc376935b)">
     <use xlink:href="#C0_0_a41d1e17c6" x="80.207143" y="292.548157" style="stroke: #000000"/>
    </g>
    <g clip-path="url(#p9fc376935b)">
     <use xlink:href="#C0_0_a41d1e17c6" x="80.207143" y="276.067776" style="stroke: #000000"/>
    </g>
    <g clip-path="url(#p9fc376935b)">
     <use xlink:href="#C0_0_a41d1e17c6" x="80.207143" y="259.587396" style="stroke: #000000"/>
    </g>
    <g clip-path="url(#p9fc376935b)">
     <use xlink:href="#C0_0_a41d1e17c6" x="80.207143" y="243.107015" style="stroke: #000000"/>
    </g>
    <g clip-path="url(#p9fc376935b)">
     <use xlink:href="#C0_0_a41d1e17c6" x="80.207143" y="226.626635" style="stroke: #000000"/>
    </g>
    <g clip-path="url(#p9fc376935b)">
     <use xlink:href="#C0_0_a41d1e17c6" x="97.372286" y="309.028537" style="stroke: #000000"/>
    </g>
    <g clip-path="url(#p9fc376935b)">
     <use xlink:href="#C0_0_a41d1e17c6" x="97.372286" y="292.548157" style="stroke: #000000"/>
    </g>
    <g clip-path="url(#p9fc376935b)">
     <use xlink:href="#C0_0_a41d1e17c6" x="97.372286" y="276.067776" style="stroke: #000000"/>
    </g>
    <g clip-path="url(#p9fc376935b)">
     <use xlink:href="#C0_0_a41d1e17c6" x="97.372286" y="259.587396" style="stroke: #000000"/>
    </g>
    <g clip-path="url(#p9fc376935b)">
     <use xlink:href="#C0_0_a41d1e17c6" x="97.372286" y="243.107015" style="stroke: #000000"/>
    </g>
    <g clip-path="url(#p9fc376935b)">
     <use xlink:href="#C0_0_a41d1e17c6" x="97.372286" y="226.626635" style="fill-opacity: 0.180392"/>
    </g>
    <g clip-path="url(#p9fc376935b)">
     <use xlink:href="#C0_0_a41d1e17c6" x="114.537429" y="309.028537" style="stroke: #000000"/>
    </g>
    <g clip-path="url(#p9fc376935b)">
     <use xlink:href="#C0_0_a41d1e17c6" x="114.537429" y="292.548157" style="stroke: #000000"/>
    </g>
    <g clip-path="url(#p9fc376935b)">
     <use xlink:href="#C0_0_a41d1e17c6" x="114.537429" y="276.067776" style="stroke: #000000"/>
    </g>
    <g clip-path="url(#p9fc376935b)">
     <use xlink:href="#C0_0_a41d1e17c6" x="114.537429" y="259.587396" style="stroke: #000000"/>
    </g>
    <g clip-path="url(#p9fc376935b)">
     <use xlink:href="#C0_0_a41d1e17c6" x="114.537429" y="243.107015" style="fill-opacity: 0.180392"/>
    </g>
    <g clip-path="url(#p9fc376935b)">
     <use xlink:href="#C0_0_a41d1e17c6" x="114.537429" y="226.626635" style="stroke: #000000"/>
    </g>
   </g>
  </g>
  <g id="axes_3">
   <g id="matplotlib.axis_4">
    <g id="xtick_1">
     <g id="line2d_1">
      <path d="M 32.245714 320.4 
L 32.245714 215.255172 
" clip-path="url(#pc8d8296591)" style="fill: none; stroke: #cccccc; stroke-linecap: round"/>
     </g>
     <g id="text_7">
      <text style="fill: #262626; font: 8px 'Arial', 'DejaVu Sans', 'Liberation Sans', 'Bitstream Vera Sans', sans-serif; text-anchor: middle" x="32.245714" y="333.12625" transform="rotate(-0 32.245714 333.12625)">0.0e+00</text>
     </g>
    </g>
    <g id="xtick_2">
     <g id="line2d_2">
      <path d="M 18.912046 320.4 
L 18.912046 215.255172 
" clip-path="url(#pc8d8296591)" style="fill: none; stroke: #cccccc; stroke-linecap: round"/>
     </g>
     <g id="text_8">
      <text style="fill: #262626; font: 8px 'Arial', 'DejaVu Sans', 'Liberation Sans', 'Bitstream Vera Sans', sans-serif; text-anchor: middle" x="18.912046" y="333.12625" transform="rotate(-0 18.912046 333.12625)">1.0e+04</text>
     </g>
    </g>
   </g>
   <g id="patch_8">
    <path d="M 32.245714 313.148633 
L 17.1 313.148633 
L 17.1 304.908442 
L 32.245714 304.908442 
z
" clip-path="url(#pc8d8296591)" style="stroke: #000000; stroke-linejoin: miter"/>
   </g>
   <g id="patch_9">
    <path d="M 32.245714 296.668252 
L 17.210669 296.668252 
L 17.210669 288.428062 
L 32.245714 288.428062 
z
" clip-path="url(#pc8d8296591)" style="stroke: #000000; stroke-linejoin: miter"/>
   </g>
   <g id="patch_10">
    <path d="M 32.245714 280.187872 
L 17.213336 280.187872 
L 17.213336 271.947681 
L 32.245714 271.947681 
z
" clip-path="url(#pc8d8296591)" style="stroke: #000000; stroke-linejoin: miter"/>
   </g>
   <g id="patch_11">
    <path d="M 32.245714 263.707491 
L 17.217336 263.707491 
L 17.217336 255.467301 
L 32.245714 255.467301 
z
" clip-path="url(#pc8d8296591)" style="stroke: #000000; stroke-linejoin: miter"/>
   </g>
   <g id="patch_12">
    <path d="M 32.245714 247.227111 
L 17.397341 247.227111 
L 17.397341 238.98692 
L 32.245714 238.98692 
z
" clip-path="url(#pc8d8296591)" style="stroke: #000000; stroke-linejoin: miter"/>
   </g>
   <g id="patch_13">
    <path d="M 32.245714 230.74673 
L 17.532011 230.74673 
L 17.532011 222.50654 
L 32.245714 222.50654 
z
" clip-path="url(#pc8d8296591)" style="stroke: #000000; stroke-linejoin: miter"/>
   </g>
   <g id="patch_14">
    <path d="M 17.1 320.4 
L 32.245714 320.4 
" style="fill: none; stroke: #cccccc; stroke-width: 1.25; stroke-linejoin: miter; stroke-linecap: square"/>
   </g>
   <g id="text_9">
    <text style="fill: #262626; font: 8px 'Arial', 'DejaVu Sans', 'Liberation Sans', 'Bitstream Vera Sans', sans-serif; text-anchor: end" x="16.94097" y="311.096662" transform="rotate(-0 16.94097 311.096662)">100.0%</text>
   </g>
   <g id="text_10">
    <text style="fill: #262626; font: 8px 'Arial', 'DejaVu Sans', 'Liberation Sans', 'Bitstream Vera Sans', sans-serif; text-anchor: end" x="17.051639" y="294.616282" transform="rotate(-0 17.051639 294.616282)">99.3%</text>
   </g>
   <g id="text_11">
    <text style="fill: #262626; font: 8px 'Arial', 'DejaVu Sans', 'Liberation Sans', 'Bitstream Vera Sans', sans-serif; text-anchor: end" x="17.054306" y="278.135901" transform="rotate(-0 17.054306 278.135901)">99.2%</text>
   </g>
   <g id="text_12">
    <text style="fill: #262626; font: 8px 'Arial', 'DejaVu Sans', 'Liberation Sans', 'Bitstream Vera Sans', sans-serif; text-anchor: end" x="17.058306" y="261.655521" transform="rotate(-0 17.058306 261.655521)">99.2%</text>
   </g>
   <g id="text_13">
    <text style="fill: #262626; font: 8px 'Arial', 'DejaVu Sans', 'Liberation Sans', 'Bitstream Vera Sans', sans-serif; text-anchor: end" x="17.238311" y="245.17514" transform="rotate(-0 17.238311 245.17514)">98.0%</text>
   </g>
   <g id="text_14">
    <text style="fill: #262626; font: 8px 'Arial', 'DejaVu Sans', 'Liberation Sans', 'Bitstream Vera Sans', sans-serif; text-anchor: end" x="17.372981" y="228.69476" transform="rotate(-0 17.372981 228.69476)">97.1%</text>
   </g>
  </g>
  <g id="axes_4">
   <g id="patch_15">
    <path d="M 71.624571 205.696552 
L 123.12 205.696552 
L 123.12 157.903448 
L 71.624571 157.903448 
z
" style="fill: #ffffff"/>
   </g>
   <g id="matplotlib.axis_5">
    <g id="ytick_13">
     <g id="line2d_3">
      <path d="M 71.624571 205.696552 
L 123.12 205.696552 
" clip-path="url(#pa4ce351ba5)" style="fill: none; stroke: #cccccc; stroke-linecap: round"/>
     </g>
     <g id="text_15">
      <text style="fill: #262626; font: 8px 'Arial', 'DejaVu Sans', 'Liberation Sans', 'Bitstream Vera Sans', sans-serif; text-anchor: end" x="64.624571" y="208.559677" transform="rotate(-0 64.624571 208.559677)">0.0e+00</text>
     </g>
    </g>
    <g id="ytick_14">
     <g id="line2d_4">
      <path d="M 71.624571 163.429636 
L 123.12 163.429636 
" clip-path="url(#pa4ce351ba5)" style="fill: none; stroke: #cccccc; stroke-linecap: round"/>
     </g>
     <g id="text_16">
      <text style="fill: #262626; font: 8px 'Arial', 'DejaVu Sans', 'Liberation Sans', 'Bitstream Vera Sans', sans-serif; text-anchor: end" x="64.624571" y="166.292761" transform="rotate(-0 64.624571 166.292761)">1.0e+04</text>
     </g>
    </g>
    <g id="text_17">
     <text style="fill: #262626; font: 8px 'Arial', 'DejaVu Sans', 'Liberation Sans', 'Bitstream Vera Sans', sans-serif" transform="translate(21.434321 190.251875) rotate(-90)"># AA</text>
     <text style="fill: #262626; font: 8px 'Arial', 'DejaVu Sans', 'Liberation Sans', 'Bitstream Vera Sans', sans-serif" transform="translate(29.895821 195.805) rotate(-90)">variants</text>
    </g>
   </g>
   <g id="patch_16">
    <path d="M 71.624571 205.696552 
L 71.624571 157.903448 
" style="fill: none; stroke: #cccccc; stroke-width: 1.25; stroke-linejoin: miter; stroke-linecap: square"/>
   </g>
   <g id="text_18">
    <text style="fill: #262626; font: 8px 'Arial', 'DejaVu Sans', 'Liberation Sans', 'Bitstream Vera Sans', sans-serif; text-anchor: middle" x="80.207143" y="158.111379" transform="rotate(-0 80.207143 158.111379)">10769</text>
   </g>
   <g id="text_19">
    <text style="fill: #262626; font: 8px 'Arial', 'DejaVu Sans', 'Liberation Sans', 'Bitstream Vera Sans', sans-serif; text-anchor: middle" x="97.372286" y="202.457827" transform="rotate(-0 97.372286 202.457827)">277</text>
   </g>
   <g id="text_20">
    <text style="fill: #262626; font: 8px 'Arial', 'DejaVu Sans', 'Liberation Sans', 'Bitstream Vera Sans', sans-serif; text-anchor: middle" x="114.537429" y="202.86359" transform="rotate(-0 114.537429 202.86359)">181</text>
   </g>
   <g id="patch_17">
    <path d="M 75.915857 205.696552 
L 84.498429 205.696552 
L 84.498429 160.851354 
L 75.915857 160.851354 
z
" clip-path="url(#pa4ce351ba5)" style="fill: #ffc0cb; stroke: #ffffff; stroke-linejoin: miter"/>
   </g>
   <g id="patch_18">
    <path d="M 93.081 205.696552 
L 101.663571 205.696552 
L 101.663571 204.529985 
L 93.081 204.529985 
z
" clip-path="url(#pa4ce351ba5)" style="fill: #ffc0cb; stroke: #ffffff; stroke-linejoin: miter"/>
   </g>
   <g id="patch_19">
    <path d="M 110.246143 205.696552 
L 118.828714 205.696552 
L 118.828714 204.931521 
L 110.246143 204.931521 
z
" clip-path="url(#pa4ce351ba5)" style="fill: #ffc0cb; stroke: #ffffff; stroke-linejoin: miter"/>
   </g>
   <g id="patch_20">
    <path d="M 75.915857 160.851354 
L 84.498429 160.851354 
L 84.498429 160.183537 
L 75.915857 160.183537 
z
" clip-path="url(#pa4ce351ba5)" style="fill: #87ceeb; stroke: #ffffff; stroke-linejoin: miter"/>
   </g>
   <g id="patch_21">
    <path d="M 93.081 204.529985 
L 101.663571 204.529985 
L 101.663571 204.525758 
L 93.081 204.525758 
z
" clip-path="url(#pa4ce351ba5)" style="fill: #87ceeb; stroke: #ffffff; stroke-linejoin: miter"/>
   </g>
   <g id="patch_22">
    <path d="M 110.246143 204.931521 
L 118.828714 204.931521 
L 118.828714 204.931521 
L 110.246143 204.931521 
z
" clip-path="url(#pa4ce351ba5)" style="fill: #87ceeb; stroke: #ffffff; stroke-linejoin: miter"/>
   </g>
   <g id="patch_23">
    <path d="M 75.915857 160.183537 
L 84.498429 160.183537 
L 84.498429 160.17931 
L 75.915857 160.17931 
z
" clip-path="url(#pa4ce351ba5)" style="stroke: #ffffff; stroke-linejoin: miter"/>
   </g>
   <g id="patch_24">
    <path d="M 93.081 204.525758 
L 101.663571 204.525758 
L 101.663571 204.525758 
L 93.081 204.525758 
z
" clip-path="url(#pa4ce351ba5)" style="stroke: #ffffff; stroke-linejoin: miter"/>
   </g>
   <g id="patch_25">
    <path d="M 110.246143 204.931521 
L 118.828714 204.931521 
L 118.828714 204.931521 
L 110.246143 204.931521 
z
" clip-path="url(#pa4ce351ba5)" style="stroke: #ffffff; stroke-linejoin: miter"/>
   </g>
  </g>
  <g id="axes_5">
   <g id="patch_26">
    <path d="M 71.624571 148.344828 
L 123.12 148.344828 
L 123.12 100.551724 
L 71.624571 100.551724 
z
" style="fill: #ffffff"/>
   </g>
   <g id="matplotlib.axis_6">
    <g id="ytick_15">
     <g id="line2d_5">
      <path d="M 71.624571 148.344828 
L 123.12 148.344828 
" clip-path="url(#p8a5269416c)" style="fill: none; stroke: #cccccc; stroke-linecap: round"/>
     </g>
     <g id="text_21">
      <text style="fill: #262626; font: 8px 'Arial', 'DejaVu Sans', 'Liberation Sans', 'Bitstream Vera Sans', sans-serif; text-anchor: end" x="64.624571" y="151.207953" transform="rotate(-0 64.624571 151.207953)">0.0e+00</text>
     </g>
    </g>
    <g id="ytick_16">
     <g id="line2d_6">
      <path d="M 71.624571 106.077912 
L 123.12 106.077912 
" clip-path="url(#p8a5269416c)" style="fill: none; stroke: #cccccc; stroke-linecap: round"/>
     </g>
     <g id="text_22">
      <text style="fill: #262626; font: 8px 'Arial', 'DejaVu Sans', 'Liberation Sans', 'Bitstream Vera Sans', sans-serif; text-anchor: end" x="64.624571" y="108.941037" transform="rotate(-0 64.624571 108.941037)">1.0e+04</text>
     </g>
    </g>
    <g id="text_23">
     <text style="fill: #262626; font: 8px 'Arial', 'DejaVu Sans', 'Liberation Sans', 'Bitstream Vera Sans', sans-serif" transform="translate(21.434321 132.900151) rotate(-90)"># AA</text>
     <text style="fill: #262626; font: 8px 'Arial', 'DejaVu Sans', 'Liberation Sans', 'Bitstream Vera Sans', sans-serif" transform="translate(29.895821 138.453276) rotate(-90)">variants</text>
    </g>
   </g>
   <g id="patch_27">
    <path d="M 71.624571 148.344828 
L 71.624571 100.551724 
" style="fill: none; stroke: #cccccc; stroke-width: 1.25; stroke-linejoin: miter; stroke-linecap: square"/>
   </g>
   <g id="text_24">
    <text style="fill: #262626; font: 8px 'Arial', 'DejaVu Sans', 'Liberation Sans', 'Bitstream Vera Sans', sans-serif; text-anchor: middle" x="80.207143" y="100.759655" transform="rotate(-0 80.207143 100.759655)">10769</text>
   </g>
   <g id="text_25">
    <text style="fill: #262626; font: 8px 'Arial', 'DejaVu Sans', 'Liberation Sans', 'Bitstream Vera Sans', sans-serif; text-anchor: middle" x="97.372286" y="145.106103" transform="rotate(-0 97.372286 145.106103)">277</text>
   </g>
   <g id="text_26">
    <text style="fill: #262626; font: 8px 'Arial', 'DejaVu Sans', 'Liberation Sans', 'Bitstream Vera Sans', sans-serif; text-anchor: middle" x="114.537429" y="145.511865" transform="rotate(-0 114.537429 145.511865)">181</text>
   </g>
   <g id="patch_28">
    <path d="M 75.915857 148.344828 
L 84.498429 148.344828 
L 84.498429 148.340601 
L 75.915857 148.340601 
z
" clip-path="url(#p8a5269416c)" style="fill: #ff0000; stroke: #ffffff; stroke-linejoin: miter"/>
   </g>
   <g id="patch_29">
    <path d="M 93.081 148.344828 
L 101.663571 148.344828 
L 101.663571 148.340601 
L 93.081 148.340601 
z
" clip-path="url(#p8a5269416c)" style="fill: #ff0000; stroke: #ffffff; stroke-linejoin: miter"/>
   </g>
   <g id="patch_30">
    <path d="M 110.246143 148.344828 
L 118.828714 148.344828 
L 118.828714 148.344828 
L 110.246143 148.344828 
z
" clip-path="url(#p8a5269416c)" style="fill: #ff0000; stroke: #ffffff; stroke-linejoin: miter"/>
   </g>
   <g id="patch_31">
    <path d="M 75.915857 148.340601 
L 84.498429 148.340601 
L 84.498429 107.967243 
L 75.915857 107.967243 
z
" clip-path="url(#p8a5269416c)" style="fill: #ffa500; stroke: #ffffff; stroke-linejoin: miter"/>
   </g>
   <g id="patch_32">
    <path d="M 93.081 148.340601 
L 101.663571 148.340601 
L 101.663571 147.174034 
L 93.081 147.174034 
z
" clip-path="url(#p8a5269416c)" style="fill: #ffa500; stroke: #ffffff; stroke-linejoin: miter"/>
   </g>
   <g id="patch_33">
    <path d="M 110.246143 148.344828 
L 118.828714 148.344828 
L 118.828714 147.579796 
L 110.246143 147.579796 
z
" clip-path="url(#p8a5269416c)" style="fill: #ffa500; stroke: #ffffff; stroke-linejoin: miter"/>
   </g>
   <g id="patch_34">
    <path d="M 75.915857 107.967243 
L 84.498429 107.967243 
L 84.498429 102.827586 
L 75.915857 102.827586 
z
" clip-path="url(#p8a5269416c)" style="fill: #008000; stroke: #ffffff; stroke-linejoin: miter"/>
   </g>
   <g id="patch_35">
    <path d="M 93.081 147.174034 
L 101.663571 147.174034 
L 101.663571 147.174034 
L 93.081 147.174034 
z
" clip-path="url(#p8a5269416c)" style="fill: #008000; stroke: #ffffff; stroke-linejoin: miter"/>
   </g>
   <g id="patch_36">
    <path d="M 110.246143 147.579796 
L 118.828714 147.579796 
L 118.828714 147.579796 
L 110.246143 147.579796 
z
" clip-path="url(#p8a5269416c)" style="fill: #008000; stroke: #ffffff; stroke-linejoin: miter"/>
   </g>
  </g>
  <g id="axes_6">
   <g id="patch_37">
    <path d="M 71.624571 90.993103 
L 123.12 90.993103 
L 123.12 43.2 
L 71.624571 43.2 
z
" style="fill: #ffffff"/>
   </g>
   <g id="matplotlib.axis_7">
    <g id="ytick_17">
     <g id="line2d_7">
      <path d="M 71.624571 90.993103 
L 123.12 90.993103 
" clip-path="url(#p32e90ccfab)" style="fill: none; stroke: #cccccc; stroke-linecap: round"/>
     </g>
     <g id="text_27">
      <text style="fill: #262626; font: 8px 'Arial', 'DejaVu Sans', 'Liberation Sans', 'Bitstream Vera Sans', sans-serif; text-anchor: end" x="64.624571" y="93.856228" transform="rotate(-0 64.624571 93.856228)">0</text>
     </g>
    </g>
    <g id="ytick_18">
     <g id="line2d_8">
      <path d="M 71.624571 59.131034 
L 123.12 59.131034 
" clip-path="url(#p32e90ccfab)" style="fill: none; stroke: #cccccc; stroke-linecap: round"/>
     </g>
     <g id="text_28">
      <text style="fill: #262626; font: 8px 'Arial', 'DejaVu Sans', 'Liberation Sans', 'Bitstream Vera Sans', sans-serif; text-anchor: end" x="64.624571" y="61.994159" transform="rotate(-0 64.624571 61.994159)">2</text>
     </g>
    </g>
    <g id="text_29">
     <text style="fill: #262626; font: 8px 'Arial', 'DejaVu Sans', 'Liberation Sans', 'Bitstream Vera Sans', sans-serif" transform="translate(21.223571 78.218427) rotate(-90)">Log10</text>
     <text style="fill: #262626; font: 8px 'Arial', 'DejaVu Sans', 'Liberation Sans', 'Bitstream Vera Sans', sans-serif" transform="translate(29.895821 82.658427) rotate(-90)">input RC</text>
    </g>
   </g>
   <g id="PolyCollection_1">
    <defs>
     <path id="ma6d2955b00" d="M 80.422209 -282.552062 
L 79.992076 -282.552062 
L 79.964998 -282.650971 
L 79.936704 -282.74988 
L 79.907401 -282.84879 
L 79.877292 -282.947699 
L 79.846563 -283.046608 
L 79.815373 -283.145517 
L 79.783839 -283.244426 
L 79.752034 -283.343335 
L 79.719977 -283.442244 
L 79.687639 -283.541153 
L 79.654942 -283.640062 
L 79.621778 -283.738971 
L 79.588013 -283.83788 
L 79.553509 -283.936789 
L 79.518134 -284.035698 
L 79.48178 -284.134607 
L 79.444368 -284.233516 
L 79.405857 -284.332425 
L 79.366246 -284.431334 
L 79.325563 -284.530243 
L 79.283857 -284.629152 
L 79.241186 -284.728062 
L 79.197597 -284.826971 
L 79.15311 -284.92588 
L 79.107705 -285.024789 
L 79.06131 -285.123698 
L 79.013799 -285.222607 
L 78.964995 -285.321516 
L 78.914683 -285.420425 
L 78.862637 -285.519334 
L 78.808645 -285.618243 
L 78.752549 -285.717152 
L 78.694284 -285.816061 
L 78.633914 -285.91497 
L 78.571666 -286.013879 
L 78.50795 -286.112788 
L 78.443364 -286.211697 
L 78.378687 -286.310606 
L 78.314845 -286.409515 
L 78.252875 -286.508424 
L 78.193857 -286.607334 
L 78.138855 -286.706243 
L 78.088844 -286.805152 
L 78.044647 -286.904061 
L 78.006879 -287.00297 
L 77.975912 -287.101879 
L 77.951858 -287.200788 
L 77.934566 -287.299697 
L 77.923649 -287.398606 
L 77.918523 -287.497515 
L 77.918457 -287.596424 
L 77.922636 -287.695333 
L 77.930219 -287.794242 
L 77.9404 -287.893151 
L 77.952456 -287.99206 
L 77.965786 -288.090969 
L 77.979939 -288.189878 
L 77.994626 -288.288787 
L 78.009721 -288.387697 
L 78.025251 -288.486606 
L 78.04138 -288.585515 
L 78.058382 -288.684424 
L 78.076613 -288.783333 
L 78.096481 -288.882242 
L 78.118418 -288.981151 
L 78.142851 -289.08006 
L 78.17018 -289.178969 
L 78.200757 -289.277878 
L 78.234872 -289.376787 
L 78.272744 -289.475696 
L 78.314514 -289.574605 
L 78.360242 -289.673514 
L 78.40991 -289.772423 
L 78.463423 -289.871332 
L 78.520611 -289.970241 
L 78.581236 -290.06915 
L 78.644991 -290.168059 
L 78.711508 -290.266969 
L 78.780359 -290.365878 
L 78.851068 -290.464787 
L 78.923111 -290.563696 
L 78.995937 -290.662605 
L 79.068975 -290.761514 
L 79.141656 -290.860423 
L 79.213428 -290.959332 
L 79.28378 -291.058241 
L 79.352252 -291.15715 
L 79.418455 -291.256059 
L 79.48208 -291.354968 
L 79.542896 -291.453877 
L 79.600753 -291.552786 
L 79.655575 -291.651695 
L 79.707341 -291.750604 
L 79.756078 -291.849513 
L 79.80184 -291.948422 
L 79.844697 -292.047331 
L 79.884722 -292.146241 
L 79.921981 -292.24515 
L 79.956531 -292.344059 
L 80.457754 -292.344059 
L 80.457754 -292.344059 
L 80.492305 -292.24515 
L 80.529564 -292.146241 
L 80.569589 -292.047331 
L 80.612446 -291.948422 
L 80.658208 -291.849513 
L 80.706945 -291.750604 
L 80.758711 -291.651695 
L 80.813532 -291.552786 
L 80.87139 -291.453877 
L 80.932206 -291.354968 
L 80.99583 -291.256059 
L 81.062034 -291.15715 
L 81.130506 -291.058241 
L 81.200858 -290.959332 
L 81.27263 -290.860423 
L 81.345311 -290.761514 
L 81.418349 -290.662605 
L 81.491175 -290.563696 
L 81.563218 -290.464787 
L 81.633926 -290.365878 
L 81.702778 -290.266969 
L 81.769295 -290.168059 
L 81.83305 -290.06915 
L 81.893675 -289.970241 
L 81.950863 -289.871332 
L 82.004376 -289.772423 
L 82.054044 -289.673514 
L 82.099772 -289.574605 
L 82.141541 -289.475696 
L 82.179413 -289.376787 
L 82.213529 -289.277878 
L 82.244106 -289.178969 
L 82.271434 -289.08006 
L 82.295868 -288.981151 
L 82.317804 -288.882242 
L 82.337672 -288.783333 
L 82.355903 -288.684424 
L 82.372905 -288.585515 
L 82.389035 -288.486606 
L 82.404565 -288.387697 
L 82.41966 -288.288787 
L 82.434346 -288.189878 
L 82.448499 -288.090969 
L 82.461829 -287.99206 
L 82.473885 -287.893151 
L 82.484067 -287.794242 
L 82.49165 -287.695333 
L 82.495829 -287.596424 
L 82.495763 -287.497515 
L 82.490636 -287.398606 
L 82.479719 -287.299697 
L 82.462427 -287.200788 
L 82.438373 -287.101879 
L 82.407407 -287.00297 
L 82.369639 -286.904061 
L 82.325441 -286.805152 
L 82.27543 -286.706243 
L 82.220429 -286.607334 
L 82.161411 -286.508424 
L 82.09944 -286.409515 
L 82.035599 -286.310606 
L 81.970921 -286.211697 
L 81.906336 -286.112788 
L 81.842619 -286.013879 
L 81.780372 -285.91497 
L 81.720002 -285.816061 
L 81.661737 -285.717152 
L 81.605641 -285.618243 
L 81.551649 -285.519334 
L 81.499602 -285.420425 
L 81.449291 -285.321516 
L 81.400487 -285.222607 
L 81.352976 -285.123698 
L 81.306581 -285.024789 
L 81.261176 -284.92588 
L 81.216689 -284.826971 
L 81.173099 -284.728062 
L 81.130428 -284.629152 
L 81.088723 -284.530243 
L 81.048039 -284.431334 
L 81.008428 -284.332425 
L 80.969918 -284.233516 
L 80.932506 -284.134607 
L 80.896151 -284.035698 
L 80.860777 -283.936789 
L 80.826272 -283.83788 
L 80.792508 -283.738971 
L 80.759344 -283.640062 
L 80.726647 -283.541153 
L 80.694308 -283.442244 
L 80.662252 -283.343335 
L 80.630447 -283.244426 
L 80.598913 -283.145517 
L 80.567723 -283.046608 
L 80.536994 -282.947699 
L 80.506885 -282.84879 
L 80.477582 -282.74988 
L 80.449288 -282.650971 
L 80.422209 -282.552062 
z
" style="stroke: #000000; stroke-width: 0.5"/>
    </defs>
    <g clip-path="url(#p32e90ccfab)">
     <use xlink:href="#ma6d2955b00" x="0" y="360" style="fill: #94c9de; stroke: #000000; stroke-width: 0.5"/>
    </g>
   </g>
   <g id="PolyCollection_2">
    <defs>
     <path id="m0603a2a4bb" d="M 84.786691 -275.573357 
L 84.782337 -275.573357 
L 84.781765 -275.784719 
L 84.781089 -275.99608 
L 84.780197 -276.207441 
L 84.77902 -276.418802 
L 84.777552 -276.630164 
L 84.775843 -276.841525 
L 84.774002 -277.052886 
L 84.772132 -277.264247 
L 84.77018 -277.475608 
L 84.767846 -277.68697 
L 84.764778 -277.898331 
L 84.760855 -278.109692 
L 84.756156 -278.321053 
L 84.750636 -278.532415 
L 84.74392 -278.743776 
L 84.735287 -278.955137 
L 84.723645 -279.166498 
L 84.707716 -279.377859 
L 84.686908 -279.589221 
L 84.662286 -279.800582 
L 84.636307 -280.011943 
L 84.611097 -280.223304 
L 84.586969 -280.434665 
L 84.562662 -280.646027 
L 84.53648 -280.857388 
L 84.506685 -281.068749 
L 84.47134 -281.28011 
L 84.429019 -281.491472 
L 84.380125 -281.702833 
L 84.326873 -281.914194 
L 84.271398 -282.125555 
L 84.213828 -282.336916 
L 84.152057 -282.548278 
L 84.083145 -282.759639 
L 84.00515 -282.971 
L 83.91828 -283.182361 
L 83.824845 -283.393722 
L 83.728356 -283.605084 
L 83.632621 -283.816445 
L 83.540942 -284.027806 
L 83.45506 -284.239167 
L 83.374439 -284.450529 
L 83.296862 -284.66189 
L 83.220043 -284.873251 
L 83.143036 -285.084612 
L 83.066721 -285.295973 
L 82.992926 -285.507335 
L 82.922068 -285.718696 
L 82.851359 -285.930057 
L 82.776861 -286.141418 
L 82.698837 -286.352779 
L 82.624564 -286.564141 
L 82.564324 -286.775502 
L 82.524265 -286.986863 
L 82.503313 -287.198224 
L 82.495829 -287.409586 
L 82.496172 -287.620947 
L 82.501961 -287.832308 
L 82.515016 -288.043669 
L 82.53956 -288.25503 
L 82.578729 -288.466392 
L 82.632189 -288.677753 
L 82.696651 -288.889114 
L 82.768111 -289.100475 
L 82.843592 -289.311837 
L 82.921639 -289.523198 
L 83.002507 -289.734559 
L 83.088166 -289.94592 
L 83.180798 -290.157281 
L 83.2799 -290.368643 
L 83.380837 -290.580004 
L 83.47689 -290.791365 
L 83.563337 -291.002726 
L 83.640392 -291.214087 
L 83.713036 -291.425449 
L 83.787827 -291.63681 
L 83.86877 -291.848171 
L 83.95518 -292.059532 
L 84.042882 -292.270894 
L 84.127215 -292.482255 
L 84.205202 -292.693616 
L 84.275761 -292.904977 
L 84.338812 -293.116338 
L 84.394611 -293.3277 
L 84.443934 -293.539061 
L 84.488474 -293.750422 
L 84.530344 -293.961783 
L 84.570772 -294.173144 
L 84.609357 -294.384506 
L 84.644731 -294.595867 
L 84.67569 -294.807228 
L 84.701587 -295.018589 
L 84.722073 -295.229951 
L 84.73712 -295.441312 
L 84.747508 -295.652673 
L 84.754943 -295.864034 
L 84.761242 -296.075395 
L 84.76732 -296.286757 
L 84.772997 -296.498118 
L 84.796031 -296.498118 
L 84.796031 -296.498118 
L 84.801709 -296.286757 
L 84.807786 -296.075395 
L 84.814085 -295.864034 
L 84.821521 -295.652673 
L 84.831909 -295.441312 
L 84.846955 -295.229951 
L 84.867442 -295.018589 
L 84.893339 -294.807228 
L 84.924297 -294.595867 
L 84.959672 -294.384506 
L 84.998257 -294.173144 
L 85.038684 -293.961783 
L 85.080555 -293.750422 
L 85.125094 -293.539061 
L 85.174418 -293.3277 
L 85.230217 -293.116338 
L 85.293267 -292.904977 
L 85.363826 -292.693616 
L 85.441813 -292.482255 
L 85.526147 -292.270894 
L 85.613848 -292.059532 
L 85.700258 -291.848171 
L 85.781202 -291.63681 
L 85.855993 -291.425449 
L 85.928637 -291.214087 
L 86.005692 -291.002726 
L 86.092138 -290.791365 
L 86.188192 -290.580004 
L 86.289128 -290.368643 
L 86.388231 -290.157281 
L 86.480863 -289.94592 
L 86.566522 -289.734559 
L 86.647389 -289.523198 
L 86.725437 -289.311837 
L 86.800918 -289.100475 
L 86.872377 -288.889114 
L 86.936839 -288.677753 
L 86.9903 -288.466392 
L 87.029468 -288.25503 
L 87.054013 -288.043669 
L 87.067067 -287.832308 
L 87.072857 -287.620947 
L 87.0732 -287.409586 
L 87.065715 -287.198224 
L 87.044764 -286.986863 
L 87.004705 -286.775502 
L 86.944464 -286.564141 
L 86.870191 -286.352779 
L 86.792167 -286.141418 
L 86.717669 -285.930057 
L 86.646961 -285.718696 
L 86.576103 -285.507335 
L 86.502308 -285.295973 
L 86.425993 -285.084612 
L 86.348985 -284.873251 
L 86.272167 -284.66189 
L 86.194589 -284.450529 
L 86.113968 -284.239167 
L 86.028087 -284.027806 
L 85.936407 -283.816445 
L 85.840672 -283.605084 
L 85.744184 -283.393722 
L 85.650748 -283.182361 
L 85.563879 -282.971 
L 85.485883 -282.759639 
L 85.416971 -282.548278 
L 85.355201 -282.336916 
L 85.297631 -282.125555 
L 85.242156 -281.914194 
L 85.188903 -281.702833 
L 85.14001 -281.491472 
L 85.097688 -281.28011 
L 85.062343 -281.068749 
L 85.032549 -280.857388 
L 85.006367 -280.646027 
L 84.982059 -280.434665 
L 84.957932 -280.223304 
L 84.932722 -280.011943 
L 84.906742 -279.800582 
L 84.882121 -279.589221 
L 84.861313 -279.377859 
L 84.845384 -279.166498 
L 84.833741 -278.955137 
L 84.825109 -278.743776 
L 84.818392 -278.532415 
L 84.812872 -278.321053 
L 84.808173 -278.109692 
L 84.80425 -277.898331 
L 84.801183 -277.68697 
L 84.798849 -277.475608 
L 84.796896 -277.264247 
L 84.795026 -277.052886 
L 84.793185 -276.841525 
L 84.791477 -276.630164 
L 84.790009 -276.418802 
L 84.788831 -276.207441 
L 84.787939 -275.99608 
L 84.787264 -275.784719 
L 84.786691 -275.573357 
z
" style="stroke: #000000; stroke-width: 0.5"/>
    </defs>
    <g clip-path="url(#p32e90ccfab)">
     <use xlink:href="#m0603a2a4bb" x="0" y="360" style="fill: #f7c8d0; stroke: #000000; stroke-width: 0.5"/>
    </g>
   </g>
   <g id="PolyCollection_3">
    <defs>
     <path id="m15c27cf991" d="M 101.950473 -273.802616 
L 101.948842 -273.802616 
L 101.948799 -273.985366 
L 101.948763 -274.168116 
L 101.948729 -274.350867 
L 101.948688 -274.533617 
L 101.948632 -274.716367 
L 101.94855 -274.899118 
L 101.94843 -275.081868 
L 101.948258 -275.264618 
L 101.948018 -275.447369 
L 101.947696 -275.630119 
L 101.947273 -275.812869 
L 101.946736 -275.995619 
L 101.946073 -276.17837 
L 101.945281 -276.36112 
L 101.944363 -276.54387 
L 101.943332 -276.726621 
L 101.942208 -276.909371 
L 101.941016 -277.092121 
L 101.939781 -277.274872 
L 101.938529 -277.457622 
L 101.937276 -277.640372 
L 101.936035 -277.823122 
L 101.934808 -278.005873 
L 101.933591 -278.188623 
L 101.932373 -278.371373 
L 101.931137 -278.554124 
L 101.929862 -278.736874 
L 101.928521 -278.919624 
L 101.92708 -279.102375 
L 101.925503 -279.285125 
L 101.923746 -279.467875 
L 101.921771 -279.650626 
L 101.919542 -279.833376 
L 101.917043 -280.016126 
L 101.914278 -280.198876 
L 101.911284 -280.381627 
L 101.908132 -280.564377 
L 101.904922 -280.747127 
L 101.901779 -280.929878 
L 101.898834 -281.112628 
L 101.896212 -281.295378 
L 101.894012 -281.478129 
L 101.8923 -281.660879 
L 101.891097 -281.843629 
L 101.890387 -282.026379 
L 101.890121 -282.20913 
L 101.89023 -282.39188 
L 101.890636 -282.57463 
L 101.891265 -282.757381 
L 101.892049 -282.940131 
L 101.892934 -283.122881 
L 101.893875 -283.305632 
L 101.894839 -283.488382 
L 101.895799 -283.671132 
L 101.896739 -283.853883 
L 101.897655 -284.036633 
L 101.89855 -284.219383 
L 101.89944 -284.402133 
L 101.900348 -284.584884 
L 101.901306 -284.767634 
L 101.902345 -284.950384 
L 101.903496 -285.133135 
L 101.904781 -285.315885 
L 101.906214 -285.498635 
L 101.907793 -285.681386 
L 101.909506 -285.864136 
L 101.911329 -286.046886 
L 101.913229 -286.229636 
L 101.91517 -286.412387 
L 101.917115 -286.595137 
L 101.919036 -286.777887 
L 101.92091 -286.960638 
L 101.922727 -287.143388 
L 101.924484 -287.326138 
L 101.926187 -287.508889 
L 101.927841 -287.691639 
L 101.929456 -287.874389 
L 101.931036 -288.057139 
L 101.932581 -288.23989 
L 101.934087 -288.42264 
L 101.935546 -288.60539 
L 101.93695 -288.788141 
L 101.938288 -288.970891 
L 101.939554 -289.153641 
L 101.940741 -289.336392 
L 101.941843 -289.519142 
L 101.942859 -289.701892 
L 101.943786 -289.884643 
L 101.944623 -290.067393 
L 101.945369 -290.250143 
L 101.946024 -290.432893 
L 101.94659 -290.615644 
L 101.947069 -290.798394 
L 101.947468 -290.981144 
L 101.947794 -291.163895 
L 101.948058 -291.346645 
L 101.948271 -291.529395 
L 101.948447 -291.712146 
L 101.948597 -291.894896 
L 101.950717 -291.894896 
L 101.950717 -291.894896 
L 101.950867 -291.712146 
L 101.951043 -291.529395 
L 101.951257 -291.346645 
L 101.951521 -291.163895 
L 101.951847 -290.981144 
L 101.952245 -290.798394 
L 101.952725 -290.615644 
L 101.95329 -290.432893 
L 101.953945 -290.250143 
L 101.954691 -290.067393 
L 101.955528 -289.884643 
L 101.956455 -289.701892 
L 101.957471 -289.519142 
L 101.958574 -289.336392 
L 101.95976 -289.153641 
L 101.961026 -288.970891 
L 101.962365 -288.788141 
L 101.963768 -288.60539 
L 101.965228 -288.42264 
L 101.966733 -288.23989 
L 101.968278 -288.057139 
L 101.969858 -287.874389 
L 101.971473 -287.691639 
L 101.973128 -287.508889 
L 101.97483 -287.326138 
L 101.976587 -287.143388 
L 101.978404 -286.960638 
L 101.980278 -286.777887 
L 101.982199 -286.595137 
L 101.984145 -286.412387 
L 101.986085 -286.229636 
L 101.987985 -286.046886 
L 101.989808 -285.864136 
L 101.991521 -285.681386 
L 101.993101 -285.498635 
L 101.994533 -285.315885 
L 101.995818 -285.133135 
L 101.996969 -284.950384 
L 101.998009 -284.767634 
L 101.998966 -284.584884 
L 101.999875 -284.402133 
L 102.000764 -284.219383 
L 102.001659 -284.036633 
L 102.002575 -283.853883 
L 102.003516 -283.671132 
L 102.004476 -283.488382 
L 102.005439 -283.305632 
L 102.00638 -283.122881 
L 102.007265 -282.940131 
L 102.00805 -282.757381 
L 102.008678 -282.57463 
L 102.009085 -282.39188 
L 102.009193 -282.20913 
L 102.008927 -282.026379 
L 102.008217 -281.843629 
L 102.007014 -281.660879 
L 102.005302 -281.478129 
L 102.003102 -281.295378 
L 102.00048 -281.112628 
L 101.997535 -280.929878 
L 101.994392 -280.747127 
L 101.991182 -280.564377 
L 101.98803 -280.381627 
L 101.985037 -280.198876 
L 101.982272 -280.016126 
L 101.979772 -279.833376 
L 101.977544 -279.650626 
L 101.975568 -279.467875 
L 101.973812 -279.285125 
L 101.972234 -279.102375 
L 101.970793 -278.919624 
L 101.969452 -278.736874 
L 101.968177 -278.554124 
L 101.966941 -278.371373 
L 101.965723 -278.188623 
L 101.964506 -278.005873 
L 101.963279 -277.823122 
L 101.962038 -277.640372 
L 101.960786 -277.457622 
L 101.959533 -277.274872 
L 101.958298 -277.092121 
L 101.957106 -276.909371 
L 101.955982 -276.726621 
L 101.954951 -276.54387 
L 101.954033 -276.36112 
L 101.953241 -276.17837 
L 101.952578 -275.995619 
L 101.952041 -275.812869 
L 101.951619 -275.630119 
L 101.951296 -275.447369 
L 101.951057 -275.264618 
L 101.950885 -275.081868 
L 101.950764 -274.899118 
L 101.950682 -274.716367 
L 101.950626 -274.533617 
L 101.950585 -274.350867 
L 101.950551 -274.168116 
L 101.950516 -273.985366 
L 101.950473 -273.802616 
z
" style="stroke: #000000; stroke-width: 0.5"/>
    </defs>
    <g clip-path="url(#p32e90ccfab)">
     <use xlink:href="#m15c27cf991" x="0" y="360" style="fill: #f7c8d0; stroke: #000000; stroke-width: 0.5"/>
    </g>
   </g>
   <g id="PolyCollection_4">
    <defs>
     <path id="m67d3a45b53" d="M 119.117534 -276.212466 
L 119.112066 -276.212466 
L 119.111831 -276.347869 
L 119.111612 -276.483272 
L 119.111409 -276.618675 
L 119.111221 -276.754078 
L 119.111043 -276.889481 
L 119.11087 -277.024884 
L 119.110692 -277.160288 
L 119.110499 -277.295691 
L 119.110279 -277.431094 
L 119.110021 -277.566497 
L 119.109711 -277.7019 
L 119.109336 -277.837303 
L 119.108886 -277.972706 
L 119.108348 -278.108109 
L 119.107711 -278.243512 
L 119.106967 -278.378915 
L 119.106108 -278.514318 
L 119.105129 -278.649721 
L 119.104026 -278.785124 
L 119.102801 -278.920527 
L 119.101455 -279.05593 
L 119.099998 -279.191333 
L 119.098442 -279.326736 
L 119.096802 -279.462139 
L 119.095099 -279.597542 
L 119.093357 -279.732945 
L 119.091604 -279.868348 
L 119.089868 -280.003751 
L 119.088179 -280.139154 
L 119.086564 -280.274557 
L 119.085051 -280.40996 
L 119.083662 -280.545363 
L 119.082411 -280.680766 
L 119.08131 -280.816169 
L 119.080361 -280.951572 
L 119.07956 -281.086975 
L 119.078895 -281.222378 
L 119.078348 -281.357781 
L 119.077901 -281.493184 
L 119.077529 -281.628587 
L 119.077212 -281.76399 
L 119.076932 -281.899393 
L 119.076674 -282.034796 
L 119.076432 -282.170199 
L 119.076208 -282.305602 
L 119.076011 -282.441006 
L 119.075856 -282.576409 
L 119.075763 -282.711812 
L 119.075756 -282.847215 
L 119.075858 -282.982618 
L 119.076086 -283.118021 
L 119.076454 -283.253424 
L 119.076967 -283.388827 
L 119.077621 -283.52423 
L 119.078402 -283.659633 
L 119.07929 -283.795036 
L 119.080256 -283.930439 
L 119.08127 -284.065842 
L 119.0823 -284.201245 
L 119.083317 -284.336648 
L 119.084295 -284.472051 
L 119.085216 -284.607454 
L 119.086069 -284.742857 
L 119.08685 -284.87826 
L 119.087565 -285.013663 
L 119.088222 -285.149066 
L 119.088838 -285.284469 
L 119.089431 -285.419872 
L 119.090019 -285.555275 
L 119.090619 -285.690678 
L 119.091247 -285.826081 
L 119.091915 -285.961484 
L 119.092629 -286.096887 
L 119.093393 -286.23229 
L 119.094206 -286.367693 
L 119.095064 -286.503096 
L 119.095961 -286.638499 
L 119.096889 -286.773902 
L 119.097839 -286.909305 
L 119.098801 -287.044708 
L 119.099768 -287.180111 
L 119.100731 -287.315514 
L 119.101683 -287.450917 
L 119.102618 -287.58632 
L 119.103529 -287.721723 
L 119.104414 -287.857127 
L 119.105266 -287.99253 
L 119.106082 -288.127933 
L 119.10686 -288.263336 
L 119.107598 -288.398739 
L 119.108293 -288.534142 
L 119.108945 -288.669545 
L 119.109554 -288.804948 
L 119.11012 -288.940351 
L 119.110644 -289.075754 
L 119.111129 -289.211157 
L 119.111575 -289.34656 
L 119.111984 -289.481963 
L 119.112357 -289.617366 
L 119.117243 -289.617366 
L 119.117243 -289.617366 
L 119.117616 -289.481963 
L 119.118025 -289.34656 
L 119.118471 -289.211157 
L 119.118956 -289.075754 
L 119.11948 -288.940351 
L 119.120046 -288.804948 
L 119.120655 -288.669545 
L 119.121307 -288.534142 
L 119.122002 -288.398739 
L 119.12274 -288.263336 
L 119.123518 -288.127933 
L 119.124334 -287.99253 
L 119.125186 -287.857127 
L 119.126071 -287.721723 
L 119.126982 -287.58632 
L 119.127917 -287.450917 
L 119.128869 -287.315514 
L 119.129832 -287.180111 
L 119.130799 -287.044708 
L 119.131761 -286.909305 
L 119.132711 -286.773902 
L 119.133639 -286.638499 
L 119.134536 -286.503096 
L 119.135394 -286.367693 
L 119.136207 -286.23229 
L 119.136971 -286.096887 
L 119.137685 -285.961484 
L 119.138353 -285.826081 
L 119.138981 -285.690678 
L 119.139581 -285.555275 
L 119.140169 -285.419872 
L 119.140762 -285.284469 
L 119.141378 -285.149066 
L 119.142035 -285.013663 
L 119.14275 -284.87826 
L 119.143531 -284.742857 
L 119.144384 -284.607454 
L 119.145305 -284.472051 
L 119.146283 -284.336648 
L 119.1473 -284.201245 
L 119.14833 -284.065842 
L 119.149344 -283.930439 
L 119.15031 -283.795036 
L 119.151198 -283.659633 
L 119.151979 -283.52423 
L 119.152633 -283.388827 
L 119.153146 -283.253424 
L 119.153514 -283.118021 
L 119.153742 -282.982618 
L 119.153844 -282.847215 
L 119.153837 -282.711812 
L 119.153744 -282.576409 
L 119.153589 -282.441006 
L 119.153392 -282.305602 
L 119.153168 -282.170199 
L 119.152926 -282.034796 
L 119.152668 -281.899393 
L 119.152388 -281.76399 
L 119.152071 -281.628587 
L 119.151699 -281.493184 
L 119.151252 -281.357781 
L 119.150705 -281.222378 
L 119.15004 -281.086975 
L 119.149239 -280.951572 
L 119.14829 -280.816169 
L 119.147189 -280.680766 
L 119.145938 -280.545363 
L 119.144549 -280.40996 
L 119.143036 -280.274557 
L 119.141421 -280.139154 
L 119.139732 -280.003751 
L 119.137996 -279.868348 
L 119.136243 -279.732945 
L 119.134501 -279.597542 
L 119.132798 -279.462139 
L 119.131158 -279.326736 
L 119.129602 -279.191333 
L 119.128145 -279.05593 
L 119.126799 -278.920527 
L 119.125574 -278.785124 
L 119.124471 -278.649721 
L 119.123492 -278.514318 
L 119.122633 -278.378915 
L 119.121889 -278.243512 
L 119.121252 -278.108109 
L 119.120714 -277.972706 
L 119.120264 -277.837303 
L 119.119889 -277.7019 
L 119.119579 -277.566497 
L 119.119321 -277.431094 
L 119.119101 -277.295691 
L 119.118908 -277.160288 
L 119.11873 -277.024884 
L 119.118557 -276.889481 
L 119.118379 -276.754078 
L 119.118191 -276.618675 
L 119.117988 -276.483272 
L 119.117769 -276.347869 
L 119.117534 -276.212466 
z
" style="stroke: #000000; stroke-width: 0.5"/>
    </defs>
    <g clip-path="url(#p32e90ccfab)">
     <use xlink:href="#m67d3a45b53" x="0" y="360" style="fill: #f7c8d0; stroke: #000000; stroke-width: 0.5"/>
    </g>
   </g>
   <g id="patch_38">
    <path d="M 80.207143 90.993103 
L 80.207143 90.993103 
L 80.207143 90.993103 
L 80.207143 90.993103 
z
" clip-path="url(#p32e90ccfab)" style="stroke: #000000; stroke-width: 0.5; stroke-linejoin: miter"/>
   </g>
   <g id="patch_39">
    <path d="M 80.207143 90.993103 
L 80.207143 90.993103 
L 80.207143 90.993103 
L 80.207143 90.993103 
z
" clip-path="url(#p32e90ccfab)" style="fill: #94c9de; stroke: #000000; stroke-width: 0.5; stroke-linejoin: miter"/>
   </g>
   <g id="patch_40">
    <path d="M 80.207143 90.993103 
L 80.207143 90.993103 
L 80.207143 90.993103 
L 80.207143 90.993103 
z
" clip-path="url(#p32e90ccfab)" style="fill: #f7c8d0; stroke: #000000; stroke-width: 0.5; stroke-linejoin: miter"/>
   </g>
   <g id="line2d_9">
    <path d="M 73.341086 71.632357 
L 77.918457 71.632357 
" clip-path="url(#p32e90ccfab)" style="fill: none; stroke: #000000; stroke-width: 0.5; stroke-linecap: round"/>
   </g>
   <g id="line2d_10">
    <path d="M 80.207143 77.447938 
L 80.207143 67.655941 
" clip-path="url(#p32e90ccfab)" style="fill: none; stroke: #000000; stroke-width: 0.75; stroke-linecap: round"/>
   </g>
   <g id="line2d_11">
    <path d="M 80.207143 73.564472 
L 80.207143 70.682194 
" clip-path="url(#p32e90ccfab)" style="fill: none; stroke: #000000; stroke-width: 2.25; stroke-linecap: round"/>
   </g>
   <g id="line2d_12">
    <path d="M 80.207143 72.27624 
" clip-path="url(#p32e90ccfab)" style="fill: none; stroke: #000000; stroke-width: 1.5; stroke-linecap: round"/>
    <defs>
     <path id="m75b860a65a" d="M 0.9375 0 
L -0.9375 -0 
" style="stroke: #ffffff; stroke-width: 0.45"/>
    </defs>
    <g clip-path="url(#p32e90ccfab)">
     <use xlink:href="#m75b860a65a" x="80.207143" y="72.27624" style="fill: #ffffff; stroke: #ffffff; stroke-width: 0.45"/>
    </g>
   </g>
   <g id="line2d_13">
    <path d="M 84.784514 80.716079 
L 84.784514 64.330364 
" clip-path="url(#p32e90ccfab)" style="fill: none; stroke: #000000; stroke-width: 0.75; stroke-linecap: round"/>
   </g>
   <g id="line2d_14">
    <path d="M 84.784514 74.5617 
L 84.784514 70.441518 
" clip-path="url(#p32e90ccfab)" style="fill: none; stroke: #000000; stroke-width: 2.25; stroke-linecap: round"/>
   </g>
   <g id="line2d_15">
    <path d="M 84.784514 72.49131 
" clip-path="url(#p32e90ccfab)" style="fill: none; stroke: #000000; stroke-width: 1.5; stroke-linecap: round"/>
    <g clip-path="url(#p32e90ccfab)">
     <use xlink:href="#m75b860a65a" x="84.784514" y="72.49131" style="fill: #ffffff; stroke: #ffffff; stroke-width: 0.45"/>
    </g>
   </g>
   <g id="line2d_16">
    <path d="M 95.0836 78.791257 
L 99.660971 78.791257 
" clip-path="url(#p32e90ccfab)" style="fill: none; stroke: #000000; stroke-width: 0.5; stroke-linecap: round"/>
   </g>
   <g id="line2d_17">
    <path d="M 101.949657 83.01799 
L 101.949657 69.606921 
" clip-path="url(#p32e90ccfab)" style="fill: none; stroke: #000000; stroke-width: 0.75; stroke-linecap: round"/>
   </g>
   <g id="line2d_18">
    <path d="M 101.949657 78.596349 
L 101.949657 74.724502 
" clip-path="url(#p32e90ccfab)" style="fill: none; stroke: #000000; stroke-width: 2.25; stroke-linecap: round"/>
   </g>
   <g id="line2d_19">
    <path d="M 101.949657 76.863006 
" clip-path="url(#p32e90ccfab)" style="fill: none; stroke: #000000; stroke-width: 1.5; stroke-linecap: round"/>
    <g clip-path="url(#p32e90ccfab)">
     <use xlink:href="#m75b860a65a" x="101.949657" y="76.863006" style="fill: #ffffff; stroke: #ffffff; stroke-width: 0.45"/>
    </g>
   </g>
   <g id="line2d_20">
    <path d="M 119.1148 83.787534 
L 119.1148 70.382634 
" clip-path="url(#p32e90ccfab)" style="fill: none; stroke: #000000; stroke-width: 0.75; stroke-linecap: round"/>
   </g>
   <g id="line2d_21">
    <path d="M 119.1148 78.791257 
L 119.1148 75.296626 
" clip-path="url(#p32e90ccfab)" style="fill: none; stroke: #000000; stroke-width: 2.25; stroke-linecap: round"/>
   </g>
   <g id="line2d_22">
    <path d="M 119.1148 77.052472 
" clip-path="url(#p32e90ccfab)" style="fill: none; stroke: #000000; stroke-width: 1.5; stroke-linecap: round"/>
    <g clip-path="url(#p32e90ccfab)">
     <use xlink:href="#m75b860a65a" x="119.1148" y="77.052472" style="fill: #ffffff; stroke: #ffffff; stroke-width: 0.45"/>
    </g>
   </g>
   <g id="line2d_23">
    <path d="M 71.624571 83.392068 
L 123.12 83.392068 
" clip-path="url(#p32e90ccfab)" style="fill: none; stroke-dasharray: 5.55,2.4; stroke-dashoffset: 0; stroke: #ffa500; stroke-width: 1.5"/>
   </g>
   <g id="line2d_24">
    <path d="M 71.624571 75.062069 
L 123.12 75.062069 
" clip-path="url(#p32e90ccfab)" style="fill: none; stroke-dasharray: 5.55,2.4; stroke-dashoffset: 0; stroke: #008000; stroke-width: 1.5"/>
   </g>
   <g id="patch_41">
    <path d="M 71.624571 90.993103 
L 71.624571 43.2 
" style="fill: none; stroke: #cccccc; stroke-width: 1.25; stroke-linejoin: miter; stroke-linecap: square"/>
   </g>
  </g>
 </g>
 <defs>
  <clipPath id="p65e13811dd">
   <rect x="17.1" y="215.255172" width="106.02" height="105.144828"/>
  </clipPath>
  <clipPath id="p9fc376935b">
   <rect x="71.624571" y="215.255172" width="51.495429" height="105.144828"/>
  </clipPath>
  <clipPath id="pc8d8296591">
   <rect x="17.1" y="215.255172" width="15.145714" height="105.144828"/>
  </clipPath>
  <clipPath id="pa4ce351ba5">
   <rect x="71.624571" y="157.903448" width="51.495429" height="47.793103"/>
  </clipPath>
  <clipPath id="p8a5269416c">
   <rect x="71.624571" y="100.551724" width="51.495429" height="47.793103"/>
  </clipPath>
  <clipPath id="p32e90ccfab">
   <rect x="71.624571" y="43.2" width="51.495429" height="47.793103"/>
  </clipPath>
 </defs>
</svg>
