<?xml version="1.0" encoding="utf-8" standalone="no"?>
<!DOCTYPE svg PUBLIC "-//W3C//DTD SVG 1.1//EN"
  "http://www.w3.org/Graphics/SVG/1.1/DTD/svg11.dtd">
<svg xmlns:xlink="http://www.w3.org/1999/xlink" width="136.8pt" height="360pt" viewBox="0 0 136.8 360" xmlns="http://www.w3.org/2000/svg" version="1.1">
 <metadata>
  <rdf:RDF xmlns:dc="http://purl.org/dc/elements/1.1/" xmlns:cc="http://creativecommons.org/ns#" xmlns:rdf="http://www.w3.org/1999/02/22-rdf-syntax-ns#">
   <cc:Work>
    <dc:type rdf:resource="http://purl.org/dc/dcmitype/StillImage"/>
    <dc:date>2024-04-24T13:36:20.412731</dc:date>
    <dc:format>image/svg+xml</dc:format>
    <dc:creator>
     <cc:Agent>
      <dc:title>Matplotlib v3.8.1, https://matplotlib.org/</dc:title>
     </cc:Agent>
    </dc:creator>
   </cc:Work>
  </rdf:RDF>
 </metadata>
 <defs>
  <style type="text/css">*{stroke-linejoin: round; stroke-linecap: butt}</style>
 </defs>
 <g id="figure_1">
  <g id="patch_1">
   <path d="M 0 360 
L 136.8 360 
L 136.8 0 
L 0 0 
z
" style="fill: #ffffff"/>
  </g>
  <g id="axes_1">
   <g id="patch_2">
    <path d="M 17.1 314.672727 
L 123.12 314.672727 
L 123.12 302.924476 
L 17.1 302.924476 
z
" clip-path="url(#p784e8184ac)" style="fill-opacity: 0.05098"/>
   </g>
   <g id="patch_3">
    <path d="M 17.1 299.987413 
L 123.12 299.987413 
L 123.12 288.239161 
L 17.1 288.239161 
L 17.1 299.987413 
z
" clip-path="url(#p784e8184ac)" style="fill: none"/>
   </g>
   <g id="patch_4">
    <path d="M 17.1 285.302098 
L 123.12 285.302098 
L 123.12 273.553846 
L 17.1 273.553846 
z
" clip-path="url(#p784e8184ac)" style="fill-opacity: 0.05098"/>
   </g>
   <g id="patch_5">
    <path d="M 17.1 270.616783 
L 123.12 270.616783 
L 123.12 258.868531 
L 17.1 258.868531 
L 17.1 270.616783 
z
" clip-path="url(#p784e8184ac)" style="fill: none"/>
   </g>
   <g id="patch_6">
    <path d="M 17.1 255.931469 
L 123.12 255.931469 
L 123.12 244.183217 
L 17.1 244.183217 
z
" clip-path="url(#p784e8184ac)" style="fill-opacity: 0.05098"/>
   </g>
   <g id="patch_7">
    <path d="M 17.1 241.246154 
L 123.12 241.246154 
L 123.12 229.497902 
L 17.1 229.497902 
L 17.1 241.246154 
z
" clip-path="url(#p784e8184ac)" style="fill: none"/>
   </g>
   <g id="patch_8">
    <path d="M 17.1 226.560839 
L 123.12 226.560839 
L 123.12 214.812587 
L 17.1 214.812587 
z
" clip-path="url(#p784e8184ac)" style="fill-opacity: 0.05098"/>
   </g>
   <g id="patch_9">
    <path d="M 17.1 211.875524 
L 123.12 211.875524 
L 123.12 200.127273 
L 17.1 200.127273 
L 17.1 211.875524 
z
" clip-path="url(#p784e8184ac)" style="fill: none"/>
   </g>
   <g id="matplotlib.axis_1"/>
   <g id="matplotlib.axis_2">
    <g id="ytick_1"/>
    <g id="ytick_2"/>
    <g id="ytick_3"/>
    <g id="ytick_4"/>
    <g id="ytick_5"/>
    <g id="ytick_6"/>
    <g id="ytick_7"/>
    <g id="ytick_8"/>
   </g>
  </g>
  <g id="axes_2">
   <g id="matplotlib.axis_3">
    <g id="ytick_9">
     <g id="text_1">
      <text style="fill: #262626; font: 8px 'Arial', 'DejaVu Sans', 'Liberation Sans', 'Bitstream Vera Sans', sans-serif; text-anchor: end" x="90.937647" y="311.673601" transform="rotate(-0 90.937647 311.673601)">inputD6</text>
     </g>
    </g>
    <g id="ytick_10">
     <g id="text_2">
      <text style="fill: #262626; font: 8px 'Arial', 'DejaVu Sans', 'Liberation Sans', 'Bitstream Vera Sans', sans-serif; text-anchor: end" x="90.937647" y="296.988287" transform="rotate(-0 90.937647 296.988287)">inputD8</text>
     </g>
    </g>
    <g id="ytick_11">
     <g id="text_3">
      <text style="fill: #262626; font: 8px 'Arial', 'DejaVu Sans', 'Liberation Sans', 'Bitstream Vera Sans', sans-serif; text-anchor: end" x="90.937647" y="282.291097" transform="rotate(-0 90.937647 282.291097)">inputD5</text>
     </g>
    </g>
    <g id="ytick_12">
     <g id="text_4">
      <text style="fill: #262626; font: 8px 'Arial', 'DejaVu Sans', 'Liberation Sans', 'Bitstream Vera Sans', sans-serif; text-anchor: end" x="90.937647" y="267.617657" transform="rotate(-0 90.937647 267.617657)">inputD1</text>
     </g>
    </g>
    <g id="ytick_13">
     <g id="text_5">
      <text style="fill: #262626; font: 8px 'Arial', 'DejaVu Sans', 'Liberation Sans', 'Bitstream Vera Sans', sans-serif; text-anchor: end" x="90.937647" y="252.920468" transform="rotate(-0 90.937647 252.920468)">inputD4</text>
     </g>
    </g>
    <g id="ytick_14">
     <g id="text_6">
      <text style="fill: #262626; font: 8px 'Arial', 'DejaVu Sans', 'Liberation Sans', 'Bitstream Vera Sans', sans-serif; text-anchor: end" x="90.937647" y="238.235153" transform="rotate(-0 90.937647 238.235153)">inputD7</text>
     </g>
    </g>
    <g id="ytick_15">
     <g id="text_7">
      <text style="fill: #262626; font: 8px 'Arial', 'DejaVu Sans', 'Liberation Sans', 'Bitstream Vera Sans', sans-serif; text-anchor: end" x="90.937647" y="223.561713" transform="rotate(-0 90.937647 223.561713)">inputD3</text>
     </g>
    </g>
    <g id="ytick_16">
     <g id="text_8">
      <text style="fill: #262626; font: 8px 'Arial', 'DejaVu Sans', 'Liberation Sans', 'Bitstream Vera Sans', sans-serif; text-anchor: end" x="90.937647" y="208.876399" transform="rotate(-0 90.937647 208.876399)">inputD2</text>
     </g>
    </g>
   </g>
   <g id="LineCollection_1">
    <path d="M 107.528824 308.798601 
L 107.528824 206.001399 
" clip-path="url(#pb6c000b60c)" style="fill: none; stroke: #000000; stroke-width: 2"/>
   </g>
   <g id="PathCollection_1">
    <defs>
     <path id="C0_0_be4e63b31a" d="M 0 7.071068 
C 1.875269 7.071068 3.673985 6.326016 5 5 
C 6.326016 3.673985 7.071068 1.875269 7.071068 -0 
C 7.071068 -1.875269 6.326016 -3.673985 5 -5 
C 3.673985 -6.326016 1.875269 -7.071068 0 -7.071068 
C -1.875269 -7.071068 -3.673985 -6.326016 -5 -5 
C -6.326016 -3.673985 -7.071068 -1.875269 -7.071068 0 
C -7.071068 1.875269 -6.326016 3.673985 -5 5 
C -3.673985 6.326016 -1.875269 7.071068 0 7.071068 
z
"/>
    </defs>
    <g clip-path="url(#pb6c000b60c)">
     <use xlink:href="#C0_0_be4e63b31a" x="107.528824" y="308.798601" style="stroke: #000000"/>
    </g>
    <g clip-path="url(#pb6c000b60c)">
     <use xlink:href="#C0_0_be4e63b31a" x="107.528824" y="294.113287" style="stroke: #000000"/>
    </g>
    <g clip-path="url(#pb6c000b60c)">
     <use xlink:href="#C0_0_be4e63b31a" x="107.528824" y="279.427972" style="stroke: #000000"/>
    </g>
    <g clip-path="url(#pb6c000b60c)">
     <use xlink:href="#C0_0_be4e63b31a" x="107.528824" y="264.742657" style="stroke: #000000"/>
    </g>
    <g clip-path="url(#pb6c000b60c)">
     <use xlink:href="#C0_0_be4e63b31a" x="107.528824" y="250.057343" style="stroke: #000000"/>
    </g>
    <g clip-path="url(#pb6c000b60c)">
     <use xlink:href="#C0_0_be4e63b31a" x="107.528824" y="235.372028" style="stroke: #000000"/>
    </g>
    <g clip-path="url(#pb6c000b60c)">
     <use xlink:href="#C0_0_be4e63b31a" x="107.528824" y="220.686713" style="stroke: #000000"/>
    </g>
    <g clip-path="url(#pb6c000b60c)">
     <use xlink:href="#C0_0_be4e63b31a" x="107.528824" y="206.001399" style="stroke: #000000"/>
    </g>
   </g>
  </g>
  <g id="axes_3">
   <g id="matplotlib.axis_4">
    <g id="xtick_1">
     <g id="line2d_1">
      <path d="M 48.282353 320.4 
L 48.282353 194.4 
" clip-path="url(#p3fcf371981)" style="fill: none; stroke: #cccccc; stroke-linecap: round"/>
     </g>
     <g id="text_9">
      <text style="fill: #262626; font: 8px 'Arial', 'DejaVu Sans', 'Liberation Sans', 'Bitstream Vera Sans', sans-serif; text-anchor: middle" x="48.282353" y="333.12625" transform="rotate(-0 48.282353 333.12625)">0.0e+00</text>
     </g>
    </g>
    <g id="xtick_2">
     <g id="line2d_2">
      <path d="M 20.234615 320.4 
L 20.234615 194.4 
" clip-path="url(#p3fcf371981)" style="fill: none; stroke: #cccccc; stroke-linecap: round"/>
     </g>
     <g id="text_10">
      <text style="fill: #262626; font: 8px 'Arial', 'DejaVu Sans', 'Liberation Sans', 'Bitstream Vera Sans', sans-serif; text-anchor: middle" x="20.234615" y="333.12625" transform="rotate(-0 20.234615 333.12625)">2.5e+04</text>
     </g>
    </g>
   </g>
   <g id="patch_10">
    <path d="M 48.282353 312.46993 
L 17.1 312.46993 
L 17.1 305.127273 
L 48.282353 305.127273 
z
" clip-path="url(#p3fcf371981)" style="stroke: #000000; stroke-linejoin: miter"/>
   </g>
   <g id="patch_11">
    <path d="M 48.282353 297.784615 
L 17.103366 297.784615 
L 17.103366 290.441958 
L 48.282353 290.441958 
z
" clip-path="url(#p3fcf371981)" style="stroke: #000000; stroke-linejoin: miter"/>
   </g>
   <g id="patch_12">
    <path d="M 48.282353 283.099301 
L 17.113463 283.099301 
L 17.113463 275.756643 
L 48.282353 275.756643 
z
" clip-path="url(#p3fcf371981)" style="stroke: #000000; stroke-linejoin: miter"/>
   </g>
   <g id="patch_13">
    <path d="M 48.282353 268.413986 
L 17.117951 268.413986 
L 17.117951 261.071329 
L 48.282353 261.071329 
z
" clip-path="url(#p3fcf371981)" style="stroke: #000000; stroke-linejoin: miter"/>
   </g>
   <g id="patch_14">
    <path d="M 48.282353 253.728671 
L 17.121316 253.728671 
L 17.121316 246.386014 
L 48.282353 246.386014 
z
" clip-path="url(#p3fcf371981)" style="stroke: #000000; stroke-linejoin: miter"/>
   </g>
   <g id="patch_15">
    <path d="M 48.282353 239.043357 
L 17.142633 239.043357 
L 17.142633 231.700699 
L 48.282353 231.700699 
z
" clip-path="url(#p3fcf371981)" style="stroke: #000000; stroke-linejoin: miter"/>
   </g>
   <g id="patch_16">
    <path d="M 48.282353 224.358042 
L 17.183021 224.358042 
L 17.183021 217.015385 
L 48.282353 217.015385 
z
" clip-path="url(#p3fcf371981)" style="stroke: #000000; stroke-linejoin: miter"/>
   </g>
   <g id="patch_17">
    <path d="M 48.282353 209.672727 
L 17.198728 209.672727 
L 17.198728 202.33007 
L 48.282353 202.33007 
z
" clip-path="url(#p3fcf371981)" style="stroke: #000000; stroke-linejoin: miter"/>
   </g>
   <g id="patch_18">
    <path d="M 17.1 320.4 
L 48.282353 320.4 
" style="fill: none; stroke: #cccccc; stroke-width: 1.25; stroke-linejoin: miter; stroke-linecap: square"/>
   </g>
   <g id="text_11">
    <text style="fill: #262626; font: 8px 'Arial', 'DejaVu Sans', 'Liberation Sans', 'Bitstream Vera Sans', sans-serif; text-anchor: end" x="16.772585" y="310.866726" transform="rotate(-0 16.772585 310.866726)">99.9%</text>
   </g>
   <g id="text_12">
    <text style="fill: #262626; font: 8px 'Arial', 'DejaVu Sans', 'Liberation Sans', 'Bitstream Vera Sans', sans-serif; text-anchor: end" x="16.775951" y="296.181412" transform="rotate(-0 16.775951 296.181412)">99.9%</text>
   </g>
   <g id="text_13">
    <text style="fill: #262626; font: 8px 'Arial', 'DejaVu Sans', 'Liberation Sans', 'Bitstream Vera Sans', sans-serif; text-anchor: end" x="16.786048" y="281.496097" transform="rotate(-0 16.786048 281.496097)">99.9%</text>
   </g>
   <g id="text_14">
    <text style="fill: #262626; font: 8px 'Arial', 'DejaVu Sans', 'Liberation Sans', 'Bitstream Vera Sans', sans-serif; text-anchor: end" x="16.790536" y="266.810782" transform="rotate(-0 16.790536 266.810782)">99.9%</text>
   </g>
   <g id="text_15">
    <text style="fill: #262626; font: 8px 'Arial', 'DejaVu Sans', 'Liberation Sans', 'Bitstream Vera Sans', sans-serif; text-anchor: end" x="16.793902" y="252.125468" transform="rotate(-0 16.793902 252.125468)">99.9%</text>
   </g>
   <g id="text_16">
    <text style="fill: #262626; font: 8px 'Arial', 'DejaVu Sans', 'Liberation Sans', 'Bitstream Vera Sans', sans-serif; text-anchor: end" x="16.815218" y="237.440153" transform="rotate(-0 16.815218 237.440153)">99.8%</text>
   </g>
   <g id="text_17">
    <text style="fill: #262626; font: 8px 'Arial', 'DejaVu Sans', 'Liberation Sans', 'Bitstream Vera Sans', sans-serif; text-anchor: end" x="16.855607" y="222.754838" transform="rotate(-0 16.855607 222.754838)">99.7%</text>
   </g>
   <g id="text_18">
    <text style="fill: #262626; font: 8px 'Arial', 'DejaVu Sans', 'Liberation Sans', 'Bitstream Vera Sans', sans-serif; text-anchor: end" x="16.871313" y="208.069524" transform="rotate(-0 16.871313 208.069524)">99.6%</text>
   </g>
  </g>
  <g id="axes_4">
   <g id="patch_19">
    <path d="M 91.937647 186 
L 123.12 186 
L 123.12 144 
L 91.937647 144 
z
" style="fill: #ffffff"/>
   </g>
   <g id="matplotlib.axis_5">
    <g id="ytick_17">
     <g id="line2d_3">
      <path d="M 91.937647 186 
L 123.12 186 
" clip-path="url(#p50e9d8869a)" style="fill: none; stroke: #cccccc; stroke-linecap: round"/>
     </g>
     <g id="text_19">
      <text style="fill: #262626; font: 8px 'Arial', 'DejaVu Sans', 'Liberation Sans', 'Bitstream Vera Sans', sans-serif; text-anchor: end" x="84.937647" y="188.863125" transform="rotate(-0 84.937647 188.863125)">0.0e+00</text>
     </g>
    </g>
    <g id="ytick_18">
     <g id="line2d_4">
      <path d="M 91.937647 156.8752 
L 123.12 156.8752 
" clip-path="url(#p50e9d8869a)" style="fill: none; stroke: #cccccc; stroke-linecap: round"/>
     </g>
     <g id="text_20">
      <text style="fill: #262626; font: 8px 'Arial', 'DejaVu Sans', 'Liberation Sans', 'Bitstream Vera Sans', sans-serif; text-anchor: end" x="84.937647" y="159.738325" transform="rotate(-0 84.937647 159.738325)">2.0e+04</text>
     </g>
    </g>
    <g id="text_21">
     <text style="fill: #262626; font: 8px 'Arial', 'DejaVu Sans', 'Liberation Sans', 'Bitstream Vera Sans', sans-serif" transform="translate(41.747397 173.6675) rotate(-90)"># NT</text>
     <text style="fill: #262626; font: 8px 'Arial', 'DejaVu Sans', 'Liberation Sans', 'Bitstream Vera Sans', sans-serif" transform="translate(50.208897 179.005) rotate(-90)">variants</text>
    </g>
   </g>
   <g id="patch_20">
    <path d="M 91.937647 186 
L 91.937647 144 
" style="fill: none; stroke: #cccccc; stroke-width: 1.25; stroke-linejoin: miter; stroke-linecap: square"/>
   </g>
   <g id="text_22">
    <text style="fill: #262626; font: 8px 'Arial', 'DejaVu Sans', 'Liberation Sans', 'Bitstream Vera Sans', sans-serif; text-anchor: middle" x="107.528824" y="143.99" transform="rotate(-0 107.528824 143.99)">27468</text>
   </g>
   <g id="patch_21">
    <path d="M 99.733235 186 
L 115.324412 186 
L 115.324412 149.770205 
L 99.733235 149.770205 
z
" clip-path="url(#p50e9d8869a)" style="fill: #ffc0cb; stroke: #ffffff; stroke-linejoin: miter"/>
   </g>
   <g id="patch_22">
    <path d="M 99.733235 149.770205 
L 115.324412 149.770205 
L 115.324412 146.085918 
L 99.733235 146.085918 
z
" clip-path="url(#p50e9d8869a)" style="fill: #87ceeb; stroke: #ffffff; stroke-linejoin: miter"/>
   </g>
   <g id="patch_23">
    <path d="M 99.733235 146.085918 
L 115.324412 146.085918 
L 115.324412 146 
L 99.733235 146 
z
" clip-path="url(#p50e9d8869a)" style="stroke: #ffffff; stroke-linejoin: miter"/>
   </g>
  </g>
  <g id="axes_5">
   <g id="patch_24">
    <path d="M 91.937647 135.6 
L 123.12 135.6 
L 123.12 93.6 
L 91.937647 93.6 
z
" style="fill: #ffffff"/>
   </g>
   <g id="matplotlib.axis_6">
    <g id="ytick_19">
     <g id="line2d_5">
      <path d="M 91.937647 135.6 
L 123.12 135.6 
" clip-path="url(#pfbbc7d80c6)" style="fill: none; stroke: #cccccc; stroke-linecap: round"/>
     </g>
     <g id="text_23">
      <text style="fill: #262626; font: 8px 'Arial', 'DejaVu Sans', 'Liberation Sans', 'Bitstream Vera Sans', sans-serif; text-anchor: end" x="84.937647" y="138.463125" transform="rotate(-0 84.937647 138.463125)">0.0e+00</text>
     </g>
    </g>
    <g id="ytick_20">
     <g id="line2d_6">
      <path d="M 91.937647 106.4752 
L 123.12 106.4752 
" clip-path="url(#pfbbc7d80c6)" style="fill: none; stroke: #cccccc; stroke-linecap: round"/>
     </g>
     <g id="text_24">
      <text style="fill: #262626; font: 8px 'Arial', 'DejaVu Sans', 'Liberation Sans', 'Bitstream Vera Sans', sans-serif; text-anchor: end" x="84.937647" y="109.338325" transform="rotate(-0 84.937647 109.338325)">2.0e+04</text>
     </g>
    </g>
    <g id="text_25">
     <text style="fill: #262626; font: 8px 'Arial', 'DejaVu Sans', 'Liberation Sans', 'Bitstream Vera Sans', sans-serif" transform="translate(41.747397 123.2675) rotate(-90)"># NT</text>
     <text style="fill: #262626; font: 8px 'Arial', 'DejaVu Sans', 'Liberation Sans', 'Bitstream Vera Sans', sans-serif" transform="translate(50.208897 128.605) rotate(-90)">variants</text>
    </g>
   </g>
   <g id="patch_25">
    <path d="M 91.937647 135.6 
L 91.937647 93.6 
" style="fill: none; stroke: #cccccc; stroke-width: 1.25; stroke-linejoin: miter; stroke-linecap: square"/>
   </g>
   <g id="text_26">
    <text style="fill: #262626; font: 8px 'Arial', 'DejaVu Sans', 'Liberation Sans', 'Bitstream Vera Sans', sans-serif; text-anchor: middle" x="107.528824" y="93.59" transform="rotate(-0 107.528824 93.59)">27468</text>
   </g>
   <g id="patch_26">
    <path d="M 99.733235 135.6 
L 115.324412 135.6 
L 115.324412 135.589806 
L 99.733235 135.589806 
z
" clip-path="url(#pfbbc7d80c6)" style="fill: #ff0000; stroke: #ffffff; stroke-linejoin: miter"/>
   </g>
   <g id="patch_27">
    <path d="M 99.733235 135.589806 
L 115.324412 135.589806 
L 115.324412 108.583836 
L 99.733235 108.583836 
z
" clip-path="url(#pfbbc7d80c6)" style="fill: #ffa500; stroke: #ffffff; stroke-linejoin: miter"/>
   </g>
   <g id="patch_28">
    <path d="M 99.733235 108.583836 
L 115.324412 108.583836 
L 115.324412 95.6 
L 99.733235 95.6 
z
" clip-path="url(#pfbbc7d80c6)" style="fill: #008000; stroke: #ffffff; stroke-linejoin: miter"/>
   </g>
  </g>
  <g id="axes_6">
   <g id="patch_29">
    <path d="M 91.937647 85.2 
L 123.12 85.2 
L 123.12 43.2 
L 91.937647 43.2 
z
" style="fill: #ffffff"/>
   </g>
   <g id="matplotlib.axis_7">
    <g id="ytick_21">
     <g id="line2d_7">
      <path d="M 91.937647 85.2 
L 123.12 85.2 
" clip-path="url(#pca1ccc7d51)" style="fill: none; stroke: #cccccc; stroke-linecap: round"/>
     </g>
     <g id="text_27">
      <text style="fill: #262626; font: 8px 'Arial', 'DejaVu Sans', 'Liberation Sans', 'Bitstream Vera Sans', sans-serif; text-anchor: end" x="84.937647" y="88.063125" transform="rotate(-0 84.937647 88.063125)">0</text>
     </g>
    </g>
    <g id="ytick_22">
     <g id="line2d_8">
      <path d="M 91.937647 57.2 
L 123.12 57.2 
" clip-path="url(#pca1ccc7d51)" style="fill: none; stroke: #cccccc; stroke-linecap: round"/>
     </g>
     <g id="text_28">
      <text style="fill: #262626; font: 8px 'Arial', 'DejaVu Sans', 'Liberation Sans', 'Bitstream Vera Sans', sans-serif; text-anchor: end" x="84.937647" y="60.063125" transform="rotate(-0 84.937647 60.063125)">2</text>
     </g>
    </g>
    <g id="text_29">
     <text style="fill: #262626; font: 8px 'Arial', 'DejaVu Sans', 'Liberation Sans', 'Bitstream Vera Sans', sans-serif" transform="translate(41.536647 75.321875) rotate(-90)">Log10</text>
     <text style="fill: #262626; font: 8px 'Arial', 'DejaVu Sans', 'Liberation Sans', 'Bitstream Vera Sans', sans-serif" transform="translate(50.208897 79.761875) rotate(-90)">input RC</text>
    </g>
   </g>
   <g id="PolyCollection_1">
    <defs>
     <path id="mb8682198bb" d="M 100.333701 -284.88223 
L 98.093358 -284.88223 
L 97.950299 -285.127781 
L 97.797023 -285.373332 
L 97.63404 -285.618883 
L 97.462106 -285.864434 
L 97.282251 -286.109985 
L 97.095792 -286.355536 
L 96.904345 -286.601087 
L 96.709822 -286.846638 
L 96.514422 -287.092189 
L 96.320594 -287.33774 
L 96.131 -287.583291 
L 95.948453 -287.828842 
L 95.775844 -288.074394 
L 95.616057 -288.319945 
L 95.471881 -288.565496 
L 95.345912 -288.811047 
L 95.240465 -289.056598 
L 95.157485 -289.302149 
L 95.098477 -289.5477 
L 95.06445 -289.793251 
L 95.055882 -290.038802 
L 95.072702 -290.284353 
L 95.114297 -290.529904 
L 95.179543 -290.775455 
L 95.266849 -291.021006 
L 95.374216 -291.266557 
L 95.499316 -291.512108 
L 95.639566 -291.757659 
L 95.792214 -292.00321 
L 95.954418 -292.248761 
L 96.123322 -292.494312 
L 96.296123 -292.739863 
L 96.470134 -292.985414 
L 96.642827 -293.230965 
L 96.811872 -293.476516 
L 96.975167 -293.722067 
L 97.130855 -293.967618 
L 97.277335 -294.213169 
L 97.413269 -294.45872 
L 97.537583 -294.704271 
L 97.649469 -294.949822 
L 97.748379 -295.195373 
L 97.834028 -295.440924 
L 97.906386 -295.686475 
L 97.965676 -295.932026 
L 98.012373 -296.177577 
L 98.04719 -296.423128 
L 98.071076 -296.668679 
L 98.085193 -296.91423 
L 98.090898 -297.159781 
L 98.089712 -297.405332 
L 98.083283 -297.650883 
L 98.073342 -297.896434 
L 98.061652 -298.141985 
L 98.049947 -298.387536 
L 98.039877 -298.633087 
L 98.032946 -298.878638 
L 98.030458 -299.124189 
L 98.033469 -299.36974 
L 98.042747 -299.615291 
L 98.058754 -299.860842 
L 98.081633 -300.106394 
L 98.111215 -300.351945 
L 98.147047 -300.597496 
L 98.188429 -300.843047 
L 98.23446 -301.088598 
L 98.284103 -301.334149 
L 98.336238 -301.5797 
L 98.389734 -301.825251 
L 98.443499 -302.070802 
L 98.49653 -302.316353 
L 98.547958 -302.561904 
L 98.59707 -302.807455 
L 98.643323 -303.053006 
L 98.686348 -303.298557 
L 98.725941 -303.544108 
L 98.762041 -303.789659 
L 98.794709 -304.03521 
L 98.824098 -304.280761 
L 98.850426 -304.526312 
L 98.873946 -304.771863 
L 98.894927 -305.017414 
L 98.91363 -305.262965 
L 98.930299 -305.508516 
L 98.945157 -305.754067 
L 98.958396 -305.999618 
L 98.970188 -306.245169 
L 98.980685 -306.49072 
L 98.990032 -306.736271 
L 98.99837 -306.981822 
L 99.005842 -307.227373 
L 99.012603 -307.472924 
L 99.018814 -307.718475 
L 99.024648 -307.964026 
L 99.030281 -308.209577 
L 99.035887 -308.455128 
L 99.04163 -308.700679 
L 99.047655 -308.94623 
L 99.054081 -309.191781 
L 99.372977 -309.191781 
L 99.372977 -309.191781 
L 99.379404 -308.94623 
L 99.385429 -308.700679 
L 99.391172 -308.455128 
L 99.396777 -308.209577 
L 99.40241 -307.964026 
L 99.408245 -307.718475 
L 99.414456 -307.472924 
L 99.421217 -307.227373 
L 99.428689 -306.981822 
L 99.437026 -306.736271 
L 99.446374 -306.49072 
L 99.456871 -306.245169 
L 99.468663 -305.999618 
L 99.481902 -305.754067 
L 99.496759 -305.508516 
L 99.513429 -305.262965 
L 99.532132 -305.017414 
L 99.553112 -304.771863 
L 99.576633 -304.526312 
L 99.60296 -304.280761 
L 99.63235 -304.03521 
L 99.665017 -303.789659 
L 99.701118 -303.544108 
L 99.74071 -303.298557 
L 99.783736 -303.053006 
L 99.829989 -302.807455 
L 99.879101 -302.561904 
L 99.930529 -302.316353 
L 99.98356 -302.070802 
L 100.037324 -301.825251 
L 100.09082 -301.5797 
L 100.142956 -301.334149 
L 100.192599 -301.088598 
L 100.23863 -300.843047 
L 100.280012 -300.597496 
L 100.315844 -300.351945 
L 100.345426 -300.106394 
L 100.368304 -299.860842 
L 100.384312 -299.615291 
L 100.39359 -299.36974 
L 100.396601 -299.124189 
L 100.394113 -298.878638 
L 100.387182 -298.633087 
L 100.377112 -298.387536 
L 100.365407 -298.141985 
L 100.353716 -297.896434 
L 100.343776 -297.650883 
L 100.337347 -297.405332 
L 100.336161 -297.159781 
L 100.341865 -296.91423 
L 100.355982 -296.668679 
L 100.379868 -296.423128 
L 100.414686 -296.177577 
L 100.461383 -295.932026 
L 100.520673 -295.686475 
L 100.59303 -295.440924 
L 100.678679 -295.195373 
L 100.77759 -294.949822 
L 100.889476 -294.704271 
L 101.01379 -294.45872 
L 101.149724 -294.213169 
L 101.296204 -293.967618 
L 101.451891 -293.722067 
L 101.615187 -293.476516 
L 101.784232 -293.230965 
L 101.956925 -292.985414 
L 102.130936 -292.739863 
L 102.303737 -292.494312 
L 102.472641 -292.248761 
L 102.634844 -292.00321 
L 102.787492 -291.757659 
L 102.927743 -291.512108 
L 103.052843 -291.266557 
L 103.16021 -291.021006 
L 103.247515 -290.775455 
L 103.312762 -290.529904 
L 103.354357 -290.284353 
L 103.371176 -290.038802 
L 103.362609 -289.793251 
L 103.328582 -289.5477 
L 103.269574 -289.302149 
L 103.186594 -289.056598 
L 103.081146 -288.811047 
L 102.955178 -288.565496 
L 102.811002 -288.319945 
L 102.651215 -288.074394 
L 102.478605 -287.828842 
L 102.296058 -287.583291 
L 102.106465 -287.33774 
L 101.912637 -287.092189 
L 101.717236 -286.846638 
L 101.522714 -286.601087 
L 101.331267 -286.355536 
L 101.144808 -286.109985 
L 100.964952 -285.864434 
L 100.793019 -285.618883 
L 100.630036 -285.373332 
L 100.47676 -285.127781 
L 100.333701 -284.88223 
z
" style="stroke: #000000; stroke-width: 0.5"/>
    </defs>
    <g clip-path="url(#pca1ccc7d51)">
     <use xlink:href="#mb8682198bb" x="0" y="360" style="stroke: #000000; stroke-width: 0.5"/>
    </g>
   </g>
   <g id="PolyCollection_2">
    <defs>
     <path id="mabc825f195" d="M 107.59349 -282.836438 
L 107.464157 -282.836438 
L 107.4388 -283.068237 
L 107.405542 -283.300037 
L 107.362635 -283.531837 
L 107.308405 -283.763636 
L 107.241412 -283.995436 
L 107.160544 -284.227235 
L 107.065099 -284.459035 
L 106.954876 -284.690835 
L 106.830286 -284.922634 
L 106.692389 -285.154434 
L 106.542743 -285.386233 
L 106.383043 -285.618033 
L 106.214619 -285.849833 
L 106.038028 -286.081632 
L 105.85291 -286.313432 
L 105.658227 -286.545231 
L 105.452818 -286.777031 
L 105.236126 -287.008831 
L 105.008911 -287.24063 
L 104.773797 -287.47243 
L 104.53556 -287.704229 
L 104.301054 -287.936029 
L 104.078694 -288.167829 
L 103.877444 -288.399628 
L 103.705418 -288.631428 
L 103.568426 -288.863227 
L 103.468924 -289.095027 
L 103.405791 -289.326827 
L 103.375038 -289.558626 
L 103.371176 -289.790426 
L 103.388726 -290.022225 
L 103.423402 -290.254025 
L 103.47271 -290.485825 
L 103.53597 -290.717624 
L 103.613863 -290.949424 
L 103.707633 -291.181223 
L 103.818129 -291.413023 
L 103.944962 -291.644823 
L 104.086107 -291.876622 
L 104.238164 -292.108422 
L 104.397197 -292.340221 
L 104.559773 -292.572021 
L 104.723741 -292.803821 
L 104.888419 -293.03562 
L 105.054118 -293.26742 
L 105.221221 -293.499219 
L 105.389211 -293.731019 
L 105.55611 -293.962819 
L 105.718652 -294.194618 
L 105.873145 -294.426418 
L 106.016596 -294.658217 
L 106.147482 -294.890017 
L 106.265719 -295.121817 
L 106.371877 -295.353616 
L 106.466173 -295.585416 
L 106.547922 -295.817215 
L 106.615838 -296.049015 
L 106.66905 -296.280815 
L 106.708222 -296.512614 
L 106.736088 -296.744414 
L 106.75702 -296.976214 
L 106.775791 -297.208013 
L 106.796107 -297.439813 
L 106.819585 -297.671612 
L 106.845589 -297.903412 
L 106.871878 -298.135212 
L 106.895693 -298.367011 
L 106.914802 -298.598811 
L 106.928136 -298.83061 
L 106.935944 -299.06241 
L 106.939551 -299.29421 
L 106.940911 -299.526009 
L 106.94216 -299.757809 
L 106.945272 -299.989608 
L 106.951871 -300.221408 
L 106.963141 -300.453208 
L 106.979745 -300.685007 
L 107.001719 -300.916807 
L 107.028388 -301.148606 
L 107.058419 -301.380406 
L 107.090103 -301.612206 
L 107.121804 -301.844005 
L 107.152401 -302.075805 
L 107.181519 -302.307604 
L 107.209443 -302.539404 
L 107.236794 -302.771204 
L 107.26413 -303.003003 
L 107.291667 -303.234803 
L 107.319215 -303.466602 
L 107.346295 -303.698402 
L 107.372341 -303.930202 
L 107.396865 -304.162001 
L 107.419514 -304.393801 
L 107.440047 -304.6256 
L 107.458276 -304.8574 
L 107.474048 -305.0892 
L 107.48728 -305.320999 
L 107.498015 -305.552799 
L 107.506444 -305.784598 
L 107.551203 -305.784598 
L 107.551203 -305.784598 
L 107.559632 -305.552799 
L 107.570367 -305.320999 
L 107.583599 -305.0892 
L 107.599371 -304.8574 
L 107.6176 -304.6256 
L 107.638133 -304.393801 
L 107.660782 -304.162001 
L 107.685306 -303.930202 
L 107.711353 -303.698402 
L 107.738432 -303.466602 
L 107.76598 -303.234803 
L 107.793517 -303.003003 
L 107.820853 -302.771204 
L 107.848204 -302.539404 
L 107.876128 -302.307604 
L 107.905246 -302.075805 
L 107.935843 -301.844005 
L 107.967544 -301.612206 
L 107.999228 -301.380406 
L 108.029259 -301.148606 
L 108.055928 -300.916807 
L 108.077902 -300.685007 
L 108.094506 -300.453208 
L 108.105776 -300.221408 
L 108.112375 -299.989608 
L 108.115487 -299.757809 
L 108.116736 -299.526009 
L 108.118096 -299.29421 
L 108.121703 -299.06241 
L 108.129511 -298.83061 
L 108.142845 -298.598811 
L 108.161954 -298.367011 
L 108.185769 -298.135212 
L 108.212058 -297.903412 
L 108.238062 -297.671612 
L 108.26154 -297.439813 
L 108.281856 -297.208013 
L 108.300627 -296.976214 
L 108.321559 -296.744414 
L 108.349425 -296.512614 
L 108.388597 -296.280815 
L 108.441809 -296.049015 
L 108.509725 -295.817215 
L 108.591474 -295.585416 
L 108.68577 -295.353616 
L 108.791928 -295.121817 
L 108.910165 -294.890017 
L 109.041051 -294.658217 
L 109.184502 -294.426418 
L 109.338995 -294.194618 
L 109.501537 -293.962819 
L 109.668436 -293.731019 
L 109.836426 -293.499219 
L 110.003529 -293.26742 
L 110.169228 -293.03562 
L 110.333906 -292.803821 
L 110.497874 -292.572021 
L 110.66045 -292.340221 
L 110.819483 -292.108422 
L 110.97154 -291.876622 
L 111.112685 -291.644823 
L 111.239518 -291.413023 
L 111.350014 -291.181223 
L 111.443784 -290.949424 
L 111.521677 -290.717624 
L 111.584937 -290.485825 
L 111.634245 -290.254025 
L 111.668921 -290.022225 
L 111.686471 -289.790426 
L 111.682609 -289.558626 
L 111.651856 -289.326827 
L 111.588723 -289.095027 
L 111.489221 -288.863227 
L 111.352229 -288.631428 
L 111.180203 -288.399628 
L 110.978953 -288.167829 
L 110.756593 -287.936029 
L 110.522087 -287.704229 
L 110.28385 -287.47243 
L 110.048736 -287.24063 
L 109.821521 -287.008831 
L 109.604829 -286.777031 
L 109.39942 -286.545231 
L 109.204737 -286.313432 
L 109.019619 -286.081632 
L 108.843028 -285.849833 
L 108.674604 -285.618033 
L 108.514904 -285.386233 
L 108.365258 -285.154434 
L 108.227361 -284.922634 
L 108.102771 -284.690835 
L 107.992548 -284.459035 
L 107.897103 -284.227235 
L 107.816235 -283.995436 
L 107.749242 -283.763636 
L 107.695012 -283.531837 
L 107.652105 -283.300037 
L 107.618847 -283.068237 
L 107.59349 -282.836438 
z
" style="stroke: #000000; stroke-width: 0.5"/>
    </defs>
    <g clip-path="url(#pca1ccc7d51)">
     <use xlink:href="#mabc825f195" x="0" y="360" style="fill: #94c9de; stroke: #000000; stroke-width: 0.5"/>
    </g>
   </g>
   <g id="PolyCollection_3">
    <defs>
     <path id="m8ebf288ca3" d="M 115.847602 -280.950658 
L 115.840633 -280.950658 
L 115.839002 -281.158227 
L 115.836627 -281.365796 
L 115.832652 -281.573365 
L 115.826083 -281.780934 
L 115.816352 -281.988503 
L 115.803546 -282.196072 
L 115.787806 -282.403641 
L 115.768281 -282.61121 
L 115.742652 -282.818779 
L 115.707998 -283.026348 
L 115.663134 -283.233917 
L 115.610443 -283.441487 
L 115.553896 -283.649056 
L 115.494194 -283.856625 
L 115.427292 -284.064194 
L 115.348855 -284.271763 
L 115.258434 -284.479332 
L 115.158186 -284.686901 
L 115.049986 -284.89447 
L 114.93557 -285.102039 
L 114.81693 -285.309608 
L 114.693383 -285.517177 
L 114.559061 -285.724746 
L 114.406385 -285.932315 
L 114.233095 -286.139884 
L 114.045378 -286.347453 
L 113.854542 -286.555023 
L 113.670489 -286.762592 
L 113.496827 -286.970161 
L 113.331123 -287.17773 
L 113.168802 -287.385299 
L 113.005549 -287.592868 
L 112.838034 -287.800437 
L 112.667074 -288.008006 
L 112.500394 -288.215575 
L 112.347018 -288.423144 
L 112.20777 -288.630713 
L 112.07721 -288.838282 
L 111.955298 -289.045851 
L 111.849867 -289.25342 
L 111.768189 -289.460989 
L 111.713231 -289.668559 
L 111.686471 -289.876128 
L 111.687828 -290.083697 
L 111.712406 -290.291266 
L 111.749204 -290.498835 
L 111.78433 -290.706404 
L 111.809633 -290.913973 
L 111.831866 -291.121542 
L 111.870641 -291.329111 
L 111.942082 -291.53668 
L 112.045707 -291.744249 
L 112.171271 -291.951818 
L 112.313053 -292.159387 
L 112.468928 -292.366956 
L 112.629627 -292.574526 
L 112.781171 -292.782095 
L 112.921199 -292.989664 
L 113.064305 -293.197233 
L 113.2236 -293.404802 
L 113.390225 -293.612371 
L 113.539624 -293.81994 
L 113.66023 -294.027509 
L 113.769731 -294.235078 
L 113.898001 -294.442647 
L 114.057322 -294.650216 
L 114.233094 -294.857785 
L 114.399391 -295.065354 
L 114.538921 -295.272923 
L 114.651169 -295.480492 
L 114.747959 -295.688062 
L 114.844077 -295.895631 
L 114.948769 -296.1032 
L 115.060459 -296.310769 
L 115.168422 -296.518338 
L 115.261981 -296.725907 
L 115.33822 -296.933476 
L 115.400634 -297.141045 
L 115.453542 -297.348614 
L 115.499752 -297.556183 
L 115.541258 -297.763752 
L 115.579734 -297.971321 
L 115.616194 -298.17889 
L 115.650943 -298.386459 
L 115.684044 -298.594028 
L 115.715259 -298.801598 
L 115.743339 -299.009167 
L 115.766269 -299.216736 
L 115.783007 -299.424305 
L 115.794734 -299.631874 
L 115.803992 -299.839443 
L 115.812609 -300.047012 
L 115.820587 -300.254581 
L 115.826842 -300.46215 
L 115.830727 -300.669719 
L 115.832788 -300.877288 
L 115.834268 -301.084857 
L 115.836095 -301.292426 
L 115.838372 -301.499995 
L 115.849863 -301.499995 
L 115.849863 -301.499995 
L 115.852141 -301.292426 
L 115.853967 -301.084857 
L 115.855447 -300.877288 
L 115.857508 -300.669719 
L 115.861393 -300.46215 
L 115.867649 -300.254581 
L 115.875626 -300.047012 
L 115.884243 -299.839443 
L 115.893501 -299.631874 
L 115.905228 -299.424305 
L 115.921966 -299.216736 
L 115.944896 -299.009167 
L 115.972976 -298.801598 
L 116.004192 -298.594028 
L 116.037292 -298.386459 
L 116.072041 -298.17889 
L 116.108502 -297.971321 
L 116.146977 -297.763752 
L 116.188483 -297.556183 
L 116.234693 -297.348614 
L 116.287601 -297.141045 
L 116.350015 -296.933476 
L 116.426254 -296.725907 
L 116.519813 -296.518338 
L 116.627776 -296.310769 
L 116.739466 -296.1032 
L 116.844158 -295.895631 
L 116.940276 -295.688062 
L 117.037066 -295.480492 
L 117.149314 -295.272923 
L 117.288844 -295.065354 
L 117.455142 -294.857785 
L 117.630913 -294.650216 
L 117.790234 -294.442647 
L 117.918504 -294.235078 
L 118.028005 -294.027509 
L 118.148611 -293.81994 
L 118.29801 -293.612371 
L 118.464635 -293.404802 
L 118.62393 -293.197233 
L 118.767036 -292.989664 
L 118.907064 -292.782095 
L 119.058608 -292.574526 
L 119.219308 -292.366956 
L 119.375182 -292.159387 
L 119.516965 -291.951818 
L 119.642528 -291.744249 
L 119.746153 -291.53668 
L 119.817594 -291.329111 
L 119.85637 -291.121542 
L 119.878603 -290.913973 
L 119.903906 -290.706404 
L 119.939031 -290.498835 
L 119.975829 -290.291266 
L 120.000407 -290.083697 
L 120.001765 -289.876128 
L 119.975005 -289.668559 
L 119.920046 -289.460989 
L 119.838368 -289.25342 
L 119.732938 -289.045851 
L 119.611025 -288.838282 
L 119.480465 -288.630713 
L 119.341218 -288.423144 
L 119.187841 -288.215575 
L 119.021162 -288.008006 
L 118.850202 -287.800437 
L 118.682686 -287.592868 
L 118.519433 -287.385299 
L 118.357113 -287.17773 
L 118.191408 -286.970161 
L 118.017746 -286.762592 
L 117.833694 -286.555023 
L 117.642857 -286.347453 
L 117.455141 -286.139884 
L 117.28185 -285.932315 
L 117.129174 -285.724746 
L 116.994852 -285.517177 
L 116.871305 -285.309608 
L 116.752665 -285.102039 
L 116.63825 -284.89447 
L 116.530049 -284.686901 
L 116.429802 -284.479332 
L 116.33938 -284.271763 
L 116.260944 -284.064194 
L 116.194042 -283.856625 
L 116.134339 -283.649056 
L 116.077792 -283.441487 
L 116.025101 -283.233917 
L 115.980238 -283.026348 
L 115.945584 -282.818779 
L 115.919954 -282.61121 
L 115.900429 -282.403641 
L 115.884689 -282.196072 
L 115.871883 -281.988503 
L 115.862152 -281.780934 
L 115.855583 -281.573365 
L 115.851608 -281.365796 
L 115.849234 -281.158227 
L 115.847602 -280.950658 
z
" style="stroke: #000000; stroke-width: 0.5"/>
    </defs>
    <g clip-path="url(#pca1ccc7d51)">
     <use xlink:href="#m8ebf288ca3" x="0" y="360" style="fill: #f7c8d0; stroke: #000000; stroke-width: 0.5"/>
    </g>
   </g>
   <g id="patch_30">
    <path d="M 107.528824 85.2 
L 107.528824 85.2 
L 107.528824 85.2 
L 107.528824 85.2 
z
" clip-path="url(#pca1ccc7d51)" style="stroke: #000000; stroke-width: 0.5; stroke-linejoin: miter"/>
   </g>
   <g id="patch_31">
    <path d="M 107.528824 85.2 
L 107.528824 85.2 
L 107.528824 85.2 
L 107.528824 85.2 
z
" clip-path="url(#pca1ccc7d51)" style="fill: #94c9de; stroke: #000000; stroke-width: 0.5; stroke-linejoin: miter"/>
   </g>
   <g id="patch_32">
    <path d="M 107.528824 85.2 
L 107.528824 85.2 
L 107.528824 85.2 
L 107.528824 85.2 
z
" clip-path="url(#pca1ccc7d51)" style="fill: #f7c8d0; stroke: #000000; stroke-width: 0.5; stroke-linejoin: miter"/>
   </g>
   <g id="line2d_9">
    <path d="M 99.213529 75.11777 
L 99.213529 59.56727 
" clip-path="url(#pca1ccc7d51)" style="fill: none; stroke: #000000; stroke-width: 0.75; stroke-linecap: round"/>
   </g>
   <g id="line2d_10">
    <path d="M 99.213529 70.939758 
L 99.213529 66.270946 
" clip-path="url(#pca1ccc7d51)" style="fill: none; stroke: #000000; stroke-width: 2.25; stroke-linecap: round"/>
   </g>
   <g id="line2d_11">
    <path d="M 99.213529 69.319289 
" clip-path="url(#pca1ccc7d51)" style="fill: none; stroke: #000000; stroke-width: 1.5; stroke-linecap: round"/>
    <defs>
     <path id="m7da12abb72" d="M 0.9375 0 
L -0.9375 -0 
" style="stroke: #ffffff; stroke-width: 0.45"/>
    </defs>
    <g clip-path="url(#pca1ccc7d51)">
     <use xlink:href="#m7da12abb72" x="99.213529" y="69.319289" style="fill: #ffffff; stroke: #ffffff; stroke-width: 0.45"/>
    </g>
   </g>
   <g id="line2d_12">
    <path d="M 107.528824 77.163562 
L 107.528824 59.819213 
" clip-path="url(#pca1ccc7d51)" style="fill: none; stroke: #000000; stroke-width: 0.75; stroke-linecap: round"/>
   </g>
   <g id="line2d_13">
    <path d="M 107.528824 71.353935 
L 107.528824 66.725229 
" clip-path="url(#pca1ccc7d51)" style="fill: none; stroke: #000000; stroke-width: 2.25; stroke-linecap: round"/>
   </g>
   <g id="line2d_14">
    <path d="M 107.528824 69.319289 
" clip-path="url(#pca1ccc7d51)" style="fill: none; stroke: #000000; stroke-width: 1.5; stroke-linecap: round"/>
    <g clip-path="url(#pca1ccc7d51)">
     <use xlink:href="#m7da12abb72" x="107.528824" y="69.319289" style="fill: #ffffff; stroke: #ffffff; stroke-width: 0.45"/>
    </g>
   </g>
   <g id="line2d_15">
    <path d="M 115.844118 77.804167 
L 115.844118 61.161355 
" clip-path="url(#pca1ccc7d51)" style="fill: none; stroke: #000000; stroke-width: 0.75; stroke-linecap: round"/>
   </g>
   <g id="line2d_16">
    <path d="M 115.844118 71.592402 
L 115.844118 67.418652 
" clip-path="url(#pca1ccc7d51)" style="fill: none; stroke: #000000; stroke-width: 2.25; stroke-linecap: round"/>
   </g>
   <g id="line2d_17">
    <path d="M 115.844118 69.54661 
" clip-path="url(#pca1ccc7d51)" style="fill: none; stroke: #000000; stroke-width: 1.5; stroke-linecap: round"/>
    <g clip-path="url(#pca1ccc7d51)">
     <use xlink:href="#m7da12abb72" x="115.844118" y="69.54661" style="fill: #ffffff; stroke: #ffffff; stroke-width: 0.45"/>
    </g>
   </g>
   <g id="line2d_18">
    <path d="M 91.937647 78.520302 
L 123.12 78.520302 
" clip-path="url(#pca1ccc7d51)" style="fill: none; stroke-dasharray: 5.55,2.4; stroke-dashoffset: 0; stroke: #ffa500; stroke-width: 1.5"/>
   </g>
   <g id="line2d_19">
    <path d="M 91.937647 71.2 
L 123.12 71.2 
" clip-path="url(#pca1ccc7d51)" style="fill: none; stroke-dasharray: 5.55,2.4; stroke-dashoffset: 0; stroke: #008000; stroke-width: 1.5"/>
   </g>
   <g id="patch_33">
    <path d="M 91.937647 85.2 
L 91.937647 43.2 
" style="fill: none; stroke: #cccccc; stroke-width: 1.25; stroke-linejoin: miter; stroke-linecap: square"/>
   </g>
  </g>
 </g>
 <defs>
  <clipPath id="p784e8184ac">
   <rect x="17.1" y="194.4" width="106.02" height="126"/>
  </clipPath>
  <clipPath id="pb6c000b60c">
   <rect x="91.937647" y="194.4" width="31.182353" height="126"/>
  </clipPath>
  <clipPath id="p3fcf371981">
   <rect x="17.1" y="194.4" width="31.182353" height="126"/>
  </clipPath>
  <clipPath id="p50e9d8869a">
   <rect x="91.937647" y="144" width="31.182353" height="42"/>
  </clipPath>
  <clipPath id="pfbbc7d80c6">
   <rect x="91.937647" y="93.6" width="31.182353" height="42"/>
  </clipPath>
  <clipPath id="pca1ccc7d51">
   <rect x="91.937647" y="43.2" width="31.182353" height="42"/>
  </clipPath>
 </defs>
</svg>
