<?xml version="1.0" encoding="utf-8" standalone="no"?>
<!DOCTYPE svg PUBLIC "-//W3C//DTD SVG 1.1//EN"
  "http://www.w3.org/Graphics/SVG/1.1/DTD/svg11.dtd">
<svg xmlns:xlink="http://www.w3.org/1999/xlink" width="252pt" height="288pt" viewBox="0 0 252 288" xmlns="http://www.w3.org/2000/svg" version="1.1">
 <metadata>
  <rdf:RDF xmlns:dc="http://purl.org/dc/elements/1.1/" xmlns:cc="http://creativecommons.org/ns#" xmlns:rdf="http://www.w3.org/1999/02/22-rdf-syntax-ns#">
   <cc:Work>
    <dc:type rdf:resource="http://purl.org/dc/dcmitype/StillImage"/>
    <dc:date>2024-05-15T14:05:34.367728</dc:date>
    <dc:format>image/svg+xml</dc:format>
    <dc:creator>
     <cc:Agent>
      <dc:title>Matplotlib v3.8.1, https://matplotlib.org/</dc:title>
     </cc:Agent>
    </dc:creator>
   </cc:Work>
  </rdf:RDF>
 </metadata>
 <defs>
  <style type="text/css">*{stroke-linejoin: round; stroke-linecap: butt}</style>
 </defs>
 <g id="figure_1">
  <g id="patch_1">
   <path d="M 0 288 
L 252 288 
L 252 0 
L 0 0 
z
" style="fill: #ffffff"/>
  </g>
  <g id="axes_1">
   <g id="patch_2">
    <path d="M 76.464 80.432591 
C 76.464 78.648789 76.041767 76.890061 75.231938 75.300682 
C 74.422108 73.711303 73.24745 72.335955 71.804324 71.287463 
L 65.16 80.432591 
C 65.16 80.432591 65.16 80.432591 65.16 80.432591 
C 65.16 80.432591 65.16 80.432591 65.16 80.432591 
z
" style="fill: #9370db; stroke: #ffffff; stroke-linejoin: miter"/>
   </g>
   <g id="patch_3">
    <path d="M 71.804324 71.287463 
C 70.784438 70.546472 69.647743 69.981284 68.441377 69.615337 
C 67.235012 69.24939 65.975883 69.087813 64.716206 69.137306 
C 63.456529 69.186799 62.21396 69.446668 61.040025 69.906138 
C 59.86609 70.365607 58.777244 71.018236 57.818639 71.836962 
C 56.860034 72.655688 56.045106 73.629036 55.40765 74.716641 
C 54.770194 75.804246 54.319143 76.990865 54.073203 78.227291 
C 53.827263 79.463717 53.78988 80.732619 53.962604 81.98138 
C 54.135329 83.23014 54.51574 84.441254 55.088063 85.564501 
C 55.660386 86.687747 56.416598 87.707381 57.325341 88.581121 
C 58.234085 89.454861 59.282622 90.170459 60.427472 90.698242 
C 61.572321 91.226025 62.797437 91.558594 64.052016 91.682159 
C 65.306594 91.805724 66.573051 91.718553 67.798868 91.42426 
C 69.024685 91.129967 70.192681 90.632678 71.254421 89.953014 
C 72.316161 89.273349 73.256764 88.420836 74.037224 87.430827 
C 74.817684 86.440818 75.427062 85.327189 75.840088 84.136121 
C 76.253115 82.945052 76.464 81.693238 76.464 80.432589 
L 65.16 80.432591 
C 65.16 80.432591 65.16 80.432591 65.16 80.432591 
C 65.16 80.432591 65.16 80.432591 65.16 80.432591 
C 65.16 80.432591 65.16 80.432591 65.16 80.432591 
C 65.16 80.432591 65.16 80.432591 65.16 80.432591 
C 65.16 80.432591 65.16 80.432591 65.16 80.432591 
C 65.16 80.432591 65.16 80.432591 65.16 80.432591 
C 65.16 80.432591 65.16 80.432591 65.16 80.432591 
C 65.16 80.432591 65.16 80.432591 65.16 80.432591 
C 65.16 80.432591 65.16 80.432591 65.16 80.432591 
C 65.16 80.432591 65.16 80.432591 65.16 80.432591 
C 65.16 80.432591 65.16 80.432591 65.16 80.432591 
C 65.16 80.432591 65.16 80.432591 65.16 80.432591 
C 65.16 80.432591 65.16 80.432591 65.16 80.432591 
C 65.16 80.432591 65.16 80.432591 65.16 80.432591 
C 65.16 80.432591 65.16 80.432591 65.16 80.432591 
C 65.16 80.432591 65.16 80.432591 65.16 80.432591 
z
" style="fill: #87ceeb; stroke: #ffffff; stroke-linejoin: miter"/>
   </g>
   <g id="patch_4">
    <path d="M 87.768 80.432591 
C 87.768 75.172822 85.932466 70.074431 82.579763 66.021709 
C 79.227061 61.968988 74.562921 59.210623 69.396317 58.225041 
L 67.278158 69.328816 
C 69.86146 69.821607 72.19353 71.200789 73.869882 73.22715 
C 75.546233 75.253511 76.464 77.802707 76.464 80.432591 
z
" style="fill: #9370db; stroke: #ffffff; stroke-linejoin: miter"/>
   </g>
   <g id="patch_5">
    <path d="M 69.396317 58.225041 
C 67.124464 57.791662 64.799503 57.709456 62.502715 57.981299 
C 60.205927 58.253142 57.964395 58.875827 55.856484 59.827585 
C 53.748573 60.779344 51.799138 62.048952 50.076333 63.592025 
C 48.353527 65.135098 46.877666 66.933441 45.700345 68.924182 
C 44.523024 70.914922 43.658126 73.074588 43.135888 75.327674 
C 42.613651 77.580761 42.440231 79.900703 42.621693 82.206392 
C 42.803154 84.512082 43.337357 86.776333 44.205625 88.919984 
C 45.073893 91.063636 46.265989 93.061413 47.740235 94.843471 
C 49.214481 96.625529 50.953495 98.170855 52.89648 99.425425 
C 54.839464 100.679994 56.963509 101.629013 59.194355 102.239304 
C 61.425202 102.849595 63.736547 103.113962 66.047583 103.023161 
C 68.358619 102.932361 70.642097 102.487464 72.818184 101.704024 
C 74.994271 100.920585 77.037309 99.807841 78.875872 98.404695 
C 80.714435 97.001549 82.326843 95.324545 83.656727 93.432313 
C 84.98661 91.540081 86.018288 89.454932 86.715691 87.249765 
C 87.413094 85.044598 87.768 82.745414 87.768 80.432595 
L 76.464 80.432593 
C 76.464 81.589003 76.286547 82.738594 75.937845 83.841178 
C 75.589144 84.943761 75.073305 85.986336 74.408363 86.932452 
C 73.743422 87.878568 72.937217 88.71707 72.017936 89.418643 
C 71.098655 90.120216 70.077135 90.676588 68.989092 91.068308 
C 67.901048 91.460027 66.759309 91.682476 65.603791 91.727876 
C 64.448273 91.773276 63.292601 91.641093 62.177178 91.335948 
C 61.061754 91.030802 59.999732 90.556292 59.02824 89.929008 
C 58.056748 89.301723 57.187241 88.52906 56.450118 87.638031 
C 55.712994 86.747002 55.116947 85.748113 54.682813 84.676288 
C 54.248679 83.604462 53.981577 82.472336 53.890846 81.319492 
C 53.800116 80.166647 53.886825 79.006676 54.147944 77.880133 
C 54.409063 76.753589 54.841512 75.673757 55.430172 74.678386 
C 56.018833 73.683016 56.756764 72.783845 57.618166 72.012308 
C 58.479569 71.240772 59.454287 70.605967 60.508242 70.130088 
C 61.562197 69.654209 62.682964 69.342866 63.831357 69.206945 
C 64.979751 69.071024 66.142232 69.112126 67.278158 69.328816 
z
" style="fill: #87ceeb; stroke: #ffffff; stroke-linejoin: miter"/>
   </g>
   <g id="patch_6">
    <path d="M 99.072 80.432591 
C 99.072 71.442019 95.4967 62.81048 89.139405 56.453186 
C 82.782111 50.095891 74.150572 46.520591 65.16 46.520591 
L 65.16 57.824591 
C 71.153715 57.824591 76.908074 60.208124 81.14627 64.446321 
C 85.384466 68.684517 87.768 74.438876 87.768 80.432591 
z
" style="fill: #9370db; stroke: #ffffff; stroke-linejoin: miter"/>
   </g>
   <g id="patch_7">
    <path d="M 65.16 46.520591 
C 58.453643 46.520591 51.895634 48.509941 46.319502 52.235793 
C 40.74337 55.961646 36.395809 61.259164 33.829397 67.45503 
C 31.262986 73.650896 30.591264 80.470997 31.89961 87.048494 
C 33.207955 93.62599 36.438484 99.669885 41.180595 104.411996 
C 45.922705 109.154107 51.966601 112.384636 58.544097 113.692981 
C 65.121593 115.001327 71.941694 114.329605 78.137561 111.763194 
C 84.333427 109.196782 89.630945 104.849221 93.356797 99.273089 
C 97.08265 93.696956 99.072 87.138948 99.072 80.432591 
L 87.768 80.432591 
C 87.768 84.903496 86.441767 89.275501 83.957865 92.992923 
C 81.473963 96.710344 77.942284 99.608718 73.811707 101.319659 
C 69.68113 103.030601 65.134396 103.478415 60.749398 102.606185 
C 56.3644 101.733954 52.335137 99.580268 49.17373 96.418861 
C 46.012323 93.257454 43.858637 89.228191 42.986406 84.843193 
C 42.114176 80.458195 42.56199 75.911461 44.272932 71.780884 
C 45.983873 67.650306 48.882247 64.118628 52.599668 61.634726 
C 56.31709 59.150824 60.689095 57.824591 65.16 57.824591 
z
" style="fill: #87ceeb; stroke: #ffffff; stroke-linejoin: miter"/>
   </g>
   <g id="patch_8">
    <path d="M 110.376 80.432591 
C 110.376 70.399815 107.036808 60.646834 100.88765 52.719386 
C 94.738491 44.791938 86.122341 39.132185 76.404764 36.637135 
L 73.593573 47.585999 
C 80.881756 49.457287 87.343868 53.702101 91.955737 59.647687 
C 96.567606 65.593274 99.072 72.908009 99.072 80.432591 
z
" style="fill: #9370db; stroke: #ffffff; stroke-linejoin: miter"/>
   </g>
   <g id="patch_9">
    <path d="M 76.404764 36.637135 
C 71.866781 35.471979 67.17515 35.019193 62.498099 35.295013 
C 57.821049 35.570833 53.215157 36.571922 48.845579 38.262384 
C 44.476 39.952847 40.395594 42.312232 36.750672 45.255941 
C 33.105749 48.199649 29.940403 51.69207 27.368135 55.607975 
C 24.795866 59.52388 22.847791 63.815898 21.593762 68.33013 
C 20.339733 72.844362 19.794921 77.526199 19.97886 82.207763 
C 20.162799 86.889327 21.073265 91.513986 22.677611 95.915912 
C 24.281956 100.317838 26.560774 104.443782 29.432352 108.145797 
C 32.303929 111.847813 35.73353 115.081117 39.598177 117.729774 
C 43.462824 120.37843 47.715767 122.410398 52.204508 123.752816 
C 56.693248 125.095234 61.363486 125.731863 66.047759 125.639875 
C 70.732033 125.547887 75.373676 124.728396 79.806253 123.210786 
C 84.238829 121.693175 88.408719 119.495804 92.1664 116.697464 
C 95.924082 113.899124 99.224099 110.533666 101.948122 106.721767 
C 104.672145 102.909867 106.787221 98.697639 108.217511 94.23612 
C 109.6478 89.774601 110.376 85.117763 110.376 80.432587 
L 99.072 80.432588 
C 99.072 83.94647 98.52585 87.439099 97.453133 90.785238 
C 96.380416 94.131377 94.794109 97.290548 92.751091 100.149473 
C 90.708074 103.008397 88.233061 105.53249 85.4148 107.631246 
C 82.596539 109.730001 79.469122 111.378029 76.144689 112.516237 
C 72.820257 113.654445 69.339024 114.269063 65.82582 114.338054 
C 62.312615 114.407045 58.809936 113.929573 55.443381 112.922759 
C 52.076825 111.915946 48.887118 110.39197 45.988633 108.405478 
C 43.090147 106.418986 40.517947 103.994007 38.364264 101.217496 
C 36.21058 98.440984 34.501467 95.346527 33.298208 92.045082 
C 32.094949 88.743637 31.412099 85.275143 31.274145 81.76397 
C 31.136191 78.252797 31.5448 74.741419 32.485321 71.355745 
C 33.425843 67.970071 34.886899 64.751058 36.816101 61.814129 
C 38.745302 58.8772 41.119312 56.257885 43.853004 54.050103 
C 46.586695 51.842322 49.647 50.072783 52.924184 48.804936 
C 56.201368 47.537089 59.655787 46.786272 63.163574 46.579407 
C 66.671362 46.372543 70.190086 46.712132 73.593573 47.585999 
z
" style="fill: #87ceeb; stroke: #ffffff; stroke-linejoin: miter"/>
   </g>
   <g id="matplotlib.axis_1"/>
   <g id="matplotlib.axis_2"/>
   <g id="line2d_1">
    <path d="M 65.16 80.432591 
L 91.737298 43.852078 
" style="fill: none; stroke-dasharray: 7.4,3.2; stroke-dashoffset: 0; stroke: #000000; stroke-width: 2"/>
   </g>
   <g id="line2d_2">
    <path d="M 65.16 80.432591 
L 93.981763 45.593064 
" style="fill: none; stroke: #000000; stroke-width: 2; stroke-linecap: square"/>
   </g>
   <g id="text_1">
    <text style="font: 8px 'DejaVu Sans', 'Bitstream Vera Sans', 'Computer Modern Sans Serif', 'Lucida Grande', 'Verdana', 'Geneva', 'Lucid', 'Arial', 'Helvetica', 'Avant Garde', sans-serif; text-anchor: middle" x="65.16" y="89.475791" transform="rotate(-0 65.16 89.475791)">ctrl</text>
   </g>
   <g id="text_2">
    <text style="font: 8px 'DejaVu Sans', 'Bitstream Vera Sans', 'Computer Modern Sans Serif', 'Lucida Grande', 'Verdana', 'Geneva', 'Lucid', 'Arial', 'Helvetica', 'Avant Garde', sans-serif; text-anchor: middle" x="65.16" y="100.779791" transform="rotate(-0 65.16 100.779791)">CF</text>
   </g>
   <g id="text_3">
    <text style="font: 8px 'DejaVu Sans', 'Bitstream Vera Sans', 'Computer Modern Sans Serif', 'Lucida Grande', 'Verdana', 'Geneva', 'Lucid', 'Arial', 'Helvetica', 'Avant Garde', sans-serif; text-anchor: middle" x="65.16" y="112.083791" transform="rotate(-0 65.16 112.083791)">MF</text>
   </g>
   <g id="text_4">
    <text style="font: 8px 'DejaVu Sans', 'Bitstream Vera Sans', 'Computer Modern Sans Serif', 'Lucida Grande', 'Verdana', 'Geneva', 'Lucid', 'Arial', 'Helvetica', 'Avant Garde', sans-serif; text-anchor: middle" x="65.16" y="123.387791" transform="rotate(-0 65.16 123.387791)">AF</text>
   </g>
   <g id="text_5">
    <text style="font: 8px 'DejaVu Sans', 'Bitstream Vera Sans', 'Computer Modern Sans Serif', 'Lucida Grande', 'Verdana', 'Geneva', 'Lucid', 'Arial', 'Helvetica', 'Avant Garde', sans-serif" transform="translate(50.0125 13.290591)">BY4741</text>
    <text style="font: 8px 'DejaVu Sans', 'Bitstream Vera Sans', 'Computer Modern Sans Serif', 'Lucida Grande', 'Verdana', 'Geneva', 'Lucid', 'Arial', 'Helvetica', 'Avant Garde', sans-serif" transform="translate(45.61625 22.248841)">FKS1-HS1</text>
   </g>
  </g>
  <g id="axes_2">
   <g id="patch_10">
    <path d="M 198.144 80.432591 
C 198.144 78.888386 197.827576 77.360433 197.214298 75.943231 
C 196.601021 74.52603 195.703798 73.249411 194.578121 72.19233 
C 193.452444 71.135249 192.122007 70.319956 190.669094 69.796875 
C 189.216181 69.273794 187.671375 69.053935 186.130217 69.150897 
L 186.84 80.432591 
C 186.84 80.432591 186.84 80.432591 186.84 80.432591 
C 186.84 80.432591 186.84 80.432591 186.84 80.432591 
C 186.84 80.432591 186.84 80.432591 186.84 80.432591 
C 186.84 80.432591 186.84 80.432591 186.84 80.432591 
z
" style="fill: #9370db; stroke: #ffffff; stroke-linejoin: miter"/>
   </g>
   <g id="patch_11">
    <path d="M 186.130217 69.150897 
C 183.929334 69.289364 181.816342 70.068888 180.05285 71.392955 
C 178.289359 72.717022 176.95128 74.528635 176.204284 76.603497 
C 175.457288 78.678359 175.333529 80.927154 175.84833 83.071457 
C 176.363132 85.21576 177.494333 87.163266 179.101879 88.672852 
C 180.709425 90.182438 182.724117 91.189123 184.896513 91.568267 
C 187.06891 91.947411 189.305496 91.682693 191.32936 90.806889 
C 193.353223 89.931085 195.077243 88.481896 196.287966 86.638745 
C 197.49869 84.795594 198.144 82.637825 198.144 80.432591 
L 186.84 80.432591 
C 186.84 80.432591 186.84 80.432591 186.84 80.432591 
C 186.84 80.432591 186.84 80.432591 186.84 80.432591 
C 186.84 80.432591 186.84 80.432591 186.84 80.432591 
C 186.84 80.432591 186.84 80.432591 186.84 80.432591 
C 186.84 80.432591 186.84 80.432591 186.84 80.432591 
C 186.84 80.432591 186.84 80.432591 186.84 80.432591 
C 186.84 80.432591 186.84 80.432591 186.84 80.432591 
C 186.84 80.432591 186.84 80.432591 186.84 80.432591 
z
" style="fill: #87ceeb; stroke: #ffffff; stroke-linejoin: miter"/>
   </g>
   <g id="patch_12">
    <path d="M 209.448 80.432591 
C 209.448 78.536099 209.209367 76.647121 208.737728 74.81021 
C 208.26609 72.9733 207.565184 71.203013 206.651542 69.541104 
L 196.745771 74.986847 
C 197.202592 75.817802 197.553045 76.702945 197.788864 77.6214 
C 198.024683 78.539856 198.144 79.484345 198.144 80.432591 
z
" style="fill: #9370db; stroke: #ffffff; stroke-linejoin: miter"/>
   </g>
   <g id="patch_13">
    <path d="M 206.651542 69.541104 
C 205.336348 67.148776 203.598639 65.014334 201.522722 63.241333 
C 199.446804 61.468332 197.066803 60.085917 194.498187 59.161158 
C 191.929571 58.2364 189.214564 57.784499 186.484889 57.82738 
C 183.755214 57.870261 181.055741 58.40722 178.51744 59.412204 
C 175.979139 60.417189 173.643734 61.873679 171.624533 63.711011 
C 169.605331 65.548344 167.935524 67.736316 166.696124 70.168774 
C 165.456725 72.601233 164.668107 75.238193 164.368531 77.951718 
C 164.068955 80.665244 164.263346 83.410729 164.942272 86.054973 
C 165.621199 88.699216 166.7735 91.198752 168.343272 93.432311 
C 169.913043 95.665869 171.87448 97.596735 174.13242 99.131229 
C 176.39036 100.665723 178.907687 101.778622 181.562269 102.41593 
C 184.21685 103.053239 186.96505 103.204481 189.673535 102.86232 
C 192.38202 102.520158 195.006268 101.690218 197.418959 100.412763 
C 199.831649 99.135309 201.993123 97.431341 203.798512 95.383528 
C 205.603901 93.335716 207.023529 90.977722 207.988519 88.423948 
C 208.95351 85.870175 209.448 83.162601 209.448 80.432589 
L 198.144 80.43259 
C 198.144 81.797596 197.896755 83.151383 197.41426 84.42827 
C 196.931764 85.705156 196.221951 86.884153 195.319256 87.90806 
C 194.416562 88.931966 193.335825 89.78395 192.129479 90.422677 
C 190.923134 91.061404 189.61101 91.476375 188.256768 91.647455 
C 186.902525 91.818536 185.528425 91.742915 184.201134 91.424261 
C 182.873843 91.105606 181.61518 90.549157 180.48621 89.78191 
C 179.35724 89.014663 178.376522 88.04923 177.591636 86.932451 
C 176.80675 85.815671 176.230599 84.565904 175.891136 83.243782 
C 175.551673 81.92166 175.454477 80.548917 175.604265 79.192155 
C 175.754053 77.835392 176.148362 76.516912 176.768062 75.300683 
C 177.387762 74.084453 178.222665 72.990467 179.232266 72.071801 
C 180.241867 71.153135 181.409569 70.42489 182.67872 69.922398 
C 183.94787 69.419905 185.297607 69.151426 186.662444 69.129985 
C 188.027282 69.108545 189.384786 69.334495 190.669093 69.796875 
C 191.953401 70.259254 193.143402 70.950461 194.181361 71.836962 
C 195.219319 72.723462 196.088174 73.790684 196.745771 74.986847 
z
" style="fill: #87ceeb; stroke: #ffffff; stroke-linejoin: miter"/>
   </g>
   <g id="patch_14">
    <path d="M 220.752 80.432591 
C 220.752 79.722281 220.729683 79.012147 220.685082 78.303239 
C 220.640482 77.594331 220.573619 76.886999 220.484594 76.18229 
L 209.269729 77.599057 
C 209.329079 78.068863 209.373654 78.540418 209.403388 79.013023 
C 209.433122 79.485628 209.448 79.959051 209.448 80.432591 
z
" style="fill: #9370db; stroke: #ffffff; stroke-linejoin: miter"/>
   </g>
   <g id="patch_15">
    <path d="M 220.484594 76.18229 
C 219.937681 71.853031 218.560265 67.66975 216.428085 63.862467 
C 214.295904 60.055185 211.448768 56.694986 208.043229 53.966635 
C 204.63769 51.238283 200.737332 49.19272 196.55662 47.942423 
C 192.375908 46.692125 187.9929 46.260436 183.648598 46.671094 
C 179.304296 47.081751 175.079813 48.327087 171.207436 50.338627 
C 167.335059 52.350166 163.887087 55.090351 161.053112 58.40851 
C 158.219137 61.726669 156.05207 65.560849 154.67107 69.700226 
C 153.29007 73.839602 152.72092 78.206888 152.994918 82.561945 
C 153.268915 86.917002 154.380943 91.178517 156.269855 95.112168 
C 158.158767 99.045818 160.789297 102.578159 164.016801 105.514962 
C 167.244306 108.451765 171.008525 110.738197 175.102481 112.248536 
C 179.196436 113.758876 183.54369 114.464924 187.905205 114.327857 
C 192.266719 114.190791 196.561061 113.213169 200.552103 111.448748 
C 204.543145 109.684326 208.15637 107.166048 211.193101 104.032383 
C 214.229833 100.898718 216.633374 97.208175 218.271562 93.16368 
C 219.909751 89.119186 220.752001 84.796255 220.752 80.432587 
L 209.448 80.432588 
C 209.448 83.3417 208.8865 86.223654 207.794375 88.919984 
C 206.702249 91.616313 205.099889 94.076676 203.075401 96.165786 
C 201.050913 98.254896 198.642096 99.933748 195.981402 101.110029 
C 193.320708 102.28631 190.457813 102.938057 187.550136 103.029435 
C 184.64246 103.120813 181.744291 102.650114 179.014987 101.643221 
C 176.285684 100.636328 173.776204 99.11204 171.624534 97.154172 
C 169.472865 95.196303 167.719178 92.841409 166.459903 90.218976 
C 165.200628 87.596542 164.459277 84.755532 164.276612 81.85216 
C 164.093947 78.948789 164.47338 76.037265 165.394046 73.277681 
C 166.314713 70.518097 167.759424 67.961976 169.648741 65.74987 
C 171.538058 63.537764 173.836706 61.710974 176.418291 60.369948 
C 178.999876 59.028922 181.816198 58.198698 184.712399 57.924926 
C 187.6086 57.651154 190.530605 57.938947 193.317747 58.772479 
C 196.104888 59.606011 198.705126 60.969719 200.975486 62.78862 
C 203.245845 64.607521 205.143936 66.847653 206.56539 69.385842 
C 207.986844 71.92403 208.905121 74.712885 209.269729 77.599057 
z
" style="fill: #87ceeb; stroke: #ffffff; stroke-linejoin: miter"/>
   </g>
   <g id="patch_16">
    <path d="M 232.056 80.432591 
C 232.056 78.537965 231.936918 76.64521 231.699458 74.765524 
C 231.461999 72.885837 231.106631 71.022932 230.635456 69.187829 
L 219.686592 71.99902 
C 220.039973 73.375347 220.306499 74.772525 220.484594 76.18229 
C 220.662688 77.592055 220.752 79.011621 220.752 80.432591 
z
" style="fill: #9370db; stroke: #ffffff; stroke-linejoin: miter"/>
   </g>
   <g id="patch_17">
    <path d="M 230.635456 69.187829 
C 229.218227 63.668086 226.770172 58.465704 223.420513 53.855293 
C 220.070854 49.244883 215.879585 45.309019 211.067945 42.25546 
C 206.256306 39.201901 200.910474 37.085336 195.312635 36.017491 
C 189.714795 34.949646 183.965208 34.949645 178.367368 36.01749 
C 172.769529 37.085335 167.423697 39.201899 162.612057 42.255458 
C 157.800418 45.309017 153.609148 49.244881 150.259489 53.855291 
C 146.90983 58.465701 144.461774 63.668083 143.044545 69.187826 
C 141.627315 74.707569 141.266295 80.445811 141.980541 86.099655 
C 142.694787 91.753499 144.471507 97.221682 147.216915 102.215562 
C 149.962323 107.209441 153.627248 111.639575 158.018234 115.272115 
C 162.409219 118.904655 167.447621 121.67454 172.867483 123.435561 
C 178.287346 125.196582 183.991596 125.917197 189.679131 125.559368 
C 195.366667 125.201539 200.935621 123.771675 206.092032 121.345253 
C 211.248443 118.918831 215.899957 115.539309 219.801042 111.385077 
C 223.702126 107.230845 226.78291 102.376308 228.880771 97.077716 
C 230.978633 91.779124 232.055999 86.131378 232.056 80.432597 
L 220.752 80.432596 
C 220.751999 84.706681 219.943975 88.942491 218.370579 92.916435 
C 216.797182 96.890379 214.486594 100.531282 211.560781 103.646955 
C 208.634968 106.762629 205.146332 109.297271 201.279024 111.117088 
C 197.411716 112.936904 193.235 114.009302 188.969348 114.277674 
C 184.703697 114.546045 180.425509 114.005584 176.360613 112.684818 
C 172.295716 111.364053 168.516914 109.286639 165.223675 106.562234 
C 161.930436 103.837829 159.181743 100.515229 157.122687 96.769819 
C 155.063631 93.024409 153.731091 88.923272 153.195406 84.682889 
C 152.659721 80.442506 152.930486 76.138824 153.993408 71.999017 
C 155.05633 67.85921 156.892372 63.957423 159.404617 60.499616 
C 161.916861 57.041808 165.060313 54.089911 168.669043 51.799741 
C 172.277773 49.509572 176.287147 47.922149 180.485526 47.121265 
C 184.683906 46.320382 188.996097 46.320382 193.194476 47.121266 
C 197.392856 47.92215 201.402229 49.509573 205.010959 51.799743 
C 208.619689 54.089912 211.76314 57.04181 214.275385 60.499618 
C 216.787629 63.957426 218.62367 67.859213 219.686592 71.99902 
z
" style="fill: #87ceeb; stroke: #ffffff; stroke-linejoin: miter"/>
   </g>
   <g id="matplotlib.axis_3"/>
   <g id="matplotlib.axis_4"/>
   <g id="line2d_3">
    <path d="M 186.84 80.432591 
L 178.367366 36.017491 
" style="fill: none; stroke-dasharray: 7.4,3.2; stroke-dashoffset: 0; stroke: #000000; stroke-width: 2"/>
   </g>
   <g id="line2d_4">
    <path d="M 186.84 80.432591 
L 189.679136 35.305814 
" style="fill: none; stroke: #000000; stroke-width: 2; stroke-linecap: square"/>
   </g>
   <g id="text_6">
    <text style="font: 8px 'DejaVu Sans', 'Bitstream Vera Sans', 'Computer Modern Sans Serif', 'Lucida Grande', 'Verdana', 'Geneva', 'Lucid', 'Arial', 'Helvetica', 'Avant Garde', sans-serif; text-anchor: middle" x="186.84" y="89.475791" transform="rotate(-0 186.84 89.475791)">ctrl</text>
   </g>
   <g id="text_7">
    <text style="font: 8px 'DejaVu Sans', 'Bitstream Vera Sans', 'Computer Modern Sans Serif', 'Lucida Grande', 'Verdana', 'Geneva', 'Lucid', 'Arial', 'Helvetica', 'Avant Garde', sans-serif; text-anchor: middle" x="186.84" y="100.779791" transform="rotate(-0 186.84 100.779791)">CF</text>
   </g>
   <g id="text_8">
    <text style="font: 8px 'DejaVu Sans', 'Bitstream Vera Sans', 'Computer Modern Sans Serif', 'Lucida Grande', 'Verdana', 'Geneva', 'Lucid', 'Arial', 'Helvetica', 'Avant Garde', sans-serif; text-anchor: middle" x="186.84" y="112.083791" transform="rotate(-0 186.84 112.083791)">MF</text>
   </g>
   <g id="text_9">
    <text style="font: 8px 'DejaVu Sans', 'Bitstream Vera Sans', 'Computer Modern Sans Serif', 'Lucida Grande', 'Verdana', 'Geneva', 'Lucid', 'Arial', 'Helvetica', 'Avant Garde', sans-serif; text-anchor: middle" x="186.84" y="123.387791" transform="rotate(-0 186.84 123.387791)">AF</text>
   </g>
   <g id="text_10">
    <text style="font: 8px 'DejaVu Sans', 'Bitstream Vera Sans', 'Computer Modern Sans Serif', 'Lucida Grande', 'Verdana', 'Geneva', 'Lucid', 'Arial', 'Helvetica', 'Avant Garde', sans-serif" transform="translate(171.6925 13.290591)">BY4741</text>
    <text style="font: 8px 'DejaVu Sans', 'Bitstream Vera Sans', 'Computer Modern Sans Serif', 'Lucida Grande', 'Verdana', 'Geneva', 'Lucid', 'Arial', 'Helvetica', 'Avant Garde', sans-serif" transform="translate(167.29625 22.248841)">FKS1-HS2</text>
   </g>
  </g>
  <g id="axes_3">
   <g id="patch_18">
    <path d="M 76.464 217.105773 
C 76.464 215.919592 76.277293 214.74077 75.910743 213.612645 
C 75.544193 212.48452 75.002348 211.421089 74.305128 210.461448 
L 65.16 217.105773 
C 65.16 217.105773 65.16 217.105773 65.16 217.105773 
C 65.16 217.105773 65.16 217.105773 65.16 217.105773 
z
" style="fill: #9370db; stroke: #ffffff; stroke-linejoin: miter"/>
   </g>
   <g id="patch_19">
    <path d="M 74.305128 210.461448 
C 73.520331 209.381267 72.550325 208.448625 71.440166 207.70684 
C 70.330007 206.965056 69.097153 206.425794 67.798866 206.114103 
C 66.50058 205.802412 65.15728 205.723194 63.831357 205.880127 
C 62.505435 206.03706 61.217743 206.427677 60.028092 207.033835 
C 58.83844 207.639992 57.765538 208.452158 56.859219 209.432609 
C 55.952899 210.413059 55.227416 211.546376 54.716466 212.779919 
C 54.205516 214.013461 53.917134 215.327831 53.864715 216.661979 
C 53.812296 217.996127 53.996665 219.329071 54.409257 220.5989 
C 54.821849 221.868729 55.456177 223.055473 56.282777 224.10401 
C 57.109377 225.152547 58.11525 226.046388 59.253675 226.744017 
C 60.392101 227.441645 61.645176 227.932089 62.954698 228.192569 
C 64.26422 228.45305 65.609595 228.479469 66.928334 228.270602 
C 68.247073 228.061734 69.518437 227.620864 70.683373 226.968468 
C 71.84831 226.316072 72.8885 225.462411 73.755628 224.447135 
C 74.622756 223.431858 75.303187 222.270933 75.765314 221.018281 
C 76.227442 219.76563 76.464 218.440951 76.464 217.105774 
L 65.16 217.105773 
C 65.16 217.105773 65.16 217.105773 65.16 217.105773 
C 65.16 217.105773 65.16 217.105773 65.16 217.105773 
C 65.16 217.105773 65.16 217.105773 65.16 217.105773 
C 65.16 217.105773 65.16 217.105773 65.16 217.105773 
C 65.16 217.105773 65.16 217.105773 65.16 217.105773 
C 65.16 217.105773 65.16 217.105773 65.16 217.105773 
C 65.16 217.105773 65.16 217.105773 65.16 217.105773 
C 65.16 217.105773 65.16 217.105773 65.16 217.105773 
C 65.16 217.105773 65.16 217.105773 65.16 217.105773 
C 65.16 217.105773 65.16 217.105773 65.16 217.105773 
C 65.16 217.105773 65.16 217.105773 65.16 217.105773 
C 65.16 217.105773 65.16 217.105773 65.16 217.105773 
C 65.16 217.105773 65.16 217.105773 65.16 217.105773 
C 65.16 217.105773 65.16 217.105773 65.16 217.105773 
C 65.16 217.105773 65.16 217.105773 65.16 217.105773 
C 65.16 217.105773 65.16 217.105773 65.16 217.105773 
z
" style="fill: #87ceeb; stroke: #ffffff; stroke-linejoin: miter"/>
   </g>
   <g id="patch_20">
    <path d="M 87.768 217.105773 
C 87.768 214.017362 87.135152 210.961457 85.908597 208.127054 
C 84.682041 205.29265 82.887596 202.739413 80.636241 200.62525 
L 72.898121 208.865512 
C 74.023798 209.922593 74.921021 211.199212 75.534298 212.616413 
C 76.147576 214.033615 76.464 215.561567 76.464 217.105773 
z
" style="fill: #9370db; stroke: #ffffff; stroke-linejoin: miter"/>
   </g>
   <g id="patch_21">
    <path d="M 80.636241 200.62525 
C 78.754842 198.858499 76.584725 197.426891 74.22013 196.392596 
C 71.855536 195.358301 69.331196 194.736511 66.756735 194.55423 
C 64.182275 194.371948 61.595508 194.631852 59.10877 195.322654 
C 56.622032 196.013456 54.271849 197.125009 52.160282 198.609044 
C 50.048715 200.093078 48.206779 201.927794 46.714464 204.033518 
C 45.222149 206.139241 44.101374 208.485041 43.400812 210.969047 
C 42.70025 213.453053 42.43019 216.038779 42.60236 218.613935 
C 42.774531 221.189092 43.386402 223.715854 44.411403 226.084492 
C 45.436404 228.45313 46.85948 230.628853 48.618829 232.517175 
C 50.378179 234.405498 52.447961 235.978684 54.738291 237.168416 
C 57.028621 238.358147 59.505859 239.146948 62.062425 239.500564 
C 64.618991 239.85418 67.217333 239.767417 69.744615 239.244042 
C 72.271897 238.720667 74.690996 237.768368 76.896858 236.428501 
C 79.10272 235.088634 81.062946 233.380878 82.692408 231.379397 
C 84.32187 229.377916 85.596634 227.112107 86.461342 224.680368 
C 87.32605 222.248629 87.768 219.686678 87.768 217.105773 
L 76.464 217.105773 
C 76.464 218.396225 76.243025 219.677201 75.810671 220.89307 
C 75.378317 222.10894 74.740935 223.241844 73.926204 224.242585 
C 73.111473 225.243325 72.13136 226.097203 71.028429 226.767137 
C 69.925498 227.437071 68.715948 227.91322 67.452308 228.174907 
C 66.188667 228.436595 64.889495 228.479977 63.611212 228.303169 
C 62.332929 228.126361 61.094311 227.73196 59.949146 227.137094 
C 58.80398 226.542229 57.769089 225.755635 56.889415 224.811474 
C 56.00974 223.867313 55.298202 222.779451 54.785702 221.595132 
C 54.273201 220.410813 53.967265 219.147432 53.88118 217.859854 
C 53.795095 216.572276 53.930125 215.279413 54.280406 214.03741 
C 54.630687 212.795407 55.191074 211.622507 55.937232 210.569645 
C 56.683389 209.516784 57.604357 208.599425 58.660141 207.857408 
C 59.715924 207.115391 60.891016 206.559614 62.134385 206.214213 
C 63.377754 205.868812 64.671138 205.73886 65.958368 205.830001 
C 67.245598 205.921142 68.507768 206.232037 69.690065 206.749184 
C 70.872362 207.266332 71.957421 207.982136 72.898121 208.865512 
z
" style="fill: #87ceeb; stroke: #ffffff; stroke-linejoin: miter"/>
   </g>
   <g id="patch_22">
    <path d="M 99.072 217.105773 
C 99.072 213.904328 98.618654 210.718953 97.725479 207.644626 
C 96.832305 204.570299 95.508268 201.637883 93.792848 198.934814 
L 84.248565 204.9918 
C 85.392179 206.793846 86.27487 208.74879 86.87032 210.798342 
C 87.465769 212.847893 87.768 214.971476 87.768 217.105773 
z
" style="fill: #9370db; stroke: #ffffff; stroke-linejoin: miter"/>
   </g>
   <g id="patch_23">
    <path d="M 93.792848 198.934814 
C 91.622604 195.515057 88.857153 192.511599 85.627788 190.067034 
C 82.398424 187.622469 78.757074 185.776106 74.876619 184.615604 
C 70.996164 183.455102 66.939002 182.999123 62.897754 183.269313 
C 58.856505 183.539504 54.896153 184.531521 51.204723 186.198266 
C 47.513293 187.865011 44.150143 190.179682 41.274945 193.032388 
C 38.399746 195.885093 36.058733 199.22996 34.363047 202.908186 
C 32.667362 206.586412 31.644273 210.538851 31.342351 214.577853 
C 31.04043 218.616855 31.464532 222.677473 32.594522 226.566923 
C 33.724511 230.456372 35.542219 234.11211 37.961346 237.360574 
C 40.380473 240.609038 43.362119 243.397993 46.764726 245.595028 
C 50.167333 247.792062 53.936186 249.361849 57.892352 250.229858 
C 61.848519 251.097868 65.928384 251.250143 69.938247 250.679454 
C 73.948111 250.108766 77.823496 248.82429 81.38041 246.887009 
C 84.937324 244.949729 88.118573 242.390795 90.773121 239.331699 
C 93.427668 236.272603 95.51283 232.762534 96.929608 228.968139 
C 98.346387 225.173744 99.072001 221.156037 99.072 217.105766 
L 87.768 217.105768 
C 87.768001 219.805949 87.284258 222.48442 86.339739 225.014017 
C 85.39522 227.543613 84.005112 229.883659 82.235414 231.923057 
C 80.465715 233.962455 78.344883 235.66841 75.973607 236.95993 
C 73.602331 238.251451 71.018741 239.107768 68.345498 239.488227 
C 65.672256 239.868686 62.952346 239.767169 60.314902 239.188496 
C 57.677457 238.609823 55.164889 237.563299 52.896484 236.098609 
C 50.62808 234.63392 48.640315 232.774616 47.027564 230.608974 
C 45.414813 228.443331 44.203008 226.006172 43.449681 223.413206 
C 42.696354 220.82024 42.41362 218.113161 42.614901 215.420493 
C 42.816182 212.727825 43.498242 210.092866 44.628698 207.640715 
C 45.759155 205.188564 47.319831 202.958653 49.23663 201.056849 
C 51.153429 199.155046 53.395529 197.611931 55.856482 196.500768 
C 58.317435 195.389605 60.95767 194.72826 63.651836 194.548133 
C 66.346001 194.368006 69.050776 194.671992 71.637746 195.44566 
C 74.224716 196.219328 76.652282 197.450237 78.805192 199.079947 
C 80.958102 200.709657 82.801736 202.711962 84.248565 204.9918 
z
" style="fill: #87ceeb; stroke: #ffffff; stroke-linejoin: miter"/>
   </g>
   <g id="patch_24">
    <path d="M 110.376 217.105773 
C 110.376 207.072997 107.036808 197.320016 100.88765 189.392568 
C 94.738491 181.46512 86.122341 175.805367 76.404764 173.310317 
L 73.593573 184.259181 
C 80.881756 186.130469 87.343868 190.375283 91.955737 196.320869 
C 96.567606 202.266455 99.072 209.581191 99.072 217.105773 
z
" style="fill: #9370db; stroke: #ffffff; stroke-linejoin: miter"/>
   </g>
   <g id="patch_25">
    <path d="M 76.404764 173.310317 
C 71.866781 172.145161 67.17515 171.692375 62.498099 171.968195 
C 57.821049 172.244015 53.215157 173.245104 48.845579 174.935566 
C 44.476 176.626029 40.395594 178.985414 36.750672 181.929123 
C 33.105749 184.872831 29.940403 188.365252 27.368135 192.281157 
C 24.795866 196.197062 22.847791 200.48908 21.593762 205.003312 
C 20.339733 209.517544 19.794921 214.199381 19.97886 218.880945 
C 20.162799 223.562509 21.073265 228.187168 22.677611 232.589094 
C 24.281956 236.99102 26.560774 241.116963 29.432352 244.818979 
C 32.303929 248.520995 35.73353 251.754299 39.598177 254.402956 
C 43.462824 257.051612 47.715767 259.08358 52.204508 260.425998 
C 56.693248 261.768415 61.363486 262.405044 66.047759 262.313057 
C 70.732033 262.221069 75.373676 261.401578 79.806253 259.883967 
C 84.238829 258.366357 88.408719 256.168986 92.1664 253.370646 
C 95.924082 250.572305 99.224099 247.206848 101.948122 243.394948 
C 104.672145 239.583049 106.787221 235.370821 108.217511 230.909302 
C 109.6478 226.447783 110.376 221.790945 110.376 217.105768 
L 99.072 217.10577 
C 99.072 220.619652 98.52585 224.112281 97.453133 227.45842 
C 96.380416 230.804559 94.794109 233.96373 92.751091 236.822655 
C 90.708074 239.681579 88.233061 242.205672 85.4148 244.304427 
C 82.596539 246.403183 79.469122 248.051211 76.144689 249.189419 
C 72.820257 250.327627 69.339024 250.942245 65.82582 251.011236 
C 62.312615 251.080226 58.809936 250.602755 55.443381 249.595941 
C 52.076825 248.589128 48.887118 247.065152 45.988633 245.07866 
C 43.090147 243.092168 40.517947 240.667189 38.364264 237.890677 
C 36.21058 235.114166 34.501467 232.019708 33.298208 228.718264 
C 32.094949 225.416819 31.412099 221.948325 31.274145 218.437152 
C 31.136191 214.925979 31.5448 211.414601 32.485321 208.028927 
C 33.425843 204.643253 34.886899 201.424239 36.816101 198.487311 
C 38.745302 195.550382 41.119312 192.931066 43.853004 190.723285 
C 46.586695 188.515504 49.647 186.745965 52.924184 185.478118 
C 56.201368 184.210271 59.655787 183.459454 63.163574 183.252589 
C 66.671362 183.045724 70.190086 183.385314 73.593573 184.259181 
z
" style="fill: #87ceeb; stroke: #ffffff; stroke-linejoin: miter"/>
   </g>
   <g id="matplotlib.axis_5"/>
   <g id="matplotlib.axis_6"/>
   <g id="line2d_5">
    <path d="M 65.16 217.105773 
L 93.981763 182.266246 
" style="fill: none; stroke-dasharray: 7.4,3.2; stroke-dashoffset: 0; stroke: #000000; stroke-width: 2"/>
   </g>
   <g id="line2d_6">
    <path d="M 65.16 217.105773 
L 99.999527 188.28401 
" style="fill: none; stroke: #000000; stroke-width: 2; stroke-linecap: square"/>
   </g>
   <g id="text_11">
    <text style="font: 8px 'DejaVu Sans', 'Bitstream Vera Sans', 'Computer Modern Sans Serif', 'Lucida Grande', 'Verdana', 'Geneva', 'Lucid', 'Arial', 'Helvetica', 'Avant Garde', sans-serif; text-anchor: middle" x="65.16" y="226.148973" transform="rotate(-0 65.16 226.148973)">ctrl</text>
   </g>
   <g id="text_12">
    <text style="font: 8px 'DejaVu Sans', 'Bitstream Vera Sans', 'Computer Modern Sans Serif', 'Lucida Grande', 'Verdana', 'Geneva', 'Lucid', 'Arial', 'Helvetica', 'Avant Garde', sans-serif; text-anchor: middle" x="65.16" y="237.452973" transform="rotate(-0 65.16 237.452973)">CF</text>
   </g>
   <g id="text_13">
    <text style="font: 8px 'DejaVu Sans', 'Bitstream Vera Sans', 'Computer Modern Sans Serif', 'Lucida Grande', 'Verdana', 'Geneva', 'Lucid', 'Arial', 'Helvetica', 'Avant Garde', sans-serif; text-anchor: middle" x="65.16" y="248.756973" transform="rotate(-0 65.16 248.756973)">MF</text>
   </g>
   <g id="text_14">
    <text style="font: 8px 'DejaVu Sans', 'Bitstream Vera Sans', 'Computer Modern Sans Serif', 'Lucida Grande', 'Verdana', 'Geneva', 'Lucid', 'Arial', 'Helvetica', 'Avant Garde', sans-serif; text-anchor: middle" x="65.16" y="260.060973" transform="rotate(-0 65.16 260.060973)">AF</text>
   </g>
   <g id="text_15">
    <text style="font: 8px 'DejaVu Sans', 'Bitstream Vera Sans', 'Computer Modern Sans Serif', 'Lucida Grande', 'Verdana', 'Geneva', 'Lucid', 'Arial', 'Helvetica', 'Avant Garde', sans-serif" transform="translate(52.200625 149.963773)">R1158</text>
    <text style="font: 8px 'DejaVu Sans', 'Bitstream Vera Sans', 'Computer Modern Sans Serif', 'Lucida Grande', 'Verdana', 'Geneva', 'Lucid', 'Arial', 'Helvetica', 'Avant Garde', sans-serif" transform="translate(45.61625 158.922023)">FKS2-HS1</text>
   </g>
  </g>
  <g id="axes_4">
   <g id="patch_26">
    <path d="M 198.144 217.105773 
C 198.144 214.840085 197.462824 212.625889 196.189319 210.751982 
C 194.915813 208.878076 193.107863 207.429635 191.00128 206.595579 
L 186.84 217.105773 
C 186.84 217.105773 186.84 217.105773 186.84 217.105773 
C 186.84 217.105773 186.84 217.105773 186.84 217.105773 
z
" style="fill: #9370db; stroke: #ffffff; stroke-linejoin: miter"/>
   </g>
   <g id="patch_27">
    <path d="M 191.00128 206.595579 
C 189.884554 206.153436 188.704462 205.892086 187.505476 205.821378 
C 186.306489 205.75067 185.103859 205.871504 183.942905 206.179325 
C 182.781951 206.487147 181.677441 206.97804 180.670996 207.633508 
C 179.664551 208.288975 178.768975 209.100678 178.018015 210.03803 
C 177.267055 210.975381 176.670264 212.026457 176.250131 213.151649 
C 175.829999 214.276841 175.591869 215.461836 175.544715 216.66198 
C 175.497561 217.862123 175.641983 219.062149 175.972539 220.216836 
C 176.303095 221.371522 176.81558 222.466182 177.490681 223.459563 
C 178.165782 224.452945 178.994913 225.332412 179.946827 226.064823 
C 180.898742 226.797235 181.961333 227.373274 183.094556 227.771234 
C 184.22778 228.169194 185.417222 228.384012 186.618061 228.407594 
C 187.818899 228.431175 189.015858 228.26322 190.163832 227.910057 
C 191.311806 227.556894 192.396192 227.023016 193.376127 226.328541 
C 194.356063 225.634066 195.219081 224.787828 195.932662 223.821717 
C 196.646243 222.855606 197.201309 221.781911 197.576943 220.641092 
C 197.952576 219.500273 198.144 218.306842 198.144 217.105773 
L 186.84 217.105773 
C 186.84 217.105773 186.84 217.105773 186.84 217.105773 
C 186.84 217.105773 186.84 217.105773 186.84 217.105773 
C 186.84 217.105773 186.84 217.105773 186.84 217.105773 
C 186.84 217.105773 186.84 217.105773 186.84 217.105773 
C 186.84 217.105773 186.84 217.105773 186.84 217.105773 
C 186.84 217.105773 186.84 217.105773 186.84 217.105773 
C 186.84 217.105773 186.84 217.105773 186.84 217.105773 
C 186.84 217.105773 186.84 217.105773 186.84 217.105773 
C 186.84 217.105773 186.84 217.105773 186.84 217.105773 
C 186.84 217.105773 186.84 217.105773 186.84 217.105773 
C 186.84 217.105773 186.84 217.105773 186.84 217.105773 
C 186.84 217.105773 186.84 217.105773 186.84 217.105773 
C 186.84 217.105773 186.84 217.105773 186.84 217.105773 
C 186.84 217.105773 186.84 217.105773 186.84 217.105773 
C 186.84 217.105773 186.84 217.105773 186.84 217.105773 
C 186.84 217.105773 186.84 217.105773 186.84 217.105773 
z
" style="fill: #87ceeb; stroke: #ffffff; stroke-linejoin: miter"/>
   </g>
   <g id="patch_28">
    <path d="M 209.448 217.105773 
C 209.448 216.39539 209.414518 215.685402 209.347665 214.978172 
C 209.280812 214.270942 209.180663 213.567256 209.04755 212.869456 
L 197.943775 214.987614 
C 198.010331 215.336514 198.060406 215.688357 198.093832 216.041972 
C 198.127259 216.395587 198.144 216.750581 198.144 217.105773 
z
" style="fill: #9370db; stroke: #ffffff; stroke-linejoin: miter"/>
   </g>
   <g id="patch_29">
    <path d="M 209.04755 212.869456 
C 208.508033 210.041207 207.43316 207.341886 205.880847 204.916933 
C 204.328534 202.491981 202.32717 200.385746 199.984589 198.711713 
C 197.642008 197.03768 195.001053 195.826465 192.20402 195.143328 
C 189.406986 194.460192 186.505028 194.317628 183.654504 194.723318 
C 180.80398 195.129008 178.057022 196.075532 175.561638 197.511891 
C 173.066253 198.94825 170.868079 200.848175 169.085554 203.109298 
C 167.303029 205.37042 165.968753 207.951388 165.154616 210.713136 
C 164.34048 213.474884 164.061374 216.366905 164.332335 219.233375 
C 164.603297 222.099846 165.419371 224.888341 166.736587 227.448617 
C 168.053803 230.008893 169.848071 232.294126 172.022715 234.181186 
C 174.197359 236.068245 176.712608 237.52262 179.432939 238.465949 
C 182.153271 239.409277 185.028934 239.824306 187.904986 239.688675 
C 190.781038 239.553043 193.60488 238.869231 196.224363 237.674083 
C 198.843846 236.478935 201.211063 234.794308 203.198468 232.71097 
C 205.185872 230.627633 206.757117 228.183686 207.827544 225.510812 
C 208.89797 222.837937 209.448001 219.985017 209.448 217.105769 
L 198.144 217.105771 
C 198.144 218.545395 197.868985 219.971855 197.333772 221.308292 
C 196.798559 222.64473 196.012936 223.866703 195.019234 224.908371 
C 194.025532 225.95004 192.841923 226.792354 191.532182 227.389928 
C 190.22244 227.987502 188.810519 228.329408 187.372493 228.397224 
C 185.934467 228.46504 184.496635 228.257525 183.13647 227.785861 
C 181.776304 227.314197 180.518679 226.587009 179.431357 225.643479 
C 178.344035 224.699949 177.446901 223.557333 176.788293 222.277195 
C 176.129685 220.997057 175.721648 219.602809 175.586168 218.169574 
C 175.450687 216.736339 175.59024 215.290329 175.997308 213.909454 
C 176.404376 212.52858 177.071514 211.238097 177.962777 210.107535 
C 178.85404 208.976974 179.953127 208.027011 181.200819 207.308832 
C 182.448511 206.590652 183.82199 206.11739 185.247252 205.914545 
C 186.672514 205.7117 188.123493 205.782982 189.52201 206.124551 
C 190.920527 206.466119 192.241004 207.071726 193.412294 207.908743 
C 194.583585 208.745759 195.584267 209.798877 196.360424 211.011353 
C 197.13658 212.223829 197.674016 213.57349 197.943775 214.987614 
z
" style="fill: #87ceeb; stroke: #ffffff; stroke-linejoin: miter"/>
   </g>
   <g id="patch_30">
    <path d="M 220.752 217.105773 
C 220.752 215.684803 220.662688 214.265237 220.484594 212.855472 
C 220.306499 211.445707 220.039973 210.048529 219.686592 208.672201 
L 208.737728 211.483392 
C 208.973315 212.400943 209.150999 213.332396 209.269729 214.272239 
C 209.388459 215.212082 209.448 216.15846 209.448 217.105773 
z
" style="fill: #9370db; stroke: #ffffff; stroke-linejoin: miter"/>
   </g>
   <g id="patch_31">
    <path d="M 219.686592 208.672201 
C 218.62367 204.532394 216.787629 200.630607 214.275385 197.1728 
C 211.76314 193.714992 208.619689 190.763094 205.010959 188.472925 
C 201.402229 186.182755 197.392856 184.595332 193.194476 183.794448 
C 188.996097 182.993564 184.683906 182.993564 180.485526 183.794447 
C 176.287147 184.595331 172.277773 186.182754 168.669043 188.472923 
C 165.060313 190.763093 161.916861 193.71499 159.404617 197.172798 
C 156.892372 200.630605 155.05633 204.532392 153.993408 208.672199 
C 152.930486 212.812006 152.659721 217.115688 153.195406 221.356071 
C 153.731091 225.596454 155.063631 229.697591 157.122687 233.443001 
C 159.181743 237.188411 161.930436 240.511011 165.223675 243.235416 
C 168.516914 245.959821 172.295716 248.037235 176.360613 249.358 
C 180.425509 250.678766 184.703697 251.219227 188.969348 250.950855 
C 193.235 250.682484 197.411716 249.610086 201.279024 247.790269 
C 205.146332 245.970453 208.634968 243.435811 211.560781 240.320137 
C 214.486594 237.204463 216.797182 233.563561 218.370579 229.589617 
C 219.943975 225.615673 220.751999 221.379863 220.752 217.105777 
L 209.448 217.105776 
C 209.448 219.955166 208.909317 222.779039 207.860386 225.428335 
C 206.811455 228.077631 205.271063 230.5049 203.320521 232.582016 
C 201.369979 234.659132 199.044221 236.348893 196.466016 237.562104 
C 193.88781 238.775315 191.103333 239.490247 188.259566 239.669161 
C 185.415798 239.848076 182.563673 239.487768 179.853742 238.607258 
C 177.143811 237.726747 174.62461 236.341805 172.429117 234.525535 
C 170.233624 232.709265 168.401162 230.494198 167.028458 227.997258 
C 165.655754 225.500318 164.767394 222.766227 164.410271 219.939305 
C 164.053148 217.112383 164.233658 214.243262 164.942272 211.48339 
C 165.650887 208.723519 166.874915 206.122328 168.549745 203.817123 
C 170.224574 201.511918 172.320209 199.543986 174.726029 198.017206 
C 177.131849 196.490427 179.804764 195.432145 182.603684 194.898222 
C 185.402604 194.3643 188.277398 194.3643 191.076317 194.898223 
C 193.875237 195.432145 196.548153 196.490428 198.953973 198.017207 
C 201.359792 199.543987 203.455427 201.511919 205.130256 203.817124 
C 206.805086 206.122329 208.029114 208.72352 208.737728 211.483392 
z
" style="fill: #87ceeb; stroke: #ffffff; stroke-linejoin: miter"/>
   </g>
   <g id="patch_32">
    <path d="M 232.056 217.105773 
C 232.056 211.04853 230.838836 205.052587 228.476949 199.474803 
C 226.115063 193.897018 222.656259 188.850287 218.306393 184.634975 
C 213.956528 180.419662 208.803644 177.121086 203.154423 174.935567 
C 197.505202 172.750048 191.473986 171.721822 185.419732 171.912084 
C 179.365478 172.102346 173.410727 173.507247 167.909883 176.04317 
C 162.409039 178.579094 157.473442 182.194712 153.396842 186.674837 
C 149.320241 191.154962 146.185149 196.408914 144.178155 202.123997 
C 142.17116 207.839079 141.332886 213.899616 141.713223 219.944906 
L 152.994917 219.235123 
C 152.709665 214.701155 153.33837 210.155752 154.843616 205.869441 
C 156.348862 201.583129 158.700181 197.642665 161.757631 194.282571 
C 164.815082 190.922478 168.516779 188.210764 172.642412 186.308821 
C 176.768045 184.406878 181.234109 183.353203 185.774799 183.210506 
C 190.31549 183.067809 194.838902 183.838979 199.075817 185.478118 
C 203.312733 187.117258 207.177396 189.591189 210.439795 192.752674 
C 213.702194 195.914159 216.296297 199.699207 218.067712 203.882545 
C 219.839127 208.065884 220.752 212.562841 220.752 217.105773 
z
" style="fill: #9370db; stroke: #ffffff; stroke-linejoin: miter"/>
   </g>
   <g id="patch_33">
    <path d="M 141.713223 219.944906 
C 142.450506 231.663688 147.724352 242.64645 156.409065 250.548931 
C 165.093777 258.451412 176.524109 262.668285 188.260268 262.299461 
C 199.996426 261.930638 211.139423 257.004371 219.310798 248.572166 
C 227.482173 240.139962 232.056 228.847725 232.056 217.105773 
L 220.752 217.105773 
C 220.752 225.912237 217.32163 234.381414 211.193099 240.705568 
C 205.064568 247.029721 196.707319 250.724422 187.905201 251.001039 
C 179.103082 251.277657 170.530333 248.115002 164.016799 242.188141 
C 157.503264 236.261281 153.547879 228.024209 152.994917 219.235123 
z
" style="fill: #87ceeb; stroke: #ffffff; stroke-linejoin: miter"/>
   </g>
   <g id="matplotlib.axis_7"/>
   <g id="matplotlib.axis_8"/>
   <g id="line2d_7">
    <path d="M 186.84 217.105773 
L 200.812512 174.102801 
" style="fill: none; stroke-dasharray: 7.4,3.2; stroke-dashoffset: 0; stroke: #000000; stroke-width: 2"/>
   </g>
   <g id="line2d_8">
    <path d="M 186.84 217.105773 
L 203.48512 175.064999 
" style="fill: none; stroke: #000000; stroke-width: 2; stroke-linecap: square"/>
   </g>
   <g id="text_16">
    <text style="font: 8px 'DejaVu Sans', 'Bitstream Vera Sans', 'Computer Modern Sans Serif', 'Lucida Grande', 'Verdana', 'Geneva', 'Lucid', 'Arial', 'Helvetica', 'Avant Garde', sans-serif; text-anchor: middle" x="186.84" y="226.148973" transform="rotate(-0 186.84 226.148973)">ctrl</text>
   </g>
   <g id="text_17">
    <text style="font: 8px 'DejaVu Sans', 'Bitstream Vera Sans', 'Computer Modern Sans Serif', 'Lucida Grande', 'Verdana', 'Geneva', 'Lucid', 'Arial', 'Helvetica', 'Avant Garde', sans-serif; text-anchor: middle" x="186.84" y="237.452973" transform="rotate(-0 186.84 237.452973)">CF</text>
   </g>
   <g id="text_18">
    <text style="font: 8px 'DejaVu Sans', 'Bitstream Vera Sans', 'Computer Modern Sans Serif', 'Lucida Grande', 'Verdana', 'Geneva', 'Lucid', 'Arial', 'Helvetica', 'Avant Garde', sans-serif; text-anchor: middle" x="186.84" y="248.756973" transform="rotate(-0 186.84 248.756973)">MF</text>
   </g>
   <g id="text_19">
    <text style="font: 8px 'DejaVu Sans', 'Bitstream Vera Sans', 'Computer Modern Sans Serif', 'Lucida Grande', 'Verdana', 'Geneva', 'Lucid', 'Arial', 'Helvetica', 'Avant Garde', sans-serif; text-anchor: middle" x="186.84" y="260.060973" transform="rotate(-0 186.84 260.060973)">AF</text>
   </g>
   <g id="text_20">
    <text style="font: 8px 'DejaVu Sans', 'Bitstream Vera Sans', 'Computer Modern Sans Serif', 'Lucida Grande', 'Verdana', 'Geneva', 'Lucid', 'Arial', 'Helvetica', 'Avant Garde', sans-serif" transform="translate(173.880625 149.963773)">R1158</text>
    <text style="font: 8px 'DejaVu Sans', 'Bitstream Vera Sans', 'Computer Modern Sans Serif', 'Lucida Grande', 'Verdana', 'Geneva', 'Lucid', 'Arial', 'Helvetica', 'Avant Garde', sans-serif" transform="translate(167.29625 158.922023)">FKS2-HS2</text>
   </g>
  </g>
 </g>
</svg>
