<?xml version="1.0" encoding="utf-8" standalone="no"?>
<!DOCTYPE svg PUBLIC "-//W3C//DTD SVG 1.1//EN"
  "http://www.w3.org/Graphics/SVG/1.1/DTD/svg11.dtd">
<svg xmlns:xlink="http://www.w3.org/1999/xlink" width="144pt" height="144pt" viewBox="0 0 144 144" xmlns="http://www.w3.org/2000/svg" version="1.1">
 <metadata>
  <rdf:RDF xmlns:dc="http://purl.org/dc/elements/1.1/" xmlns:cc="http://creativecommons.org/ns#" xmlns:rdf="http://www.w3.org/1999/02/22-rdf-syntax-ns#">
   <cc:Work>
    <dc:type rdf:resource="http://purl.org/dc/dcmitype/StillImage"/>
    <dc:date>2024-06-21T11:01:12.598705</dc:date>
    <dc:format>image/svg+xml</dc:format>
    <dc:creator>
     <cc:Agent>
      <dc:title>Matplotlib v3.7.0, https://matplotlib.org/</dc:title>
     </cc:Agent>
    </dc:creator>
   </cc:Work>
  </rdf:RDF>
 </metadata>
 <defs>
  <style type="text/css">*{stroke-linejoin: round; stroke-linecap: butt}</style>
 </defs>
 <g id="figure_1">
  <g id="patch_1">
   <path d="M 0 144 
L 144 144 
L 144 0 
L 0 0 
z
" style="fill: #ffffff"/>
  </g>
  <g id="axes_1">
   <g id="patch_2">
    <path d="M 18 128.16 
L 129.6 128.16 
L 129.6 17.28 
L 18 17.28 
z
" style="fill: #ffffff"/>
   </g>
   <g id="patch_3">
    <path d="M 24.975 128.16 
L 38.925 128.16 
L 38.925 38.4 
L 24.975 38.4 
z
" clip-path="url(#pb305de77e8)" style="fill: #87ceeb"/>
   </g>
   <g id="patch_4">
    <path d="M 52.875 128.16 
L 66.825 128.16 
L 66.825 44.736 
L 52.875 44.736 
z
" clip-path="url(#pb305de77e8)" style="fill: #87ceeb"/>
   </g>
   <g id="patch_5">
    <path d="M 80.775 128.16 
L 94.725 128.16 
L 94.725 45.792 
L 80.775 45.792 
z
" clip-path="url(#pb305de77e8)" style="fill: #87ceeb"/>
   </g>
   <g id="patch_6">
    <path d="M 108.675 128.16 
L 122.625 128.16 
L 122.625 48.96 
L 108.675 48.96 
z
" clip-path="url(#pb305de77e8)" style="fill: #87ceeb"/>
   </g>
   <g id="patch_7">
    <path d="M 24.975 38.4 
L 38.925 38.4 
L 38.925 22.56 
L 24.975 22.56 
z
" clip-path="url(#pb305de77e8)" style="fill: #9370db"/>
   </g>
   <g id="patch_8">
    <path d="M 52.875 44.736 
L 66.825 44.736 
L 66.825 22.56 
L 52.875 22.56 
z
" clip-path="url(#pb305de77e8)" style="fill: #9370db"/>
   </g>
   <g id="patch_9">
    <path d="M 80.775 45.792 
L 94.725 45.792 
L 94.725 22.56 
L 80.775 22.56 
z
" clip-path="url(#pb305de77e8)" style="fill: #9370db"/>
   </g>
   <g id="patch_10">
    <path d="M 108.675 48.96 
L 122.625 48.96 
L 122.625 22.56 
L 108.675 22.56 
z
" clip-path="url(#pb305de77e8)" style="fill: #9370db"/>
   </g>
   <g id="matplotlib.axis_1">
    <g id="xtick_1">
     <g id="line2d_1">
      <defs>
       <path id="m91a90c4e22" d="M 0 0 
L 0 2 
" style="stroke: #000000; stroke-width: 0.8"/>
      </defs>
      <g>
       <use xlink:href="#m91a90c4e22" x="31.95" y="128.16" style="stroke: #000000; stroke-width: 0.8"/>
      </g>
     </g>
     <g id="text_1">
      <text style="font: 8px 'Arial'; text-anchor: middle" x="31.95" y="136.88625" transform="rotate(-0 31.95 136.88625)">ctrl</text>
     </g>
    </g>
    <g id="xtick_2">
     <g id="line2d_2">
      <g>
       <use xlink:href="#m91a90c4e22" x="59.85" y="128.16" style="stroke: #000000; stroke-width: 0.8"/>
      </g>
     </g>
     <g id="text_2">
      <text style="font: 8px 'Arial'; text-anchor: middle" x="59.85" y="136.88625" transform="rotate(-0 59.85 136.88625)">AF</text>
     </g>
    </g>
    <g id="xtick_3">
     <g id="line2d_3">
      <g>
       <use xlink:href="#m91a90c4e22" x="87.75" y="128.16" style="stroke: #000000; stroke-width: 0.8"/>
      </g>
     </g>
     <g id="text_3">
      <text style="font: 8px 'Arial'; text-anchor: middle" x="87.75" y="136.88625" transform="rotate(-0 87.75 136.88625)">CF</text>
     </g>
    </g>
    <g id="xtick_4">
     <g id="line2d_4">
      <g>
       <use xlink:href="#m91a90c4e22" x="115.65" y="128.16" style="stroke: #000000; stroke-width: 0.8"/>
      </g>
     </g>
     <g id="text_4">
      <text style="font: 8px 'Arial'; text-anchor: middle" x="115.65" y="136.88625" transform="rotate(-0 115.65 136.88625)">MF</text>
     </g>
    </g>
   </g>
   <g id="matplotlib.axis_2">
    <g id="ytick_1">
     <g id="line2d_5">
      <defs>
       <path id="m4babe5c282" d="M 0 0 
L -2 0 
" style="stroke: #000000; stroke-width: 0.8"/>
      </defs>
      <g>
       <use xlink:href="#m4babe5c282" x="18" y="128.16" style="stroke: #000000; stroke-width: 0.8"/>
      </g>
     </g>
     <g id="text_5">
      <text style="font: 8px 'Arial'; text-anchor: end" x="15" y="131.023125" transform="rotate(-0 15 131.023125)">0.00</text>
     </g>
    </g>
    <g id="ytick_2">
     <g id="line2d_6">
      <g>
       <use xlink:href="#m4babe5c282" x="18" y="101.76" style="stroke: #000000; stroke-width: 0.8"/>
      </g>
     </g>
     <g id="text_6">
      <text style="font: 8px 'Arial'; text-anchor: end" x="15" y="104.623125" transform="rotate(-0 15 104.623125)">0.25</text>
     </g>
    </g>
    <g id="ytick_3">
     <g id="line2d_7">
      <g>
       <use xlink:href="#m4babe5c282" x="18" y="75.36" style="stroke: #000000; stroke-width: 0.8"/>
      </g>
     </g>
     <g id="text_7">
      <text style="font: 8px 'Arial'; text-anchor: end" x="15" y="78.223125" transform="rotate(-0 15 78.223125)">0.50</text>
     </g>
    </g>
    <g id="ytick_4">
     <g id="line2d_8">
      <g>
       <use xlink:href="#m4babe5c282" x="18" y="48.96" style="stroke: #000000; stroke-width: 0.8"/>
      </g>
     </g>
     <g id="text_8">
      <text style="font: 8px 'Arial'; text-anchor: end" x="15" y="51.823125" transform="rotate(-0 15 51.823125)">0.75</text>
     </g>
    </g>
    <g id="ytick_5">
     <g id="line2d_9">
      <g>
       <use xlink:href="#m4babe5c282" x="18" y="22.56" style="stroke: #000000; stroke-width: 0.8"/>
      </g>
     </g>
     <g id="text_9">
      <text style="font: 8px 'Arial'; text-anchor: end" x="15" y="25.423125" transform="rotate(-0 15 25.423125)">1.00</text>
     </g>
    </g>
    <g id="text_10">
     <text style="font: 8px 'Arial'; text-anchor: middle" x="-6.15875" y="72.72" transform="rotate(-90 -6.15875 72.72)">Ratio</text>
    </g>
   </g>
   <g id="line2d_10">
    <path d="M 18 38.4 
L 129.6 38.4 
" clip-path="url(#pb305de77e8)" style="fill: none; stroke-dasharray: 5.55,2.4; stroke-dashoffset: 0; stroke: #000000; stroke-width: 1.5"/>
   </g>
   <g id="line2d_11">
    <path d="M 18 37.344 
L 129.6 37.344 
" clip-path="url(#pb305de77e8)" style="fill: none; stroke: #000000; stroke-width: 1.5; stroke-linecap: square"/>
   </g>
   <g id="patch_11">
    <path d="M 18 128.16 
L 18 17.28 
" style="fill: none; stroke: #000000; stroke-linejoin: miter; stroke-linecap: square"/>
   </g>
   <g id="patch_12">
    <path d="M 129.6 128.16 
L 129.6 17.28 
" style="fill: none; stroke: #000000; stroke-linejoin: miter; stroke-linecap: square"/>
   </g>
   <g id="patch_13">
    <path d="M 18 128.16 
L 129.6 128.16 
" style="fill: none; stroke: #000000; stroke-linejoin: miter; stroke-linecap: square"/>
   </g>
   <g id="patch_14">
    <path d="M 18 17.28 
L 129.6 17.28 
" style="fill: none; stroke: #000000; stroke-linejoin: miter; stroke-linecap: square"/>
   </g>
   <g id="legend_1">
    <g id="patch_15">
     <path d="M 23.6 124.16 
L 108.34 124.16 
Q 109.94 124.16 109.94 122.56 
L 109.94 100.63375 
Q 109.94 99.03375 108.34 99.03375 
L 23.6 99.03375 
Q 22 99.03375 22 100.63375 
L 22 122.56 
Q 22 124.16 23.6 124.16 
z
" style="fill: #ffffff; opacity: 0.8; stroke: #cccccc; stroke-linejoin: miter"/>
    </g>
    <g id="patch_16">
     <path d="M 25.2 107.96 
L 41.2 107.96 
L 41.2 102.36 
L 25.2 102.36 
z
" style="fill: #87ceeb"/>
    </g>
    <g id="text_11">
     <text style="font: 8px 'Arial'; text-anchor: start" x="47.6" y="107.96" transform="rotate(-0 47.6 107.96)">NNK variants</text>
    </g>
    <g id="patch_17">
     <path d="M 25.2 119.27625 
L 41.2 119.27625 
L 41.2 113.67625 
L 25.2 113.67625 
z
" style="fill: #9370db"/>
    </g>
    <g id="text_12">
     <text style="font: 8px 'Arial'; text-anchor: start" x="47.6" y="119.27625" transform="rotate(-0 47.6 119.27625)">ortholog variants</text>
    </g>
   </g>
  </g>
 </g>
 <defs>
  <clipPath id="pb305de77e8">
   <rect x="18" y="17.28" width="111.6" height="110.88"/>
  </clipPath>
 </defs>
</svg>
